<svg width="20" height="20" viewBox="0 0 20 20" fill="none" xmlns="http://www.w3.org/2000/svg">
    <path d="M8.90253 0.490064C9.23596 0.296675 9.61457 0.194824 10 0.194824C10.3855 0.194824 10.7641 0.296675 11.0975 0.490064L17.3513 4.11756C18.3888 4.71881 18.3888 6.21756 17.3513 6.82006L11.0975 10.4476C10.7641 10.641 10.3855 10.7428 10 10.7428C9.61457 10.7428 9.23596 10.641 8.90253 10.4476L2.64878 6.82006C2.41246 6.68242 2.21637 6.4852 2.08008 6.2481C1.94379 6.011 1.87207 5.7423 1.87207 5.46881C1.87207 5.19533 1.94379 4.92663 2.08008 4.68953C2.21637 4.45242 2.41246 4.25521 2.64878 4.11756L8.90253 0.490064ZM10.1563 2.11256C10.1089 2.08489 10.0549 2.07031 10 2.07031C9.94512 2.07031 9.8912 2.08489 9.84378 2.11256L4.05628 5.46881L9.84378 8.82506C9.8912 8.85274 9.94512 8.86732 10 8.86732C10.0549 8.86732 10.1089 8.85274 10.1563 8.82506L15.9438 5.46881L10.1563 2.11256ZM2.00128 9.73631C2.06299 9.62977 2.14509 9.53643 2.24288 9.46162C2.34067 9.38681 2.45224 9.332 2.57122 9.30031C2.6902 9.26862 2.81425 9.26068 2.9363 9.27693C3.05835 9.29319 3.17599 9.33333 3.28253 9.39506L9.84378 13.2001C9.8912 13.2277 9.94512 13.2423 10 13.2423C10.0549 13.2423 10.1089 13.2277 10.1563 13.2001L16.7175 9.39506C16.9327 9.27041 17.1885 9.23634 17.4288 9.30033C17.6691 9.36433 17.8741 9.52116 17.9988 9.73631C18.1234 9.95147 18.1575 10.2073 18.0935 10.4476C18.0295 10.6879 17.8727 10.8929 17.6575 11.0176L11.0975 14.8226C10.7641 15.016 10.3855 15.1178 10 15.1178C9.61457 15.1178 9.23596 15.016 8.90253 14.8226L2.34253 11.0176C2.23588 10.956 2.14242 10.8739 2.06749 10.7762C1.99255 10.6784 1.93761 10.5669 1.9058 10.4479C1.874 10.3289 1.86595 10.2048 1.88211 10.0827C1.89828 9.96064 1.9396 9.84292 2.00128 9.73631ZM2.00128 14.1113C2.06299 14.0048 2.14509 13.9114 2.24288 13.8366C2.34067 13.7618 2.45224 13.707 2.57122 13.6753C2.6902 13.6436 2.81425 13.6357 2.9363 13.6519C3.05835 13.6682 3.17599 13.7083 3.28253 13.7701L9.84378 17.5751C9.8912 17.6027 9.94512 17.6173 10 17.6173C10.0549 17.6173 10.1089 17.6027 10.1563 17.5751L16.7175 13.7701C16.9327 13.6454 17.1885 13.6113 17.4288 13.6753C17.6691 13.7393 17.8741 13.8962 17.9988 14.1113C18.1234 14.3265 18.1575 14.5823 18.0935 14.8226C18.0295 15.0629 17.8727 15.2679 17.6575 15.3926L11.0975 19.1976C10.7641 19.391 10.3855 19.4928 10 19.4928C9.61457 19.4928 9.23596 19.391 8.90253 19.1976L2.34253 15.3926C2.23599 15.3308 2.14264 15.2487 2.06783 15.151C1.99302 15.0532 1.93821 14.9416 1.90652 14.8226C1.87483 14.7036 1.86689 14.5796 1.88315 14.4575C1.89941 14.3355 1.93955 14.2178 2.00128 14.1113Z" fill="white"/>
    </svg>
    