<svg width="18" height="18" viewBox="0 0 18 18" fill="none" xmlns="http://www.w3.org/2000/svg">
<path d="M11.3422 3.90393C12.2426 2.99976 13.5599 2.98093 14.2889 3.71305C15.0198 4.44644 15.0003 5.77255 14.0986 6.67672L12.5772 8.20439C12.4916 8.29333 12.4443 8.41235 12.4455 8.53583C12.4468 8.65931 12.4965 8.77736 12.5839 8.86455C12.6713 8.95174 12.7895 9.0011 12.913 9.002C13.0365 9.00289 13.1554 8.95525 13.2441 8.86933L14.7661 7.34166C15.966 6.13673 16.1167 4.21349 14.9563 3.04811C13.7947 1.88211 11.8753 2.03406 10.6741 3.23899L7.63131 6.29496C6.4314 7.49989 6.28071 9.42314 7.44106 10.5879C7.4844 10.633 7.53628 10.6689 7.59367 10.6937C7.65106 10.7186 7.71282 10.7317 7.77534 10.7324C7.83786 10.7331 7.8999 10.7213 7.95782 10.6977C8.01574 10.6742 8.0684 10.6394 8.11271 10.5953C8.15703 10.5511 8.19212 10.4987 8.21593 10.4408C8.23975 10.383 8.25181 10.3211 8.25142 10.2585C8.25103 10.196 8.23819 10.1342 8.21366 10.0767C8.18912 10.0192 8.15338 9.96712 8.10851 9.92357C7.37764 9.19019 7.39774 7.86407 8.29877 6.9599L11.3422 3.90393Z" fill="white"/>
<path d="M10.5605 7.4114C10.4722 7.32289 10.3524 7.27307 10.2274 7.27289C10.1024 7.27271 9.98249 7.3222 9.89398 7.41046C9.80547 7.49872 9.75564 7.61852 9.75547 7.74352C9.75529 7.86851 9.80477 7.98846 9.89303 8.07697C10.6239 8.81035 10.6044 10.1358 9.70278 11.0406L6.65937 14.096C5.75834 15.0001 4.44102 15.019 3.71203 14.2869C2.98116 13.5535 3.00125 12.2274 3.90228 11.3232L5.4243 9.79552C5.46796 9.75169 5.50256 9.6997 5.52613 9.6425C5.54969 9.5853 5.56176 9.52402 5.56165 9.46216C5.56153 9.4003 5.54923 9.33906 5.52545 9.28196C5.50167 9.22485 5.46687 9.17298 5.42305 9.12932C5.37922 9.08566 5.32722 9.05106 5.27003 9.02749C5.21283 9.00393 5.15155 8.99186 5.08969 8.99198C5.02782 8.99209 4.96659 9.00439 4.90948 9.02817C4.85237 9.05195 4.80051 9.08675 4.75685 9.13058L3.23483 10.6582C2.03492 11.8638 1.88423 13.7864 3.04458 14.9518C4.20618 16.1184 6.12566 15.9659 7.32682 14.7609L10.3702 11.705C11.5701 10.5006 11.7208 8.57615 10.5605 7.4114Z" fill="white"/>
</svg>
