<svg width="24" height="24" viewBox="0 0 24 24" fill="none" xmlns="http://www.w3.org/2000/svg">
<path fill-rule="evenodd" clip-rule="evenodd" d="M4.72656 5.42705C4.72656 5.04045 5.03996 4.72705 5.42656 4.72705H11.7237C12.1103 4.72705 12.4237 5.04045 12.4237 5.42705C12.4237 5.81365 12.1103 6.12705 11.7237 6.12705H6.12656V17.3271H11.7266C12.1132 17.3271 12.4266 17.6405 12.4266 18.0271C12.4266 18.4136 12.1132 18.7271 11.7266 18.7271H5.42656C5.03996 18.7271 4.72656 18.4136 4.72656 18.0271V5.42705ZM14.3818 8.08213C14.6552 7.80876 15.0984 7.80876 15.3717 8.08213L18.4799 11.1903C18.6311 11.3187 18.7271 11.5102 18.7271 11.7241C18.7271 11.7505 18.7256 11.7766 18.7227 11.8023C18.7063 11.9556 18.6393 12.1045 18.5217 12.2221L15.3717 15.3721C15.0984 15.6454 14.6552 15.6454 14.3818 15.3721C14.1084 15.0987 14.1084 14.6555 14.3818 14.3821L16.3398 12.4241H8.92705C8.54045 12.4241 8.22705 12.1107 8.22705 11.7241C8.22705 11.3375 8.54045 11.0241 8.92705 11.0241H16.3338L14.3818 9.07208C14.1084 8.79871 14.1084 8.3555 14.3818 8.08213Z" fill="white"/>
</svg>
