<svg width="80" height="80" viewBox="0 0 80 80" fill="none" xmlns="http://www.w3.org/2000/svg">
<path d="M61.6106 65.9389L45.5341 48.8682L48.9313 45.2616L65.0078 62.3256C65.4646 62.8105 65.693 63.4122 65.693 64.1305C65.693 64.8512 65.4646 65.4528 65.0078 65.9355C64.5531 66.4205 63.9874 66.6629 63.3108 66.6629C62.632 66.6629 62.0653 66.4239 61.6106 65.9389ZM17.1176 65.9355C16.6608 65.4528 16.4324 64.8523 16.4324 64.1339C16.4324 63.4133 16.6608 62.8117 17.1176 62.329L37.6959 40.4824L28.1864 30.4547C27.7232 30.9465 27.1405 31.1924 26.4382 31.1924C25.7359 31.1924 25.1532 30.9465 24.69 30.4547L23.4028 29.0237V35.5603C23.4028 36.179 23.1339 36.5971 22.596 36.8146C22.0581 37.0322 21.5842 36.9234 21.1744 36.4883L13.7428 28.5988C13.333 28.1614 13.2305 27.6572 13.4355 27.0861C13.6404 26.5151 14.0342 26.2295 14.617 26.2295H20.7741L19.567 24.9514C19.0505 24.4008 18.7922 23.7493 18.7922 22.9969C18.7922 22.2423 19.0505 21.5908 19.567 21.0424L24.626 15.6683C25.3667 14.8842 26.1767 14.3018 27.0562 13.9211C27.9335 13.5426 28.8695 13.3534 29.8642 13.3534C30.6028 13.3534 31.305 13.4576 31.971 13.6661C32.637 13.8746 33.2806 14.2327 33.9017 14.7403C34.2048 14.9782 34.3799 15.2977 34.4268 15.6988C34.4759 16.1 34.3543 16.4557 34.0618 16.7662L29.8258 21.2633L31.5868 23.1329C32.05 23.6246 32.2816 24.2433 32.2816 24.9888C32.2816 25.7344 32.05 26.353 31.5868 26.8448L41.0963 36.8724L49.2835 28.1807C48.7818 27.4261 48.4339 26.6544 48.2397 25.8658C48.0454 25.0772 47.9483 24.2116 47.9483 23.2688C47.9483 20.4928 48.8544 18.1429 50.6667 16.2189C52.4789 14.295 54.6925 13.333 57.3073 13.333C57.6104 13.333 57.8772 13.3364 58.1078 13.3432C58.3362 13.35 58.5966 13.3885 58.889 13.4588C59.2049 13.5857 59.4184 13.8304 59.5294 14.193C59.6447 14.5556 59.5764 14.8706 59.3245 15.138L54.7394 20.009C54.4598 20.3036 54.32 20.6345 54.32 21.0016C54.32 21.3687 54.4587 21.6996 54.7362 21.9942L58.508 25.995C58.7855 26.2919 59.0971 26.4403 59.4429 26.4403C59.7887 26.4403 60.1004 26.293 60.3779 25.9984L64.9661 21.1274C65.2159 20.86 65.5126 20.7829 65.8563 20.8962C66.1999 21.0095 66.4305 21.2407 66.5479 21.5896C66.614 21.9001 66.6503 22.1766 66.6567 22.419C66.6631 22.6638 66.6663 22.9471 66.6663 23.2688C66.6663 26.0449 65.7591 28.3948 63.9448 30.3188C62.1346 32.245 59.9222 33.2081 57.3073 33.2081C56.4193 33.2081 55.6039 33.1061 54.8611 32.9022C54.1183 32.7027 53.3925 32.3311 52.6838 31.7872L20.5116 65.9389C20.0569 66.4239 19.4912 66.6663 18.8146 66.6663C18.1358 66.6663 17.5691 66.4239 17.1144 65.9389" fill="#F2994A"/>
</svg>
