<svg width="79" height="30" viewBox="0 0 79 30" fill="none" xmlns="http://www.w3.org/2000/svg">
<rect width="79" height="30" rx="8" fill="#1E2530"/>
<path d="M10.5472 20.5V10H12.9772V18.52H18.2422V20.5H10.5472ZM22.796 20.62C22.126 20.62 21.526 20.49 20.996 20.23C20.476 19.97 20.071 19.575 19.781 19.045C19.491 18.505 19.346 17.82 19.346 16.99V12.43H21.686V16.645C21.686 17.315 21.826 17.81 22.106 18.13C22.396 18.44 22.801 18.595 23.321 18.595C23.681 18.595 24.001 18.52 24.281 18.37C24.561 18.21 24.781 17.97 24.941 17.65C25.101 17.32 25.181 16.91 25.181 16.42V12.43H27.521V20.5H25.301V18.28L25.706 18.925C25.436 19.485 25.036 19.91 24.506 20.2C23.986 20.48 23.416 20.62 22.796 20.62ZM26.021 13.99V12.43H26.426C26.706 12.43 26.926 12.345 27.086 12.175C27.246 11.995 27.326 11.765 27.326 11.485C27.326 11.305 27.296 11.14 27.236 10.99C27.186 10.83 27.116 10.695 27.026 10.585L28.406 10.075C28.556 10.275 28.671 10.5 28.751 10.75C28.841 11 28.886 11.275 28.886 11.575C28.886 12.325 28.661 12.915 28.211 13.345C27.771 13.775 27.156 13.99 26.366 13.99H26.021ZM33.2257 20.62C32.5557 20.62 31.9557 20.49 31.4257 20.23C30.9057 19.97 30.5007 19.575 30.2107 19.045C29.9207 18.505 29.7757 17.82 29.7757 16.99V12.43H32.1157V16.645C32.1157 17.315 32.2557 17.81 32.5357 18.13C32.8257 18.44 33.2307 18.595 33.7507 18.595C34.1107 18.595 34.4307 18.52 34.7107 18.37C34.9907 18.21 35.2107 17.97 35.3707 17.65C35.5307 17.32 35.6107 16.91 35.6107 16.42V12.43H37.9507V20.5H35.7307V18.28L36.1357 18.925C35.8657 19.485 35.4657 19.91 34.9357 20.2C34.4157 20.48 33.8457 20.62 33.2257 20.62ZM47.6666 20.62C46.7166 20.62 45.9766 20.38 45.4466 19.9C44.9166 19.41 44.6516 18.685 44.6516 17.725V10.645H46.9916V17.695C46.9916 18.035 47.0816 18.3 47.2616 18.49C47.4416 18.67 47.6866 18.76 47.9966 18.76C48.3666 18.76 48.6816 18.66 48.9416 18.46L49.5716 20.11C49.3316 20.28 49.0416 20.41 48.7016 20.5C48.3716 20.58 48.0266 20.62 47.6666 20.62ZM43.4066 14.41V12.61H49.0016V14.41H43.4066ZM55.7902 12.31C56.4302 12.31 57.0002 12.44 57.5002 12.7C58.0102 12.95 58.4102 13.34 58.7002 13.87C58.9902 14.39 59.1352 15.06 59.1352 15.88V20.5H56.7952V16.24C56.7952 15.59 56.6502 15.11 56.3602 14.8C56.0802 14.49 55.6802 14.335 55.1602 14.335C54.7902 14.335 54.4552 14.415 54.1552 14.575C53.8652 14.725 53.6352 14.96 53.4652 15.28C53.3052 15.6 53.2252 16.01 53.2252 16.51V20.5H50.8852V9.37H53.2252V14.665L52.7002 13.99C52.9902 13.45 53.4052 13.035 53.9452 12.745C54.4852 12.455 55.1002 12.31 55.7902 12.31ZM65.3199 20.62C64.3999 20.62 63.5899 20.44 62.8899 20.08C62.1999 19.72 61.6649 19.23 61.2849 18.61C60.9049 17.98 60.7149 17.265 60.7149 16.465C60.7149 15.655 60.8999 14.94 61.2699 14.32C61.6499 13.69 62.1649 13.2 62.8149 12.85C63.4649 12.49 64.1999 12.31 65.0199 12.31C65.8099 12.31 66.5199 12.48 67.1499 12.82C67.7899 13.15 68.2949 13.63 68.6649 14.26C69.0349 14.88 69.2199 15.625 69.2199 16.495C69.2199 16.585 69.2149 16.69 69.2049 16.81C69.1949 16.92 69.1849 17.025 69.1749 17.125H62.6199V15.76H67.9449L67.0449 16.165C67.0449 15.745 66.9599 15.38 66.7899 15.07C66.6199 14.76 66.3849 14.52 66.0849 14.35C65.7849 14.17 65.4349 14.08 65.0349 14.08C64.6349 14.08 64.2799 14.17 63.9699 14.35C63.6699 14.52 63.4349 14.765 63.2649 15.085C63.0949 15.395 63.0099 15.765 63.0099 16.195V16.555C63.0099 16.995 63.1049 17.385 63.2949 17.725C63.4949 18.055 63.7699 18.31 64.1199 18.49C64.4799 18.66 64.8999 18.745 65.3799 18.745C65.8099 18.745 66.1849 18.68 66.5049 18.55C66.8349 18.42 67.1349 18.225 67.4049 17.965L68.6499 19.315C68.2799 19.735 67.8149 20.06 67.2549 20.29C66.6949 20.51 66.0499 20.62 65.3199 20.62ZM65.4249 11.545L64.6899 10.765C64.9799 10.625 65.1799 10.48 65.2899 10.33C65.3999 10.18 65.4549 10.02 65.4549 9.85C65.4549 9.66 65.3899 9.51 65.2599 9.4C65.1299 9.28 64.9599 9.22 64.7499 9.22C64.4499 9.22 64.1549 9.315 63.8649 9.505L63.3699 8.56C63.5999 8.39 63.8549 8.265 64.1349 8.185C64.4249 8.095 64.7149 8.05 65.0049 8.05C65.5349 8.05 65.9649 8.2 66.2949 8.5C66.6349 8.79 66.8049 9.175 66.8049 9.655C66.8049 10.085 66.6899 10.455 66.4599 10.765C66.2299 11.075 65.8849 11.335 65.4249 11.545Z" fill="#1B94D2"/>
</svg>
