<svg width="73" height="19" viewBox="0 0 73 19" fill="none" xmlns="http://www.w3.org/2000/svg">
<path d="M-0.0079999 18V1.2H7.264C8.768 1.2 10.064 1.448 11.152 1.944C12.24 2.424 13.08 3.12 13.672 4.032C14.264 4.944 14.56 6.032 14.56 7.296C14.56 8.544 14.264 9.624 13.672 10.536C13.08 11.448 12.24 12.152 11.152 12.648C10.064 13.128 8.768 13.368 7.264 13.368H2.152L3.88 11.616V18H-0.0079999ZM3.88 12.048L2.152 10.2H7.048C8.248 10.2 9.144 9.944 9.736 9.432C10.328 8.92 10.624 8.208 10.624 7.296C10.624 6.368 10.328 5.648 9.736 5.136C9.144 4.624 8.248 4.368 7.048 4.368H2.152L3.88 2.52V12.048ZM17.3358 18V1.2H24.6078C26.1118 1.2 27.4078 1.448 28.4958 1.944C29.5838 2.424 30.4238 3.12 31.0158 4.032C31.6078 4.944 31.9038 6.032 31.9038 7.296C31.9038 8.544 31.6078 9.624 31.0158 10.536C30.4238 11.432 29.5838 12.12 28.4958 12.6C27.4078 13.08 26.1118 13.32 24.6078 13.32H19.4958L21.2238 11.616V18H17.3358ZM28.0157 18L23.8158 11.904H27.9678L32.2158 18H28.0157ZM21.2238 12.048L19.4958 10.224H24.3918C25.5918 10.224 26.4878 9.968 27.0798 9.456C27.6718 8.928 27.9678 8.208 27.9678 7.296C27.9678 6.368 27.6718 5.648 27.0798 5.136C26.4878 4.624 25.5918 4.368 24.3918 4.368H19.4958L21.2238 2.52V12.048ZM43.1442 18.288C41.8162 18.288 40.5842 18.072 39.4482 17.64C38.3282 17.208 37.3522 16.6 36.5202 15.816C35.7042 15.032 35.0642 14.112 34.6002 13.056C34.1522 12 33.9282 10.848 33.9282 9.6C33.9282 8.352 34.1522 7.2 34.6002 6.144C35.0642 5.088 35.7122 4.168 36.5442 3.384C37.3762 2.6 38.3522 1.992 39.4722 1.56C40.5922 1.128 41.8082 0.912 43.1202 0.912C44.4482 0.912 45.6642 1.128 46.7682 1.56C47.8882 1.992 48.8562 2.6 49.6722 3.384C50.5042 4.168 51.1522 5.088 51.6162 6.144C52.0802 7.184 52.3122 8.336 52.3122 9.6C52.3122 10.848 52.0802 12.008 51.6162 13.08C51.1522 14.136 50.5042 15.056 49.6722 15.84C48.8562 16.608 47.8882 17.208 46.7682 17.64C45.6642 18.072 44.4562 18.288 43.1442 18.288ZM43.1202 14.976C43.8722 14.976 44.5602 14.848 45.1842 14.592C45.8242 14.336 46.3842 13.968 46.8642 13.488C47.3442 13.008 47.7122 12.44 47.9682 11.784C48.2402 11.128 48.3762 10.4 48.3762 9.6C48.3762 8.8 48.2402 8.072 47.9682 7.416C47.7122 6.76 47.3442 6.192 46.8642 5.712C46.4002 5.232 45.8482 4.864 45.2082 4.608C44.5682 4.352 43.8722 4.224 43.1202 4.224C42.3682 4.224 41.6722 4.352 41.0322 4.608C40.4082 4.864 39.8562 5.232 39.3762 5.712C38.8962 6.192 38.5202 6.76 38.2482 7.416C37.9922 8.072 37.8642 8.8 37.8642 9.6C37.8642 10.384 37.9922 11.112 38.2482 11.784C38.5202 12.44 38.8882 13.008 39.3522 13.488C39.8322 13.968 40.3922 14.336 41.0322 14.592C41.6722 14.848 42.3682 14.976 43.1202 14.976ZM65.6791 15.144V4.056H68.7751V15.144H65.6791ZM61.5271 11.064V8.136H72.9511V11.064H61.5271Z" fill="url(#paint0_linear_8640_35176)"/>
<defs>
<linearGradient id="paint0_linear_8640_35176" x1="2.85208" y1="-12.7535" x2="25.5201" y2="62.6293" gradientUnits="userSpaceOnUse">
<stop stop-color="#0062FF"/>
<stop offset="0.19" stop-color="#1D8AFF"/>
<stop offset="0.46" stop-color="#41BCFF"/>
<stop offset="0.69" stop-color="#5CE0FF"/>
<stop offset="0.88" stop-color="#6CF6FF"/>
<stop offset="1" stop-color="#72FFFF"/>
</linearGradient>
</defs>
</svg>
