<svg width="14" height="14" viewBox="0 0 14 14" fill="none" xmlns="http://www.w3.org/2000/svg">
<path fill-rule="evenodd" clip-rule="evenodd" d="M7 0.25C7.1249 0.25 7.24468 0.299616 7.333 0.387932C7.42131 0.476249 7.47093 0.596032 7.47093 0.72093V7.61095L8.52581 6.37963C8.56605 6.33263 8.61516 6.29401 8.67032 6.26599C8.72548 6.23796 8.78563 6.22108 8.84731 6.2163C8.909 6.21152 8.97103 6.21893 9.02985 6.23812C9.08867 6.25731 9.14314 6.2879 9.19014 6.32814C9.23714 6.36838 9.27576 6.41748 9.30378 6.47264C9.3318 6.52781 9.34869 6.58795 9.35347 6.64964C9.35825 6.71133 9.35083 6.77335 9.33165 6.83218C9.31246 6.891 9.28187 6.94546 9.24163 6.99247L7.35791 9.19014C7.3137 9.24184 7.25881 9.28335 7.19703 9.3118C7.13524 9.34026 7.06802 9.355 7 9.355C6.93198 9.355 6.86476 9.34026 6.80297 9.3118C6.74119 9.28335 6.6863 9.24184 6.64209 9.19014L4.75837 6.99247C4.71813 6.94546 4.68754 6.891 4.66835 6.83218C4.64917 6.77335 4.64175 6.71133 4.64653 6.64964C4.65131 6.58795 4.6682 6.52781 4.69622 6.47264C4.72424 6.41748 4.76286 6.36838 4.80986 6.32814C4.85686 6.2879 4.91133 6.25731 4.97015 6.23812C5.02897 6.21893 5.091 6.21152 5.15269 6.2163C5.21438 6.22108 5.27452 6.23796 5.32968 6.26599C5.38484 6.29401 5.43395 6.33263 5.47419 6.37963L6.52907 7.61033V0.72093C6.52907 0.596032 6.57869 0.476249 6.667 0.387932C6.75532 0.299616 6.8751 0.25 7 0.25ZM3.85795 4.6466C3.98285 4.64594 4.1029 4.69492 4.19169 4.78276C4.28047 4.87061 4.33073 4.99012 4.3314 5.11502C4.33206 5.23992 4.28308 5.35997 4.19524 5.44876C4.10739 5.53754 3.98788 5.5878 3.86298 5.58847C3.17667 5.59223 2.69005 5.60981 2.32021 5.67763C1.96481 5.74356 1.75823 5.84842 1.60565 6.001C1.43172 6.17493 1.3187 6.41919 1.25653 6.88007C1.19312 7.35414 1.19186 7.98267 1.19186 8.88372V9.51163C1.19186 10.4133 1.19312 11.0418 1.25653 11.5159C1.3187 11.9768 1.43235 12.2204 1.60565 12.395C1.77958 12.5683 2.02321 12.6813 2.48472 12.7435C2.95816 12.8075 3.58733 12.8081 4.48837 12.8081H9.51163C10.4127 12.8081 11.0412 12.8075 11.5159 12.7435C11.9768 12.6813 12.2204 12.5683 12.3943 12.3943C12.5683 12.2204 12.6813 11.9768 12.7435 11.5159C12.8069 11.0418 12.8081 10.4133 12.8081 9.51163V8.88372C12.8081 7.98267 12.8069 7.35414 12.7435 6.87944C12.6813 6.41919 12.5677 6.17493 12.3943 6.001C12.2411 5.84842 12.0352 5.74356 11.6798 5.67763C11.31 5.60981 10.8233 5.59223 10.137 5.58847C10.0752 5.58814 10.014 5.57563 9.957 5.55166C9.89999 5.52769 9.84826 5.49272 9.80476 5.44876C9.76126 5.40479 9.72685 5.35269 9.70349 5.29543C9.68013 5.23817 9.66827 5.17687 9.6686 5.11502C9.66893 5.05318 9.68144 4.99201 9.70541 4.935C9.72938 4.87799 9.76435 4.82626 9.80831 4.78276C9.85228 4.73926 9.90438 4.70485 9.96164 4.68149C10.0189 4.65813 10.0802 4.64627 10.142 4.6466C10.8214 4.65037 11.3872 4.6667 11.85 4.75146C12.3259 4.83937 12.7309 5.00577 13.0606 5.33542C13.4386 5.71279 13.6006 6.18937 13.6772 6.75449C13.75 7.29826 13.75 7.99084 13.75 8.84919V9.54616C13.75 10.4051 13.75 11.0971 13.6772 11.6415C13.6006 12.2066 13.4386 12.6826 13.0606 13.0606C12.6826 13.4386 12.2066 13.6006 11.6415 13.6772C11.0971 13.75 10.4045 13.75 9.54616 13.75H4.45384C3.59549 13.75 2.90291 13.75 2.35851 13.6772C1.7934 13.6012 1.31744 13.4386 0.939442 13.0606C0.561442 12.6826 0.399442 12.2066 0.323465 11.6415C0.25 11.0971 0.25 10.4045 0.25 9.54616V8.84919C0.25 7.99084 0.25 7.29826 0.323465 6.75386C0.398814 6.18874 0.56207 5.71279 0.939442 5.33479C1.26909 5.00577 1.67409 4.83874 2.15005 4.75146C2.61281 4.6667 3.17856 4.65037 3.85795 4.6466Z" fill="white"/>
</svg>
