<svg width="16" height="16" viewBox="0 0 16 16" fill="none" xmlns="http://www.w3.org/2000/svg">
<path d="M12.8583 13.5C11.5852 13.5 10.3273 13.2224 9.08472 12.6671C7.84213 12.1118 6.71157 11.3251 5.69306 10.3069C4.67454 9.28843 3.88783 8.15787 3.33294 6.91528C2.77806 5.67269 2.50041 4.41481 2.5 3.14167C2.5 2.95833 2.56111 2.80556 2.68333 2.68333C2.80556 2.56111 2.95833 2.5 3.14167 2.5H5.61667C5.75926 2.5 5.88657 2.54848 5.99861 2.64544C6.11065 2.74241 6.17685 2.85689 6.19722 2.98889L6.59444 5.12778C6.61481 5.29074 6.60972 5.42824 6.57917 5.54028C6.54861 5.65231 6.49259 5.74907 6.41111 5.83056L4.92917 7.32778C5.13287 7.70463 5.37467 8.06865 5.65456 8.41983C5.93444 8.77102 6.24265 9.10978 6.57917 9.43611C6.89491 9.75185 7.22593 10.0448 7.57222 10.3149C7.91852 10.585 8.28519 10.8319 8.67222 11.0556L10.1083 9.61944C10.2 9.52778 10.3198 9.45893 10.4677 9.41289C10.6156 9.36685 10.7606 9.35422 10.9028 9.375L13.0111 9.80278C13.1537 9.84352 13.2708 9.91746 13.3625 10.0246C13.4542 10.1318 13.5 10.2513 13.5 10.3833V12.8583C13.5 13.0417 13.4389 13.1944 13.3167 13.3167C13.1944 13.4389 13.0417 13.5 12.8583 13.5ZM4.34861 6.16667L5.35694 5.15833L5.09722 3.72222H3.7375C3.78843 4.13981 3.85972 4.55231 3.95139 4.95972C4.04306 5.36713 4.17546 5.76944 4.34861 6.16667ZM9.81806 11.6361C10.2153 11.8093 10.6202 11.9468 11.0329 12.0486C11.4456 12.1505 11.8606 12.2167 12.2778 12.2472V10.9028L10.8417 10.6125L9.81806 11.6361Z" fill="white"/>
</svg>
