<svg width="18" height="18" viewBox="0 0 18 18" fill="none" xmlns="http://www.w3.org/2000/svg">
<path fill-rule="evenodd" clip-rule="evenodd" d="M6.75 1.6875C7.06066 1.6875 7.3125 1.93934 7.3125 2.25V3.375C7.3125 3.68566 7.06066 3.9375 6.75 3.9375C6.43934 3.9375 6.1875 3.68566 6.1875 3.375V2.25C6.1875 1.93934 6.43934 1.6875 6.75 1.6875ZM1.6875 6.75C1.6875 6.43934 1.93934 6.1875 2.25 6.1875H3.375C3.68566 6.1875 3.9375 6.43934 3.9375 6.75C3.9375 7.06066 3.68566 7.3125 3.375 7.3125H2.25C1.93934 7.3125 1.6875 7.06066 1.6875 6.75ZM14.0625 11.25C14.0625 10.9393 14.3143 10.6875 14.625 10.6875H15.75C16.0607 10.6875 16.3125 10.9393 16.3125 11.25C16.3125 11.5607 16.0607 11.8125 15.75 11.8125H14.625C14.3143 11.8125 14.0625 11.5607 14.0625 11.25ZM11.25 14.0625C11.5607 14.0625 11.8125 14.3143 11.8125 14.625V15.75C11.8125 16.0607 11.5607 16.3125 11.25 16.3125C10.9393 16.3125 10.6875 16.0607 10.6875 15.75V14.625C10.6875 14.3143 10.9393 14.0625 11.25 14.0625Z" fill="white"/>
<path fill-rule="evenodd" clip-rule="evenodd" d="M10.4568 3.20391C11.6824 1.97831 13.6597 1.91344 14.8727 3.12701C16.0866 4.33999 16.0218 6.31746 14.7961 7.54316L11.9968 10.3424C11.7867 10.5525 11.446 10.5525 11.2359 10.3424C11.0258 10.1323 11.0258 9.79162 11.2359 9.5815L14.0352 6.78225C14.8713 5.94617 14.8753 4.65091 14.1121 3.8882L14.1118 3.88792C13.3491 3.12466 12.0538 3.12874 11.2177 3.96482L8.4185 6.76407C8.20838 6.97419 7.86771 6.97419 7.65759 6.76407C7.44747 6.55395 7.44747 6.21329 7.65759 6.00317L10.4568 3.20391Z" fill="white"/>
<path fill-rule="evenodd" clip-rule="evenodd" d="M7.54316 14.7961C6.31755 16.0217 4.34029 16.0866 3.12729 14.873C1.91343 13.66 1.97822 11.6825 3.20391 10.4568L6.00317 7.65759C6.21328 7.44747 6.55395 7.44747 6.76407 7.65759C6.97419 7.86771 6.97419 8.20838 6.76407 8.4185L3.96482 11.2177C3.12874 12.0538 3.12466 13.3491 3.88792 14.1118L3.8882 14.1121C4.65091 14.8753 5.94617 14.8713 6.78225 14.0352L9.5815 11.2359C9.79162 11.0258 10.1323 11.0258 10.3424 11.2359C10.5525 11.446 10.5525 11.7867 10.3424 11.9968L7.54316 14.7961Z" fill="white"/>
</svg>
