<svg width="36" height="36" viewBox="0 0 36 36" fill="none" xmlns="http://www.w3.org/2000/svg">
    <rect width="36" height="36" fill="white"/>
    <path d="M13.453 21.9536L13.2391 26.2395L9.25716 29.2645L5.08008 21.9048L13.7908 6.73523L17.8703 9.53495L18.0054 14.0723L17.9679 14.0948L13.453 21.9536Z" fill="#28B446"/>
    <path d="M13.79 6.73523L16.2708 17.0447L18.0046 14.0723L17.8695 8.09757L13.79 6.73523Z" fill="#219B38"/>
    <path d="M22.208 6.73523L30.9187 21.9048L26.2237 24.2805L22.5007 21.9273V21.9048L18.0046 14.0723L13.79 6.73523H22.208Z" fill="#FFD837"/>
    <path d="M30.9201 21.9055L26.7505 29.2163L9.25781 29.2651L13.4537 21.9543L22.5021 21.928L30.9201 21.9055Z" fill="#518EF8"/>
    <path d="M9.25781 29.265L16.5761 21.9429L13.4537 21.9541L9.25781 29.265Z" fill="#3A5BBC"/>
    <path d="M30.9197 21.9046L21.3721 19.9305L22.5017 21.9271L30.9197 21.9046Z" fill="#FBBB00"/>
    </svg>
    