<svg width="24" height="24" viewBox="0 0 24 24" fill="none" xmlns="http://www.w3.org/2000/svg">
<path fill-rule="evenodd" clip-rule="evenodd" d="M11.4239 5.23259C11.7421 4.92247 12.2579 4.92247 12.5761 5.23259L17.7614 10.2863C18.0795 10.5964 18.0795 11.0993 17.7614 11.4094C17.4432 11.7195 16.9273 11.7195 16.6091 11.4094L12.8148 7.71129L12.8148 13.7C12.8148 13.8657 12.6805 14 12.5148 14L11.4852 14C11.3195 14 11.1852 13.8657 11.1852 13.7L11.1852 7.71129L7.39091 11.4094C7.07272 11.7195 6.55683 11.7195 6.23864 11.4094C5.92045 11.0993 5.92045 10.5964 6.23864 10.2863L11.4239 5.23259Z" fill="white"/>
<rect x="11.1855" y="14.9619" width="1.62956" height="2.15396" rx="0.3" fill="white"/>
<rect x="11.1855" y="17.9238" width="1.62956" height="1.07698" rx="0.3" fill="white"/>
<path fill-rule="evenodd" clip-rule="evenodd" d="M12 20.9286C16.9311 20.9286 20.9286 16.9311 20.9286 12C20.9286 7.06889 16.9311 3.07143 12 3.07143C7.06889 3.07143 3.07143 7.06889 3.07143 12C3.07143 16.9311 7.06889 20.9286 12 20.9286ZM12 22C17.5228 22 22 17.5228 22 12C22 6.47715 17.5228 2 12 2C6.47715 2 2 6.47715 2 12C2 17.5228 6.47715 22 12 22Z" fill="white"/>
</svg>
