<svg width="21" height="20" viewBox="0 0 21 20" fill="none" xmlns="http://www.w3.org/2000/svg">
<path fill-rule="evenodd" clip-rule="evenodd" d="M9.06573 4.16675H11.9345C13.2168 4.16675 14.2326 4.16675 15.0273 4.26875C15.8449 4.37408 16.507 4.59541 17.0295 5.09408C17.5514 5.59341 17.783 6.22608 17.8933 7.00741C17.956 7.45608 17.9819 7.97808 17.9923 8.58275C18.0014 8.63342 18.0024 8.68513 17.9951 8.73608C18 9.11341 18 9.52141 18 9.96275V10.0374C18 11.2627 18 12.2334 17.8933 12.9927C17.783 13.7741 17.5514 14.4067 17.0295 14.9061C16.507 15.4047 15.8449 15.6261 15.0273 15.7314C14.2319 15.8334 13.2168 15.8334 11.9345 15.8334H9.06573C7.78342 15.8334 6.76763 15.8334 5.97299 15.7314C5.15533 15.6261 4.49324 15.4047 3.97069 14.9061C3.44884 14.4067 3.21722 13.7741 3.10699 12.9927C3.00025 12.2327 3.00025 11.2627 3.00025 10.0374V9.96275C3.00025 9.52141 3.00025 9.11341 3.00513 8.73608C2.99765 8.68517 2.99835 8.63346 3.00722 8.58275C3.01838 7.97808 3.0442 7.45608 3.10699 7.00741C3.21722 6.22608 3.44884 5.59341 3.97069 5.09408C4.49324 4.59541 5.15533 4.37408 5.97299 4.26875C6.76832 4.16675 7.78342 4.16675 9.06573 4.16675ZM4.04814 9.16675C4.04674 9.42541 4.04674 9.70275 4.04674 10.0001C4.04674 11.2714 4.04814 12.1741 4.14441 12.8601C4.2386 13.5301 4.4158 13.9167 4.71091 14.1987C5.00603 14.4807 5.41067 14.6501 6.11252 14.7401C6.82972 14.8321 7.77435 14.8334 9.1048 14.8334H11.8954C13.2259 14.8334 14.1712 14.8321 14.8884 14.7401C15.5896 14.6501 15.9942 14.4807 16.2893 14.1987C16.5844 13.9167 16.7616 13.5301 16.8558 12.8594C16.9521 12.1741 16.9535 11.2714 16.9535 10.0001C16.9535 9.70275 16.9535 9.42541 16.9521 9.16675H4.04814ZM16.9354 8.16675H4.06488C4.07883 7.77541 4.10255 7.43741 4.14441 7.14008C4.2386 6.47008 4.4158 6.08341 4.71091 5.80141C5.00603 5.51941 5.41067 5.35008 6.11252 5.26008C6.82972 5.16808 7.77435 5.16675 9.1048 5.16675H11.8954C13.2259 5.16675 14.1712 5.16808 14.8884 5.26008C15.5896 5.35008 15.9942 5.51941 16.2893 5.80141C16.5844 6.08341 16.7616 6.47008 16.8558 7.14075C16.8977 7.43741 16.9214 7.77541 16.9354 8.16675ZM5.7909 12.6667C5.7909 12.5341 5.84602 12.407 5.94415 12.3132C6.04228 12.2194 6.17537 12.1667 6.31414 12.1667H9.1048C9.24357 12.1667 9.37666 12.2194 9.47479 12.3132C9.57292 12.407 9.62804 12.5341 9.62804 12.6667C9.62804 12.7994 9.57292 12.9265 9.47479 13.0203C9.37666 13.1141 9.24357 13.1667 9.1048 13.1667H6.31414C6.17537 13.1667 6.04228 13.1141 5.94415 13.0203C5.84602 12.9265 5.7909 12.7994 5.7909 12.6667ZM10.3257 12.6667C10.3257 12.5341 10.3808 12.407 10.479 12.3132C10.5771 12.2194 10.7102 12.1667 10.849 12.1667H11.8954C12.0342 12.1667 12.1673 12.2194 12.2654 12.3132C12.3636 12.407 12.4187 12.5341 12.4187 12.6667C12.4187 12.7994 12.3636 12.9265 12.2654 13.0203C12.1673 13.1141 12.0342 13.1667 11.8954 13.1667H10.849C10.7102 13.1667 10.5771 13.1141 10.479 13.0203C10.3808 12.9265 10.3257 12.7994 10.3257 12.6667Z" fill="white"/>
</svg>
