<svg width="142" height="19" viewBox="0 0 142 19" fill="none" xmlns="http://www.w3.org/2000/svg">
<path d="M7.512 18.288C6.168 18.288 4.88 18.112 3.648 17.76C2.416 17.392 1.424 16.92 0.672 16.344L1.992 13.416C2.712 13.928 3.56 14.352 4.536 14.688C5.528 15.008 6.528 15.168 7.536 15.168C8.304 15.168 8.92 15.096 9.384 14.952C9.864 14.792 10.216 14.576 10.44 14.304C10.664 14.032 10.776 13.72 10.776 13.368C10.776 12.92 10.6 12.568 10.248 12.312C9.896 12.04 9.432 11.824 8.856 11.664C8.28 11.488 7.64 11.328 6.936 11.184C6.248 11.024 5.552 10.832 4.848 10.608C4.16 10.384 3.528 10.096 2.952 9.744C2.376 9.392 1.904 8.928 1.536 8.352C1.184 7.776 1.008 7.04 1.008 6.144C1.008 5.184 1.264 4.312 1.776 3.528C2.304 2.728 3.088 2.096 4.128 1.632C5.184 1.152 6.504 0.912 8.088 0.912C9.144 0.912 10.184 1.04 11.208 1.296C12.232 1.536 13.136 1.904 13.92 2.4L12.72 5.352C11.936 4.904 11.152 4.576 10.368 4.368C9.584 4.144 8.816 4.032 8.064 4.032C7.312 4.032 6.696 4.12 6.216 4.296C5.736 4.472 5.392 4.704 5.184 4.992C4.976 5.264 4.872 5.584 4.872 5.952C4.872 6.384 5.048 6.736 5.4 7.008C5.752 7.264 6.216 7.472 6.792 7.632C7.368 7.792 8 7.952 8.688 8.112C9.392 8.272 10.088 8.456 10.776 8.664C11.48 8.872 12.12 9.152 12.696 9.504C13.272 9.856 13.736 10.32 14.088 10.896C14.456 11.472 14.64 12.2 14.64 13.08C14.64 14.024 14.376 14.888 13.848 15.672C13.32 16.456 12.528 17.088 11.472 17.568C10.432 18.048 9.112 18.288 7.512 18.288ZM20.5423 18V4.368H15.1663V1.2H29.8063V4.368H24.4303V18H20.5423ZM28.8465 18L36.3345 1.2H40.1745L47.6865 18H43.6065L37.4625 3.168H38.9985L32.8305 18H28.8465ZM32.5905 14.4L33.6225 11.448H42.2625L43.3185 14.4H32.5905ZM49.4295 18V1.2H52.6455L62.5575 13.296H60.9975V1.2H64.8375V18H61.6455L51.7095 5.904H53.2695V18H49.4295ZM68.8123 18V1.2H76.4443C78.2683 1.2 79.8763 1.552 81.2683 2.256C82.6603 2.944 83.7483 3.912 84.5323 5.16C85.3163 6.408 85.7083 7.888 85.7083 9.6C85.7083 11.296 85.3163 12.776 84.5323 14.04C83.7483 15.288 82.6603 16.264 81.2683 16.968C79.8763 17.656 78.2683 18 76.4443 18H68.8123ZM72.7003 14.808H76.2523C77.3723 14.808 78.3403 14.6 79.1563 14.184C79.9883 13.752 80.6283 13.144 81.0763 12.36C81.5403 11.576 81.7723 10.656 81.7723 9.6C81.7723 8.528 81.5403 7.608 81.0763 6.84C80.6283 6.056 79.9883 5.456 79.1563 5.04C78.3403 4.608 77.3723 4.392 76.2523 4.392H72.7003V14.808ZM86.1981 18L93.6861 1.2H97.5261L105.038 18H100.958L94.8141 3.168H96.3501L90.1821 18H86.1981ZM89.9421 14.4L90.9741 11.448H99.6141L100.67 14.4H89.9421ZM106.781 18V1.2H114.053C115.557 1.2 116.853 1.448 117.941 1.944C119.029 2.424 119.869 3.12 120.461 4.032C121.053 4.944 121.349 6.032 121.349 7.296C121.349 8.544 121.053 9.624 120.461 10.536C119.869 11.432 119.029 12.12 117.941 12.6C116.853 13.08 115.557 13.32 114.053 13.32H108.941L110.669 11.616V18H106.781ZM117.461 18L113.261 11.904H117.413L121.661 18H117.461ZM110.669 12.048L108.941 10.224H113.837C115.037 10.224 115.933 9.968 116.525 9.456C117.117 8.928 117.413 8.208 117.413 7.296C117.413 6.368 117.117 5.648 116.525 5.136C115.933 4.624 115.037 4.368 113.837 4.368H108.941L110.669 2.52V12.048ZM124.43 18V1.2H132.062C133.886 1.2 135.494 1.552 136.886 2.256C138.278 2.944 139.366 3.912 140.15 5.16C140.934 6.408 141.326 7.888 141.326 9.6C141.326 11.296 140.934 12.776 140.15 14.04C139.366 15.288 138.278 16.264 136.886 16.968C135.494 17.656 133.886 18 132.062 18H124.43ZM128.318 14.808H131.87C132.99 14.808 133.958 14.6 134.773 14.184C135.606 13.752 136.246 13.144 136.694 12.36C137.158 11.576 137.39 10.656 137.39 9.6C137.39 8.528 137.158 7.608 136.694 6.84C136.246 6.056 135.606 5.456 134.773 5.04C133.958 4.608 132.99 4.392 131.87 4.392H128.318V14.808Z" fill="url(#paint0_linear_8634_31527)"/>
<defs>
<linearGradient id="paint0_linear_8634_31527" x1="9.011" y1="-12.7535" x2="21.9805" y2="67.3457" gradientUnits="userSpaceOnUse">
<stop stop-color="#0062FF"/>
<stop offset="0.19" stop-color="#1D8AFF"/>
<stop offset="0.46" stop-color="#41BCFF"/>
<stop offset="0.69" stop-color="#5CE0FF"/>
<stop offset="0.88" stop-color="#6CF6FF"/>
<stop offset="1" stop-color="#72FFFF"/>
</linearGradient>
</defs>
</svg>
