<svg width="18" height="18" viewBox="0 0 18 18" fill="none" xmlns="http://www.w3.org/2000/svg">
<path d="M9.00028 12.5357C8.65929 12.5357 8.33226 12.4003 8.09114 12.1591C7.85002 11.918 7.71456 11.591 7.71456 11.25C7.71456 10.5364 8.28671 9.96429 9.00028 9.96429C9.34127 9.96429 9.6683 10.0997 9.90942 10.3409C10.1505 10.582 10.286 10.909 10.286 11.25C10.286 11.591 10.1505 11.918 9.90942 12.1591C9.6683 12.4003 9.34127 12.5357 9.00028 12.5357ZM12.8574 14.4643V8.03571H5.14314V14.4643H12.8574ZM12.8574 6.75C13.1984 6.75 13.5254 6.88546 13.7666 7.12658C14.0077 7.3677 14.1431 7.69472 14.1431 8.03571V14.4643C14.1431 14.8053 14.0077 15.1323 13.7666 15.3734C13.5254 15.6145 13.1984 15.75 12.8574 15.75H5.14314C4.80214 15.75 4.47512 15.6145 4.234 15.3734C3.99288 15.1323 3.85742 14.8053 3.85742 14.4643V8.03571C3.85742 7.32214 4.42956 6.75 5.14314 6.75H5.78599V5.46429C5.78599 4.6118 6.12464 3.79424 6.72744 3.19144C7.33023 2.58865 8.1478 2.25 9.00028 2.25C9.42238 2.25 9.84036 2.33314 10.2303 2.49467C10.6203 2.65621 10.9746 2.89297 11.2731 3.19144C11.5716 3.48992 11.8084 3.84426 11.9699 4.23423C12.1314 4.62421 12.2146 5.04218 12.2146 5.46429V6.75H12.8574ZM9.00028 3.53571C8.48879 3.53571 7.99825 3.7389 7.63657 4.10058C7.2749 4.46226 7.07171 4.9528 7.07171 5.46429V6.75H10.9289V5.46429C10.9289 4.9528 10.7257 4.46226 10.364 4.10058C10.0023 3.7389 9.51177 3.53571 9.00028 3.53571Z" fill="#1B94D2"/>
</svg>
