 <svg width="24" height="25" viewBox="0 0 24 25" fill="none" xmlns="http://www.w3.org/2000/svg">
<path fill-rule="evenodd" clip-rule="evenodd" d="M9.88434 7.14067C9.06896 8.17633 8.18005 9.7488 6.94777 11.9338L6.64304 12.4738C6.64301 12.4738 6.64307 12.4737 6.64304 12.4738C5.61655 14.2939 4.8869 15.5916 4.51568 16.5972C4.14922 17.5899 4.19999 18.1162 4.48304 18.5222C4.78491 18.9551 5.35158 19.2519 6.55543 19.4103C7.75434 19.5681 9.40695 19.5695 11.6953 19.5695H12.3047C14.5931 19.5695 16.2457 19.5681 17.4446 19.4103C18.6484 19.2519 19.2151 18.9551 19.517 18.5222C19.8 18.1162 19.8508 17.5899 19.4843 16.5972C19.1131 15.5916 18.3835 14.2941 17.3571 12.4739C17.357 12.4739 17.3571 12.474 17.3571 12.4739L17.0523 11.9339C15.8201 9.749 14.9308 8.17636 14.1154 7.1407C13.3074 6.11461 12.68 5.75579 12 5.75579C11.3196 5.75579 10.6921 6.11466 9.88434 7.14067ZM8.89765 6.36385C9.79502 5.22404 10.7457 4.5 12 4.5C13.2539 4.5 14.2046 5.22409 15.102 6.36382C15.9854 7.48571 16.9216 9.14572 18.1195 11.2699L18.146 11.3167L18.4828 11.9136C19.4713 13.6664 20.2521 15.0509 20.6624 16.1623C21.0818 17.2986 21.1816 18.3303 20.5471 19.2404C19.9314 20.1235 18.904 20.4848 17.6085 20.6554C16.3178 20.8253 14.5823 20.8253 12.3559 20.8252H11.6441C9.41774 20.8253 7.68219 20.8253 6.39154 20.6554C5.09595 20.4848 4.06861 20.1235 3.45291 19.2404C2.8184 18.3303 2.91815 17.2986 3.3376 16.1623C3.74786 15.0509 4.52869 13.6664 5.51719 11.9137L5.8834 11.2647C7.07992 9.14305 8.01511 7.48481 8.89765 6.36385Z" fill="#EB5757"/>
<path fill-rule="evenodd" clip-rule="evenodd" d="M11.999 8.68597C12.3458 8.68597 12.6269 8.96709 12.6269 9.31387V13.4998C12.6269 13.8466 12.3458 14.1277 11.999 14.1277C11.6522 14.1277 11.3711 13.8466 11.3711 13.4998V9.31387C11.3711 8.96709 11.6522 8.68597 11.999 8.68597Z" fill="#EB5757"/>
<path d="M11.9993 16.8486C12.4617 16.8486 12.8365 16.4738 12.8365 16.0114C12.8365 15.549 12.4617 15.1742 11.9993 15.1742C11.5369 15.1742 11.1621 15.549 11.1621 16.0114C11.1621 16.4738 11.5369 16.8486 11.9993 16.8486Z" fill="#EB5757"/>
</svg>
