<svg width="16" height="20" viewBox="0 0 16 20" fill="none" xmlns="http://www.w3.org/2000/svg">
<path d="M4.43267 0.160841L5.07509 0.834976C5.27275 1.0424 5.28264 1.38465 5.09485 1.61282C0.943858 6.3525 0.943858 13.6435 5.09485 18.3832C5.29252 18.601 5.28264 18.9432 5.07509 19.161L4.43267 19.8352C4.21524 20.0633 3.86932 20.053 3.66177 19.8144C-1.22059 14.2762 -1.22059 5.71985 3.66177 0.181588C3.86932 -0.0569513 4.21524 -0.0569557 4.43267 0.160841Z" fill="#6D6E71"/>
<path d="M7.22164 3.09599L7.86405 3.77013C8.06172 3.97755 8.0716 4.3198 7.88382 4.5376C5.26474 7.65936 5.26474 12.3472 7.88382 15.4689C8.0716 15.6867 8.06172 16.029 7.86405 16.2364L7.22164 16.9105C7.0042 17.1387 6.6484 17.1283 6.45073 16.8898C3.11017 12.9695 3.11017 7.03708 6.45073 3.11673C6.65828 2.87819 7.0042 2.86782 7.22164 3.09599Z" fill="#6D6E71"/>
<path d="M10.017 6.02048L10.6594 6.69462C10.8472 6.89167 10.8669 7.21318 10.6989 7.43098C9.57222 8.92444 9.57222 11.0402 10.6989 12.544C10.8669 12.7618 10.8472 13.0833 10.6594 13.2804L10.017 13.9545C9.79954 14.1827 9.43386 14.1723 9.23619 13.913C7.44731 11.6313 7.44731 8.32291 9.23619 6.04122C9.43386 5.79231 9.79954 5.77158 10.017 5.99975V6.02048Z" fill="#6D6E71"/>
<path d="M4.43267 0.160841L5.07509 0.834976C5.27275 1.0424 5.28264 1.38465 5.09485 1.61282C0.943858 6.3525 0.943858 13.6435 5.09485 18.3832C5.29252 18.601 5.28264 18.9432 5.07509 19.161L4.43267 19.8352C4.21524 20.0633 3.86932 20.053 3.66177 19.8144C-1.22059 14.2762 -1.22059 5.71985 3.66177 0.181588C3.86932 -0.0569513 4.21524 -0.0569557 4.43267 0.160841Z" fill="url(#paint0_linear_4561_16377)"/>
<path d="M7.22164 3.09599L7.86405 3.77013C8.06172 3.97755 8.0716 4.3198 7.88382 4.5376C5.26474 7.65936 5.26474 12.3472 7.88382 15.4689C8.0716 15.6867 8.06172 16.029 7.86405 16.2364L7.22164 16.9105C7.0042 17.1387 6.6484 17.1283 6.45073 16.8898C3.11017 12.9695 3.11017 7.03708 6.45073 3.11673C6.65828 2.87819 7.0042 2.86782 7.22164 3.09599Z" fill="url(#paint1_linear_4561_16377)"/>
<path d="M10.017 6.02048L10.6594 6.69462C10.8472 6.89167 10.8669 7.21318 10.6989 7.43098C9.57222 8.92444 9.57222 11.0402 10.6989 12.544C10.8669 12.7618 10.8472 13.0833 10.6594 13.2804L10.017 13.9545C9.79954 14.1827 9.43386 14.1723 9.23619 13.913C7.44731 11.6313 7.44731 8.32291 9.23619 6.04122C9.43386 5.79231 9.79954 5.77158 10.017 5.99975V6.02048Z" fill="url(#paint2_linear_4561_16377)"/>
<path d="M13.9371 9.50645C13.9371 9.46529 13.9042 9.43236 13.8649 9.43442C13.7076 9.44306 13.5554 9.47969 13.411 9.54349C13.3592 9.56654 13.3094 9.59247 13.2611 9.6217C13.2399 9.63446 13.2266 9.65833 13.2266 9.68426V10.5268C13.2266 10.5528 13.2399 10.5766 13.2611 10.5894C13.3094 10.6186 13.3592 10.645 13.411 10.6676C13.5554 10.7318 13.7076 10.7684 13.8649 10.7767C13.9042 10.7787 13.9371 10.7458 13.9371 10.7046V9.50562V9.50645Z" fill="url(#paint3_linear_4561_16377)"/>
<path d="M13.9366 9.50645C13.9366 9.46529 13.9037 9.43236 13.8644 9.43442C13.7071 9.44306 13.6726 9.47969 13.5282 9.54349C13.4764 9.56654 13.4265 9.59247 13.3783 9.6217C13.3571 9.63446 13.3438 9.65833 13.3438 9.68426V10.5268C13.3438 10.5528 13.3571 10.5766 13.3783 10.5894C13.4265 10.6186 13.4764 10.645 13.5282 10.6676C13.6726 10.7318 13.7071 10.7684 13.8644 10.7767C13.9037 10.7787 13.9366 10.7458 13.9366 10.7046V9.50562V9.50645Z" fill="url(#paint4_linear_4561_16377)"/>
<mask id="mask0_4561_16377" style="mask-type:luminance" maskUnits="userSpaceOnUse" x="13" y="7" width="3" height="6">
<path d="M15.9998 10.1058C15.9998 11.2765 15.1142 12.2306 14.0081 12.2697C13.9693 12.2709 13.9375 12.2384 13.9375 12.1976V11.5959C13.9375 11.5576 13.9661 11.5255 14.003 11.5238C14.1627 11.516 14.3173 11.4794 14.4637 11.4143C14.6245 11.3427 14.7693 11.2406 14.8937 11.1098C15.0181 10.9793 15.1158 10.8274 15.1837 10.6582C15.2539 10.4837 15.2896 10.2981 15.2896 10.1058C15.2896 9.91362 15.2539 9.72799 15.1837 9.55347C15.1158 9.38471 15.0181 9.23283 14.8937 9.10235C14.7693 8.97187 14.6245 8.86938 14.4637 8.79776C14.3173 8.73273 14.1627 8.69609 14.003 8.68827C13.9665 8.68663 13.9375 8.65452 13.9375 8.61624V8.01447C13.9375 7.97372 13.9697 7.9408 14.0081 7.94244C15.1146 7.98154 15.9998 8.93524 15.9998 10.1063V10.1058Z" fill="white"/>
</mask>
<g mask="url(#mask0_4561_16377)">
<path d="M15.2917 10.0655C15.2917 10.0597 15.2917 10.0535 15.2913 10.0478C15.2913 10.0478 15.2913 10.0469 15.2913 10.0465C15.2913 10.0408 15.2909 10.035 15.2905 10.0292C15.2905 10.0292 15.2905 10.0292 15.2905 10.0288C15.2905 10.0231 15.2897 10.0177 15.2897 10.012C15.2897 10.012 15.2897 10.0115 15.2897 10.0111C15.2897 10.0054 15.289 9.99961 15.2886 9.99426C15.2886 9.99426 15.2886 9.99384 15.2886 9.99343C15.2886 9.98932 15.2878 9.98479 15.2874 9.98067C15.2874 9.97944 15.2874 9.97779 15.2874 9.97656C15.2874 9.97656 15.2874 9.97573 15.2874 9.97532C15.2866 9.96709 15.2858 9.95886 15.285 9.95063C15.285 9.94733 15.2843 9.94445 15.2839 9.94116C15.2839 9.9391 15.2835 9.93704 15.2831 9.9354C15.2827 9.93169 15.2823 9.92758 15.2819 9.92387C15.2819 9.92222 15.2819 9.92099 15.2815 9.91934C15.2811 9.91523 15.2803 9.9107 15.2799 9.90658C15.2795 9.90288 15.2788 9.89917 15.2784 9.89547C15.2776 9.89012 15.2768 9.88477 15.276 9.87942C15.276 9.87901 15.276 9.87859 15.276 9.87818C15.2756 9.87489 15.2752 9.87201 15.2744 9.86872C15.2744 9.86789 15.2744 9.86707 15.2744 9.86625C15.2744 9.86501 15.2744 9.86419 15.2741 9.86295C15.2741 9.86172 15.2737 9.86048 15.2737 9.85925C15.2737 9.85925 15.2737 9.85884 15.2737 9.85843C15.2737 9.8576 15.2737 9.85637 15.2733 9.85554C15.2733 9.85513 15.2733 9.85472 15.2733 9.85431C15.2733 9.85349 15.2733 9.85266 15.2733 9.85225C15.2725 9.84814 15.2717 9.84443 15.2713 9.84031C15.2705 9.83661 15.2697 9.83249 15.2693 9.82879C15.269 9.82591 15.2682 9.82303 15.2678 9.82015C15.2678 9.81932 15.2678 9.8185 15.2674 9.81768C15.2674 9.81685 15.2674 9.81644 15.267 9.81562C15.267 9.81438 15.2666 9.81356 15.2662 9.81233C15.2654 9.80903 15.265 9.80574 15.2642 9.80245V9.80121C15.2642 9.80121 15.2638 9.80039 15.2638 9.79998V9.79792C15.2638 9.79792 15.2631 9.79669 15.2631 9.79586C15.2627 9.7938 15.2623 9.79133 15.2615 9.78928C15.2615 9.78804 15.2611 9.78681 15.2607 9.78557C15.2595 9.77981 15.2584 9.77446 15.2568 9.7687C15.2564 9.76664 15.256 9.76499 15.2556 9.76293L15.2529 9.75182C15.2529 9.75182 15.2529 9.75017 15.2521 9.74935V9.74894C15.2521 9.7477 15.2517 9.74688 15.2513 9.74565C15.2505 9.74194 15.2497 9.73865 15.2485 9.73494C15.2485 9.73494 15.2485 9.73371 15.2482 9.73289C15.2482 9.73289 15.2482 9.73206 15.2482 9.73165C15.247 9.72712 15.2458 9.7226 15.2446 9.71848C15.2431 9.71313 15.2415 9.70737 15.2399 9.70202C15.2399 9.7016 15.2399 9.70078 15.2395 9.70037C15.2395 9.69996 15.2395 9.69913 15.2391 9.69872C15.238 9.69378 15.2364 9.68926 15.2352 9.68473C15.2336 9.67979 15.2321 9.67485 15.2305 9.6695C15.2297 9.66744 15.2293 9.66538 15.2285 9.66291C15.2278 9.66044 15.2274 9.6588 15.2266 9.65633C15.2266 9.65509 15.2258 9.65427 15.2254 9.65303C15.225 9.6518 15.2246 9.65056 15.2242 9.64933C15.223 9.64521 15.2215 9.6411 15.2203 9.63698C15.2187 9.63287 15.2176 9.62834 15.216 9.62422C15.2156 9.62258 15.2148 9.62093 15.2144 9.61928C15.2136 9.6164 15.2124 9.61352 15.2113 9.61105C15.2113 9.61023 15.2105 9.60899 15.2101 9.60817C15.2097 9.60652 15.2089 9.60488 15.2085 9.60323C15.2085 9.60241 15.2081 9.60158 15.2077 9.60076C15.2073 9.59911 15.2066 9.59747 15.2058 9.59582C15.205 9.59376 15.2042 9.59129 15.2034 9.58924C15.2015 9.58388 15.1995 9.57853 15.1975 9.57359C15.1975 9.57318 15.1975 9.57277 15.1971 9.57236C15.1956 9.56824 15.194 9.56372 15.192 9.5596C15.192 9.55878 15.1917 9.55836 15.1913 9.55754C15.1897 9.55343 15.1877 9.54931 15.1862 9.54478C15.1862 9.54396 15.1854 9.54314 15.1854 9.54231C15.1854 9.54231 15.1854 9.54149 15.185 9.54149C15.183 9.53696 15.1815 9.53243 15.1795 9.52791C15.1795 9.52749 15.1791 9.52708 15.1787 9.52626C15.1767 9.52132 15.1744 9.51638 15.172 9.51103C15.1709 9.50856 15.1697 9.50609 15.1685 9.50321C15.1673 9.50074 15.1662 9.49827 15.165 9.49539C15.1626 9.49045 15.1603 9.48551 15.1583 9.48057C15.1583 9.48057 15.1583 9.48016 15.1583 9.47975C15.1559 9.47522 15.154 9.47069 15.1516 9.46575C15.1516 9.46575 15.1516 9.46493 15.1512 9.46452C15.1512 9.46452 15.1512 9.46452 15.1512 9.46411C15.1497 9.4604 15.1477 9.45711 15.1461 9.45341C15.1461 9.45258 15.1457 9.45217 15.1454 9.45176C15.1454 9.45094 15.1446 9.45052 15.1446 9.4497C15.143 9.44641 15.1414 9.44353 15.1399 9.44023C15.1391 9.43859 15.1379 9.43653 15.1371 9.43447C15.1371 9.43406 15.1367 9.43324 15.1363 9.43283C15.1352 9.43077 15.134 9.4283 15.1328 9.42624C15.1316 9.42418 15.1304 9.42171 15.1293 9.41965C15.1285 9.41801 15.1273 9.41595 15.1265 9.4143C15.1265 9.4143 15.1265 9.4143 15.1265 9.41389C15.1257 9.41225 15.1246 9.41019 15.1238 9.40854C15.1234 9.40731 15.1226 9.40607 15.1218 9.40484C15.1206 9.40278 15.1199 9.40113 15.1187 9.39907C15.1175 9.3966 15.1159 9.39413 15.1148 9.39166C15.1148 9.39166 15.114 9.39002 15.1136 9.3892C15.1132 9.38837 15.1128 9.38755 15.1124 9.38673C15.112 9.3859 15.1116 9.38508 15.1112 9.38426C15.1096 9.38137 15.1081 9.37849 15.1065 9.37561C15.1065 9.3752 15.1061 9.37479 15.1057 9.37438C15.1057 9.37397 15.1049 9.37314 15.1049 9.37273C15.1045 9.37191 15.1038 9.37067 15.1034 9.36985C15.1022 9.36779 15.1006 9.36532 15.0994 9.36326C15.0994 9.36285 15.0987 9.36203 15.0987 9.36162C15.0987 9.36121 15.0983 9.36079 15.0979 9.36038C15.0955 9.35627 15.0932 9.35215 15.0904 9.34803C15.0889 9.34556 15.0877 9.34309 15.0861 9.34104C15.0853 9.3398 15.0845 9.33816 15.0838 9.33692C15.083 9.33569 15.0822 9.33445 15.0814 9.33322C15.0806 9.33157 15.0794 9.32992 15.0787 9.32869C15.0783 9.32787 15.0779 9.32704 15.0771 9.32622C15.0755 9.32375 15.0743 9.32169 15.0728 9.31922C15.0704 9.31552 15.0681 9.31181 15.0657 9.30811C15.0653 9.30729 15.0645 9.30605 15.0641 9.30523C15.0637 9.3044 15.0633 9.30399 15.063 9.30317C15.0602 9.29947 15.0579 9.29535 15.0551 9.29164C15.0524 9.28794 15.05 9.28382 15.0473 9.28012C15.0469 9.2793 15.0465 9.27888 15.0457 9.27806C15.0449 9.27724 15.0445 9.27641 15.0441 9.27559C15.0414 9.27189 15.039 9.26818 15.0363 9.26448C15.0351 9.26242 15.0335 9.26036 15.032 9.2583C15.0304 9.25583 15.0288 9.25378 15.0273 9.25131C15.0269 9.2509 15.0265 9.25007 15.0261 9.24966C15.0245 9.24719 15.0225 9.24472 15.021 9.24266C15.0198 9.24102 15.0186 9.23937 15.0174 9.23772C15.0147 9.23361 15.0116 9.2299 15.0088 9.2262C15.008 9.22537 15.0076 9.22455 15.0068 9.22332C15.0037 9.2192 15.001 9.2155 14.9978 9.21138C14.9963 9.20891 14.9943 9.20685 14.9923 9.20438C14.9915 9.20315 14.9904 9.20191 14.9892 9.20068C14.988 9.19903 14.9864 9.19739 14.9853 9.19574C14.9841 9.19409 14.9829 9.19286 14.9817 9.19162C14.9806 9.18998 14.9794 9.18874 14.9782 9.1871C14.9774 9.18586 14.9766 9.18504 14.9759 9.18421C14.9743 9.18257 14.9731 9.18051 14.9715 9.17886C14.9704 9.17763 14.9696 9.17639 14.9684 9.17516C14.968 9.17434 14.9672 9.17393 14.9668 9.1731C14.9664 9.17269 14.966 9.17187 14.9653 9.17104C14.9621 9.16734 14.9594 9.16405 14.9562 9.16034C14.9527 9.15623 14.9492 9.15211 14.9456 9.14799C14.9421 9.14388 14.9386 9.13976 14.9347 9.13565C14.9311 9.13153 14.9272 9.12741 14.9237 9.12371C14.9162 9.11548 14.9091 9.10766 14.9013 9.09984C14.8993 9.09778 14.8978 9.09572 14.8958 9.09407C14.8938 9.09201 14.8919 9.09037 14.8899 9.08831C14.886 9.08461 14.8825 9.08049 14.8785 9.07679C14.8746 9.07308 14.8707 9.06897 14.8668 9.06526C14.8628 9.06156 14.8589 9.05785 14.855 9.05374C14.8511 9.05003 14.8472 9.04633 14.8432 9.04262C14.8401 9.03974 14.8366 9.03645 14.8334 9.03357C14.8326 9.03274 14.8319 9.03233 14.8315 9.03151C14.8275 9.0278 14.8236 9.0241 14.8193 9.02081C14.8154 9.01751 14.8118 9.01422 14.8079 9.01093C14.8071 9.01011 14.806 9.00928 14.8052 9.00846C14.8028 9.0064 14.8009 9.00475 14.7985 9.0027C14.7981 9.00228 14.7973 9.00187 14.7969 9.00146C14.7961 9.00105 14.7958 9.00064 14.7954 8.99981C14.7926 8.99735 14.7899 8.99529 14.7871 8.99282C14.7859 8.99199 14.7848 8.99076 14.784 8.98994C14.784 8.98994 14.7836 8.98953 14.7832 8.98911C14.7808 8.98747 14.7789 8.98541 14.7765 8.98376C14.775 8.98253 14.7734 8.98088 14.7714 8.97965C14.7714 8.97965 14.7706 8.97882 14.7703 8.97882C14.7659 8.97553 14.762 8.97183 14.7577 8.96853C14.7534 8.96524 14.7495 8.96195 14.7451 8.95865C14.7447 8.95865 14.7444 8.95783 14.744 8.95783C14.7404 8.95495 14.7369 8.95248 14.7334 8.95001C14.7334 8.95001 14.7326 8.94919 14.7322 8.94919C14.731 8.94836 14.7302 8.94754 14.7291 8.94672C14.7279 8.9459 14.7271 8.94507 14.7259 8.94425C14.7247 8.94343 14.7232 8.94219 14.722 8.94137C14.7212 8.94096 14.7208 8.94054 14.72 8.93972C14.72 8.93972 14.7192 8.93931 14.7189 8.9389C14.7145 8.9356 14.7102 8.93272 14.7055 8.92943C14.7032 8.92778 14.7012 8.92614 14.6988 8.9249C14.6965 8.92326 14.6945 8.92202 14.6922 8.92038C14.691 8.91955 14.6898 8.91873 14.689 8.91791C14.6882 8.91749 14.6879 8.91708 14.6871 8.91667C14.6867 8.91667 14.6863 8.91626 14.6859 8.91585C14.6843 8.91461 14.6824 8.91338 14.6808 8.91214C14.6804 8.91214 14.68 8.91173 14.6792 8.91132C14.6788 8.91132 14.678 8.9105 14.6777 8.9105C14.6737 8.90762 14.6694 8.90515 14.6655 8.90226C14.6631 8.90062 14.6612 8.89938 14.6588 8.89774C14.6565 8.89609 14.6545 8.89486 14.6521 8.89321C14.6521 8.89321 14.6518 8.89321 14.6514 8.8928C14.6478 8.89074 14.6443 8.88827 14.6408 8.88621C14.64 8.8858 14.6392 8.88498 14.6384 8.88457C14.6345 8.8821 14.631 8.87963 14.627 8.87757C14.6259 8.87674 14.6247 8.87592 14.6235 8.87551C14.6208 8.87386 14.6184 8.87222 14.6157 8.87098C14.6149 8.87057 14.6141 8.87016 14.6133 8.86975C14.6117 8.86893 14.6102 8.8681 14.609 8.86728C14.6051 8.86481 14.6007 8.86234 14.5968 8.85987C14.5929 8.85781 14.5894 8.85534 14.5854 8.85328C14.5847 8.85287 14.5835 8.85246 14.5827 8.85164C14.578 8.84917 14.5737 8.8467 14.5694 8.84423C14.5694 8.84423 14.5694 8.84423 14.569 8.84423C14.5643 8.84176 14.5595 8.83888 14.5548 8.83641C14.5513 8.83435 14.5474 8.8327 14.5439 8.83065C14.5427 8.82982 14.5415 8.82941 14.5403 8.829C14.5368 8.82735 14.5337 8.82571 14.5301 8.82365C14.5278 8.82241 14.5254 8.82118 14.5231 8.81994C14.5199 8.81871 14.5172 8.81706 14.5144 8.81583C14.5132 8.81542 14.5125 8.815 14.5113 8.81418C14.5097 8.81336 14.5078 8.81253 14.5062 8.81171C14.5062 8.81171 14.503 8.81006 14.5019 8.80965C14.5003 8.80883 14.4987 8.80842 14.4972 8.8076C14.4972 8.8076 14.4972 8.8076 14.4968 8.8076C14.4956 8.80718 14.4944 8.80636 14.4932 8.80595C14.4893 8.8043 14.4858 8.80224 14.4819 8.8006C14.4811 8.8006 14.4807 8.80019 14.4799 8.79977C14.4764 8.79813 14.4724 8.79648 14.4689 8.79484C14.4681 8.79484 14.4673 8.79401 14.467 8.79401C14.4658 8.7936 14.4646 8.79278 14.463 8.79237C14.4618 8.79195 14.4607 8.79113 14.4595 8.79072C14.4571 8.78948 14.4544 8.78866 14.452 8.78743C14.4473 8.78537 14.443 8.78372 14.4383 8.78166C14.4356 8.78043 14.4332 8.77961 14.4305 8.77837C14.4289 8.77755 14.4277 8.77714 14.4261 8.77672C14.4254 8.77672 14.4246 8.7759 14.4234 8.77549C14.4226 8.77549 14.4222 8.77508 14.4214 8.77467C14.4199 8.77384 14.4179 8.77343 14.4163 8.77261C14.4132 8.77137 14.4101 8.77014 14.4065 8.7689C14.4057 8.7689 14.4053 8.76849 14.4046 8.76808C14.4002 8.76644 14.3955 8.76479 14.3908 8.76314C14.3908 8.76314 14.39 8.76314 14.3897 8.76314C14.3849 8.76149 14.3798 8.75944 14.3751 8.75779C14.3747 8.75779 14.3744 8.75779 14.374 8.75738C14.37 8.75614 14.3657 8.7545 14.3618 8.75326C14.3614 8.75326 14.3606 8.75285 14.3602 8.75285C14.3602 8.75285 14.3602 8.75285 14.3598 8.75285C14.3551 8.7512 14.35 8.74956 14.3453 8.74791C14.3453 8.74791 14.3445 8.74791 14.3441 8.74791C14.343 8.74791 14.3418 8.74709 14.3406 8.74668C14.3394 8.74627 14.3379 8.74585 14.3367 8.74544C14.3343 8.74462 14.3316 8.7438 14.3292 8.74297H14.3284C14.3273 8.74297 14.3265 8.74215 14.3253 8.74215C14.3214 8.74092 14.3175 8.73968 14.3135 8.73845C14.3112 8.73762 14.3088 8.73721 14.3065 8.73639C14.3037 8.73556 14.301 8.73474 14.2982 8.73392C14.2943 8.73268 14.2908 8.73186 14.2869 8.73063C14.2853 8.73063 14.2837 8.7298 14.2825 8.72939C14.2821 8.72939 14.2814 8.72939 14.281 8.72898C14.2794 8.72857 14.2774 8.72816 14.2759 8.72774C14.2723 8.72692 14.2688 8.72569 14.2649 8.72486C14.259 8.72322 14.2535 8.72198 14.2476 8.72075C14.2425 8.71951 14.2374 8.71828 14.2323 8.71704C14.2307 8.71704 14.2296 8.71622 14.228 8.71622C14.2272 8.71622 14.2268 8.71622 14.2264 8.71622C14.226 8.71622 14.2253 8.71622 14.2249 8.71622C14.2221 8.7154 14.2198 8.71498 14.217 8.71457C14.2166 8.71457 14.2162 8.71457 14.2154 8.71457C14.2099 8.71334 14.2045 8.71251 14.199 8.71128C14.1939 8.71046 14.1892 8.70922 14.1841 8.7084C14.1801 8.70757 14.1762 8.70675 14.1719 8.70634C14.1703 8.70634 14.1691 8.70593 14.1676 8.70552C14.166 8.70552 14.1644 8.70511 14.1629 8.70469C14.1589 8.70387 14.1546 8.70346 14.1507 8.70264C14.1476 8.70222 14.144 8.7014 14.1409 8.70099C14.1381 8.70058 14.135 8.70017 14.1323 8.69975C14.1272 8.69893 14.1221 8.69852 14.117 8.6977C14.1134 8.69728 14.1099 8.69687 14.106 8.69646C14.1044 8.69646 14.1024 8.69605 14.1009 8.69564C14.1009 8.69564 14.1009 8.69564 14.1005 8.69564C14.0989 8.69564 14.0977 8.69564 14.0962 8.69523C14.0962 8.69523 14.0954 8.69523 14.095 8.69523C14.0915 8.69481 14.0879 8.6944 14.0844 8.69399C14.0801 8.69358 14.0758 8.69317 14.0714 8.69276C14.0703 8.69276 14.0691 8.69276 14.0679 8.69276C14.0671 8.69276 14.0659 8.69276 14.0652 8.69276C14.0605 8.69235 14.0557 8.69193 14.0514 8.69152C14.0459 8.69111 14.0401 8.6907 14.0346 8.69029C14.0275 8.68988 14.0204 8.68946 14.0134 8.68905C14.0091 8.68905 14.0051 8.68864 14.0008 8.68823H14C13.9969 8.68823 13.9938 8.68823 13.9906 8.68823C13.9883 8.68823 13.9859 8.68823 13.9836 8.68823H13.9832C13.9808 8.68823 13.9785 8.68823 13.9761 8.68823C13.973 8.68823 13.9698 8.68823 13.9667 8.68823C13.9659 8.68823 13.9651 8.68823 13.9643 8.68823C13.9616 8.68823 13.9588 8.68823 13.9561 8.68823C13.9526 8.68823 13.949 8.68823 13.9455 8.68823C13.942 8.68823 13.938 8.68823 13.9341 8.68823C13.8717 8.68823 13.8101 8.69193 13.7493 8.69811C13.7348 8.69975 13.7207 8.70099 13.7061 8.70305C13.6991 8.70387 13.692 8.70469 13.685 8.70593C13.6779 8.70675 13.6708 8.70799 13.6638 8.70881C13.6571 8.70963 13.6508 8.71046 13.6442 8.71169C13.6434 8.71169 13.643 8.71169 13.6422 8.71169C13.6281 8.71375 13.6139 8.71622 13.5998 8.71869C13.5928 8.71992 13.5857 8.72116 13.5786 8.72239C13.5751 8.72322 13.5712 8.72363 13.5676 8.72445C13.5641 8.72527 13.5602 8.7261 13.5567 8.72651C13.5476 8.72816 13.5386 8.73021 13.5296 8.73227C13.5202 8.73433 13.5107 8.73639 13.5013 8.73845C13.5009 8.73845 13.5005 8.73845 13.5002 8.73845C13.4907 8.7405 13.4809 8.74297 13.4715 8.74544C13.4617 8.74791 13.4519 8.75038 13.4417 8.75285C13.4362 8.75409 13.4307 8.75573 13.4252 8.75738C13.4142 8.76026 13.4032 8.76355 13.3923 8.76643C13.3868 8.76808 13.3813 8.76973 13.3758 8.77137C13.3703 8.77302 13.3648 8.77467 13.3593 8.77631C13.3538 8.77796 13.3483 8.77961 13.3432 8.78125C13.3381 8.7829 13.3326 8.78455 13.3275 8.7866C13.3275 8.7866 13.3271 8.7866 13.3267 8.7866C13.3216 8.78825 13.3161 8.7899 13.311 8.79195C13.3055 8.7936 13.3004 8.79566 13.2949 8.79772C13.2898 8.79936 13.2847 8.80142 13.2796 8.80307C13.2757 8.80471 13.2714 8.80595 13.2675 8.8076C13.2643 8.80883 13.2608 8.81006 13.2577 8.8113C13.2451 8.81624 13.2322 8.82077 13.2196 8.82571C13.2165 8.82694 13.2137 8.82818 13.2106 8.82941C13.2071 8.83065 13.2035 8.83229 13.2 8.83353C13.1937 8.836 13.1874 8.83888 13.1812 8.84135C13.1776 8.84258 13.1741 8.84423 13.1706 8.84587C13.1611 8.84999 13.1517 8.85411 13.1423 8.85822C13.1372 8.86069 13.1317 8.86316 13.1266 8.86522C13.1223 8.86728 13.118 8.86934 13.1133 8.87139C13.0968 8.87921 13.0803 8.88704 13.0642 8.89486C13.0595 8.89691 13.0552 8.89938 13.0505 8.90185C12.9936 8.93067 12.9383 8.96195 12.8845 8.99611C12.4831 9.24925 12.1708 9.64151 12.0076 10.1095C11.966 10.2289 11.9342 10.3532 11.913 10.4812C11.893 10.3606 11.8828 10.2363 11.8828 10.1095C11.8828 9.98273 11.893 9.85843 11.913 9.73783C12.0609 8.84011 12.7358 8.13215 13.5908 7.97656C13.7128 7.99879 13.8313 8.03213 13.9451 8.07576C14.3908 8.24699 14.7648 8.57504 15.0057 8.99611C15.1885 9.31552 15.2948 9.68843 15.2988 10.0869C15.2988 10.0807 15.2988 10.0749 15.2984 10.0692L15.2917 10.0655Z" fill="url(#paint5_linear_4561_16377)"/>
<path d="M14.2926 12.2391C14.1777 12.2601 14.0592 12.2708 13.9383 12.2708C13.8175 12.2708 13.699 12.2601 13.584 12.2391C12.7287 12.0839 12.0542 11.3756 11.9062 10.4778C11.9274 10.3498 11.9592 10.2255 12.0008 10.1062C12.164 9.63817 12.4764 9.24591 12.8778 8.99277C12.9315 8.95902 12.9868 8.92733 13.0437 8.89851C13.0484 8.89604 13.0528 8.89399 13.0575 8.89152C13.0735 8.88329 13.09 8.87546 13.1065 8.86806C13.1108 8.866 13.1151 8.86394 13.1198 8.86188C13.1249 8.85941 13.1304 8.85694 13.1355 8.85488C13.145 8.85077 13.1544 8.84665 13.1638 8.84254C13.1673 8.84089 13.1709 8.83965 13.1744 8.83801C13.1807 8.83554 13.1869 8.83266 13.1932 8.83019C13.1967 8.82854 13.2003 8.82731 13.2038 8.82607C13.207 8.82484 13.2097 8.8236 13.2128 8.82237C13.2254 8.81743 13.2379 8.81249 13.2509 8.80796C13.254 8.80673 13.2576 8.80549 13.2607 8.80426C13.2646 8.80261 13.2686 8.80138 13.2729 8.79973C13.278 8.79808 13.2831 8.79602 13.2882 8.79438C13.2937 8.79232 13.2988 8.79067 13.3043 8.78862C13.3098 8.78697 13.3149 8.78491 13.32 8.78327C13.32 8.78327 13.3203 8.78327 13.3207 8.78327L13.3364 8.77791C13.3419 8.77627 13.3474 8.77462 13.3525 8.77298C13.358 8.77133 13.3635 8.76968 13.369 8.76804C13.3745 8.76639 13.38 8.76474 13.3855 8.7631C13.3965 8.7598 13.4075 8.75692 13.4184 8.75404C13.4239 8.75239 13.4294 8.75116 13.4349 8.74951C13.4447 8.74704 13.4545 8.74457 13.4647 8.7421C13.4742 8.73963 13.484 8.73758 13.4934 8.73511C13.4938 8.73511 13.4942 8.73511 13.4946 8.73511C13.504 8.73305 13.5134 8.73099 13.5228 8.72893C13.5318 8.72687 13.5409 8.72523 13.5499 8.72317C13.5534 8.72235 13.5573 8.72152 13.5609 8.72111C13.5644 8.72029 13.5683 8.71988 13.5719 8.71905C13.5789 8.71782 13.586 8.71659 13.593 8.71535C13.6072 8.71288 13.6213 8.71041 13.6354 8.70835C13.6362 8.70835 13.6366 8.70835 13.6374 8.70835C13.6437 8.70753 13.6503 8.70629 13.657 8.70547C13.6641 8.70465 13.6711 8.70341 13.6782 8.70259C13.6852 8.70177 13.6923 8.70094 13.6994 8.69971C13.7135 8.69806 13.728 8.69642 13.7425 8.69477C13.8002 8.68901 13.8583 8.68571 13.9171 8.6853C13.1865 8.69724 12.596 9.31671 12.5847 10.0839C12.5847 10.0864 12.5847 10.0885 12.5847 10.0909C12.5847 10.0963 12.5847 10.1012 12.5847 10.1066C12.5847 10.1119 12.5847 10.1169 12.5847 10.1222C12.5847 10.1247 12.5847 10.1267 12.5847 10.1292C12.5886 10.5281 12.6949 10.901 12.8778 11.22C13.1187 11.641 13.4926 11.9691 13.9383 12.1403C14.0521 12.184 14.1706 12.2173 14.2926 12.2395V12.2391Z" fill="url(#paint6_linear_4561_16377)"/>
<path d="M16.0023 10.1058C16.0023 10.2326 15.9921 10.3569 15.9721 10.4775C15.8242 11.3752 15.1493 12.0832 14.2939 12.2388C14.1719 12.2165 14.0534 12.1832 13.9396 12.1396C13.4939 11.9683 13.12 11.6403 12.879 11.2192C12.6962 10.8998 12.5899 10.5269 12.5859 10.1284C12.5973 10.8957 13.1874 11.5152 13.9184 11.5271C13.9208 11.5271 13.9227 11.5271 13.9251 11.5271C13.9302 11.5271 13.9349 11.5271 13.94 11.5271C13.9451 11.5271 13.9498 11.5271 13.9549 11.5271C13.9573 11.5271 13.9592 11.5271 13.9616 11.5271C14.3414 11.523 14.6965 11.4114 15.001 11.2192C15.4024 10.9661 15.7147 10.5738 15.8779 10.1058C15.9195 9.98645 15.9513 9.86214 15.9725 9.73413C15.9925 9.85514 16.0027 9.97904 16.0027 10.1058H16.0023Z" fill="url(#paint7_linear_4561_16377)"/>
<path d="M15.9723 9.73412C15.9511 9.86213 15.9194 9.98643 15.8778 10.1058C15.7149 10.5738 15.4022 10.9661 15.0008 11.2192C14.6967 11.411 14.3412 11.523 13.9614 11.5271C14.692 11.5151 15.2825 10.8957 15.2939 10.1284C15.2939 10.126 15.2939 10.1239 15.2939 10.1214C15.2939 10.1161 15.2939 10.1112 15.2939 10.1058C15.2939 10.1004 15.2939 10.0955 15.2939 10.0902C15.2939 10.0877 15.2939 10.0856 15.2939 10.0832C15.29 9.68431 15.1837 9.3114 15.0008 8.9924C14.7599 8.57133 14.386 8.24328 13.9402 8.07205C13.8265 8.02842 13.708 7.99508 13.5859 7.97286C13.7009 7.95186 13.8194 7.94116 13.9402 7.94116C14.0611 7.94116 14.1796 7.95186 14.2946 7.97286C15.1499 8.12844 15.8244 8.83641 15.9727 9.73412H15.9723Z" fill="url(#paint8_linear_4561_16377)"/>
</g>
<mask id="mask1_4561_16377" style="mask-type:luminance" maskUnits="userSpaceOnUse" x="11" y="8" width="3" height="5">
<path d="M13.1957 11.2928C13.1188 11.2397 13.0474 11.1784 12.9815 11.1093C12.8571 10.9788 12.7594 10.8269 12.6915 10.6577C12.6213 10.4832 12.5856 10.2976 12.5856 10.1054C12.5856 9.91314 12.6213 9.7275 12.6915 9.55298C12.7594 9.38422 12.8571 9.23234 12.9815 9.10145C13.0474 9.0323 13.1192 8.97097 13.1957 8.91787C13.2153 8.90429 13.2271 8.88165 13.2271 8.85737V8.17821C13.2271 8.12635 13.1769 8.09137 13.1314 8.11195C12.3929 8.44123 11.875 9.2097 11.875 10.1054C11.875 11.001 12.3929 11.7691 13.1314 12.0988C13.1769 12.1189 13.2271 12.0839 13.2271 12.0325V11.3533C13.2271 11.3291 13.2153 11.3064 13.1957 11.2928Z" fill="white"/>
</mask>
<g mask="url(#mask1_4561_16377)">
<path d="M15.2917 10.0655C15.2917 10.0597 15.2917 10.0535 15.2913 10.0478C15.2913 10.0478 15.2913 10.0469 15.2913 10.0465C15.2913 10.0408 15.2909 10.035 15.2905 10.0292C15.2905 10.0292 15.2905 10.0292 15.2905 10.0288C15.2905 10.0231 15.2897 10.0177 15.2897 10.012C15.2897 10.012 15.2897 10.0115 15.2897 10.0111C15.2897 10.0054 15.289 9.99961 15.2886 9.99426C15.2886 9.99426 15.2886 9.99384 15.2886 9.99343C15.2886 9.98932 15.2878 9.98479 15.2874 9.98067C15.2874 9.97944 15.2874 9.97779 15.2874 9.97656C15.2874 9.97656 15.2874 9.97573 15.2874 9.97532C15.2866 9.96709 15.2858 9.95886 15.285 9.95063C15.285 9.94733 15.2843 9.94445 15.2839 9.94116C15.2839 9.9391 15.2835 9.93704 15.2831 9.9354C15.2827 9.93169 15.2823 9.92758 15.2819 9.92387C15.2819 9.92222 15.2819 9.92099 15.2815 9.91934C15.2811 9.91523 15.2803 9.9107 15.2799 9.90658C15.2795 9.90288 15.2788 9.89917 15.2784 9.89547C15.2776 9.89012 15.2768 9.88477 15.276 9.87942C15.276 9.87901 15.276 9.87859 15.276 9.87818C15.2756 9.87489 15.2752 9.87201 15.2744 9.86872C15.2744 9.86789 15.2744 9.86707 15.2744 9.86625C15.2744 9.86501 15.2744 9.86419 15.2741 9.86295C15.2741 9.86172 15.2737 9.86048 15.2737 9.85925C15.2737 9.85925 15.2737 9.85884 15.2737 9.85843C15.2737 9.8576 15.2737 9.85637 15.2733 9.85554C15.2733 9.85513 15.2733 9.85472 15.2733 9.85431C15.2733 9.85349 15.2733 9.85266 15.2733 9.85225C15.2725 9.84814 15.2717 9.84443 15.2713 9.84031C15.2705 9.83661 15.2697 9.83249 15.2693 9.82879C15.269 9.82591 15.2682 9.82303 15.2678 9.82015C15.2678 9.81932 15.2678 9.8185 15.2674 9.81768C15.2674 9.81685 15.2674 9.81644 15.267 9.81562C15.267 9.81438 15.2666 9.81356 15.2662 9.81233C15.2654 9.80903 15.265 9.80574 15.2642 9.80245V9.80121C15.2642 9.80121 15.2639 9.80039 15.2639 9.79998V9.79792C15.2639 9.79792 15.2631 9.79669 15.2631 9.79586C15.2627 9.7938 15.2623 9.79133 15.2615 9.78928C15.2615 9.78804 15.2611 9.78681 15.2607 9.78557C15.2595 9.77981 15.2584 9.77446 15.2568 9.7687C15.2564 9.76664 15.256 9.76499 15.2556 9.76293L15.2529 9.75182C15.2529 9.75182 15.2529 9.75017 15.2521 9.74935V9.74894C15.2521 9.7477 15.2517 9.74688 15.2513 9.74565C15.2505 9.74194 15.2497 9.73865 15.2485 9.73494C15.2485 9.73494 15.2485 9.73371 15.2482 9.73289C15.2482 9.73289 15.2482 9.73206 15.2482 9.73165C15.247 9.72712 15.2458 9.7226 15.2446 9.71848C15.2431 9.71313 15.2415 9.70737 15.2399 9.70202C15.2399 9.7016 15.2399 9.70078 15.2395 9.70037C15.2395 9.69996 15.2395 9.69913 15.2391 9.69872C15.238 9.69378 15.2364 9.68926 15.2352 9.68473C15.2336 9.67979 15.2321 9.67485 15.2305 9.6695C15.2297 9.66744 15.2293 9.66538 15.2285 9.66291C15.2278 9.66044 15.2274 9.6588 15.2266 9.65633C15.2266 9.65509 15.2258 9.65427 15.2254 9.65303C15.225 9.6518 15.2246 9.65056 15.2242 9.64933C15.223 9.64521 15.2215 9.6411 15.2203 9.63698C15.2187 9.63287 15.2176 9.62834 15.216 9.62422C15.2156 9.62258 15.2148 9.62093 15.2144 9.61928C15.2136 9.6164 15.2125 9.61352 15.2113 9.61105C15.2113 9.61023 15.2105 9.60899 15.2101 9.60817C15.2097 9.60652 15.2089 9.60488 15.2085 9.60323C15.2085 9.60241 15.2081 9.60158 15.2077 9.60076C15.2073 9.59911 15.2066 9.59747 15.2058 9.59582C15.205 9.59376 15.2042 9.59129 15.2034 9.58924C15.2015 9.58388 15.1995 9.57853 15.1975 9.57359C15.1975 9.57318 15.1975 9.57277 15.1971 9.57236C15.1956 9.56824 15.194 9.56372 15.192 9.5596C15.192 9.55878 15.1917 9.55836 15.1913 9.55754C15.1897 9.55343 15.1877 9.54931 15.1862 9.54478C15.1862 9.54396 15.1854 9.54314 15.1854 9.54231C15.1854 9.54231 15.1854 9.54149 15.185 9.54149C15.183 9.53696 15.1815 9.53243 15.1795 9.52791C15.1795 9.52749 15.1791 9.52708 15.1787 9.52626C15.1767 9.52132 15.1744 9.51638 15.172 9.51103C15.1709 9.50856 15.1697 9.50609 15.1685 9.50321C15.1673 9.50074 15.1662 9.49827 15.165 9.49539C15.1626 9.49045 15.1603 9.48551 15.1583 9.48057C15.1583 9.48057 15.1583 9.48016 15.1583 9.47975C15.1559 9.47522 15.154 9.47069 15.1516 9.46575C15.1516 9.46575 15.1516 9.46493 15.1512 9.46452C15.1512 9.46452 15.1512 9.46452 15.1512 9.46411C15.1497 9.4604 15.1477 9.45711 15.1461 9.45341C15.1461 9.45258 15.1457 9.45217 15.1454 9.45176C15.1454 9.45094 15.1446 9.45052 15.1446 9.4497C15.143 9.44641 15.1414 9.44353 15.1399 9.44023C15.1391 9.43859 15.1379 9.43653 15.1371 9.43447C15.1371 9.43406 15.1367 9.43324 15.1363 9.43283C15.1352 9.43077 15.134 9.4283 15.1328 9.42624C15.1316 9.42418 15.1304 9.42171 15.1293 9.41965C15.1285 9.41801 15.1273 9.41595 15.1265 9.4143C15.1265 9.4143 15.1265 9.4143 15.1265 9.41389C15.1257 9.41225 15.1246 9.41019 15.1238 9.40854C15.1234 9.40731 15.1226 9.40607 15.1218 9.40484C15.1206 9.40278 15.1199 9.40113 15.1187 9.39907C15.1175 9.3966 15.1159 9.39413 15.1148 9.39166C15.1148 9.39166 15.114 9.39002 15.1136 9.3892C15.1132 9.38837 15.1128 9.38755 15.1124 9.38673C15.112 9.3859 15.1116 9.38508 15.1112 9.38426C15.1096 9.38137 15.1081 9.37849 15.1065 9.37561C15.1065 9.3752 15.1061 9.37479 15.1057 9.37438C15.1057 9.37397 15.1049 9.37314 15.1049 9.37273C15.1045 9.37191 15.1038 9.37067 15.1034 9.36985C15.1022 9.36779 15.1006 9.36532 15.0994 9.36326C15.0994 9.36285 15.0987 9.36203 15.0987 9.36162C15.0987 9.36121 15.0983 9.36079 15.0979 9.36038C15.0955 9.35627 15.0932 9.35215 15.0904 9.34803C15.0889 9.34556 15.0877 9.34309 15.0861 9.34104C15.0853 9.3398 15.0845 9.33816 15.0838 9.33692C15.083 9.33569 15.0822 9.33445 15.0814 9.33322C15.0806 9.33157 15.0794 9.32992 15.0787 9.32869C15.0783 9.32787 15.0779 9.32704 15.0771 9.32622C15.0755 9.32375 15.0743 9.32169 15.0728 9.31922C15.0704 9.31552 15.0681 9.31181 15.0657 9.30811C15.0653 9.30729 15.0645 9.30605 15.0641 9.30523C15.0637 9.3044 15.0634 9.30399 15.063 9.30317C15.0602 9.29947 15.0579 9.29535 15.0551 9.29164C15.0524 9.28794 15.05 9.28382 15.0473 9.28012C15.0469 9.2793 15.0465 9.27888 15.0457 9.27806C15.0449 9.27724 15.0445 9.27641 15.0441 9.27559C15.0414 9.27189 15.039 9.26818 15.0363 9.26448C15.0351 9.26242 15.0335 9.26036 15.032 9.2583C15.0304 9.25583 15.0288 9.25378 15.0273 9.25131C15.0269 9.2509 15.0265 9.25007 15.0261 9.24966C15.0245 9.24719 15.0225 9.24472 15.021 9.24266C15.0198 9.24102 15.0186 9.23937 15.0174 9.23772C15.0147 9.23361 15.0116 9.2299 15.0088 9.2262C15.008 9.22537 15.0076 9.22455 15.0068 9.22332C15.0037 9.2192 15.001 9.2155 14.9978 9.21138C14.9963 9.20891 14.9943 9.20685 14.9923 9.20438C14.9915 9.20315 14.9904 9.20191 14.9892 9.20068C14.988 9.19903 14.9864 9.19739 14.9853 9.19574C14.9841 9.19409 14.9829 9.19286 14.9817 9.19162C14.9806 9.18998 14.9794 9.18874 14.9782 9.1871C14.9774 9.18586 14.9766 9.18504 14.9759 9.18421C14.9743 9.18257 14.9731 9.18051 14.9715 9.17886C14.9704 9.17763 14.9696 9.17639 14.9684 9.17516C14.968 9.17434 14.9672 9.17393 14.9668 9.1731C14.9664 9.17269 14.966 9.17187 14.9653 9.17104C14.9621 9.16734 14.9594 9.16405 14.9562 9.16034C14.9527 9.15623 14.9492 9.15211 14.9456 9.14799C14.9421 9.14388 14.9386 9.13976 14.9347 9.13565C14.9311 9.13153 14.9272 9.12741 14.9237 9.12371C14.9162 9.11548 14.9091 9.10766 14.9013 9.09984C14.8993 9.09778 14.8978 9.09572 14.8958 9.09407C14.8938 9.09201 14.8919 9.09037 14.8899 9.08831C14.886 9.08461 14.8825 9.08049 14.8785 9.07679C14.8746 9.07308 14.8707 9.06897 14.8668 9.06526C14.8628 9.06156 14.8589 9.05785 14.855 9.05374C14.8511 9.05003 14.8472 9.04633 14.8432 9.04262C14.8401 9.03974 14.8366 9.03645 14.8334 9.03357C14.8326 9.03274 14.8319 9.03233 14.8315 9.03151C14.8275 9.0278 14.8236 9.0241 14.8193 9.02081C14.8154 9.01751 14.8118 9.01422 14.8079 9.01093C14.8071 9.01011 14.806 9.00928 14.8052 9.00846C14.8028 9.0064 14.8009 9.00475 14.7985 9.0027C14.7981 9.00228 14.7973 9.00187 14.7969 9.00146C14.7961 9.00105 14.7958 9.00064 14.7954 8.99981C14.7926 8.99735 14.7899 8.99529 14.7871 8.99282C14.7859 8.99199 14.7848 8.99076 14.784 8.98994C14.784 8.98994 14.7836 8.98953 14.7832 8.98911C14.7808 8.98747 14.7789 8.98541 14.7765 8.98376C14.775 8.98253 14.7734 8.98088 14.7714 8.97965C14.7714 8.97965 14.7706 8.97882 14.7703 8.97882C14.7659 8.97553 14.762 8.97183 14.7577 8.96853C14.7534 8.96524 14.7495 8.96195 14.7451 8.95865C14.7447 8.95865 14.7444 8.95783 14.744 8.95783C14.7404 8.95495 14.7369 8.95248 14.7334 8.95001C14.7334 8.95001 14.7326 8.94919 14.7322 8.94919C14.731 8.94836 14.7302 8.94754 14.7291 8.94672C14.7279 8.9459 14.7271 8.94507 14.7259 8.94425C14.7247 8.94343 14.7232 8.94219 14.722 8.94137C14.7212 8.94096 14.7208 8.94054 14.72 8.93972C14.72 8.93972 14.7192 8.93931 14.7189 8.9389C14.7145 8.9356 14.7102 8.93272 14.7055 8.92943C14.7032 8.92778 14.7012 8.92614 14.6988 8.9249C14.6965 8.92326 14.6945 8.92202 14.6922 8.92038C14.691 8.91955 14.6898 8.91873 14.689 8.91791C14.6882 8.91749 14.6879 8.91708 14.6871 8.91667C14.6867 8.91667 14.6863 8.91626 14.6859 8.91585C14.6843 8.91461 14.6824 8.91338 14.6808 8.91214C14.6804 8.91214 14.68 8.91173 14.6792 8.91132C14.6788 8.91132 14.678 8.9105 14.6777 8.9105C14.6737 8.90762 14.6694 8.90515 14.6655 8.90226C14.6631 8.90062 14.6612 8.89938 14.6588 8.89774C14.6565 8.89609 14.6545 8.89486 14.6521 8.89321C14.6521 8.89321 14.6518 8.89321 14.6514 8.8928C14.6478 8.89074 14.6443 8.88827 14.6408 8.88621C14.64 8.8858 14.6392 8.88498 14.6384 8.88457C14.6345 8.8821 14.631 8.87963 14.627 8.87757C14.6259 8.87674 14.6247 8.87592 14.6235 8.87551C14.6208 8.87386 14.6184 8.87222 14.6157 8.87098C14.6149 8.87057 14.6141 8.87016 14.6133 8.86975C14.6117 8.86893 14.6102 8.8681 14.609 8.86728C14.6051 8.86481 14.6007 8.86234 14.5968 8.85987C14.5929 8.85781 14.5894 8.85534 14.5854 8.85328C14.5847 8.85287 14.5835 8.85246 14.5827 8.85164C14.578 8.84917 14.5737 8.8467 14.5694 8.84423C14.5694 8.84423 14.5694 8.84423 14.569 8.84423C14.5643 8.84176 14.5595 8.83888 14.5548 8.83641C14.5513 8.83435 14.5474 8.8327 14.5439 8.83065C14.5427 8.82982 14.5415 8.82941 14.5403 8.829C14.5368 8.82735 14.5337 8.82571 14.5301 8.82365C14.5278 8.82241 14.5254 8.82118 14.5231 8.81994C14.5199 8.81871 14.5172 8.81706 14.5144 8.81583C14.5132 8.81542 14.5125 8.815 14.5113 8.81418C14.5097 8.81336 14.5078 8.81253 14.5062 8.81171C14.5062 8.81171 14.503 8.81006 14.5019 8.80965C14.5003 8.80883 14.4987 8.80842 14.4972 8.8076C14.4972 8.8076 14.4972 8.8076 14.4968 8.8076C14.4956 8.80718 14.4944 8.80636 14.4932 8.80595C14.4893 8.8043 14.4858 8.80224 14.4819 8.8006C14.4811 8.8006 14.4807 8.80019 14.4799 8.79977C14.4764 8.79813 14.4724 8.79648 14.4689 8.79484C14.4681 8.79484 14.4673 8.79401 14.467 8.79401C14.4658 8.7936 14.4646 8.79278 14.463 8.79237C14.4618 8.79195 14.4607 8.79113 14.4595 8.79072C14.4571 8.78948 14.4544 8.78866 14.452 8.78743C14.4473 8.78537 14.443 8.78372 14.4383 8.78166C14.4356 8.78043 14.4332 8.77961 14.4305 8.77837C14.4289 8.77755 14.4277 8.77714 14.4261 8.77672C14.4254 8.77672 14.4246 8.7759 14.4234 8.77549C14.4226 8.77549 14.4222 8.77508 14.4214 8.77467C14.4199 8.77384 14.4179 8.77343 14.4163 8.77261C14.4132 8.77137 14.4101 8.77014 14.4065 8.7689C14.4057 8.7689 14.4053 8.76849 14.4046 8.76808C14.4002 8.76644 14.3955 8.76479 14.3908 8.76314C14.3908 8.76314 14.39 8.76314 14.3897 8.76314C14.3849 8.76149 14.3798 8.75944 14.3751 8.75779C14.3747 8.75779 14.3744 8.75779 14.374 8.75738C14.37 8.75614 14.3657 8.7545 14.3618 8.75326C14.3614 8.75326 14.3606 8.75285 14.3602 8.75285C14.3602 8.75285 14.3602 8.75285 14.3598 8.75285C14.3551 8.7512 14.35 8.74956 14.3453 8.74791C14.3453 8.74791 14.3445 8.74791 14.3441 8.74791C14.343 8.74791 14.3418 8.74709 14.3406 8.74668C14.3394 8.74627 14.3379 8.74585 14.3367 8.74544C14.3343 8.74462 14.3316 8.7438 14.3292 8.74297H14.3284C14.3273 8.74297 14.3265 8.74215 14.3253 8.74215C14.3214 8.74092 14.3175 8.73968 14.3135 8.73845C14.3112 8.73762 14.3088 8.73721 14.3065 8.73639C14.3037 8.73556 14.301 8.73474 14.2982 8.73392C14.2943 8.73268 14.2908 8.73186 14.2869 8.73063C14.2853 8.73063 14.2837 8.7298 14.2825 8.72939C14.2821 8.72939 14.2814 8.72939 14.281 8.72898C14.2794 8.72857 14.2774 8.72816 14.2759 8.72774C14.2723 8.72692 14.2688 8.72569 14.2649 8.72486C14.259 8.72322 14.2535 8.72198 14.2476 8.72075C14.2425 8.71951 14.2374 8.71828 14.2323 8.71704C14.2307 8.71704 14.2296 8.71622 14.228 8.71622C14.2272 8.71622 14.2268 8.71622 14.2264 8.71622C14.226 8.71622 14.2253 8.71622 14.2249 8.71622C14.2221 8.7154 14.2198 8.71498 14.217 8.71457C14.2166 8.71457 14.2162 8.71457 14.2154 8.71457C14.2099 8.71334 14.2045 8.71251 14.199 8.71128C14.1939 8.71046 14.1892 8.70922 14.1841 8.7084C14.1801 8.70757 14.1762 8.70675 14.1719 8.70634C14.1703 8.70634 14.1691 8.70593 14.1676 8.70552C14.166 8.70552 14.1644 8.70511 14.1629 8.70469C14.1589 8.70387 14.1546 8.70346 14.1507 8.70264C14.1476 8.70222 14.144 8.7014 14.1409 8.70099C14.1381 8.70058 14.135 8.70017 14.1323 8.69975C14.1272 8.69893 14.1221 8.69852 14.117 8.6977C14.1134 8.69728 14.1099 8.69687 14.106 8.69646C14.1044 8.69646 14.1024 8.69605 14.1009 8.69564C14.1009 8.69564 14.1009 8.69564 14.1005 8.69564C14.0989 8.69564 14.0977 8.69564 14.0962 8.69523C14.0962 8.69523 14.0954 8.69523 14.095 8.69523C14.0915 8.69481 14.0879 8.6944 14.0844 8.69399C14.0801 8.69358 14.0758 8.69317 14.0714 8.69276C14.0703 8.69276 14.0691 8.69276 14.0679 8.69276C14.0671 8.69276 14.0659 8.69276 14.0652 8.69276C14.0605 8.69235 14.0557 8.69193 14.0514 8.69152C14.0459 8.69111 14.0401 8.6907 14.0346 8.69029C14.0275 8.68988 14.0204 8.68946 14.0134 8.68905C14.0091 8.68905 14.0051 8.68864 14.0008 8.68823H14C13.9969 8.68823 13.9938 8.68823 13.9906 8.68823C13.9883 8.68823 13.9859 8.68823 13.9836 8.68823H13.9832C13.9808 8.68823 13.9785 8.68823 13.9761 8.68823C13.973 8.68823 13.9698 8.68823 13.9667 8.68823C13.9659 8.68823 13.9651 8.68823 13.9643 8.68823C13.9616 8.68823 13.9588 8.68823 13.9561 8.68823C13.9526 8.68823 13.949 8.68823 13.9455 8.68823C13.942 8.68823 13.938 8.68823 13.9341 8.68823C13.8717 8.68823 13.8101 8.69193 13.7493 8.69811C13.7348 8.69975 13.7207 8.70099 13.7061 8.70305C13.6991 8.70387 13.692 8.70469 13.685 8.70593C13.6779 8.70675 13.6708 8.70799 13.6638 8.70881C13.6571 8.70963 13.6508 8.71046 13.6442 8.71169C13.6434 8.71169 13.643 8.71169 13.6422 8.71169C13.6281 8.71375 13.6139 8.71622 13.5998 8.71869C13.5928 8.71992 13.5857 8.72116 13.5786 8.72239C13.5751 8.72322 13.5712 8.72363 13.5676 8.72445C13.5641 8.72527 13.5602 8.7261 13.5567 8.72651C13.5476 8.72816 13.5386 8.73021 13.5296 8.73227C13.5202 8.73433 13.5107 8.73639 13.5013 8.73845C13.5009 8.73845 13.5005 8.73845 13.5002 8.73845C13.4907 8.7405 13.4809 8.74297 13.4715 8.74544C13.4617 8.74791 13.4519 8.75038 13.4417 8.75285C13.4362 8.75409 13.4307 8.75573 13.4252 8.75738C13.4142 8.76026 13.4032 8.76355 13.3923 8.76643C13.3868 8.76808 13.3813 8.76973 13.3758 8.77137C13.3703 8.77302 13.3648 8.77467 13.3593 8.77631C13.3538 8.77796 13.3483 8.77961 13.3432 8.78125C13.3381 8.7829 13.3326 8.78455 13.3275 8.7866C13.3275 8.7866 13.3271 8.7866 13.3267 8.7866C13.3216 8.78825 13.3161 8.7899 13.311 8.79195C13.3055 8.7936 13.3004 8.79566 13.2949 8.79772C13.2898 8.79936 13.2847 8.80142 13.2796 8.80307C13.2757 8.80471 13.2714 8.80595 13.2675 8.8076C13.2643 8.80883 13.2608 8.81006 13.2577 8.8113C13.2451 8.81624 13.2322 8.82077 13.2196 8.82571C13.2165 8.82694 13.2137 8.82818 13.2106 8.82941C13.2071 8.83065 13.2035 8.83229 13.2 8.83353C13.1937 8.836 13.1874 8.83888 13.1812 8.84135C13.1776 8.84258 13.1741 8.84423 13.1706 8.84587C13.1611 8.84999 13.1517 8.85411 13.1423 8.85822C13.1372 8.86069 13.1317 8.86316 13.1266 8.86522C13.1223 8.86728 13.118 8.86934 13.1133 8.87139C13.0968 8.87921 13.0803 8.88704 13.0642 8.89486C13.0595 8.89691 13.0552 8.89938 13.0505 8.90185C12.9936 8.93067 12.9383 8.96195 12.8845 8.99611C12.4831 9.24925 12.1708 9.64151 12.0076 10.1095C11.966 10.2289 11.9342 10.3532 11.913 10.4812C11.893 10.3606 11.8828 10.2363 11.8828 10.1095C11.8828 9.98273 11.893 9.85843 11.913 9.73783C12.0609 8.84011 12.7358 8.13215 13.5908 7.97656C13.7128 7.99879 13.8313 8.03213 13.9451 8.07576C14.3908 8.24699 14.7648 8.57504 15.0057 8.99611C15.1885 9.31552 15.2948 9.68843 15.2988 10.0869C15.2988 10.0807 15.2988 10.0749 15.2984 10.0692L15.2917 10.0655Z" fill="url(#paint9_linear_4561_16377)"/>
<path d="M14.2926 12.2391C14.1777 12.2601 14.0592 12.2708 13.9383 12.2708C13.8175 12.2708 13.699 12.2601 13.584 12.2391C12.7287 12.0839 12.0542 11.3756 11.9062 10.4778C11.9274 10.3498 11.9592 10.2255 12.0008 10.1062C12.164 9.63817 12.4764 9.24591 12.8778 8.99277C12.9315 8.95902 12.9868 8.92733 13.0437 8.89851C13.0484 8.89604 13.0528 8.89399 13.0575 8.89152C13.0735 8.88329 13.09 8.87546 13.1065 8.86806C13.1108 8.866 13.1151 8.86394 13.1198 8.86188C13.1249 8.85941 13.1304 8.85694 13.1355 8.85488C13.145 8.85077 13.1544 8.84665 13.1638 8.84254C13.1673 8.84089 13.1709 8.83965 13.1744 8.83801C13.1807 8.83554 13.1869 8.83266 13.1932 8.83019C13.1967 8.82854 13.2003 8.82731 13.2038 8.82607C13.207 8.82484 13.2097 8.8236 13.2128 8.82237C13.2254 8.81743 13.2379 8.81249 13.2509 8.80796C13.254 8.80673 13.2576 8.80549 13.2607 8.80426C13.2646 8.80261 13.2686 8.80138 13.2729 8.79973C13.278 8.79808 13.2831 8.79602 13.2882 8.79438C13.2937 8.79232 13.2988 8.79067 13.3043 8.78862C13.3098 8.78697 13.3149 8.78491 13.32 8.78327C13.32 8.78327 13.3203 8.78327 13.3207 8.78327L13.3364 8.77791C13.3419 8.77627 13.3474 8.77462 13.3525 8.77298C13.358 8.77133 13.3635 8.76968 13.369 8.76804C13.3745 8.76639 13.38 8.76474 13.3855 8.7631C13.3965 8.7598 13.4075 8.75692 13.4184 8.75404C13.4239 8.75239 13.4294 8.75116 13.4349 8.74951C13.4447 8.74704 13.4545 8.74457 13.4647 8.7421C13.4742 8.73963 13.484 8.73758 13.4934 8.73511C13.4938 8.73511 13.4942 8.73511 13.4946 8.73511C13.504 8.73305 13.5134 8.73099 13.5228 8.72893C13.5318 8.72687 13.5409 8.72523 13.5499 8.72317C13.5534 8.72235 13.5573 8.72152 13.5609 8.72111C13.5644 8.72029 13.5683 8.71988 13.5719 8.71905C13.5789 8.71782 13.586 8.71659 13.593 8.71535C13.6072 8.71288 13.6213 8.71041 13.6354 8.70835C13.6362 8.70835 13.6366 8.70835 13.6374 8.70835C13.6437 8.70753 13.6503 8.70629 13.657 8.70547C13.6641 8.70465 13.6711 8.70341 13.6782 8.70259C13.6852 8.70177 13.6923 8.70094 13.6994 8.69971C13.7135 8.69806 13.728 8.69642 13.7425 8.69477C13.8002 8.68901 13.8583 8.68571 13.9171 8.6853C13.1865 8.69724 12.596 9.31671 12.5847 10.0839C12.5847 10.0864 12.5847 10.0885 12.5847 10.0909C12.5847 10.0963 12.5847 10.1012 12.5847 10.1066C12.5847 10.1119 12.5847 10.1169 12.5847 10.1222C12.5847 10.1247 12.5847 10.1267 12.5847 10.1292C12.5886 10.5281 12.6949 10.901 12.8778 11.22C13.1187 11.641 13.4926 11.9691 13.9383 12.1403C14.0521 12.184 14.1706 12.2173 14.2926 12.2395V12.2391Z" fill="url(#paint10_linear_4561_16377)"/>
<path d="M16.0023 10.1058C16.0023 10.2326 15.9921 10.3569 15.9721 10.4775C15.8242 11.3752 15.1493 12.0832 14.2939 12.2388C14.1719 12.2165 14.0534 12.1832 13.9396 12.1396C13.4939 11.9683 13.12 11.6403 12.879 11.2192C12.6962 10.8998 12.5899 10.5269 12.5859 10.1284C12.5973 10.8957 13.1874 11.5152 13.9184 11.5271C13.9208 11.5271 13.9227 11.5271 13.9251 11.5271C13.9302 11.5271 13.9349 11.5271 13.94 11.5271C13.9451 11.5271 13.9498 11.5271 13.9549 11.5271C13.9573 11.5271 13.9592 11.5271 13.9616 11.5271C14.3414 11.523 14.6965 11.4114 15.001 11.2192C15.4024 10.9661 15.7147 10.5738 15.8779 10.1058C15.9195 9.98645 15.9513 9.86214 15.9725 9.73413C15.9925 9.85514 16.0027 9.97904 16.0027 10.1058H16.0023Z" fill="url(#paint11_linear_4561_16377)"/>
</g>
<defs>
<linearGradient id="paint0_linear_4561_16377" x1="0.00494166" y1="9.99282" x2="10.8173" y2="9.99282" gradientUnits="userSpaceOnUse">
<stop stop-color="#00C2F3"/>
<stop offset="0.13" stop-color="#00BDEF"/>
<stop offset="0.28" stop-color="#00AFE6"/>
<stop offset="0.39" stop-color="#00A1DD"/>
<stop offset="0.51" stop-color="#009CD8"/>
<stop offset="0.65" stop-color="#0091CA"/>
<stop offset="0.8" stop-color="#007DB3"/>
<stop offset="0.95" stop-color="#006293"/>
<stop offset="1" stop-color="#005989"/>
</linearGradient>
<linearGradient id="paint1_linear_4561_16377" x1="0.00680746" y1="9.99289" x2="10.8192" y2="9.99289" gradientUnits="userSpaceOnUse">
<stop stop-color="#00C2F3"/>
<stop offset="0.13" stop-color="#00BDEF"/>
<stop offset="0.28" stop-color="#00AFE6"/>
<stop offset="0.39" stop-color="#00A1DD"/>
<stop offset="0.51" stop-color="#009CD8"/>
<stop offset="0.65" stop-color="#0091CA"/>
<stop offset="0.8" stop-color="#007DB3"/>
<stop offset="0.95" stop-color="#006293"/>
<stop offset="1" stop-color="#005989"/>
</linearGradient>
<linearGradient id="paint2_linear_4561_16377" x1="0.00517107" y1="9.99269" x2="10.8175" y2="9.99269" gradientUnits="userSpaceOnUse">
<stop stop-color="#00C2F3"/>
<stop offset="0.13" stop-color="#00BDEF"/>
<stop offset="0.28" stop-color="#00AFE6"/>
<stop offset="0.39" stop-color="#00A1DD"/>
<stop offset="0.51" stop-color="#009CD8"/>
<stop offset="0.65" stop-color="#0091CA"/>
<stop offset="0.8" stop-color="#007DB3"/>
<stop offset="0.95" stop-color="#006293"/>
<stop offset="1" stop-color="#005989"/>
</linearGradient>
<linearGradient id="paint3_linear_4561_16377" x1="13.2258" y1="10.1057" x2="13.7892" y2="10.1057" gradientUnits="userSpaceOnUse">
<stop stop-color="#005989"/>
<stop offset="0.1" stop-color="#006799"/>
<stop offset="0.35" stop-color="#0086BD"/>
<stop offset="0.55" stop-color="#0099D3"/>
<stop offset="0.68" stop-color="#00A0DC"/>
<stop offset="0.69" stop-color="#00A1DD"/>
<stop offset="0.88" stop-color="#00B7EC"/>
<stop offset="1" stop-color="#00C0F2"/>
</linearGradient>
<linearGradient id="paint4_linear_4561_16377" x1="14.4373" y1="10.1057" x2="13.3771" y2="10.1057" gradientUnits="userSpaceOnUse">
<stop stop-color="#005989"/>
<stop offset="0.28" stop-color="#007FAF"/>
<stop offset="0.59" stop-color="#00A2D3"/>
<stop offset="0.84" stop-color="#00B8E9"/>
<stop offset="1" stop-color="#00C0F2"/>
</linearGradient>
<linearGradient id="paint5_linear_4561_16377" x1="11.9625" y1="9.86048" x2="14.8211" y2="8.9753" gradientUnits="userSpaceOnUse">
<stop stop-color="#005989"/>
<stop offset="0.07" stop-color="#006799"/>
<stop offset="0.26" stop-color="#0086BD"/>
<stop offset="0.4" stop-color="#0099D3"/>
<stop offset="0.5" stop-color="#00A0DC"/>
<stop offset="0.67" stop-color="#00A4DF"/>
<stop offset="0.87" stop-color="#00B2E8"/>
<stop offset="1" stop-color="#00C0F2"/>
</linearGradient>
<linearGradient id="paint6_linear_4561_16377" x1="12.74" y1="9.20022" x2="14.2818" y2="12.8378" gradientUnits="userSpaceOnUse">
<stop stop-color="#00C0F2"/>
<stop offset="0.02" stop-color="#00BEF0"/>
<stop offset="0.24" stop-color="#00A8E1"/>
<stop offset="0.39" stop-color="#00A0DC"/>
<stop offset="0.48" stop-color="#0091CB"/>
<stop offset="0.7" stop-color="#0072A7"/>
<stop offset="0.88" stop-color="#005F91"/>
<stop offset="1" stop-color="#005989"/>
</linearGradient>
<linearGradient id="paint7_linear_4561_16377" x1="13.0662" y1="11.239" x2="16.1667" y2="10.8234" gradientUnits="userSpaceOnUse">
<stop stop-color="#00C0F2"/>
<stop offset="0.02" stop-color="#00BEF0"/>
<stop offset="0.24" stop-color="#00A8E1"/>
<stop offset="0.39" stop-color="#00A0DC"/>
<stop offset="0.48" stop-color="#0091CB"/>
<stop offset="0.7" stop-color="#0072A7"/>
<stop offset="0.88" stop-color="#005F91"/>
<stop offset="1" stop-color="#005989"/>
</linearGradient>
<linearGradient id="paint8_linear_4561_16377" x1="15.1248" y1="11.1044" x2="13.9705" y2="7.71805" gradientUnits="userSpaceOnUse">
<stop stop-color="#00C0F2"/>
<stop offset="0.02" stop-color="#00BEF0"/>
<stop offset="0.24" stop-color="#00A8E1"/>
<stop offset="0.39" stop-color="#00A0DC"/>
<stop offset="0.48" stop-color="#0091CB"/>
<stop offset="0.7" stop-color="#0072A7"/>
<stop offset="0.88" stop-color="#005F91"/>
<stop offset="1" stop-color="#005989"/>
</linearGradient>
<linearGradient id="paint9_linear_4561_16377" x1="11.9625" y1="9.86048" x2="14.8211" y2="8.9753" gradientUnits="userSpaceOnUse">
<stop stop-color="#005989"/>
<stop offset="0.07" stop-color="#006799"/>
<stop offset="0.26" stop-color="#0086BD"/>
<stop offset="0.4" stop-color="#0099D3"/>
<stop offset="0.5" stop-color="#00A0DC"/>
<stop offset="0.67" stop-color="#00A4DF"/>
<stop offset="0.87" stop-color="#00B2E8"/>
<stop offset="1" stop-color="#00C0F2"/>
</linearGradient>
<linearGradient id="paint10_linear_4561_16377" x1="12.74" y1="9.20022" x2="14.2818" y2="12.8378" gradientUnits="userSpaceOnUse">
<stop stop-color="#00C0F2"/>
<stop offset="0.02" stop-color="#00BEF0"/>
<stop offset="0.24" stop-color="#00A8E1"/>
<stop offset="0.39" stop-color="#00A0DC"/>
<stop offset="0.48" stop-color="#0091CB"/>
<stop offset="0.7" stop-color="#0072A7"/>
<stop offset="0.88" stop-color="#005F91"/>
<stop offset="1" stop-color="#005989"/>
</linearGradient>
<linearGradient id="paint11_linear_4561_16377" x1="13.0662" y1="11.239" x2="16.1667" y2="10.8234" gradientUnits="userSpaceOnUse">
<stop stop-color="#00C0F2"/>
<stop offset="0.02" stop-color="#00BEF0"/>
<stop offset="0.24" stop-color="#00A8E1"/>
<stop offset="0.39" stop-color="#00A0DC"/>
<stop offset="0.48" stop-color="#0091CB"/>
<stop offset="0.7" stop-color="#0072A7"/>
<stop offset="0.88" stop-color="#005F91"/>
<stop offset="1" stop-color="#005989"/>
</linearGradient>
</defs>
</svg>
