<svg width="24" height="25" viewBox="0 0 24 25" fill="none" xmlns="http://www.w3.org/2000/svg">
<path d="M11.9997 17.2143C11.5451 17.2143 11.109 17.0337 10.7875 16.7122C10.466 16.3907 10.2854 15.9547 10.2854 15.5C10.2854 14.5486 11.0483 13.7857 11.9997 13.7857C12.4544 13.7857 12.8904 13.9663 13.2119 14.2878C13.5334 14.6093 13.714 15.0453 13.714 15.5C13.714 15.9547 13.5334 16.3907 13.2119 16.7122C12.8904 17.0337 12.4544 17.2143 11.9997 17.2143ZM17.1426 19.7857V11.2143H6.85686V19.7857H17.1426ZM17.1426 9.5C17.5972 9.5 18.0333 9.68061 18.3548 10.0021C18.6763 10.3236 18.8569 10.7596 18.8569 11.2143V19.7857C18.8569 20.2404 18.6763 20.6764 18.3548 20.9979C18.0333 21.3194 17.5972 21.5 17.1426 21.5H6.85686C6.40221 21.5 5.96617 21.3194 5.64468 20.9979C5.32319 20.6764 5.14258 20.2404 5.14258 19.7857V11.2143C5.14258 10.2629 5.90544 9.5 6.85686 9.5H7.71401V7.78571C7.71401 6.64907 8.16554 5.55898 8.96926 4.75526C9.77299 3.95153 10.8631 3.5 11.9997 3.5C12.5625 3.5 13.1198 3.61085 13.6398 3.82623C14.1598 4.04161 14.6322 4.35729 15.0302 4.75526C15.4281 5.15322 15.7438 5.62568 15.9592 6.14564C16.1746 6.66561 16.2854 7.22291 16.2854 7.78571V9.5H17.1426ZM11.9997 5.21429C11.3177 5.21429 10.6637 5.4852 10.1814 5.96744C9.69921 6.44968 9.42829 7.10373 9.42829 7.78571V9.5H14.5711V7.78571C14.5711 7.10373 14.3002 6.44968 13.818 5.96744C13.3358 5.4852 12.6817 5.21429 11.9997 5.21429Z" fill="#1B94D2"/>
</svg>
