<svg width="137" height="14" viewBox="0 0 137 14" fill="none" xmlns="http://www.w3.org/2000/svg">
<path d="M84.7369 5.18963C84.7369 5.06818 84.635 4.97023 84.5135 4.97807C84.0278 5.00353 83.5576 5.11127 83.111 5.29932C82.9524 5.36788 82.7976 5.44427 82.6487 5.53046C82.5821 5.56768 82.543 5.6382 82.543 5.71459V8.19641C82.543 8.27281 82.5841 8.34333 82.6487 8.38054C82.7976 8.46673 82.9524 8.54312 83.111 8.61168C83.5576 8.79973 84.0278 8.90747 84.5135 8.93293C84.635 8.93881 84.7369 8.84282 84.7369 8.72138V5.19158V5.18963Z" fill="url(#paint0_linear_5338_8639)"/>
<path d="M84.7358 5.18963C84.7358 5.06818 84.6339 4.97023 84.5125 4.97807C84.0267 5.00353 83.9209 5.11127 83.4743 5.29932C83.3156 5.36788 83.1609 5.44427 83.012 5.53046C82.9454 5.56768 82.9062 5.6382 82.9062 5.71459V8.19641C82.9062 8.27281 82.9474 8.34333 83.012 8.38054C83.1609 8.46673 83.3156 8.54312 83.4743 8.61168C83.9209 8.79973 84.0267 8.90747 84.5125 8.93293C84.6339 8.93881 84.7358 8.84282 84.7358 8.72138V5.19158V5.18963Z" fill="url(#paint1_linear_5338_8639)"/>
<mask id="mask0_5338_8639" style="mask-type:luminance" maskUnits="userSpaceOnUse" x="84" y="0" width="8" height="14">
<path d="M91.1045 6.95687C91.1045 10.4044 88.37 13.2133 84.9518 13.327C84.8323 13.3309 84.7324 13.2349 84.7324 13.1154V11.3427C84.7324 11.2291 84.8206 11.137 84.9342 11.1311C85.4278 11.1076 85.9058 10.9999 86.3563 10.8079C86.8538 10.5964 87.3004 10.2967 87.6844 9.91077C88.0683 9.52684 88.37 9.07828 88.5796 8.5827C88.797 8.06949 88.9067 7.52101 88.9067 6.95687C88.9067 6.39273 88.797 5.84426 88.5796 5.33105C88.37 4.83351 88.0683 4.3869 87.6844 4.00297C87.3004 3.61904 86.8538 3.31738 86.3563 3.10583C85.9038 2.91386 85.4258 2.80612 84.9342 2.78262C84.8206 2.77674 84.7324 2.68468 84.7324 2.57107V0.79833C84.7324 0.678842 84.8304 0.582868 84.9518 0.586786C88.368 0.702356 91.1045 3.50934 91.1045 6.95687Z" fill="white"/>
</mask>
<g mask="url(#mask0_5338_8639)">
<path d="M88.9114 6.83697C88.9114 6.81934 88.9114 6.80171 88.9114 6.78408C88.9114 6.78408 88.9114 6.78213 88.9114 6.78017C88.9114 6.76254 88.9114 6.74687 88.9094 6.72924C88.9094 6.71161 88.9094 6.69594 88.9075 6.68027C88.9075 6.66264 88.9055 6.64697 88.9036 6.62934C88.9036 6.62934 88.9036 6.62933 88.9036 6.62738C88.9036 6.61562 88.9016 6.60191 88.8997 6.59016C88.8997 6.58624 88.8997 6.58232 88.8997 6.57841V6.57645C88.8977 6.55294 88.8957 6.52748 88.8918 6.50397C88.8918 6.49418 88.8899 6.48438 88.8879 6.47654C88.8879 6.47067 88.8879 6.4648 88.8859 6.45892C88.8859 6.44717 88.884 6.43542 88.882 6.42562C88.882 6.42171 88.882 6.41583 88.8801 6.41191C88.8801 6.40016 88.8761 6.38645 88.8761 6.37469C88.8761 6.36294 88.8722 6.35314 88.8722 6.34138C88.8703 6.32571 88.8683 6.31004 88.8644 6.29437C88.8644 6.29437 88.8644 6.29242 88.8644 6.29046C88.8644 6.28067 88.8624 6.27283 88.8605 6.26304C88.8605 6.26108 88.8605 6.25911 88.8605 6.2552C88.8605 6.25128 88.8605 6.24932 88.8605 6.2454C88.8605 6.24149 88.8605 6.23757 88.8605 6.23561C88.8605 6.23561 88.8605 6.23561 88.8605 6.23365C88.8605 6.23169 88.8605 6.22778 88.8605 6.22582V6.2219C88.8605 6.21994 88.8605 6.21799 88.8605 6.21603C88.8585 6.20428 88.8566 6.19252 88.8546 6.18077C88.8526 6.16902 88.8507 6.15922 88.8487 6.14746C88.8487 6.13963 88.8448 6.12983 88.8428 6.122C88.8428 6.12004 88.8428 6.11808 88.8428 6.11417C88.8428 6.11417 88.8428 6.11024 88.8428 6.10828C88.8428 6.10437 88.8428 6.10241 88.8409 6.09849C88.8389 6.0887 88.837 6.07891 88.835 6.06912C88.835 6.06912 88.835 6.06715 88.835 6.0652C88.835 6.0652 88.835 6.06323 88.835 6.06127C88.835 6.05932 88.835 6.05736 88.835 6.0554C88.835 6.05344 88.835 6.05148 88.835 6.04952C88.835 6.04364 88.8331 6.03581 88.8311 6.02994C88.8311 6.02602 88.8311 6.02211 88.8291 6.02015C88.8252 6.00448 88.8213 5.98685 88.8174 5.97118C88.8174 5.9653 88.8135 5.95942 88.8135 5.95354C88.8115 5.94179 88.8076 5.932 88.8056 5.92024C88.8056 5.91829 88.8056 5.91632 88.8037 5.9124C88.8037 5.91044 88.8037 5.90653 88.8017 5.90261C88.7998 5.89282 88.7958 5.88107 88.7939 5.87127C88.7939 5.87127 88.7939 5.86735 88.7939 5.86539C88.7939 5.86539 88.7939 5.8654 88.7939 5.86148C88.79 5.84777 88.786 5.83602 88.7821 5.8223C88.7782 5.80663 88.7723 5.79096 88.7684 5.77333C88.7684 5.77333 88.7684 5.76941 88.7684 5.76745C88.7684 5.76745 88.7684 5.76354 88.7684 5.76158C88.7645 5.74787 88.7606 5.73415 88.7547 5.72044C88.7508 5.70673 88.7449 5.69106 88.741 5.67539C88.739 5.66952 88.7371 5.66363 88.7351 5.6558C88.7351 5.64992 88.7312 5.64405 88.7292 5.63621C88.7292 5.6323 88.7273 5.63034 88.7253 5.62642C88.7253 5.6225 88.7234 5.61859 88.7214 5.61467C88.7175 5.60292 88.7136 5.59116 88.7096 5.57941C88.7057 5.56766 88.7018 5.55395 88.6959 5.54219C88.6959 5.53828 88.692 5.5324 88.6901 5.52848C88.6861 5.52064 88.6842 5.51085 88.6803 5.50301C88.6803 5.50106 88.6783 5.49714 88.6763 5.49518C88.6763 5.49127 88.6724 5.48539 88.6705 5.48147C88.6705 5.47951 88.6685 5.47754 88.6685 5.47363C88.6685 5.46971 88.6646 5.46383 88.6626 5.45991C88.6607 5.45404 88.6587 5.44621 88.6548 5.44033C88.6489 5.42466 88.643 5.40899 88.6352 5.39332C88.6352 5.39332 88.6352 5.39136 88.6352 5.3894C88.6293 5.37765 88.6254 5.36393 88.6195 5.35218C88.6195 5.35022 88.6195 5.34827 88.6176 5.34631C88.6117 5.33456 88.6078 5.32085 88.6019 5.30909C88.6019 5.30713 88.6 5.30517 88.598 5.30125V5.2993C88.5921 5.28559 88.5862 5.27188 88.5804 5.26012C88.5804 5.26012 88.5804 5.25816 88.5784 5.2562C88.5725 5.24053 88.5647 5.22682 88.5588 5.21115C88.5549 5.20332 88.551 5.19548 88.549 5.18765C88.5451 5.17981 88.5412 5.17197 88.5373 5.16609C88.5294 5.15238 88.5236 5.13671 88.5157 5.123C88.5157 5.123 88.5157 5.123 88.5157 5.12104C88.5098 5.10733 88.502 5.09361 88.4961 5.0799C88.4961 5.0799 88.4961 5.07795 88.4961 5.07599C88.4903 5.0662 88.4863 5.05444 88.4805 5.04464C88.4805 5.04269 88.4805 5.04073 88.4785 5.03877C88.4785 5.03877 88.4785 5.03485 88.4765 5.03289C88.4726 5.0231 88.4668 5.01527 88.4628 5.00548C88.4609 4.9996 88.457 4.99372 88.455 4.9898C88.455 4.9898 88.455 4.98784 88.453 4.98588C88.4491 4.98001 88.4472 4.97218 88.4432 4.9663C88.4393 4.96042 88.4354 4.95258 88.4335 4.9467C88.4315 4.94083 88.4276 4.93692 88.4256 4.93104C88.4237 4.92517 88.4197 4.92124 88.4178 4.91537C88.4178 4.91145 88.4139 4.90753 88.4119 4.90558C88.408 4.8997 88.406 4.89382 88.4021 4.88794C88.3982 4.88011 88.3943 4.87423 88.3904 4.8664C88.3904 4.86444 88.3884 4.86248 88.3864 4.85857C88.3864 4.85661 88.3845 4.85464 88.3825 4.85072C88.3825 4.84876 88.3806 4.84681 88.3786 4.84289C88.3727 4.83506 88.3688 4.82526 88.3629 4.81743C88.3629 4.81743 88.3629 4.81546 88.361 4.81351C88.361 4.81351 88.359 4.8096 88.3571 4.8096C88.3571 4.80764 88.3531 4.80371 88.3512 4.79979C88.3473 4.79392 88.3433 4.78608 88.3394 4.78021C88.3394 4.78021 88.3375 4.77629 88.3355 4.77433C88.3355 4.77433 88.3355 4.77238 88.3336 4.77042C88.3257 4.75866 88.3179 4.74691 88.312 4.73516C88.3081 4.72732 88.3022 4.72144 88.2983 4.71556C88.2963 4.71165 88.2924 4.70773 88.2905 4.70381C88.2885 4.69989 88.2865 4.69598 88.2846 4.69402C88.2826 4.6901 88.2787 4.68422 88.2748 4.68031C88.2748 4.67835 88.2709 4.67639 88.2709 4.67248C88.267 4.6666 88.263 4.65876 88.2572 4.65288C88.2493 4.64113 88.2434 4.63134 88.2356 4.61958C88.2356 4.61762 88.2317 4.61371 88.2297 4.61175C88.2297 4.60979 88.2278 4.60783 88.2258 4.60587C88.218 4.59412 88.2101 4.58237 88.2023 4.57061C88.1945 4.55886 88.1866 4.54711 88.1788 4.53732C88.1788 4.53536 88.1768 4.53339 88.1749 4.53143C88.1729 4.52948 88.171 4.52752 88.169 4.5236C88.1612 4.51185 88.1533 4.50206 88.1455 4.49031C88.1416 4.48443 88.1377 4.47855 88.1318 4.47267C88.1259 4.46484 88.122 4.45896 88.1161 4.45309C88.1161 4.45309 88.1142 4.44917 88.1122 4.44721C88.1063 4.43937 88.1005 4.4335 88.0965 4.42566C88.0926 4.42174 88.0887 4.41587 88.0848 4.41195C88.0769 4.4002 88.0672 4.38844 88.0574 4.37669C88.0574 4.37473 88.0534 4.37082 88.0515 4.36886C88.0417 4.35711 88.0339 4.34534 88.0241 4.33359C88.0182 4.32576 88.0123 4.31988 88.0064 4.31401C88.0025 4.31009 88.0006 4.30617 87.9966 4.30226C87.9927 4.29834 87.9888 4.29246 87.9849 4.28854C87.981 4.28462 87.977 4.28071 87.9751 4.27679C87.9712 4.27287 87.9673 4.26699 87.9633 4.26308C87.9614 4.26112 87.9575 4.2572 87.9555 4.25328C87.9516 4.24741 87.9477 4.24349 87.9418 4.23761C87.9379 4.23369 87.9359 4.22978 87.932 4.22586C87.932 4.22586 87.9281 4.22195 87.9261 4.21999C87.9261 4.21999 87.9222 4.21606 87.9222 4.21411C87.9124 4.20431 87.9046 4.19256 87.8948 4.18277C87.885 4.17102 87.8732 4.15926 87.8615 4.14555C87.8497 4.1338 87.8399 4.12205 87.8282 4.11029C87.8164 4.09854 87.8066 4.08679 87.7949 4.07504C87.7714 4.05153 87.7498 4.02802 87.7263 4.00451C87.7204 3.99863 87.7146 3.99276 87.7087 3.98689C87.7028 3.98101 87.6969 3.97513 87.6911 3.96925C87.6793 3.9575 87.6676 3.94575 87.6558 3.934C87.644 3.92224 87.6323 3.91245 87.6205 3.9007C87.6088 3.88895 87.597 3.87916 87.5833 3.8674C87.5716 3.85565 87.5598 3.84585 87.5461 3.83409C87.5363 3.8243 87.5265 3.81646 87.5148 3.80667C87.5128 3.80471 87.5108 3.80276 87.5089 3.8008C87.4971 3.78904 87.4834 3.77926 87.4717 3.76946C87.4599 3.75967 87.4482 3.74987 87.4364 3.74007C87.4345 3.73812 87.4305 3.73616 87.4286 3.73224C87.4207 3.72637 87.4149 3.72049 87.407 3.71461C87.407 3.71461 87.4031 3.71265 87.4012 3.71069C87.4012 3.71069 87.3972 3.70874 87.3953 3.70678C87.3874 3.69894 87.3776 3.69306 87.3698 3.68718C87.3659 3.68522 87.3639 3.68131 87.36 3.67935C87.36 3.67935 87.36 3.67935 87.3581 3.67739C87.3522 3.67151 87.3443 3.66759 87.3385 3.66172C87.3326 3.6578 87.3287 3.65388 87.3228 3.64996C87.3228 3.64996 87.3208 3.64996 87.3189 3.648C87.3052 3.63821 87.2934 3.62842 87.2797 3.61863C87.266 3.60883 87.2542 3.59904 87.2405 3.58924C87.2405 3.58924 87.2386 3.58924 87.2366 3.58728C87.2268 3.57945 87.2151 3.57161 87.2033 3.56378C87.2033 3.56378 87.2014 3.56377 87.1994 3.56181C87.1955 3.55986 87.1935 3.5579 87.1896 3.55398C87.1857 3.55203 87.1837 3.55007 87.1798 3.54615C87.1759 3.54419 87.172 3.54027 87.1681 3.53831C87.1661 3.53831 87.1641 3.53636 87.1622 3.5344C87.1622 3.5344 87.1602 3.5344 87.1583 3.53244C87.1445 3.52265 87.1308 3.51285 87.1171 3.50501C87.1112 3.5011 87.1034 3.49522 87.0975 3.4913C87.0917 3.48738 87.0838 3.4815 87.076 3.47759C87.0721 3.47563 87.0701 3.47367 87.0662 3.46976C87.0642 3.46976 87.0623 3.46779 87.0603 3.46583C87.0603 3.46583 87.0584 3.46583 87.0564 3.46387C87.0505 3.45996 87.0466 3.45604 87.0407 3.45408C87.0407 3.45408 87.0368 3.45408 87.0368 3.45212L87.0329 3.45017C87.0211 3.44234 87.0074 3.4345 86.9957 3.42667C86.9898 3.42275 86.982 3.41882 86.9761 3.4149C86.9702 3.41099 86.9624 3.40708 86.9565 3.4012C86.9565 3.4012 86.9565 3.4012 86.9545 3.4012C86.9428 3.39533 86.933 3.38748 86.9212 3.38161C86.9193 3.38161 86.9154 3.3777 86.9134 3.3777C86.9017 3.36986 86.8899 3.36398 86.8781 3.35614C86.8742 3.35418 86.8703 3.35223 86.8664 3.35027C86.8586 3.34635 86.8507 3.34048 86.8429 3.33656C86.8409 3.33656 86.839 3.33459 86.837 3.33264C86.8331 3.33068 86.8272 3.32676 86.8233 3.32481C86.8115 3.31697 86.7978 3.3111 86.7841 3.30326C86.7724 3.29738 86.7606 3.28954 86.7489 3.28367C86.7469 3.28367 86.743 3.28171 86.741 3.27976C86.7273 3.27192 86.7136 3.26604 86.6999 3.2582C86.6862 3.25036 86.6705 3.24253 86.6568 3.23469C86.645 3.22882 86.6333 3.22295 86.6215 3.21707C86.6176 3.21511 86.6157 3.21315 86.6118 3.21119C86.602 3.20531 86.5902 3.20139 86.5804 3.19552C86.5726 3.1916 86.5667 3.18768 86.5589 3.18572C86.5491 3.18181 86.5412 3.17789 86.5314 3.17397C86.5275 3.17397 86.5256 3.17201 86.5216 3.17005C86.5158 3.16809 86.5118 3.16418 86.506 3.16222C86.506 3.16222 86.4962 3.15831 86.4923 3.15635C86.4883 3.15439 86.4825 3.15243 86.4785 3.15047C86.4746 3.15047 86.4727 3.14655 86.4688 3.14655C86.457 3.14067 86.4452 3.13676 86.4335 3.13088C86.4315 3.13088 86.4296 3.13088 86.4276 3.12892C86.4159 3.12501 86.4041 3.11913 86.3943 3.11521C86.3924 3.11521 86.3904 3.11521 86.3884 3.11325C86.3845 3.11325 86.3806 3.10933 86.3767 3.10933C86.3728 3.10933 86.3689 3.10542 86.3649 3.10542C86.3571 3.1015 86.3493 3.09954 86.3414 3.09563C86.3277 3.08975 86.314 3.08387 86.2983 3.07799C86.2905 3.07407 86.2827 3.07212 86.2748 3.0682C86.2709 3.0682 86.265 3.06428 86.2611 3.06232C86.2592 3.06232 86.2552 3.06036 86.2533 3.06036C86.2513 3.06036 86.2494 3.06037 86.2474 3.05841C86.2415 3.05841 86.2376 3.05448 86.2317 3.05253C86.2219 3.04861 86.2121 3.04469 86.2024 3.04077C86.2024 3.04077 86.1984 3.04077 86.1965 3.03881C86.1828 3.03294 86.1691 3.02902 86.1553 3.02314C86.1553 3.02314 86.1534 3.02314 86.1514 3.02314C86.1358 3.01726 86.122 3.01335 86.1064 3.00748C86.1064 3.00748 86.1044 3.00748 86.1025 3.00748C86.0907 3.00356 86.077 2.99964 86.0652 2.99572C86.0652 2.99572 86.0633 2.99572 86.0613 2.99572C86.0456 2.99181 86.0319 2.98593 86.0163 2.98201C86.0163 2.98201 86.0143 2.98201 86.0123 2.98201C86.0084 2.98201 86.0045 2.98005 86.0006 2.97809C85.9967 2.97809 85.9928 2.97613 85.9888 2.97417C85.981 2.97221 85.9732 2.97026 85.9653 2.9683C85.9653 2.9683 85.9653 2.9683 85.9634 2.9683C85.9595 2.9683 85.9575 2.96634 85.9536 2.96634C85.9418 2.96242 85.9301 2.9585 85.9164 2.95655C85.9085 2.95459 85.9027 2.95262 85.8948 2.95066C85.887 2.9487 85.8772 2.94675 85.8694 2.94283C85.8576 2.93891 85.8459 2.93696 85.8341 2.93304C85.8302 2.93304 85.8243 2.93108 85.8204 2.92912H85.8165C85.8106 2.92912 85.8067 2.92716 85.8008 2.9252C85.789 2.92324 85.7792 2.91933 85.7675 2.91737C85.7499 2.91345 85.7322 2.90953 85.7146 2.90561C85.6989 2.9017 85.6833 2.89778 85.6656 2.89386C85.6617 2.89386 85.6578 2.8919 85.6519 2.8919C85.65 2.8919 85.648 2.8919 85.646 2.8919C85.646 2.8919 85.6421 2.8919 85.6402 2.8919C85.6323 2.8919 85.6245 2.88799 85.6167 2.88799H85.6127C85.5951 2.88407 85.5794 2.88211 85.5618 2.87819C85.5461 2.87623 85.5324 2.87232 85.5168 2.87036C85.505 2.8684 85.4913 2.86643 85.4796 2.86447C85.4756 2.86447 85.4698 2.86448 85.4658 2.86253C85.46 2.86253 85.456 2.86252 85.4521 2.86057C85.4404 2.85861 85.4267 2.85664 85.4149 2.85468C85.4051 2.85468 85.3953 2.85273 85.3836 2.85077C85.3757 2.85077 85.3659 2.84881 85.3581 2.84685C85.3424 2.84489 85.3268 2.84293 85.3111 2.84097C85.2993 2.84097 85.2895 2.83902 85.2778 2.83706C85.2719 2.83706 85.268 2.83706 85.2621 2.83706C85.2582 2.83706 85.2523 2.83706 85.2484 2.83706C85.2484 2.83706 85.2464 2.83706 85.2445 2.83706C85.2327 2.83706 85.2229 2.8351 85.2112 2.83314C85.1975 2.83314 85.1838 2.83118 85.1701 2.82922C85.1661 2.82922 85.1622 2.82922 85.1583 2.82922C85.1563 2.82922 85.1524 2.82922 85.1505 2.82922C85.1368 2.82922 85.1211 2.82727 85.1074 2.82531C85.0897 2.82531 85.0721 2.82335 85.0545 2.82139C85.0329 2.82139 85.0114 2.81942 84.9898 2.81746C84.9761 2.81746 84.9644 2.81746 84.9507 2.81746H84.9487C84.9487 2.81746 84.9291 2.81746 84.9193 2.81746C84.9115 2.81746 84.9037 2.81746 84.8978 2.81746C84.8978 2.81746 84.8821 2.81746 84.8762 2.81746C84.8664 2.81746 84.8566 2.81746 84.8468 2.81746H84.839C84.839 2.81746 84.8214 2.81746 84.8135 2.81746C84.8018 2.81746 84.792 2.81746 84.7803 2.81746C84.7685 2.81746 84.7567 2.81746 84.745 2.81746C84.553 2.81746 84.363 2.82726 84.175 2.84489C84.1299 2.84881 84.0868 2.85469 84.0418 2.8586C84.0202 2.86056 83.9967 2.86448 83.9752 2.86644C83.9536 2.86839 83.9321 2.87232 83.9086 2.87428C83.889 2.87624 83.8694 2.88015 83.8478 2.88211C83.8478 2.88211 83.8439 2.88211 83.842 2.88211C83.7989 2.88799 83.7558 2.89582 83.7107 2.90365C83.6892 2.90757 83.6676 2.91149 83.6461 2.91541C83.6343 2.91541 83.6226 2.91933 83.6128 2.92129C83.601 2.92325 83.5893 2.9252 83.5795 2.92716C83.5521 2.93303 83.5227 2.93892 83.4953 2.94479C83.4659 2.95067 83.4365 2.95654 83.4091 2.96242C83.4091 2.96242 83.4071 2.96242 83.4052 2.96242C83.3758 2.96829 83.3464 2.97613 83.317 2.98201C83.2857 2.98985 83.2563 2.99572 83.2249 3.00356C83.2073 3.00747 83.1916 3.01139 83.174 3.01727C83.1407 3.0251 83.1055 3.0349 83.0722 3.04469C83.0545 3.04861 83.0389 3.05449 83.0212 3.05841C83.0036 3.06233 82.9879 3.06819 82.9703 3.07211C82.9527 3.07603 82.937 3.08191 82.9194 3.08778C82.9037 3.0917 82.8861 3.09758 82.8704 3.10346C82.8704 3.10346 82.8704 3.10346 82.8684 3.10346C82.8528 3.10933 82.8351 3.11325 82.8195 3.11913C82.8038 3.12501 82.7862 3.12892 82.7705 3.13479C82.7548 3.14067 82.7392 3.14459 82.7235 3.15047C82.7117 3.15438 82.698 3.1583 82.6863 3.16222C82.6765 3.16614 82.6667 3.17005 82.6569 3.17201C82.6177 3.18572 82.5785 3.19944 82.5394 3.21511C82.5296 3.21903 82.5198 3.22294 82.5119 3.2249C82.5002 3.22882 82.4904 3.23274 82.4786 3.23666C82.459 3.24449 82.4395 3.25233 82.4199 3.26016C82.4101 3.26408 82.3983 3.268 82.3866 3.27387C82.3572 3.28563 82.3298 3.29738 82.3004 3.30913C82.2847 3.31697 82.2671 3.32284 82.2514 3.33068C82.2377 3.33655 82.224 3.34243 82.2103 3.34831C82.1593 3.36986 82.1084 3.39336 82.0594 3.41686C82.0457 3.42274 82.032 3.43058 82.0183 3.43646C81.842 3.52069 81.6716 3.61471 81.5051 3.71461C80.2652 4.45896 79.2995 5.61466 78.796 6.99171C78.6687 7.34234 78.5688 7.70865 78.5042 8.0867C78.4415 7.7302 78.4102 7.36585 78.4102 6.99171C78.4102 6.61758 78.4415 6.25324 78.5042 5.89674C78.9606 3.25429 81.0448 1.16814 83.6872 0.711731C84.0653 0.776372 84.4296 0.87627 84.7822 1.00359C86.1593 1.50701 87.313 2.47272 88.0593 3.71461C88.6235 4.65484 88.9525 5.75179 88.9643 6.92708C88.9643 6.90945 88.9643 6.89182 88.9643 6.87419L88.9114 6.83697Z" fill="url(#paint2_linear_5338_8639)"/>
<path d="M85.8242 13.2366C85.4696 13.2973 85.1033 13.3306 84.7292 13.3306C84.3551 13.3306 83.9907 13.2993 83.6342 13.2366C80.9918 12.7782 78.9095 10.6941 78.4512 8.05162C78.5158 7.67356 78.6157 7.30726 78.743 6.95663C79.2465 5.57958 80.2122 4.42388 81.4521 3.67952C81.6186 3.57962 81.789 3.48756 81.9653 3.40137C81.979 3.39354 81.9927 3.38765 82.0064 3.38178C82.0574 3.35827 82.1063 3.33477 82.1573 3.31322C82.171 3.30735 82.1847 3.30147 82.1984 3.29559C82.2141 3.28775 82.2317 3.28188 82.2474 3.27405C82.2768 3.26229 82.3042 3.25054 82.3336 3.23879C82.3453 3.23487 82.3551 3.23095 82.3669 3.22507C82.3864 3.21724 82.406 3.20941 82.4256 3.20157C82.4374 3.19765 82.4472 3.19374 82.4589 3.18982C82.4687 3.1859 82.4785 3.18198 82.4863 3.18003C82.5255 3.16631 82.5647 3.15064 82.6039 3.13693C82.6137 3.13301 82.6235 3.12909 82.6333 3.12713C82.645 3.12322 82.6587 3.1193 82.6705 3.11538C82.6861 3.1095 82.7018 3.10558 82.7175 3.09971C82.7332 3.09383 82.7508 3.08796 82.7665 3.08405C82.7821 3.07817 82.7998 3.07425 82.8154 3.06837C82.8154 3.06837 82.8154 3.06837 82.8174 3.06837C82.8331 3.06445 82.8487 3.05857 82.8664 3.0527C82.884 3.04682 82.8997 3.0429 82.9173 3.03702C82.9349 3.03115 82.9506 3.02723 82.9682 3.02331C82.9858 3.01939 83.0015 3.01353 83.0191 3.00961C83.0524 2.99982 83.0877 2.99198 83.121 2.98218C83.1386 2.97827 83.1543 2.97435 83.1719 2.96847C83.2033 2.96063 83.2327 2.9528 83.264 2.94693C83.2934 2.93909 83.3228 2.93321 83.3521 2.92733C83.3521 2.92733 83.3541 2.92733 83.3561 2.92733C83.3854 2.92145 83.4129 2.91558 83.4423 2.90971C83.4697 2.90383 83.4991 2.89795 83.5265 2.89207C83.5382 2.89011 83.548 2.88816 83.5598 2.8862C83.5715 2.88424 83.5833 2.88228 83.5931 2.88032C83.6146 2.8764 83.6362 2.87249 83.6577 2.86857C83.7008 2.86073 83.7439 2.85486 83.789 2.84702C83.7909 2.84702 83.7929 2.84702 83.7948 2.84702C83.8144 2.84506 83.834 2.84115 83.8556 2.83919C83.8771 2.83723 83.8987 2.83331 83.9222 2.83135C83.9437 2.82939 83.9653 2.82548 83.9888 2.82352C84.0319 2.8196 84.0769 2.81372 84.122 2.80981C84.3002 2.79413 84.4804 2.78434 84.6626 2.78238C82.406 2.81764 80.5824 4.64131 80.5471 6.89983C80.5471 6.89983 80.5471 6.91353 80.5471 6.91941C80.5471 6.93508 80.5471 6.95076 80.5471 6.96447C80.5471 6.97818 80.5471 6.99581 80.5471 7.00952C80.5471 7.01736 80.5471 7.02323 80.5471 7.0291C80.5589 8.20244 80.8879 9.30134 81.4521 10.2416C82.1964 11.4815 83.3521 12.4472 84.7272 12.9526C85.0779 13.0819 85.4442 13.1798 85.8222 13.2445L85.8242 13.2366Z" fill="url(#paint3_linear_5338_8639)"/>
<path d="M91.103 6.95384C91.103 7.32797 91.0716 7.69232 91.0089 8.04883C90.5525 10.6913 88.4683 12.7774 85.8259 13.2338C85.4478 13.1692 85.0835 13.0693 84.7309 12.942C83.3539 12.4385 82.2001 11.4728 81.4558 10.231C80.8916 9.29072 80.5625 8.19378 80.5508 7.01848C80.586 9.27701 82.4097 11.1007 84.6663 11.1359C84.6663 11.1359 84.68 11.1359 84.6859 11.1359C84.7015 11.1359 84.7172 11.1359 84.7309 11.1359C84.7446 11.1359 84.7623 11.1359 84.776 11.1359C84.7818 11.1359 84.7897 11.1359 84.7956 11.1359C85.9689 11.1242 87.0658 10.7951 88.0061 10.231C89.246 9.4866 90.2117 8.3309 90.7151 6.95189C90.8444 6.60126 90.9423 6.23496 91.007 5.8569C91.0677 6.21341 91.101 6.57775 91.101 6.95189L91.103 6.95384Z" fill="url(#paint4_linear_5338_8639)"/>
<path d="M91.0097 5.85937C90.9451 6.23743 90.8452 6.60372 90.7179 6.95435C90.2144 8.3314 89.2487 9.48711 88.0088 10.2334C87.0686 10.7976 85.9716 11.1266 84.7983 11.1384C87.0549 11.1031 88.8785 9.27948 88.9138 7.02095C88.9138 7.02095 88.9138 7.00725 88.9138 7.00137C88.9138 6.9857 88.9138 6.97198 88.9138 6.95631C88.9138 6.94064 88.9138 6.92693 88.9138 6.91126C88.9138 6.90538 88.9138 6.89754 88.9138 6.89166C88.902 5.71833 88.573 4.61944 88.0088 3.6792C87.2645 2.43927 86.1107 1.47356 84.7317 0.968188C84.3811 0.838906 84.0148 0.740967 83.6367 0.676326C83.9932 0.615602 84.3576 0.582306 84.7317 0.582306C85.1058 0.582306 85.4702 0.613643 85.8267 0.676326C88.4691 1.13469 90.5533 3.21888 91.0097 5.86133V5.85937Z" fill="url(#paint5_linear_5338_8639)"/>
</g>
<path d="M6.37161 5.28097C6.37161 5.15952 6.26976 5.06157 6.14831 5.06941C5.66252 5.09487 5.1924 5.20261 4.74579 5.39066C4.58713 5.45922 4.43238 5.53561 4.28351 5.6218C4.21691 5.65902 4.17773 5.72953 4.17773 5.80593V8.28775C4.17773 8.36415 4.21887 8.43466 4.28351 8.47188C4.43238 8.55807 4.58713 8.63446 4.74579 8.70302C5.1924 8.89107 5.66252 8.99881 6.14831 9.02427C6.26976 9.03015 6.37161 8.93416 6.37161 8.81272V5.28293V5.28097Z" fill="url(#paint6_linear_5338_8639)"/>
<path d="M6.37055 5.28097C6.37055 5.15952 6.2687 5.06157 6.14725 5.06941C5.66146 5.09487 5.55568 5.20261 5.10907 5.39066C4.95041 5.45922 4.79566 5.53561 4.64679 5.6218C4.58019 5.65902 4.54102 5.72953 4.54102 5.80593V8.28775C4.54102 8.36415 4.58215 8.43466 4.64679 8.47188C4.79566 8.55807 4.95041 8.63446 5.10907 8.70302C5.55568 8.89107 5.66146 8.99881 6.14725 9.02427C6.2687 9.03015 6.37055 8.93416 6.37055 8.81272V5.28293V5.28097Z" fill="url(#paint7_linear_5338_8639)"/>
<mask id="mask1_5338_8639" style="mask-type:luminance" maskUnits="userSpaceOnUse" x="6" y="0" width="7" height="14">
<path d="M12.7373 7.04501C12.7373 10.4925 10.0028 13.3015 6.58462 13.4151C6.46513 13.419 6.36523 13.323 6.36523 13.2036V11.4308C6.36523 11.3172 6.45338 11.2251 6.56699 11.2193C7.06062 11.1958 7.53857 11.088 7.9891 10.8961C8.48664 10.6845 8.93325 10.3848 9.31718 9.99891C9.70111 9.61498 10.0028 9.16642 10.2124 8.67083C10.4298 8.15762 10.5395 7.60915 10.5395 7.04501C10.5395 6.48087 10.4298 5.93239 10.2124 5.41918C10.0028 4.92164 9.70111 4.47504 9.31718 4.09111C8.93325 3.70718 8.48664 3.40552 7.9891 3.19396C7.53661 3.002 7.05866 2.89427 6.56699 2.87076C6.45338 2.86489 6.36523 2.77282 6.36523 2.65921V0.886477C6.36523 0.766988 6.46318 0.671003 6.58462 0.67492C10.0008 0.790491 12.7373 3.59749 12.7373 7.04501Z" fill="white"/>
</mask>
<g mask="url(#mask1_5338_8639)">
<path d="M10.5442 6.92595C10.5442 6.90832 10.5442 6.8907 10.5442 6.87307C10.5442 6.87307 10.5442 6.87111 10.5442 6.86915C10.5442 6.85152 10.5442 6.83585 10.5423 6.81822C10.5423 6.80059 10.5423 6.78492 10.5403 6.76925C10.5403 6.75162 10.5383 6.73594 10.5364 6.71831C10.5364 6.71831 10.5364 6.71831 10.5364 6.71635C10.5364 6.7046 10.5344 6.69089 10.5325 6.67914C10.5325 6.67522 10.5325 6.6713 10.5325 6.66738V6.66543C10.5305 6.64193 10.5285 6.61646 10.5246 6.59296C10.5246 6.58316 10.5227 6.57337 10.5207 6.56553C10.5207 6.55966 10.5207 6.55377 10.5187 6.5479C10.5187 6.53614 10.5168 6.52439 10.5148 6.5146C10.5148 6.51068 10.5148 6.50481 10.5129 6.50089C10.5129 6.48913 10.509 6.47542 10.509 6.46367C10.509 6.45192 10.505 6.44213 10.505 6.43037C10.5031 6.4147 10.5011 6.39903 10.4972 6.38336C10.4972 6.38336 10.4972 6.3814 10.4972 6.37944C10.4972 6.36965 10.4952 6.36181 10.4933 6.35202C10.4933 6.35006 10.4933 6.3481 10.4933 6.34418C10.4933 6.34027 10.4933 6.33831 10.4933 6.33439C10.4933 6.33048 10.4933 6.32655 10.4933 6.32459C10.4933 6.32459 10.4933 6.3246 10.4933 6.32264C10.4933 6.32068 10.4933 6.31676 10.4933 6.3148V6.31089C10.4933 6.30893 10.4933 6.30696 10.4933 6.30501C10.4913 6.29325 10.4894 6.2815 10.4874 6.26975C10.4855 6.258 10.4835 6.2482 10.4815 6.23645C10.4815 6.22862 10.4776 6.21882 10.4757 6.21099C10.4757 6.20903 10.4757 6.20706 10.4757 6.20314C10.4757 6.20314 10.4757 6.19923 10.4757 6.19727C10.4757 6.19336 10.4757 6.1914 10.4737 6.18748C10.4717 6.17769 10.4698 6.16789 10.4678 6.15809C10.4678 6.15809 10.4678 6.15613 10.4678 6.15417C10.4678 6.15417 10.4678 6.15222 10.4678 6.15026C10.4678 6.1483 10.4678 6.14634 10.4678 6.14438C10.4678 6.14242 10.4678 6.14047 10.4678 6.13851C10.4678 6.13263 10.4659 6.12479 10.4639 6.11892C10.4639 6.115 10.4639 6.11108 10.4619 6.10912C10.458 6.09345 10.4541 6.07582 10.4502 6.06015C10.4502 6.05428 10.4463 6.04839 10.4463 6.04252C10.4443 6.03077 10.4404 6.02097 10.4384 6.00922C10.4384 6.00726 10.4384 6.00531 10.4365 6.00139C10.4365 5.99943 10.4365 5.99552 10.4345 5.9916C10.4326 5.9818 10.4286 5.97005 10.4267 5.96025C10.4267 5.96025 10.4267 5.95634 10.4267 5.95438C10.4267 5.95438 10.4267 5.95438 10.4267 5.95046C10.4228 5.93675 10.4188 5.92499 10.4149 5.91128C10.411 5.89561 10.4051 5.87994 10.4012 5.86231C10.4012 5.86231 10.4012 5.8584 10.4012 5.85644C10.4012 5.85644 10.4012 5.85252 10.4012 5.85056C10.3973 5.83685 10.3934 5.82314 10.3875 5.80943C10.3836 5.79572 10.3777 5.78004 10.3738 5.76437C10.3718 5.75849 10.3699 5.75262 10.3679 5.74479C10.3679 5.73891 10.364 5.73303 10.362 5.72519C10.362 5.72127 10.3601 5.71932 10.3581 5.7154C10.3581 5.71148 10.3562 5.70756 10.3542 5.70365C10.3503 5.69189 10.3464 5.68014 10.3425 5.66839C10.3385 5.65664 10.3346 5.64292 10.3287 5.63117C10.3287 5.62725 10.3248 5.62138 10.3229 5.61746C10.3189 5.60962 10.317 5.59983 10.3131 5.59199C10.3131 5.59003 10.3111 5.58612 10.3092 5.58416C10.3092 5.58024 10.3052 5.57437 10.3033 5.57045C10.3033 5.56849 10.3013 5.56653 10.3013 5.56262C10.3013 5.5587 10.2974 5.55282 10.2954 5.5489C10.2935 5.54303 10.2915 5.53518 10.2876 5.52931C10.2817 5.51364 10.2759 5.49797 10.268 5.4823C10.268 5.4823 10.268 5.48035 10.268 5.47839C10.2621 5.46664 10.2582 5.45292 10.2523 5.44117C10.2523 5.43921 10.2524 5.43725 10.2504 5.43529C10.2445 5.42354 10.2406 5.40982 10.2347 5.39807C10.2347 5.39611 10.2328 5.39416 10.2308 5.39024V5.38828C10.2249 5.37457 10.2191 5.36085 10.2132 5.3491C10.2132 5.3491 10.2132 5.34714 10.2112 5.34518C10.2053 5.32951 10.1975 5.3158 10.1916 5.30013C10.1877 5.29229 10.1838 5.28446 10.1818 5.27662C10.1779 5.26879 10.174 5.26096 10.1701 5.25508C10.1622 5.24137 10.1564 5.22569 10.1485 5.21198C10.1485 5.21198 10.1485 5.21198 10.1485 5.21002C10.1427 5.19631 10.1348 5.1826 10.1289 5.16889C10.1289 5.16889 10.1289 5.16693 10.1289 5.16497C10.1231 5.15518 10.1192 5.14343 10.1133 5.13363C10.1133 5.13168 10.1133 5.12971 10.1113 5.12775C10.1113 5.12775 10.1113 5.12384 10.1094 5.12188C10.1054 5.11209 10.0996 5.10425 10.0956 5.09446C10.0937 5.08858 10.0898 5.0827 10.0878 5.07878C10.0878 5.07878 10.0878 5.07683 10.0858 5.07487C10.0819 5.06899 10.08 5.06115 10.0761 5.05528C10.0721 5.0494 10.0682 5.04157 10.0663 5.03569C10.0643 5.02982 10.0604 5.0259 10.0584 5.02002C10.0565 5.01414 10.0526 5.01022 10.0506 5.00434C10.0506 5.00043 10.0467 4.99651 10.0447 4.99455C10.0408 4.98868 10.0388 4.98281 10.0349 4.97693C10.031 4.9691 10.0271 4.96321 10.0232 4.95537C10.0232 4.95342 10.0212 4.95146 10.0193 4.94754C10.0193 4.94558 10.0173 4.94363 10.0153 4.93971C10.0153 4.93775 10.0134 4.93579 10.0114 4.93187C10.0055 4.92403 10.0016 4.91424 9.99574 4.9064C9.99574 4.9064 9.99574 4.90445 9.99378 4.90249C9.99378 4.90249 9.99183 4.89857 9.98987 4.89857C9.98987 4.89661 9.98595 4.8927 9.98399 4.88878C9.98007 4.8829 9.97616 4.87506 9.97224 4.86919C9.97224 4.86919 9.97028 4.86527 9.96832 4.86332C9.96832 4.86332 9.96832 4.86135 9.96636 4.85939C9.95853 4.84764 9.95069 4.83589 9.94481 4.82414C9.9409 4.8163 9.93502 4.81043 9.9311 4.80455C9.92914 4.80064 9.92523 4.79672 9.92327 4.7928C9.92131 4.78888 9.91935 4.78496 9.91739 4.783C9.91543 4.77908 9.91152 4.7732 9.9076 4.76928C9.9076 4.76733 9.90368 4.76537 9.90368 4.76145C9.89976 4.75558 9.89584 4.74775 9.88997 4.74187C9.88213 4.73012 9.87626 4.72031 9.86842 4.70856C9.86842 4.7066 9.8645 4.70269 9.86254 4.70073C9.86254 4.69877 9.86059 4.69682 9.85863 4.69486C9.85079 4.68311 9.84296 4.67134 9.83512 4.65959C9.82729 4.64784 9.81945 4.63609 9.81161 4.62629C9.81161 4.62433 9.80966 4.62238 9.8077 4.62042C9.80574 4.61846 9.80378 4.6165 9.80182 4.61258C9.79399 4.60083 9.78615 4.59104 9.77831 4.57928C9.7744 4.57341 9.77048 4.56753 9.7646 4.56165C9.75873 4.55381 9.75481 4.54794 9.74893 4.54207C9.74893 4.54207 9.74697 4.53815 9.74502 4.5362C9.73914 4.52836 9.73326 4.52247 9.72934 4.51464C9.72543 4.51072 9.72151 4.50484 9.71759 4.50093C9.70976 4.48917 9.69996 4.47742 9.69017 4.46567C9.69017 4.46371 9.68625 4.4598 9.68429 4.45784C9.6745 4.44608 9.66666 4.43433 9.65687 4.42258C9.65099 4.41475 9.64511 4.40886 9.63924 4.40299C9.63532 4.39907 9.63336 4.39515 9.62944 4.39123C9.62553 4.38732 9.62161 4.38144 9.61769 4.37752C9.61377 4.3736 9.60986 4.36968 9.6079 4.36577C9.60398 4.36185 9.60006 4.35598 9.59614 4.35207C9.59419 4.35011 9.59027 4.34618 9.58831 4.34226C9.58439 4.33639 9.58047 4.33248 9.5746 4.3266C9.57068 4.32268 9.56872 4.31877 9.5648 4.31485C9.5648 4.31485 9.56089 4.31092 9.55893 4.30897C9.55893 4.30897 9.55501 4.30505 9.55501 4.3031C9.54522 4.2933 9.53738 4.28154 9.52759 4.27175C9.51779 4.25999 9.50604 4.24824 9.49429 4.23453C9.48253 4.22278 9.47274 4.21102 9.46099 4.19927C9.44923 4.18752 9.43944 4.17577 9.42769 4.16401C9.40418 4.14051 9.38263 4.11701 9.35913 4.0935C9.35325 4.08762 9.34737 4.08174 9.3415 4.07587C9.33562 4.06999 9.32975 4.06412 9.32387 4.05824C9.31212 4.04649 9.30036 4.03473 9.28861 4.02297C9.27686 4.01122 9.2651 4.00143 9.25335 3.98968C9.2416 3.97792 9.22984 3.96813 9.21613 3.95638C9.20438 3.94463 9.19263 3.93484 9.17892 3.92308C9.16912 3.91329 9.15933 3.90545 9.14757 3.89566C9.14562 3.8937 9.14366 3.89173 9.1417 3.88977C9.12994 3.87802 9.11623 3.86823 9.10448 3.85844C9.09273 3.84864 9.08097 3.83885 9.06922 3.82905C9.06726 3.82709 9.06334 3.82514 9.06139 3.82122C9.05355 3.81534 9.04768 3.80946 9.03984 3.80359C9.03984 3.80359 9.03592 3.80164 9.03396 3.79968C9.03396 3.79968 9.03004 3.79771 9.02809 3.79575C9.02025 3.78792 9.01046 3.78205 9.00262 3.77617C8.9987 3.77421 8.99674 3.77029 8.99283 3.76833C8.99283 3.76833 8.99283 3.76833 8.99087 3.76637C8.98499 3.76049 8.97716 3.75658 8.97128 3.75071C8.9654 3.74679 8.96149 3.74287 8.95561 3.73895C8.95561 3.73895 8.95365 3.73895 8.95169 3.73699C8.93798 3.7272 8.92623 3.7174 8.91252 3.70761C8.8988 3.69781 8.88705 3.68802 8.87334 3.67823C8.87334 3.67823 8.87138 3.67823 8.86942 3.67627C8.85963 3.66843 8.84787 3.6606 8.83612 3.65276C8.83612 3.65276 8.83416 3.65276 8.8322 3.6508C8.82829 3.64885 8.82633 3.64688 8.82241 3.64296C8.81849 3.641 8.81653 3.63905 8.81262 3.63513C8.8087 3.63317 8.80478 3.62926 8.80086 3.6273C8.7989 3.6273 8.79695 3.62534 8.79499 3.62338C8.79499 3.62338 8.79303 3.62338 8.79107 3.62142C8.77736 3.61162 8.76365 3.60183 8.74993 3.59399C8.74406 3.59007 8.73622 3.58421 8.73035 3.58029C8.72447 3.57637 8.71663 3.57049 8.7088 3.56658C8.70488 3.56462 8.70292 3.56265 8.699 3.55873C8.69704 3.55873 8.69509 3.55678 8.69313 3.55482C8.69313 3.55482 8.69117 3.55482 8.68921 3.55286C8.68333 3.54895 8.67942 3.54503 8.67354 3.54307C8.67354 3.54307 8.66962 3.54307 8.66962 3.54111L8.6657 3.53915C8.65395 3.53131 8.64024 3.52348 8.62849 3.51564C8.62261 3.51173 8.61477 3.50781 8.6089 3.50389C8.60302 3.49997 8.59519 3.49606 8.58931 3.49018C8.58931 3.49018 8.58931 3.49018 8.58735 3.49018C8.5756 3.4843 8.5658 3.47647 8.55405 3.4706C8.55209 3.4706 8.54817 3.46667 8.54622 3.46667C8.53446 3.45884 8.52271 3.45297 8.51096 3.44513C8.50704 3.44317 8.50312 3.44121 8.4992 3.43925C8.49137 3.43533 8.48353 3.42945 8.4757 3.42553C8.47374 3.42553 8.47178 3.42358 8.46982 3.42163C8.4659 3.41967 8.46003 3.41574 8.45611 3.41378C8.44436 3.40595 8.43065 3.40007 8.41693 3.39224C8.40518 3.38636 8.39343 3.37853 8.38168 3.37265C8.37972 3.37265 8.3758 3.37069 8.37384 3.36873C8.36013 3.3609 8.34642 3.35502 8.3327 3.34719C8.31899 3.33935 8.30332 3.33152 8.28961 3.32368C8.27786 3.31781 8.2661 3.31193 8.25435 3.30605C8.25043 3.30409 8.24847 3.30213 8.24456 3.30017C8.23476 3.29429 8.22301 3.29038 8.21322 3.28451C8.20538 3.28059 8.1995 3.27667 8.19167 3.27471C8.18188 3.2708 8.17404 3.26688 8.16425 3.26296C8.16033 3.26296 8.15837 3.261 8.15445 3.25904C8.14857 3.25708 8.14466 3.25316 8.13878 3.2512C8.13878 3.2512 8.12899 3.24729 8.12507 3.24533C8.12115 3.24337 8.11527 3.2414 8.11136 3.23944C8.10744 3.23944 8.10548 3.23553 8.10156 3.23553C8.08981 3.22966 8.07806 3.22574 8.06631 3.21986C8.06435 3.21986 8.06239 3.21986 8.06043 3.2179C8.04868 3.21398 8.03692 3.2081 8.02713 3.20419C8.02517 3.20419 8.02321 3.20419 8.02125 3.20223C8.01733 3.20223 8.01342 3.19832 8.0095 3.19832C8.00558 3.19832 8.00166 3.1944 7.99775 3.1944C7.98991 3.19048 7.98208 3.18852 7.97424 3.1846C7.96053 3.17873 7.94682 3.17285 7.93115 3.16697C7.92331 3.16305 7.91547 3.16109 7.90764 3.15718C7.90372 3.15718 7.89785 3.15327 7.89393 3.15131C7.89197 3.15131 7.88805 3.14935 7.88609 3.14935C7.88413 3.14935 7.88217 3.14934 7.88022 3.14739C7.87434 3.14739 7.87042 3.14346 7.86455 3.1415C7.85475 3.13759 7.84496 3.13367 7.83516 3.12975C7.83516 3.12975 7.83125 3.12976 7.82929 3.1278C7.81558 3.12193 7.80186 3.118 7.78815 3.11213C7.78815 3.11213 7.78619 3.11213 7.78423 3.11213C7.76856 3.10625 7.75485 3.10233 7.73918 3.09645C7.73918 3.09645 7.73722 3.09645 7.73526 3.09645C7.72351 3.09254 7.7098 3.08862 7.69805 3.0847C7.69805 3.0847 7.69609 3.0847 7.69413 3.0847C7.67846 3.08078 7.66475 3.07491 7.64908 3.07099C7.64908 3.07099 7.64712 3.07099 7.64516 3.07099C7.64124 3.07099 7.63732 3.06904 7.63341 3.06708C7.62949 3.06708 7.62557 3.06512 7.62165 3.06316C7.61382 3.0612 7.60598 3.05923 7.59815 3.05728C7.59815 3.05728 7.59815 3.05728 7.59619 3.05728C7.59227 3.05728 7.59031 3.05531 7.58639 3.05531C7.57464 3.0514 7.56289 3.04748 7.54918 3.04552C7.54134 3.04356 7.53546 3.04161 7.52763 3.03965C7.51979 3.03769 7.51 3.03573 7.50216 3.03181C7.49041 3.02789 7.47866 3.02594 7.4669 3.02202C7.46299 3.02202 7.45711 3.02007 7.45319 3.01811H7.44928C7.4434 3.01811 7.43948 3.01615 7.4336 3.01419C7.42185 3.01223 7.41206 3.0083 7.40031 3.00634C7.38268 3.00243 7.36505 2.99851 7.34742 2.99459C7.33175 2.99067 7.31607 2.98676 7.29845 2.98284C7.29453 2.98284 7.29061 2.98089 7.28473 2.98089C7.28277 2.98089 7.28082 2.98089 7.27886 2.98089C7.27886 2.98089 7.27494 2.98089 7.27298 2.98089C7.26515 2.98089 7.25731 2.97697 7.24948 2.97697H7.24556C7.22793 2.97305 7.21226 2.97109 7.19463 2.96718C7.17896 2.96522 7.16525 2.96129 7.14958 2.95933C7.13782 2.95738 7.12411 2.95542 7.11236 2.95346C7.10844 2.95346 7.10256 2.95346 7.09865 2.9515C7.09277 2.9515 7.08885 2.9515 7.08493 2.94954C7.07318 2.94758 7.05947 2.94563 7.04772 2.94367C7.03792 2.94367 7.02813 2.94171 7.01638 2.93975C7.00854 2.93975 6.99875 2.93779 6.99091 2.93583C6.97524 2.93387 6.95957 2.93192 6.9439 2.92996C6.93215 2.92996 6.92235 2.928 6.9106 2.92604C6.90472 2.92604 6.9008 2.92604 6.89493 2.92604C6.89101 2.92604 6.88513 2.92604 6.88122 2.92604C6.88122 2.92604 6.87926 2.92604 6.8773 2.92604C6.86555 2.92604 6.85575 2.92407 6.844 2.92212C6.83029 2.92212 6.81658 2.92017 6.80286 2.91821C6.79895 2.91821 6.79503 2.91821 6.79111 2.91821C6.78915 2.91821 6.78523 2.91821 6.78328 2.91821C6.76956 2.91821 6.75389 2.91624 6.74018 2.91428C6.72255 2.91428 6.70492 2.91232 6.68729 2.91036C6.66575 2.91036 6.6442 2.90841 6.62265 2.90645C6.60894 2.90645 6.59719 2.90645 6.58348 2.90645H6.58152C6.58152 2.90645 6.56193 2.90645 6.55213 2.90645C6.5443 2.90645 6.53646 2.90645 6.53059 2.90645C6.53059 2.90645 6.51492 2.90645 6.50904 2.90645C6.49925 2.90645 6.48945 2.90645 6.47966 2.90645H6.47182C6.47182 2.90645 6.45419 2.90645 6.44636 2.90645C6.43461 2.90645 6.42481 2.90645 6.41306 2.90645C6.40131 2.90645 6.38955 2.90645 6.3778 2.90645C6.18583 2.90645 5.99583 2.91624 5.80778 2.93387C5.76273 2.93779 5.71964 2.94366 5.67458 2.94758C5.65304 2.94954 5.62953 2.95347 5.60798 2.95542C5.58644 2.95738 5.56489 2.9613 5.54138 2.96326C5.52179 2.96521 5.50221 2.96913 5.48066 2.97109C5.48066 2.97109 5.47674 2.97109 5.47478 2.97109C5.43169 2.97696 5.38859 2.98481 5.34354 2.99264C5.32199 2.99656 5.30045 3.00048 5.2789 3.0044C5.26715 3.0044 5.25539 3.00831 5.2456 3.01027C5.23385 3.01222 5.2221 3.01419 5.2123 3.01615C5.18488 3.02202 5.1555 3.02789 5.12807 3.03377C5.09869 3.03965 5.06931 3.04553 5.04188 3.0514C5.04188 3.0514 5.03992 3.0514 5.03797 3.0514C5.00858 3.05728 4.9792 3.06511 4.94982 3.07099C4.91848 3.07882 4.88909 3.0847 4.85775 3.09253C4.84012 3.09645 4.82445 3.10037 4.80683 3.10625C4.77352 3.11408 4.73827 3.12388 4.70497 3.13367C4.68734 3.13759 4.67166 3.14347 4.65404 3.14739C4.63641 3.1513 4.62074 3.15718 4.60311 3.1611C4.58548 3.16502 4.56981 3.1709 4.55218 3.17677C4.53651 3.18069 4.51888 3.18656 4.50321 3.19243C4.50321 3.19243 4.50321 3.19243 4.50125 3.19243C4.48558 3.19831 4.46795 3.20223 4.45228 3.20811C4.43661 3.21398 4.41898 3.21791 4.40331 3.22378C4.38764 3.22966 4.37197 3.23357 4.3563 3.23944C4.34454 3.24336 4.33083 3.24728 4.31908 3.2512C4.30928 3.25511 4.29949 3.25904 4.2897 3.261C4.25052 3.27471 4.21134 3.28842 4.17217 3.30409C4.16237 3.30801 4.15258 3.31192 4.14474 3.31388C4.13299 3.3178 4.1232 3.32172 4.11144 3.32563C4.09185 3.33347 4.07227 3.3413 4.05268 3.34914C4.04288 3.35306 4.03113 3.35697 4.01938 3.36285C3.99 3.3746 3.96257 3.38636 3.93319 3.39811C3.91752 3.40594 3.89989 3.41183 3.88422 3.41966C3.87051 3.42554 3.8568 3.43141 3.84308 3.43729C3.79215 3.45883 3.74123 3.48235 3.69225 3.50585C3.67854 3.51173 3.66483 3.51956 3.65112 3.52544C3.47483 3.60967 3.30441 3.70369 3.13791 3.80359C1.89797 4.54794 0.932274 5.70365 0.428857 7.0807C0.301534 7.43133 0.201633 7.79763 0.136992 8.17568C0.0743098 7.81917 0.0429688 7.45484 0.0429688 7.0807C0.0429688 6.70657 0.0743098 6.34222 0.136992 5.98572C0.593398 3.34327 2.67758 1.25713 5.32004 0.80072C5.69809 0.865361 6.06243 0.965259 6.41502 1.09258C7.79207 1.596 8.94582 2.56169 9.69213 3.80359C10.2563 4.74382 10.5854 5.84077 10.5971 7.01606C10.5971 6.99843 10.5971 6.9808 10.5971 6.96317L10.5442 6.92595Z" fill="url(#paint8_linear_5338_8639)"/>
<path d="M7.45699 13.3256C7.10244 13.3864 6.73614 13.4197 6.36201 13.4197C5.98787 13.4197 5.62353 13.3883 5.26703 13.3256C2.62458 12.8673 0.542349 10.7831 0.0839844 8.14062C0.148626 7.76257 0.248526 7.39628 0.375849 7.04565C0.879266 5.6686 1.84497 4.51288 3.0849 3.76853C3.2514 3.66863 3.42182 3.57657 3.59811 3.49038C3.61182 3.48255 3.62554 3.47667 3.63925 3.4708C3.69018 3.44729 3.73915 3.42378 3.79008 3.40223C3.80379 3.39636 3.8175 3.39049 3.83121 3.38461C3.84688 3.37677 3.86451 3.37089 3.88018 3.36305C3.90956 3.3513 3.93699 3.33955 3.96637 3.3278C3.97812 3.32388 3.98792 3.31996 3.99967 3.31408C4.01926 3.30625 4.03885 3.29841 4.05844 3.29058C4.07019 3.28666 4.07998 3.28274 4.09173 3.27883C4.10153 3.27491 4.11132 3.27099 4.11916 3.26903C4.15833 3.25532 4.19751 3.23966 4.23669 3.22595C4.24648 3.22203 4.25628 3.2181 4.26607 3.21614C4.27782 3.21222 4.29153 3.20831 4.30329 3.20439C4.31896 3.19851 4.33463 3.1946 4.3503 3.18873C4.36597 3.18285 4.3836 3.17697 4.39927 3.17305C4.41494 3.16718 4.43257 3.16326 4.44824 3.15738C4.44824 3.15738 4.44824 3.15738 4.4502 3.15738C4.46587 3.15346 4.48154 3.14758 4.49917 3.14171C4.5168 3.13583 4.53247 3.13192 4.5501 3.12604C4.56773 3.12017 4.5834 3.11625 4.60103 3.11233C4.61866 3.10841 4.63433 3.10253 4.65196 3.09862C4.68526 3.08882 4.72052 3.08098 4.75382 3.07119C4.77145 3.06727 4.78712 3.06335 4.80475 3.05748C4.83609 3.04964 4.86547 3.04181 4.89681 3.03593C4.92619 3.0281 4.95557 3.02223 4.98496 3.01635C4.98496 3.01635 4.98692 3.01635 4.98888 3.01635C5.01826 3.01047 5.04568 3.00459 5.07506 2.99872C5.10249 2.99284 5.13187 2.98697 5.15929 2.98109C5.17105 2.97913 5.18084 2.97717 5.19259 2.97521C5.20434 2.97325 5.2161 2.9713 5.22589 2.96934C5.24744 2.96542 5.26899 2.96149 5.29053 2.95758C5.33363 2.94974 5.37672 2.94387 5.42178 2.93603C5.42373 2.93603 5.42569 2.93603 5.42765 2.93603C5.44724 2.93407 5.46683 2.93016 5.48837 2.9282C5.50992 2.92624 5.53147 2.92233 5.55498 2.92037C5.57652 2.91841 5.59807 2.91449 5.62157 2.91253C5.66467 2.90861 5.70972 2.90273 5.75477 2.89881C5.93303 2.88314 6.11324 2.87336 6.29541 2.8714C4.03885 2.90666 2.21518 4.73031 2.17992 6.98883C2.17992 6.98883 2.17992 7.00255 2.17992 7.00843C2.17992 7.0241 2.17992 7.03977 2.17992 7.05348C2.17992 7.06719 2.17992 7.08482 2.17992 7.09853C2.17992 7.10636 2.17992 7.11225 2.17992 7.11812C2.19168 8.29146 2.52076 9.39035 3.0849 10.3306C3.82925 11.5705 4.98496 12.5362 6.36005 13.0416C6.71068 13.1709 7.07698 13.2688 7.45503 13.3335L7.45699 13.3256Z" fill="url(#paint9_linear_5338_8639)"/>
<path d="M12.7358 7.04461C12.7358 7.41874 12.7044 7.78308 12.6417 8.13958C12.1853 10.782 10.1012 12.8682 7.4587 13.3246C7.08065 13.26 6.71631 13.16 6.36372 13.0327C4.98667 12.5293 3.83292 11.5636 3.08857 10.3217C2.52443 9.38148 2.19535 8.28454 2.18359 7.10924C2.21885 9.36776 4.04252 11.1914 6.29908 11.2267C6.29908 11.2267 6.31279 11.2267 6.31867 11.2267C6.33434 11.2267 6.35001 11.2267 6.36372 11.2267C6.37743 11.2267 6.39506 11.2267 6.40877 11.2267C6.41465 11.2267 6.42248 11.2267 6.42836 11.2267C7.6017 11.2149 8.69864 10.8859 9.63887 10.3217C10.8788 9.57736 11.8445 8.42166 12.3479 7.04265C12.4772 6.69202 12.5751 6.32572 12.6398 5.94766C12.7005 6.30417 12.7338 6.66851 12.7338 7.04265L12.7358 7.04461Z" fill="url(#paint10_linear_5338_8639)"/>
<path d="M12.6425 5.95013C12.5779 6.32819 12.478 6.69449 12.3507 7.04512C11.8473 8.42217 10.8816 9.57787 9.64162 10.3242C8.70139 10.8883 7.60445 11.2174 6.43111 11.2292C8.68768 11.1939 10.5113 9.37023 10.5466 7.11171C10.5466 7.11171 10.5466 7.09801 10.5466 7.09213C10.5466 7.07646 10.5466 7.06274 10.5466 7.04707C10.5466 7.0314 10.5466 7.01769 10.5466 7.00202C10.5466 6.99614 10.5466 6.98831 10.5466 6.98244C10.5348 5.8091 10.2058 4.7102 9.64162 3.76996C8.89727 2.53003 7.74352 1.56434 6.36451 1.05896C6.01388 0.929677 5.64758 0.831726 5.26953 0.767085C5.62604 0.706361 5.99038 0.673065 6.36451 0.673065C6.73865 0.673065 7.10299 0.704403 7.45949 0.767085C10.1019 1.22545 12.1861 3.30964 12.6425 5.95209V5.95013Z" fill="url(#paint11_linear_5338_8639)"/>
</g>
<mask id="mask2_5338_8639" style="mask-type:luminance" maskUnits="userSpaceOnUse" x="0" y="1" width="5" height="12">
<path d="M4.07827 10.5403C3.84125 10.3836 3.6199 10.2033 3.41619 9.99962C3.03226 9.61569 2.7306 9.16713 2.521 8.67155C2.30357 8.15834 2.19388 7.60987 2.19388 7.04573C2.19388 6.48159 2.30357 5.93311 2.521 5.4199C2.7306 4.92236 3.03226 4.47575 3.41619 4.08986C3.6199 3.88614 3.84125 3.70593 4.07827 3.54922C4.13899 3.51005 4.17621 3.44345 4.17621 3.37098V1.37101C4.17621 1.21823 4.02146 1.11637 3.88043 1.17513C1.5984 2.14475 0 4.40719 0 7.04377C0 9.68034 1.60036 11.9428 3.88043 12.9124C4.02146 12.9712 4.17621 12.8693 4.17621 12.7165V10.7166C4.17621 10.6441 4.13899 10.5775 4.07827 10.5383V10.5403Z" fill="white"/>
</mask>
<g mask="url(#mask2_5338_8639)">
<path d="M10.5462 6.92622C10.5462 6.90859 10.5462 6.89097 10.5462 6.87334C10.5462 6.87334 10.5462 6.87138 10.5462 6.86942C10.5462 6.85179 10.5462 6.83612 10.5442 6.81849C10.5442 6.80086 10.5442 6.78519 10.5422 6.76952C10.5422 6.75189 10.5403 6.73622 10.5383 6.71859C10.5383 6.71859 10.5383 6.71859 10.5383 6.71663C10.5383 6.70488 10.5364 6.69116 10.5344 6.67941C10.5344 6.67549 10.5344 6.67158 10.5344 6.66766V6.66571C10.5325 6.6422 10.5305 6.61674 10.5266 6.59323C10.5266 6.58344 10.5246 6.57364 10.5227 6.56581C10.5227 6.55993 10.5227 6.55405 10.5207 6.54817C10.5207 6.53642 10.5187 6.52467 10.5168 6.51488C10.5168 6.51096 10.5168 6.50508 10.5148 6.50116C10.5148 6.48941 10.5109 6.4757 10.5109 6.46394C10.5109 6.45219 10.507 6.4424 10.507 6.43065C10.505 6.41498 10.5031 6.39931 10.4992 6.38364C10.4992 6.38364 10.4992 6.38168 10.4992 6.37972C10.4992 6.36992 10.4972 6.36208 10.4952 6.35229C10.4952 6.35033 10.4952 6.34838 10.4952 6.34446C10.4952 6.34054 10.4952 6.33858 10.4952 6.33467C10.4952 6.33075 10.4952 6.32682 10.4952 6.32486C10.4952 6.32486 10.4952 6.32487 10.4952 6.32292C10.4952 6.32096 10.4952 6.31703 10.4952 6.31507V6.31116C10.4952 6.3092 10.4952 6.30724 10.4952 6.30528C10.4933 6.29353 10.4913 6.28178 10.4894 6.27002C10.4874 6.25827 10.4854 6.24848 10.4835 6.23673C10.4835 6.22889 10.4796 6.2191 10.4776 6.21126C10.4776 6.2093 10.4776 6.20734 10.4776 6.20342C10.4776 6.20342 10.4776 6.19951 10.4776 6.19755C10.4776 6.19363 10.4776 6.19167 10.4757 6.18776C10.4737 6.17796 10.4717 6.16816 10.4698 6.15837C10.4698 6.15837 10.4698 6.15641 10.4698 6.15445C10.4698 6.15445 10.4698 6.1525 10.4698 6.15054C10.4698 6.14858 10.4698 6.14661 10.4698 6.14466C10.4698 6.1427 10.4698 6.14074 10.4698 6.13879C10.4698 6.13291 10.4678 6.12507 10.4659 6.11919C10.4659 6.11527 10.4659 6.11136 10.4639 6.1094C10.46 6.09373 10.4561 6.0761 10.4521 6.06043C10.4521 6.05455 10.4482 6.04867 10.4482 6.04279C10.4463 6.03104 10.4424 6.02125 10.4404 6.0095C10.4404 6.00754 10.4404 6.00558 10.4384 6.00167C10.4384 5.99971 10.4384 5.99579 10.4365 5.99187C10.4345 5.98208 10.4306 5.97032 10.4286 5.96053C10.4286 5.96053 10.4286 5.95661 10.4286 5.95466C10.4286 5.95466 10.4286 5.95465 10.4286 5.95073C10.4247 5.93702 10.4208 5.92527 10.4169 5.91156C10.413 5.89588 10.4071 5.88021 10.4032 5.86258C10.4032 5.86258 10.4032 5.85867 10.4032 5.85671C10.4032 5.85671 10.4032 5.85279 10.4032 5.85083C10.3993 5.83712 10.3953 5.82342 10.3895 5.8097C10.3855 5.79599 10.3797 5.78031 10.3758 5.76464C10.3738 5.75877 10.3718 5.7529 10.3699 5.74506C10.3699 5.73918 10.366 5.7333 10.364 5.72546C10.364 5.72155 10.362 5.71959 10.3601 5.71567C10.3601 5.71176 10.3581 5.70784 10.3562 5.70392C10.3522 5.69217 10.3483 5.68042 10.3444 5.66866C10.3405 5.65691 10.3366 5.6432 10.3307 5.63144C10.3307 5.62753 10.3268 5.62165 10.3248 5.61773C10.3209 5.6099 10.3189 5.6001 10.315 5.59227C10.315 5.59031 10.3131 5.58639 10.3111 5.58444C10.3111 5.58052 10.3072 5.57464 10.3052 5.57072C10.3052 5.56876 10.3033 5.56681 10.3033 5.56289C10.3033 5.55897 10.2994 5.5531 10.2974 5.54918C10.2954 5.5433 10.2935 5.53546 10.2896 5.52958C10.2837 5.51391 10.2778 5.49824 10.27 5.48257C10.27 5.48257 10.27 5.48062 10.27 5.47866C10.2641 5.46691 10.2602 5.4532 10.2543 5.44144C10.2543 5.43949 10.2543 5.43752 10.2523 5.43556C10.2465 5.42381 10.2426 5.4101 10.2367 5.39834C10.2367 5.39639 10.2347 5.39443 10.2328 5.39051V5.38855C10.2269 5.37484 10.221 5.36113 10.2151 5.34937C10.2151 5.34937 10.2151 5.34741 10.2132 5.34545C10.2073 5.32978 10.1995 5.31607 10.1936 5.3004C10.1897 5.29257 10.1857 5.28473 10.1838 5.2769C10.1799 5.26906 10.176 5.26123 10.172 5.25535C10.1642 5.24164 10.1583 5.22597 10.1505 5.21225C10.1505 5.21225 10.1505 5.21225 10.1505 5.21029C10.1446 5.19658 10.1368 5.18288 10.1309 5.16917C10.1309 5.16917 10.1309 5.1672 10.1309 5.16524C10.125 5.15545 10.1211 5.1437 10.1152 5.13391C10.1152 5.13195 10.1152 5.12999 10.1133 5.12803C10.1133 5.12803 10.1133 5.12411 10.1113 5.12216C10.1074 5.11236 10.1015 5.10452 10.0976 5.09473C10.0956 5.08885 10.0917 5.08297 10.0898 5.07906C10.0898 5.07906 10.0898 5.07711 10.0878 5.07515C10.0839 5.06927 10.0819 5.06143 10.078 5.05555C10.0741 5.04967 10.0702 5.04184 10.0682 5.03597C10.0663 5.03009 10.0623 5.02617 10.0604 5.02029C10.0584 5.01442 10.0545 5.0105 10.0525 5.00462C10.0525 5.0007 10.0486 4.99679 10.0467 4.99483C10.0428 4.98895 10.0408 4.98308 10.0369 4.97721C10.033 4.96937 10.029 4.96348 10.0251 4.95565C10.0251 4.95369 10.0232 4.95174 10.0212 4.94782C10.0212 4.94586 10.0192 4.9439 10.0173 4.93999C10.0173 4.93803 10.0153 4.93606 10.0134 4.93214C10.0075 4.92431 10.0036 4.91451 9.9977 4.90668C9.9977 4.90668 9.9977 4.90473 9.99574 4.90277C9.99574 4.90277 9.99378 4.89885 9.99182 4.89885C9.99182 4.89689 9.9879 4.89297 9.98594 4.88906C9.98203 4.88318 9.97811 4.87534 9.97419 4.86946C9.97419 4.86946 9.97223 4.86555 9.97027 4.86359C9.97027 4.86359 9.97027 4.86163 9.96832 4.85967C9.96048 4.84792 9.95264 4.83616 9.94677 4.82441C9.94285 4.81658 9.93697 4.8107 9.93306 4.80483C9.9311 4.80091 9.92718 4.79699 9.92522 4.79308C9.92326 4.78916 9.9213 4.78523 9.91934 4.78327C9.91739 4.77935 9.91347 4.77348 9.90955 4.76956C9.90955 4.7676 9.90563 4.76565 9.90563 4.76173C9.90172 4.75585 9.8978 4.74802 9.89192 4.74214C9.88409 4.73039 9.87821 4.72059 9.87037 4.70884C9.87037 4.70688 9.86646 4.70296 9.8645 4.701C9.8645 4.69905 9.86254 4.69709 9.86058 4.69513C9.85275 4.68338 9.84491 4.67162 9.83707 4.65986C9.82924 4.64811 9.8214 4.63636 9.81357 4.62657C9.81357 4.62461 9.81161 4.62266 9.80965 4.6207C9.80769 4.61874 9.80573 4.61677 9.80377 4.61286C9.79594 4.6011 9.7881 4.59131 9.78027 4.57956C9.77635 4.57368 9.77243 4.5678 9.76656 4.56192C9.76068 4.55409 9.75676 4.54822 9.75089 4.54234C9.75089 4.54234 9.74893 4.53843 9.74697 4.53647C9.74109 4.52863 9.73522 4.52275 9.7313 4.51491C9.72738 4.511 9.72346 4.50512 9.71955 4.5012C9.71171 4.48945 9.70192 4.4777 9.69212 4.46594C9.69212 4.46398 9.6882 4.46007 9.68624 4.45811C9.67645 4.44636 9.66861 4.43461 9.65882 4.42286C9.65294 4.41502 9.64707 4.40914 9.64119 4.40326C9.63727 4.39934 9.63531 4.39542 9.6314 4.39151C9.62748 4.38759 9.62356 4.38171 9.61965 4.37779C9.61573 4.37388 9.61181 4.36996 9.60985 4.36604C9.60593 4.36212 9.60202 4.35626 9.5981 4.35234C9.59614 4.35038 9.59222 4.34645 9.59026 4.34254C9.58634 4.33666 9.58243 4.33275 9.57655 4.32687C9.57263 4.32296 9.57067 4.31904 9.56676 4.31512C9.56676 4.31512 9.56284 4.3112 9.56088 4.30924C9.56088 4.30924 9.55696 4.30533 9.55696 4.30337C9.54717 4.29358 9.53933 4.28182 9.52954 4.27202C9.51974 4.26027 9.50799 4.24852 9.49624 4.2348C9.48449 4.22305 9.47469 4.2113 9.46294 4.19955C9.45119 4.18779 9.44139 4.17604 9.42964 4.16429C9.40613 4.14078 9.38459 4.11728 9.36108 4.09377C9.3552 4.0879 9.34933 4.08202 9.34345 4.07614C9.33757 4.07026 9.3317 4.06439 9.32582 4.05852C9.31407 4.04676 9.30232 4.035 9.29056 4.02325C9.27881 4.01149 9.26706 4.0017 9.2553 3.98995C9.24355 3.9782 9.2318 3.96841 9.21809 3.95665C9.20633 3.9449 9.19458 3.93511 9.18087 3.92336C9.17107 3.91356 9.16128 3.90573 9.14953 3.89593C9.14757 3.89397 9.14561 3.89201 9.14365 3.89005C9.1319 3.8783 9.11819 3.86851 9.10643 3.85871C9.09468 3.84892 9.08293 3.83912 9.07117 3.82933C9.06921 3.82737 9.0653 3.82541 9.06334 3.8215C9.0555 3.81562 9.04963 3.80974 9.04179 3.80386C9.04179 3.80386 9.03787 3.80191 9.03592 3.79995C9.03592 3.79995 9.032 3.79799 9.03004 3.79603C9.0222 3.78819 9.01241 3.78232 9.00457 3.77645C9.00066 3.77449 8.9987 3.77056 8.99478 3.7686C8.99478 3.7686 8.99478 3.7686 8.99282 3.76664C8.98695 3.76077 8.97911 3.75686 8.97323 3.75098C8.96736 3.74706 8.96344 3.74315 8.95756 3.73923C8.95756 3.73923 8.9556 3.73923 8.95364 3.73727C8.93993 3.72747 8.92818 3.71767 8.91447 3.70788C8.90076 3.69809 8.889 3.6883 8.87529 3.67851C8.87529 3.67851 8.87333 3.6785 8.87138 3.67654C8.86158 3.66871 8.84983 3.66087 8.83808 3.65304C8.83808 3.65304 8.83612 3.65304 8.83416 3.65108C8.83024 3.64912 8.82828 3.64715 8.82436 3.64324C8.82045 3.64128 8.81849 3.63932 8.81457 3.6354C8.81065 3.63345 8.80673 3.62953 8.80282 3.62757C8.80086 3.62757 8.7989 3.62561 8.79694 3.62365C8.79694 3.62365 8.79498 3.62365 8.79302 3.62169C8.77931 3.6119 8.7656 3.6021 8.75189 3.59427C8.74601 3.59035 8.73818 3.58448 8.7323 3.58056C8.72642 3.57665 8.71859 3.57077 8.71075 3.56685C8.70683 3.56489 8.70487 3.56293 8.70096 3.55901C8.699 3.55901 8.69704 3.55706 8.69508 3.5551C8.69508 3.5551 8.69312 3.5551 8.69116 3.55314C8.68529 3.54922 8.68137 3.5453 8.67549 3.54335C8.67549 3.54335 8.67157 3.54334 8.67157 3.54139L8.66766 3.53942C8.6559 3.53159 8.64219 3.52375 8.63044 3.51592C8.62456 3.512 8.61673 3.50808 8.61085 3.50417C8.60497 3.50025 8.59714 3.49633 8.59126 3.49045C8.59126 3.49045 8.59126 3.49045 8.5893 3.49045C8.57755 3.48458 8.56776 3.47675 8.556 3.47087C8.55405 3.47087 8.55013 3.46695 8.54817 3.46695C8.53642 3.45911 8.52466 3.45324 8.51291 3.4454C8.50899 3.44345 8.50508 3.44148 8.50116 3.43952C8.49332 3.43561 8.48549 3.42973 8.47765 3.42581C8.47569 3.42581 8.47373 3.42386 8.47178 3.4219C8.46786 3.41994 8.46198 3.41602 8.45806 3.41406C8.44631 3.40622 8.4326 3.40035 8.41889 3.39251C8.40713 3.38664 8.39538 3.37881 8.38363 3.37293C8.38167 3.37293 8.37775 3.37097 8.37579 3.36901C8.36208 3.36117 8.34837 3.3553 8.33466 3.34746C8.32095 3.33963 8.30527 3.33179 8.29156 3.32396C8.27981 3.31808 8.26806 3.3122 8.2563 3.30632C8.25239 3.30437 8.25043 3.3024 8.24651 3.30044C8.23672 3.29457 8.22496 3.29066 8.21517 3.28478C8.20733 3.28086 8.20146 3.27695 8.19362 3.27499C8.18383 3.27107 8.17599 3.26715 8.1662 3.26324C8.16228 3.26324 8.16032 3.26127 8.1564 3.25931C8.15053 3.25736 8.14661 3.25343 8.14073 3.25147C8.14073 3.25147 8.13094 3.24756 8.12702 3.2456C8.1231 3.24364 8.11723 3.24168 8.11331 3.23972C8.10939 3.23972 8.10743 3.23581 8.10352 3.23581C8.09176 3.22993 8.08001 3.22601 8.06826 3.22014C8.0663 3.22014 8.06434 3.22013 8.06238 3.21817C8.05063 3.21426 8.03887 3.20838 8.02908 3.20446C8.02712 3.20446 8.02516 3.20446 8.0232 3.2025C8.01929 3.2025 8.01537 3.19859 8.01145 3.19859C8.00753 3.19859 8.00362 3.19467 7.9997 3.19467C7.99186 3.19075 7.98403 3.1888 7.97619 3.18488C7.96248 3.179 7.94877 3.17312 7.9331 3.16724C7.92526 3.16333 7.91743 3.16137 7.90959 3.15745C7.90567 3.15745 7.8998 3.15354 7.89588 3.15158C7.89392 3.15158 7.89 3.14962 7.88805 3.14962C7.88609 3.14962 7.88413 3.14962 7.88217 3.14766C7.87629 3.14766 7.87238 3.14374 7.8665 3.14178C7.85671 3.13786 7.84691 3.13394 7.83712 3.13003C7.83712 3.13003 7.8332 3.13004 7.83124 3.12808C7.81753 3.1222 7.80382 3.11828 7.7901 3.1124C7.7901 3.1124 7.78815 3.1124 7.78619 3.1124C7.77052 3.10653 7.7568 3.10261 7.74113 3.09673C7.74113 3.09673 7.73918 3.09673 7.73722 3.09673C7.72546 3.09281 7.71175 3.08889 7.7 3.08498C7.7 3.08498 7.69804 3.08498 7.69608 3.08498C7.68041 3.08106 7.6667 3.07518 7.65103 3.07126C7.65103 3.07126 7.64907 3.07126 7.64711 3.07126C7.64319 3.07126 7.63928 3.06931 7.63536 3.06735C7.63144 3.06735 7.62752 3.06539 7.6236 3.06343C7.61577 3.06147 7.60793 3.05951 7.6001 3.05755C7.6001 3.05755 7.6001 3.05755 7.59814 3.05755C7.59422 3.05755 7.59226 3.05559 7.58835 3.05559C7.57659 3.05167 7.56484 3.04776 7.55113 3.0458C7.54329 3.04384 7.53742 3.04189 7.52958 3.03993C7.52175 3.03797 7.51195 3.036 7.50412 3.03208C7.49236 3.02817 7.48061 3.02621 7.46886 3.02229C7.46494 3.02229 7.45906 3.02034 7.45515 3.01838H7.45123C7.44535 3.01838 7.44143 3.01642 7.43556 3.01446C7.4238 3.0125 7.41401 3.00858 7.40226 3.00662C7.38463 3.0027 7.367 2.99878 7.34937 2.99487C7.3337 2.99095 7.31803 2.98703 7.3004 2.98311C7.29648 2.98311 7.29256 2.98116 7.28669 2.98116C7.28473 2.98116 7.28277 2.98116 7.28081 2.98116C7.28081 2.98116 7.27689 2.98116 7.27493 2.98116C7.2671 2.98116 7.25926 2.97724 7.25143 2.97724H7.24751C7.22988 2.97333 7.21421 2.97137 7.19658 2.96745C7.18091 2.96549 7.1672 2.96157 7.15153 2.95961C7.13978 2.95765 7.12606 2.9557 7.11431 2.95374C7.11039 2.95374 7.10452 2.95374 7.1006 2.95178C7.09472 2.95178 7.09081 2.95178 7.08689 2.94982C7.07513 2.94786 7.06142 2.94591 7.04967 2.94395C7.03988 2.94395 7.03008 2.94198 7.01833 2.94003C7.01049 2.94003 7.0007 2.93806 6.99286 2.9361C6.97719 2.93414 6.96152 2.93219 6.94585 2.93023C6.9341 2.93023 6.92431 2.92827 6.91255 2.92631C6.90668 2.92631 6.90276 2.92631 6.89688 2.92631C6.89296 2.92631 6.88709 2.92631 6.88317 2.92631C6.88317 2.92631 6.88121 2.92631 6.87925 2.92631C6.8675 2.92631 6.8577 2.92435 6.84595 2.92239C6.83224 2.92239 6.81853 2.92044 6.80482 2.91848C6.8009 2.91848 6.79698 2.91848 6.79306 2.91848C6.79111 2.91848 6.78719 2.91848 6.78523 2.91848C6.77152 2.91848 6.75585 2.91652 6.74213 2.91456C6.7245 2.91456 6.70688 2.9126 6.68925 2.91064C6.6677 2.91064 6.64615 2.90869 6.62461 2.90673C6.61089 2.90673 6.59914 2.90673 6.58543 2.90673H6.58347C6.58347 2.90673 6.56388 2.90673 6.55409 2.90673C6.54625 2.90673 6.53842 2.90673 6.53254 2.90673C6.53254 2.90673 6.51687 2.90673 6.51099 2.90673C6.5012 2.90673 6.49141 2.90673 6.48161 2.90673H6.47378C6.47378 2.90673 6.45615 2.90673 6.44831 2.90673C6.43656 2.90673 6.42676 2.90673 6.41501 2.90673C6.40326 2.90673 6.39151 2.90673 6.37975 2.90673C6.18779 2.90673 5.99778 2.91651 5.80974 2.93414C5.76468 2.93806 5.72159 2.94394 5.67654 2.94786C5.65499 2.94982 5.63148 2.95374 5.60994 2.9557C5.58839 2.95766 5.56684 2.96157 5.54334 2.96353C5.52375 2.96549 5.50416 2.9694 5.48261 2.97136C5.48261 2.97136 5.47869 2.97136 5.47674 2.97136C5.43364 2.97724 5.39055 2.98508 5.34549 2.99292C5.32395 2.99683 5.3024 3.00075 5.28085 3.00467C5.2691 3.00467 5.25735 3.00858 5.24755 3.01054C5.2358 3.0125 5.22405 3.01446 5.21425 3.01642C5.18683 3.0223 5.15745 3.02817 5.13002 3.03404C5.10064 3.03992 5.07126 3.0458 5.04384 3.05168C5.04384 3.05168 5.04188 3.05168 5.03992 3.05168C5.01054 3.05756 4.98115 3.06539 4.95177 3.07126C4.92043 3.0791 4.89105 3.08497 4.85971 3.09281C4.84208 3.09672 4.82641 3.10064 4.80878 3.10652C4.77548 3.11436 4.74022 3.12415 4.70692 3.13395C4.68929 3.13786 4.67362 3.14374 4.65599 3.14766C4.63836 3.15158 4.62269 3.15746 4.60506 3.16137C4.58743 3.16529 4.57176 3.17117 4.55413 3.17705C4.53846 3.18096 4.52083 3.18683 4.50516 3.19271C4.50516 3.19271 4.50516 3.19271 4.5032 3.19271C4.48753 3.19859 4.4699 3.20251 4.45423 3.20838C4.43856 3.21426 4.42093 3.21818 4.40526 3.22406C4.38959 3.22993 4.37392 3.23384 4.35825 3.23972C4.3465 3.24364 4.33278 3.24755 4.32103 3.25147C4.31124 3.25539 4.30144 3.25932 4.29165 3.26128C4.25247 3.27499 4.21329 3.28869 4.17412 3.30436C4.16432 3.30828 4.15453 3.3122 4.1467 3.31416C4.13494 3.31807 4.12515 3.32199 4.1134 3.32591C4.09381 3.33374 4.07422 3.34158 4.05463 3.34941C4.04484 3.35333 4.03308 3.35725 4.02133 3.36313C3.99195 3.37488 3.96453 3.38663 3.93514 3.39838C3.91947 3.40622 3.90184 3.4121 3.88617 3.41994C3.87246 3.42582 3.85875 3.43169 3.84504 3.43756C3.79411 3.45911 3.74318 3.48262 3.69421 3.50613C3.6805 3.512 3.66678 3.51983 3.65307 3.52571C3.47678 3.60994 3.30636 3.70396 3.13986 3.80386C1.89993 4.54821 0.934227 5.70393 0.43081 7.08098C0.303487 7.43161 0.203586 7.7979 0.138945 8.17595C0.0762629 7.81945 0.0449219 7.45511 0.0449219 7.08098C0.0449219 6.70684 0.0762629 6.3425 0.138945 5.98599C0.595351 3.34354 2.67954 1.2574 5.32199 0.800995C5.70004 0.865636 6.06438 0.965534 6.41697 1.09286C7.79402 1.59627 8.94777 2.56197 9.69408 3.80386C10.2582 4.7441 10.5873 5.84104 10.5991 7.01633C10.5991 6.9987 10.5991 6.98107 10.5991 6.96344L10.5462 6.92622Z" fill="url(#paint12_linear_5338_8639)"/>
<path d="M7.45894 13.3259C7.1044 13.3866 6.7381 13.4199 6.36396 13.4199C5.98983 13.4199 5.62549 13.3886 5.26898 13.3259C2.62653 12.8675 0.544302 10.7833 0.0859375 8.1409C0.150579 7.76285 0.250479 7.39655 0.377802 7.04592C0.88122 5.66887 1.84692 4.51316 3.08685 3.76881C3.25335 3.66891 3.42377 3.57684 3.60006 3.49066C3.61378 3.48282 3.62749 3.47695 3.6412 3.47107C3.69213 3.44757 3.7411 3.42405 3.79203 3.40251C3.80574 3.39663 3.81945 3.39076 3.83316 3.38488C3.84883 3.37705 3.86646 3.37116 3.88213 3.36333C3.91152 3.35157 3.93894 3.33982 3.96832 3.32807C3.98008 3.32415 3.98987 3.32023 4.00162 3.31436C4.02121 3.30652 4.0408 3.29869 4.06039 3.29085C4.07214 3.28693 4.08193 3.28302 4.09369 3.2791C4.10348 3.27518 4.11328 3.27127 4.12111 3.26931C4.16029 3.2556 4.19946 3.23993 4.23864 3.22622C4.24843 3.2223 4.25823 3.21838 4.26802 3.21642C4.27978 3.2125 4.29349 3.20858 4.30524 3.20466C4.32091 3.19879 4.33658 3.19488 4.35225 3.189C4.36792 3.18313 4.38555 3.17725 4.40122 3.17333C4.41689 3.16745 4.43452 3.16353 4.45019 3.15765C4.45019 3.15765 4.45019 3.15765 4.45215 3.15765C4.46782 3.15374 4.48349 3.14786 4.50112 3.14198C4.51875 3.1361 4.53442 3.13219 4.55205 3.12632C4.56968 3.12044 4.58535 3.11652 4.60298 3.1126C4.62061 3.10869 4.63628 3.10281 4.65391 3.09889C4.68721 3.0891 4.72247 3.08126 4.75577 3.07147C4.7734 3.06755 4.78907 3.06363 4.8067 3.05775C4.83804 3.04992 4.86742 3.04208 4.89876 3.03621C4.92815 3.02837 4.95753 3.0225 4.98691 3.01662C4.98691 3.01662 4.98887 3.01662 4.99083 3.01662C5.02021 3.01075 5.04763 3.00487 5.07702 2.99899C5.10444 2.99311 5.13382 2.98724 5.16125 2.98137C5.173 2.97941 5.18279 2.97744 5.19454 2.97548C5.2063 2.97353 5.21805 2.97157 5.22785 2.96961C5.24939 2.9657 5.27094 2.96177 5.29249 2.95785C5.33558 2.95001 5.37868 2.94414 5.42373 2.93631C5.42569 2.93631 5.42765 2.93631 5.4296 2.93631C5.44919 2.93435 5.46878 2.93043 5.49033 2.92848C5.51187 2.92652 5.53342 2.9226 5.55693 2.92064C5.57847 2.91869 5.60002 2.91476 5.62353 2.9128C5.66662 2.90888 5.71167 2.90301 5.75673 2.89909C5.93498 2.88342 6.11519 2.87363 6.29736 2.87167C4.0408 2.90693 2.21714 4.73059 2.18188 6.98911C2.18188 6.98911 2.18188 7.00283 2.18188 7.0087C2.18188 7.02438 2.18188 7.04004 2.18188 7.05375C2.18188 7.06747 2.18188 7.08509 2.18188 7.0988C2.18188 7.10664 2.18188 7.11252 2.18188 7.1184C2.19363 8.29173 2.52271 9.39062 3.08685 10.3309C3.83121 11.5708 4.98691 12.5365 6.362 13.0419C6.71263 13.1712 7.07893 13.2691 7.45698 13.3337L7.45894 13.3259Z" fill="url(#paint13_linear_5338_8639)"/>
<path d="M12.7377 7.04488C12.7377 7.41902 12.7064 7.78335 12.6437 8.13986C12.1873 10.7823 10.1031 12.8685 7.46066 13.3249C7.0826 13.2602 6.71826 13.1603 6.36567 13.033C4.98862 12.5296 3.83487 11.5639 3.09052 10.322C2.52638 9.38176 2.1973 8.28481 2.18555 7.10952C2.22081 9.36804 4.04447 11.1917 6.30103 11.227C6.30103 11.227 6.31474 11.227 6.32062 11.227C6.33629 11.227 6.35196 11.227 6.36567 11.227C6.37938 11.227 6.39701 11.227 6.41073 11.227C6.4166 11.227 6.42444 11.227 6.43031 11.227C7.60365 11.2152 8.70059 10.8861 9.64082 10.322C10.8808 9.57764 11.8465 8.42193 12.3499 7.04292C12.4792 6.69229 12.5771 6.32599 12.6417 5.94794C12.7025 6.30444 12.7358 6.66879 12.7358 7.04292L12.7377 7.04488Z" fill="url(#paint14_linear_5338_8639)"/>
</g>
<path d="M16.3242 13.3089H19.0215V9.0543L16.3242 6.36679V13.3089Z" fill="#231F20"/>
<path d="M23.9166 7.482L16.9941 0.584991H16.3242V0.910151V2.11679V3.71911L19.0215 6.4066L20.8687 8.24594L24.0655 11.429L25.9695 13.3271H26.6139V0.653545H23.9166V7.482Z" fill="#231F20"/>
<path d="M33.8535 3.29202H38.1649H40.8818H45.3753V0.58493H33.8535V3.29202Z" fill="#231F20"/>
<path d="M40.8829 5.17923H38.166V13.326H40.8829V5.17923Z" fill="#231F20"/>
<path d="M57.57 5.18532H51.6739V0.584045H48.9512V13.3262H51.6739V7.89632H57.57V13.3262H60.2908V0.584045H57.57V5.18532Z" fill="#231F20"/>
<path d="M75.293 0.58493H63.8652L63.8633 1.09226V3.29202H75.293V0.58493Z" fill="#231F20"/>
<path d="M66.5821 10.6192V7.88277H74.153V5.17763H66.5821L63.8652 5.16V10.6192L63.8633 11.1266V13.3263H75.293V10.6192H66.5821Z" fill="#231F20"/>
<path d="M97.3985 7.88277H104.969V5.17763H97.3985L94.6816 5.16V10.6192L94.6797 11.1266V13.3263H106.109V10.6192H97.3985V7.88277Z" fill="#231F20"/>
<path d="M94.6797 1.09226V3.29202H106.109V0.58493H94.6816L94.6797 1.09226Z" fill="#231F20"/>
<path d="M113.56 3.28918H117.811C118.22 3.42825 118.516 3.81609 118.516 4.2725H121.174C121.174 3.93166 121.127 3.60259 121.041 3.28918C120.61 1.72996 119.174 0.584045 117.472 0.584045H113.56C112.173 0.584045 110.882 1.33036 110.193 2.53111C109.86 3.11093 109.684 3.773 109.684 4.44684C109.684 5.12067 109.86 5.78276 110.193 6.36257C110.344 6.62309 110.522 6.86206 110.724 7.07753C111.448 7.85127 112.475 8.30964 113.562 8.30964H117.233C117.873 8.30964 118.394 8.82872 118.394 9.46534C118.394 10.102 117.873 10.621 117.233 10.621H113.049C112.639 10.482 112.344 10.0941 112.344 9.63772H109.686C109.686 9.97855 109.733 10.3076 109.819 10.621C110.25 12.1803 111.686 13.3262 113.388 13.3262H117.235C118.622 13.3262 119.911 12.5799 120.602 11.3811C120.935 10.8013 121.111 10.1392 121.111 9.46534C121.111 8.7915 120.935 8.12943 120.602 7.54962C119.913 6.34886 118.622 5.60451 117.235 5.60451H113.564C112.923 5.60451 112.402 5.08541 112.402 4.4488C112.402 3.81218 112.923 3.29309 113.564 3.29309L113.56 3.28918Z" fill="#231F20"/>
<path d="M127.465 0.58493H124.748V6.29685L127.465 3.59172V0.58493Z" fill="#231F20"/>
<path d="M136.131 12.4593L130.605 6.95501L136.129 1.45073L136.999 0.58493H133.155L129.118 4.60639L129.122 4.61031L124.748 8.96673V13.3271H127.465V10.0833L128.683 8.86878L133.008 13.1782L133.157 13.3271H137L136.131 12.4593Z" fill="#231F20"/>
<path d="M16.3242 13.3089H19.0215V9.0543L16.3242 6.36679V13.3089Z" fill="url(#paint15_linear_5338_8639)"/>
<path d="M23.9166 7.482L16.9941 0.584991H16.3242V0.910151V2.11679V3.71911L19.0215 6.4066L20.8687 8.24594L24.0655 11.429L25.9695 13.3271H26.6139V0.653545H23.9166V7.482Z" fill="url(#paint16_linear_5338_8639)"/>
<path d="M33.8535 3.29202H38.1649H40.8818H45.3753V0.58493H33.8535V3.29202Z" fill="url(#paint17_linear_5338_8639)"/>
<path d="M40.8829 5.17923H38.166V13.326H40.8829V5.17923Z" fill="url(#paint18_linear_5338_8639)"/>
<path d="M57.57 5.18532H51.6739V0.584045H48.9512V13.3262H51.6739V7.89632H57.57V13.3262H60.2908V0.584045H57.57V5.18532Z" fill="url(#paint19_linear_5338_8639)"/>
<path d="M75.293 0.58493H63.8652L63.8633 1.09226V3.29202H75.293V0.58493Z" fill="url(#paint20_linear_5338_8639)"/>
<path d="M66.5821 10.6192V7.88277H74.153V5.17763H66.5821L63.8652 5.16V10.6192L63.8633 11.1266V13.3263H75.293V10.6192H66.5821Z" fill="url(#paint21_linear_5338_8639)"/>
<path d="M97.3985 7.88277H104.969V5.17763H97.3985L94.6816 5.16V10.6192L94.6797 11.1266V13.3263H106.109V10.6192H97.3985V7.88277Z" fill="url(#paint22_linear_5338_8639)"/>
<path d="M94.6797 1.09226V3.29202H106.109V0.58493H94.6816L94.6797 1.09226Z" fill="url(#paint23_linear_5338_8639)"/>
<path d="M113.56 3.28918H117.811C118.22 3.42825 118.516 3.81609 118.516 4.2725H121.174C121.174 3.93166 121.127 3.60259 121.041 3.28918C120.61 1.72996 119.174 0.584045 117.472 0.584045H113.56C112.173 0.584045 110.882 1.33036 110.193 2.53111C109.86 3.11093 109.684 3.773 109.684 4.44684C109.684 5.12067 109.86 5.78276 110.193 6.36257C110.344 6.62309 110.522 6.86206 110.724 7.07753C111.448 7.85127 112.475 8.30964 113.562 8.30964H117.233C117.873 8.30964 118.394 8.82872 118.394 9.46534C118.394 10.102 117.873 10.621 117.233 10.621H113.049C112.639 10.482 112.344 10.0941 112.344 9.63772H109.686C109.686 9.97855 109.733 10.3076 109.819 10.621C110.25 12.1803 111.686 13.3262 113.388 13.3262H117.235C118.622 13.3262 119.911 12.5799 120.602 11.3811C120.935 10.8013 121.111 10.1392 121.111 9.46534C121.111 8.7915 120.935 8.12943 120.602 7.54962C119.913 6.34886 118.622 5.60451 117.235 5.60451H113.564C112.923 5.60451 112.402 5.08541 112.402 4.4488C112.402 3.81218 112.923 3.29309 113.564 3.29309L113.56 3.28918Z" fill="url(#paint24_linear_5338_8639)"/>
<path d="M127.465 0.58493H124.748V6.29685L127.465 3.59172V0.58493Z" fill="url(#paint25_linear_5338_8639)"/>
<path d="M136.131 12.4593L130.605 6.95501L136.129 1.45073L136.999 0.58493H133.155L129.118 4.60639L129.122 4.61031L124.748 8.96673V13.3271H127.465V10.0833L128.683 8.86878L133.008 13.1782L133.157 13.3271H137L136.131 12.4593Z" fill="url(#paint26_linear_5338_8639)"/>
<defs>
<linearGradient id="paint0_linear_5338_8639" x1="82.541" y1="6.95452" x2="84.2804" y2="6.95452" gradientUnits="userSpaceOnUse">
<stop stop-color="#005989"/>
<stop offset="0.1" stop-color="#006799"/>
<stop offset="0.35" stop-color="#0086BD"/>
<stop offset="0.55" stop-color="#0099D3"/>
<stop offset="0.68" stop-color="#00A0DC"/>
<stop offset="0.69" stop-color="#00A1DD"/>
<stop offset="0.88" stop-color="#00B7EC"/>
<stop offset="1" stop-color="#00C0F2"/>
</linearGradient>
<linearGradient id="paint1_linear_5338_8639" x1="86.2813" y1="6.95452" x2="83.0081" y2="6.95452" gradientUnits="userSpaceOnUse">
<stop stop-color="#005989"/>
<stop offset="0.28" stop-color="#007FAF"/>
<stop offset="0.59" stop-color="#00A2D3"/>
<stop offset="0.84" stop-color="#00B8E9"/>
<stop offset="1" stop-color="#00C0F2"/>
</linearGradient>
<linearGradient id="paint2_linear_5338_8639" x1="78.6276" y1="6.2317" x2="87.3796" y2="3.38749" gradientUnits="userSpaceOnUse">
<stop stop-color="#005989"/>
<stop offset="0.07" stop-color="#006799"/>
<stop offset="0.26" stop-color="#0086BD"/>
<stop offset="0.4" stop-color="#0099D3"/>
<stop offset="0.5" stop-color="#00A0DC"/>
<stop offset="0.67" stop-color="#00A4DF"/>
<stop offset="0.87" stop-color="#00B2E8"/>
<stop offset="1" stop-color="#00C0F2"/>
</linearGradient>
<linearGradient id="paint3_linear_5338_8639" x1="81.027" y1="4.28871" x2="85.4148" y2="15.1504" gradientUnits="userSpaceOnUse">
<stop stop-color="#00C0F2"/>
<stop offset="0.02" stop-color="#00BEF0"/>
<stop offset="0.24" stop-color="#00A8E1"/>
<stop offset="0.39" stop-color="#00A0DC"/>
<stop offset="0.48" stop-color="#0091CB"/>
<stop offset="0.7" stop-color="#0072A7"/>
<stop offset="0.88" stop-color="#005F91"/>
<stop offset="1" stop-color="#005989"/>
</linearGradient>
<linearGradient id="paint4_linear_5338_8639" x1="82.0336" y1="10.2897" x2="91.5927" y2="8.94596" gradientUnits="userSpaceOnUse">
<stop stop-color="#00C0F2"/>
<stop offset="0.02" stop-color="#00BEF0"/>
<stop offset="0.24" stop-color="#00A8E1"/>
<stop offset="0.39" stop-color="#00A0DC"/>
<stop offset="0.48" stop-color="#0091CB"/>
<stop offset="0.7" stop-color="#0072A7"/>
<stop offset="0.88" stop-color="#005F91"/>
<stop offset="1" stop-color="#005989"/>
</linearGradient>
<linearGradient id="paint5_linear_5338_8639" x1="88.3927" y1="9.89455" x2="85.1215" y2="-0.17184" gradientUnits="userSpaceOnUse">
<stop stop-color="#00C0F2"/>
<stop offset="0.02" stop-color="#00BEF0"/>
<stop offset="0.24" stop-color="#00A8E1"/>
<stop offset="0.39" stop-color="#00A0DC"/>
<stop offset="0.48" stop-color="#0091CB"/>
<stop offset="0.7" stop-color="#0072A7"/>
<stop offset="0.88" stop-color="#005F91"/>
<stop offset="1" stop-color="#005989"/>
</linearGradient>
<linearGradient id="paint6_linear_5338_8639" x1="4.17578" y1="7.04586" x2="5.91521" y2="7.04586" gradientUnits="userSpaceOnUse">
<stop stop-color="#005989"/>
<stop offset="0.1" stop-color="#006799"/>
<stop offset="0.35" stop-color="#0086BD"/>
<stop offset="0.55" stop-color="#0099D3"/>
<stop offset="0.68" stop-color="#00A0DC"/>
<stop offset="0.69" stop-color="#00A1DD"/>
<stop offset="0.88" stop-color="#00B7EC"/>
<stop offset="1" stop-color="#00C0F2"/>
</linearGradient>
<linearGradient id="paint7_linear_5338_8639" x1="7.91411" y1="7.04586" x2="4.64092" y2="7.04586" gradientUnits="userSpaceOnUse">
<stop stop-color="#005989"/>
<stop offset="0.28" stop-color="#007FAF"/>
<stop offset="0.59" stop-color="#00A2D3"/>
<stop offset="0.84" stop-color="#00B8E9"/>
<stop offset="1" stop-color="#00C0F2"/>
</linearGradient>
<linearGradient id="paint8_linear_5338_8639" x1="0.260398" y1="6.32263" x2="9.01241" y2="3.47842" gradientUnits="userSpaceOnUse">
<stop stop-color="#005989"/>
<stop offset="0.07" stop-color="#006799"/>
<stop offset="0.26" stop-color="#0086BD"/>
<stop offset="0.4" stop-color="#0099D3"/>
<stop offset="0.5" stop-color="#00A0DC"/>
<stop offset="0.67" stop-color="#00A4DF"/>
<stop offset="0.87" stop-color="#00B2E8"/>
<stop offset="1" stop-color="#00C0F2"/>
</linearGradient>
<linearGradient id="paint9_linear_5338_8639" x1="2.65984" y1="4.37773" x2="7.04955" y2="15.2394" gradientUnits="userSpaceOnUse">
<stop stop-color="#00C0F2"/>
<stop offset="0.02" stop-color="#00BEF0"/>
<stop offset="0.24" stop-color="#00A8E1"/>
<stop offset="0.39" stop-color="#00A0DC"/>
<stop offset="0.48" stop-color="#0091CB"/>
<stop offset="0.7" stop-color="#0072A7"/>
<stop offset="0.88" stop-color="#005F91"/>
<stop offset="1" stop-color="#005989"/>
</linearGradient>
<linearGradient id="paint10_linear_5338_8639" x1="3.66642" y1="10.3805" x2="13.2255" y2="9.03673" gradientUnits="userSpaceOnUse">
<stop stop-color="#00C0F2"/>
<stop offset="0.02" stop-color="#00BEF0"/>
<stop offset="0.24" stop-color="#00A8E1"/>
<stop offset="0.39" stop-color="#00A0DC"/>
<stop offset="0.48" stop-color="#0091CB"/>
<stop offset="0.7" stop-color="#0072A7"/>
<stop offset="0.88" stop-color="#005F91"/>
<stop offset="1" stop-color="#005989"/>
</linearGradient>
<linearGradient id="paint11_linear_5338_8639" x1="10.0236" y1="9.98531" x2="6.75432" y2="-0.081081" gradientUnits="userSpaceOnUse">
<stop stop-color="#00C0F2"/>
<stop offset="0.02" stop-color="#00BEF0"/>
<stop offset="0.24" stop-color="#00A8E1"/>
<stop offset="0.39" stop-color="#00A0DC"/>
<stop offset="0.48" stop-color="#0091CB"/>
<stop offset="0.7" stop-color="#0072A7"/>
<stop offset="0.88" stop-color="#005F91"/>
<stop offset="1" stop-color="#005989"/>
</linearGradient>
<linearGradient id="paint12_linear_5338_8639" x1="0.262351" y1="6.32291" x2="9.01437" y2="3.4787" gradientUnits="userSpaceOnUse">
<stop stop-color="#005989"/>
<stop offset="0.07" stop-color="#006799"/>
<stop offset="0.26" stop-color="#0086BD"/>
<stop offset="0.4" stop-color="#0099D3"/>
<stop offset="0.5" stop-color="#00A0DC"/>
<stop offset="0.67" stop-color="#00A4DF"/>
<stop offset="0.87" stop-color="#00B2E8"/>
<stop offset="1" stop-color="#00C0F2"/>
</linearGradient>
<linearGradient id="paint13_linear_5338_8639" x1="2.66179" y1="4.37801" x2="7.05151" y2="15.2397" gradientUnits="userSpaceOnUse">
<stop stop-color="#00C0F2"/>
<stop offset="0.02" stop-color="#00BEF0"/>
<stop offset="0.24" stop-color="#00A8E1"/>
<stop offset="0.39" stop-color="#00A0DC"/>
<stop offset="0.48" stop-color="#0091CB"/>
<stop offset="0.7" stop-color="#0072A7"/>
<stop offset="0.88" stop-color="#005F91"/>
<stop offset="1" stop-color="#005989"/>
</linearGradient>
<linearGradient id="paint14_linear_5338_8639" x1="3.66838" y1="10.3808" x2="13.2274" y2="9.037" gradientUnits="userSpaceOnUse">
<stop stop-color="#00C0F2"/>
<stop offset="0.02" stop-color="#00BEF0"/>
<stop offset="0.24" stop-color="#00A8E1"/>
<stop offset="0.39" stop-color="#00A0DC"/>
<stop offset="0.48" stop-color="#0091CB"/>
<stop offset="0.7" stop-color="#0072A7"/>
<stop offset="0.88" stop-color="#005F91"/>
<stop offset="1" stop-color="#005989"/>
</linearGradient>
<linearGradient id="paint15_linear_5338_8639" x1="75.9253" y1="17.4772" x2="77.3984" y2="-3.58403" gradientUnits="userSpaceOnUse">
<stop stop-color="#005989"/>
<stop offset="0.1" stop-color="#006799"/>
<stop offset="0.35" stop-color="#0086BD"/>
<stop offset="0.55" stop-color="#0099D3"/>
<stop offset="0.68" stop-color="#00A0DC"/>
<stop offset="0.69" stop-color="#00A1DD"/>
<stop offset="0.88" stop-color="#00B7EC"/>
<stop offset="1" stop-color="#00C0F2"/>
</linearGradient>
<linearGradient id="paint16_linear_5338_8639" x1="75.9253" y1="17.4779" x2="77.3983" y2="-3.58338" gradientUnits="userSpaceOnUse">
<stop stop-color="#005989"/>
<stop offset="0.1" stop-color="#006799"/>
<stop offset="0.35" stop-color="#0086BD"/>
<stop offset="0.55" stop-color="#0099D3"/>
<stop offset="0.68" stop-color="#00A0DC"/>
<stop offset="0.69" stop-color="#00A1DD"/>
<stop offset="0.88" stop-color="#00B7EC"/>
<stop offset="1" stop-color="#00C0F2"/>
</linearGradient>
<linearGradient id="paint17_linear_5338_8639" x1="75.9231" y1="17.4778" x2="77.3962" y2="-3.58345" gradientUnits="userSpaceOnUse">
<stop stop-color="#005989"/>
<stop offset="0.1" stop-color="#006799"/>
<stop offset="0.35" stop-color="#0086BD"/>
<stop offset="0.55" stop-color="#0099D3"/>
<stop offset="0.68" stop-color="#00A0DC"/>
<stop offset="0.69" stop-color="#00A1DD"/>
<stop offset="0.88" stop-color="#00B7EC"/>
<stop offset="1" stop-color="#00C0F2"/>
</linearGradient>
<linearGradient id="paint18_linear_5338_8639" x1="75.9243" y1="17.4787" x2="77.3973" y2="-3.58259" gradientUnits="userSpaceOnUse">
<stop stop-color="#005989"/>
<stop offset="0.1" stop-color="#006799"/>
<stop offset="0.35" stop-color="#0086BD"/>
<stop offset="0.55" stop-color="#0099D3"/>
<stop offset="0.68" stop-color="#00A0DC"/>
<stop offset="0.69" stop-color="#00A1DD"/>
<stop offset="0.88" stop-color="#00B7EC"/>
<stop offset="1" stop-color="#00C0F2"/>
</linearGradient>
<linearGradient id="paint19_linear_5338_8639" x1="75.9241" y1="17.4769" x2="77.3972" y2="-3.58433" gradientUnits="userSpaceOnUse">
<stop stop-color="#005989"/>
<stop offset="0.1" stop-color="#006799"/>
<stop offset="0.35" stop-color="#0086BD"/>
<stop offset="0.55" stop-color="#0099D3"/>
<stop offset="0.68" stop-color="#00A0DC"/>
<stop offset="0.69" stop-color="#00A1DD"/>
<stop offset="0.88" stop-color="#00B7EC"/>
<stop offset="1" stop-color="#00C0F2"/>
</linearGradient>
<linearGradient id="paint20_linear_5338_8639" x1="75.9218" y1="17.4778" x2="77.3948" y2="-3.58344" gradientUnits="userSpaceOnUse">
<stop stop-color="#005989"/>
<stop offset="0.1" stop-color="#006799"/>
<stop offset="0.35" stop-color="#0086BD"/>
<stop offset="0.55" stop-color="#0099D3"/>
<stop offset="0.68" stop-color="#00A0DC"/>
<stop offset="0.69" stop-color="#00A1DD"/>
<stop offset="0.88" stop-color="#00B7EC"/>
<stop offset="1" stop-color="#00C0F2"/>
</linearGradient>
<linearGradient id="paint21_linear_5338_8639" x1="75.9218" y1="17.4771" x2="77.3948" y2="-3.58418" gradientUnits="userSpaceOnUse">
<stop stop-color="#005989"/>
<stop offset="0.1" stop-color="#006799"/>
<stop offset="0.35" stop-color="#0086BD"/>
<stop offset="0.55" stop-color="#0099D3"/>
<stop offset="0.68" stop-color="#00A0DC"/>
<stop offset="0.69" stop-color="#00A1DD"/>
<stop offset="0.88" stop-color="#00B7EC"/>
<stop offset="1" stop-color="#00C0F2"/>
</linearGradient>
<linearGradient id="paint22_linear_5338_8639" x1="75.9279" y1="17.4771" x2="77.4009" y2="-3.58418" gradientUnits="userSpaceOnUse">
<stop stop-color="#005989"/>
<stop offset="0.1" stop-color="#006799"/>
<stop offset="0.35" stop-color="#0086BD"/>
<stop offset="0.55" stop-color="#0099D3"/>
<stop offset="0.68" stop-color="#00A0DC"/>
<stop offset="0.69" stop-color="#00A1DD"/>
<stop offset="0.88" stop-color="#00B7EC"/>
<stop offset="1" stop-color="#00C0F2"/>
</linearGradient>
<linearGradient id="paint23_linear_5338_8639" x1="75.9279" y1="17.4778" x2="77.4009" y2="-3.58345" gradientUnits="userSpaceOnUse">
<stop stop-color="#005989"/>
<stop offset="0.1" stop-color="#006799"/>
<stop offset="0.35" stop-color="#0086BD"/>
<stop offset="0.55" stop-color="#0099D3"/>
<stop offset="0.68" stop-color="#00A0DC"/>
<stop offset="0.69" stop-color="#00A1DD"/>
<stop offset="0.88" stop-color="#00B7EC"/>
<stop offset="1" stop-color="#00C0F2"/>
</linearGradient>
<linearGradient id="paint24_linear_5338_8639" x1="75.9272" y1="17.4769" x2="77.4003" y2="-3.58433" gradientUnits="userSpaceOnUse">
<stop stop-color="#005989"/>
<stop offset="0.1" stop-color="#006799"/>
<stop offset="0.35" stop-color="#0086BD"/>
<stop offset="0.55" stop-color="#0099D3"/>
<stop offset="0.68" stop-color="#00A0DC"/>
<stop offset="0.69" stop-color="#00A1DD"/>
<stop offset="0.88" stop-color="#00B7EC"/>
<stop offset="1" stop-color="#00C0F2"/>
</linearGradient>
<linearGradient id="paint25_linear_5338_8639" x1="75.9264" y1="17.4778" x2="77.3994" y2="-3.58344" gradientUnits="userSpaceOnUse">
<stop stop-color="#005989"/>
<stop offset="0.1" stop-color="#006799"/>
<stop offset="0.35" stop-color="#0086BD"/>
<stop offset="0.55" stop-color="#0099D3"/>
<stop offset="0.68" stop-color="#00A0DC"/>
<stop offset="0.69" stop-color="#00A1DD"/>
<stop offset="0.88" stop-color="#00B7EC"/>
<stop offset="1" stop-color="#00C0F2"/>
</linearGradient>
<linearGradient id="paint26_linear_5338_8639" x1="75.9263" y1="17.4778" x2="77.3994" y2="-3.58344" gradientUnits="userSpaceOnUse">
<stop stop-color="#005989"/>
<stop offset="0.1" stop-color="#006799"/>
<stop offset="0.35" stop-color="#0086BD"/>
<stop offset="0.55" stop-color="#0099D3"/>
<stop offset="0.68" stop-color="#00A0DC"/>
<stop offset="0.69" stop-color="#00A1DD"/>
<stop offset="0.88" stop-color="#00B7EC"/>
<stop offset="1" stop-color="#00C0F2"/>
</linearGradient>
</defs>
</svg>
