<svg width="36" height="36" viewBox="0 0 36 36" fill="none" xmlns="http://www.w3.org/2000/svg">
    <g clip-path="url(#clip0_7194_30896)">
    <path d="M32 36C34.508 36 32.992 36.0001 36 36V27H32V36Z" fill="#49D461"/>
    <g filter="url(#filter0_d_7194_30896)">
    <path d="M36 17.9985H32V26.9985H36V17.9985Z" fill="#FF9500"/>
    </g>
    <g filter="url(#filter1_d_7194_30896)">
    <path d="M36 9H32V18H36V9Z" fill="#5BC7FC"/>
    </g>
    <g filter="url(#filter2_d_7194_30896)">
    <path d="M36 0C32 2.76952e-05 34.493 2.76961e-05 32 2.76961e-05V9H36L36 0Z" fill="#C5C2BD"/>
    </g>
    <g filter="url(#filter3_d_7194_30896)">
    <rect width="32" height="36" fill="#D6D6CC"/>
    </g>
    <path fill-rule="evenodd" clip-rule="evenodd" d="M11.9814 15.4606C11.9814 17.7935 13.7846 19.6914 16.0007 19.6914C18.2168 19.6914 20.0199 17.7935 20.0199 15.4606C20.0199 13.1278 18.2168 11.2299 16.0007 11.2299C13.7846 11.2299 11.9814 13.1278 11.9814 15.4606Z" fill="#A5A198"/>
    <path fill-rule="evenodd" clip-rule="evenodd" d="M16 29C9.93477 29 5 24.0652 5 18C5 11.9348 9.93477 7 16 7C22.0652 7 27 11.9348 27 18C27 24.0652 22.0652 29 16 29ZM16 7.84615C10.401 7.84615 5.84615 12.401 5.84615 18C5.84615 20.4992 6.75368 22.7904 8.25649 24.5613C9.00223 23.5868 11.2175 21.3842 15.9994 21.3842C20.7776 21.3842 22.9963 23.589 23.7427 24.5623C25.246 22.7912 26.1538 20.4997 26.1538 18C26.1538 12.401 21.599 7.84615 16 7.84615Z" fill="#A5A198"/>
    </g>
    <defs>
    <filter id="filter0_d_7194_30896" x="28" y="15.9985" width="12" height="17" filterUnits="userSpaceOnUse" color-interpolation-filters="sRGB">
    <feFlood flood-opacity="0" result="BackgroundImageFix"/>
    <feColorMatrix in="SourceAlpha" type="matrix" values="0 0 0 0 0 0 0 0 0 0 0 0 0 0 0 0 0 0 127 0" result="hardAlpha"/>
    <feOffset dy="2"/>
    <feGaussianBlur stdDeviation="2"/>
    <feComposite in2="hardAlpha" operator="out"/>
    <feColorMatrix type="matrix" values="0 0 0 0 0 0 0 0 0 0 0 0 0 0 0 0 0 0 0.39 0"/>
    <feBlend mode="normal" in2="BackgroundImageFix" result="effect1_dropShadow_7194_30896"/>
    <feBlend mode="normal" in="SourceGraphic" in2="effect1_dropShadow_7194_30896" result="shape"/>
    </filter>
    <filter id="filter1_d_7194_30896" x="28" y="7" width="12" height="17" filterUnits="userSpaceOnUse" color-interpolation-filters="sRGB">
    <feFlood flood-opacity="0" result="BackgroundImageFix"/>
    <feColorMatrix in="SourceAlpha" type="matrix" values="0 0 0 0 0 0 0 0 0 0 0 0 0 0 0 0 0 0 127 0" result="hardAlpha"/>
    <feOffset dy="2"/>
    <feGaussianBlur stdDeviation="2"/>
    <feComposite in2="hardAlpha" operator="out"/>
    <feColorMatrix type="matrix" values="0 0 0 0 0 0 0 0 0 0 0 0 0 0 0 0 0 0 0.39 0"/>
    <feBlend mode="normal" in2="BackgroundImageFix" result="effect1_dropShadow_7194_30896"/>
    <feBlend mode="normal" in="SourceGraphic" in2="effect1_dropShadow_7194_30896" result="shape"/>
    </filter>
    <filter id="filter2_d_7194_30896" x="28" y="-2" width="12" height="17" filterUnits="userSpaceOnUse" color-interpolation-filters="sRGB">
    <feFlood flood-opacity="0" result="BackgroundImageFix"/>
    <feColorMatrix in="SourceAlpha" type="matrix" values="0 0 0 0 0 0 0 0 0 0 0 0 0 0 0 0 0 0 127 0" result="hardAlpha"/>
    <feOffset dy="2"/>
    <feGaussianBlur stdDeviation="2"/>
    <feComposite in2="hardAlpha" operator="out"/>
    <feColorMatrix type="matrix" values="0 0 0 0 0 0 0 0 0 0 0 0 0 0 0 0 0 0 0.39 0"/>
    <feBlend mode="normal" in2="BackgroundImageFix" result="effect1_dropShadow_7194_30896"/>
    <feBlend mode="normal" in="SourceGraphic" in2="effect1_dropShadow_7194_30896" result="shape"/>
    </filter>
    <filter id="filter3_d_7194_30896" x="-1" y="-2" width="36" height="40" filterUnits="userSpaceOnUse" color-interpolation-filters="sRGB">
    <feFlood flood-opacity="0" result="BackgroundImageFix"/>
    <feColorMatrix in="SourceAlpha" type="matrix" values="0 0 0 0 0 0 0 0 0 0 0 0 0 0 0 0 0 0 127 0" result="hardAlpha"/>
    <feOffset dx="1"/>
    <feGaussianBlur stdDeviation="1"/>
    <feComposite in2="hardAlpha" operator="out"/>
    <feColorMatrix type="matrix" values="0 0 0 0 0 0 0 0 0 0 0 0 0 0 0 0 0 0 0.39 0"/>
    <feBlend mode="normal" in2="BackgroundImageFix" result="effect1_dropShadow_7194_30896"/>
    <feBlend mode="normal" in="SourceGraphic" in2="effect1_dropShadow_7194_30896" result="shape"/>
    </filter>
    <clipPath id="clip0_7194_30896">
    <rect width="36" height="36" fill="white"/>
    </clipPath>
    </defs>
    </svg>
    