<svg width="102" height="30" viewBox="0 0 102 30" fill="none" xmlns="http://www.w3.org/2000/svg">
<g filter="url(#filter0_b_4614_39657)">
<rect width="102" height="30" rx="8" fill="url(#paint0_linear_4614_39657)" fill-opacity="0.2"/>
<rect x="0.5" y="0.5" width="101" height="29" rx="7.5" stroke="white"/>
<path fill-rule="evenodd" clip-rule="evenodd" d="M16.7092 9.75012H19.2911C20.4451 9.75012 21.3594 9.75012 22.0745 9.84192C22.8104 9.93672 23.4063 10.1359 23.8766 10.5847C24.3463 11.0341 24.5547 11.6035 24.6539 12.3067C24.7104 12.7105 24.7337 13.1803 24.7431 13.7245C24.7513 13.7701 24.7521 13.8167 24.7456 13.8625C24.75 14.2021 24.75 14.5693 24.75 14.9665V15.0337C24.75 16.1365 24.75 17.0101 24.6539 17.6935C24.5547 18.3967 24.3463 18.9661 23.8766 19.4155C23.4063 19.8643 22.8104 20.0635 22.0745 20.1583C21.3587 20.2501 20.4451 20.2501 19.2911 20.2501H16.7092C15.5551 20.2501 14.6409 20.2501 13.9257 20.1583C13.1898 20.0635 12.5939 19.8643 12.1236 19.4155C11.654 18.9661 11.4455 18.3967 11.3463 17.6935C11.2502 17.0095 11.2502 16.1365 11.2502 15.0337V14.9665C11.2502 14.5693 11.2502 14.2021 11.2546 13.8625C11.2479 13.8167 11.2485 13.7702 11.2565 13.7245C11.2665 13.1803 11.2898 12.7105 11.3463 12.3067C11.4455 11.6035 11.654 11.0341 12.1236 10.5847C12.5939 10.1359 13.1898 9.93672 13.9257 9.84192C14.6415 9.75012 15.5551 9.75012 16.7092 9.75012ZM12.1933 14.2501C12.1921 14.4829 12.1921 14.7325 12.1921 15.0001C12.1921 16.1443 12.1933 16.9567 12.28 17.5741C12.3647 18.1771 12.5242 18.5251 12.7898 18.7789C13.0554 19.0327 13.4196 19.1851 14.0513 19.2661C14.6967 19.3489 15.5469 19.3501 16.7443 19.3501H19.2559C20.4533 19.3501 21.3041 19.3489 21.9496 19.2661C22.5806 19.1851 22.9448 19.0327 23.2104 18.7789C23.476 18.5251 23.6355 18.1771 23.7203 17.5735C23.8069 16.9567 23.8082 16.1443 23.8082 15.0001C23.8082 14.7325 23.8082 14.4829 23.8069 14.2501H12.1933ZM23.7918 13.3501H12.2084C12.2209 12.9979 12.2423 12.6937 12.28 12.4261C12.3647 11.8231 12.5242 11.4751 12.7898 11.2213C13.0554 10.9675 13.4196 10.8151 14.0513 10.7341C14.6967 10.6513 15.5469 10.6501 16.7443 10.6501H19.2559C20.4533 10.6501 21.3041 10.6513 21.9496 10.7341C22.5806 10.8151 22.9448 10.9675 23.2104 11.2213C23.476 11.4751 23.6355 11.8231 23.7203 12.4267C23.7579 12.6937 23.7793 12.9979 23.7918 13.3501ZM13.7618 17.4001C13.7618 17.2808 13.8114 17.1663 13.8997 17.0819C13.9881 16.9975 14.1078 16.9501 14.2327 16.9501H16.7443C16.8692 16.9501 16.989 16.9975 17.0773 17.0819C17.1656 17.1663 17.2152 17.2808 17.2152 17.4001C17.2152 17.5195 17.1656 17.6339 17.0773 17.7183C16.989 17.8027 16.8692 17.8501 16.7443 17.8501H14.2327C14.1078 17.8501 13.9881 17.8027 13.8997 17.7183C13.8114 17.6339 13.7618 17.5195 13.7618 17.4001ZM17.8431 17.4001C17.8431 17.2808 17.8928 17.1663 17.9811 17.0819C18.0694 16.9975 18.1892 16.9501 18.3141 16.9501H19.2559C19.3808 16.9501 19.5006 16.9975 19.5889 17.0819C19.6772 17.1663 19.7268 17.2808 19.7268 17.4001C19.7268 17.5195 19.6772 17.6339 19.5889 17.7183C19.5006 17.8027 19.3808 17.8501 19.2559 17.8501H18.3141C18.1892 17.8501 18.0694 17.8027 17.9811 17.7183C17.8928 17.6339 17.8431 17.5195 17.8431 17.4001Z" fill="white"/>
<path d="M36.0136 19.5V12.42H33.2296V11.1H40.3576V12.42H37.5736V19.5H36.0136ZM45.0204 13.02C45.5324 13.02 45.9884 13.12 46.3884 13.32C46.7964 13.52 47.1164 13.828 47.3484 14.244C47.5804 14.652 47.6964 15.18 47.6964 15.828V19.5H46.1964V16.02C46.1964 15.452 46.0604 15.028 45.7884 14.748C45.5244 14.468 45.1524 14.328 44.6724 14.328C44.3204 14.328 44.0084 14.4 43.7364 14.544C43.4644 14.688 43.2524 14.904 43.1004 15.192C42.9564 15.472 42.8844 15.828 42.8844 16.26V19.5H41.3844V10.596H42.8844V14.82L42.5604 14.292C42.7844 13.884 43.1084 13.572 43.5324 13.356C43.9644 13.132 44.4604 13.02 45.0204 13.02ZM52.623 19.584C51.911 19.584 51.287 19.444 50.751 19.164C50.223 18.876 49.811 18.484 49.515 17.988C49.227 17.492 49.083 16.928 49.083 16.296C49.083 15.656 49.223 15.092 49.503 14.604C49.791 14.108 50.183 13.72 50.679 13.44C51.183 13.16 51.755 13.02 52.395 13.02C53.019 13.02 53.575 13.156 54.063 13.428C54.551 13.7 54.935 14.084 55.215 14.58C55.495 15.076 55.635 15.66 55.635 16.332C55.635 16.396 55.631 16.468 55.623 16.548C55.623 16.628 55.619 16.704 55.611 16.776H50.271V15.78H54.819L54.231 16.092C54.239 15.724 54.163 15.4 54.003 15.12C53.843 14.84 53.623 14.62 53.343 14.46C53.071 14.3 52.755 14.22 52.395 14.22C52.027 14.22 51.703 14.3 51.423 14.46C51.151 14.62 50.935 14.844 50.775 15.132C50.623 15.412 50.547 15.744 50.547 16.128V16.368C50.547 16.752 50.635 17.092 50.811 17.388C50.987 17.684 51.235 17.912 51.555 18.072C51.875 18.232 52.243 18.312 52.659 18.312C53.019 18.312 53.343 18.256 53.631 18.144C53.919 18.032 54.175 17.856 54.399 17.616L55.203 18.54C54.915 18.876 54.551 19.136 54.111 19.32C53.679 19.496 53.183 19.584 52.623 19.584ZM50.067 12.216L51.675 10.572H53.043L54.651 12.216H53.415L51.783 10.836H52.935L51.303 12.216H50.067ZM65.1638 13.02C65.6758 13.02 66.1278 13.12 66.5198 13.32C66.9198 13.52 67.2318 13.828 67.4558 14.244C67.6798 14.652 67.7918 15.18 67.7918 15.828V19.5H66.2918V16.02C66.2918 15.452 66.1678 15.028 65.9198 14.748C65.6718 14.468 65.3158 14.328 64.8518 14.328C64.5238 14.328 64.2318 14.4 63.9758 14.544C63.7278 14.688 63.5318 14.9 63.3878 15.18C63.2518 15.46 63.1838 15.816 63.1838 16.248V19.5H61.6838V16.02C61.6838 15.452 61.5598 15.028 61.3118 14.748C61.0638 14.468 60.7078 14.328 60.2438 14.328C59.9158 14.328 59.6238 14.4 59.3678 14.544C59.1198 14.688 58.9238 14.9 58.7798 15.18C58.6438 15.46 58.5758 15.816 58.5758 16.248V19.5H57.0758V13.092H58.5038V14.796L58.2518 14.292C58.4678 13.876 58.7798 13.56 59.1878 13.344C59.6038 13.128 60.0758 13.02 60.6038 13.02C61.2038 13.02 61.7238 13.168 62.1638 13.464C62.6118 13.76 62.9078 14.208 63.0518 14.808L62.4638 14.604C62.6718 14.124 63.0158 13.74 63.4958 13.452C63.9758 13.164 64.5318 13.02 65.1638 13.02ZM75.437 19.584C74.733 19.584 74.189 19.404 73.805 19.044C73.421 18.676 73.229 18.136 73.229 17.424V11.676H74.729V17.388C74.729 17.692 74.805 17.928 74.957 18.096C75.117 18.264 75.337 18.348 75.617 18.348C75.953 18.348 76.233 18.26 76.457 18.084L76.877 19.152C76.701 19.296 76.485 19.404 76.229 19.476C75.973 19.548 75.709 19.584 75.437 19.584ZM72.173 14.34V13.14H76.445V14.34H72.173ZM81.747 13.02C82.259 13.02 82.715 13.12 83.115 13.32C83.523 13.52 83.843 13.828 84.075 14.244C84.307 14.652 84.423 15.18 84.423 15.828V19.5H82.923V16.02C82.923 15.452 82.787 15.028 82.515 14.748C82.251 14.468 81.879 14.328 81.399 14.328C81.047 14.328 80.735 14.4 80.463 14.544C80.191 14.688 79.979 14.904 79.827 15.192C79.683 15.472 79.611 15.828 79.611 16.26V19.5H78.111V10.596H79.611V14.82L79.287 14.292C79.511 13.884 79.835 13.572 80.259 13.356C80.691 13.132 81.187 13.02 81.747 13.02ZM89.3495 19.584C88.6375 19.584 88.0135 19.444 87.4775 19.164C86.9495 18.876 86.5375 18.484 86.2415 17.988C85.9535 17.492 85.8095 16.928 85.8095 16.296C85.8095 15.656 85.9495 15.092 86.2295 14.604C86.5175 14.108 86.9095 13.72 87.4055 13.44C87.9095 13.16 88.4815 13.02 89.1215 13.02C89.7455 13.02 90.3015 13.156 90.7895 13.428C91.2775 13.7 91.6615 14.084 91.9415 14.58C92.2215 15.076 92.3615 15.66 92.3615 16.332C92.3615 16.396 92.3575 16.468 92.3495 16.548C92.3495 16.628 92.3455 16.704 92.3375 16.776H86.9975V15.78H91.5455L90.9575 16.092C90.9655 15.724 90.8895 15.4 90.7295 15.12C90.5695 14.84 90.3495 14.62 90.0695 14.46C89.7975 14.3 89.4815 14.22 89.1215 14.22C88.7535 14.22 88.4295 14.3 88.1495 14.46C87.8775 14.62 87.6615 14.844 87.5015 15.132C87.3495 15.412 87.2735 15.744 87.2735 16.128V16.368C87.2735 16.752 87.3615 17.092 87.5375 17.388C87.7135 17.684 87.9615 17.912 88.2815 18.072C88.6015 18.232 88.9695 18.312 89.3855 18.312C89.7455 18.312 90.0695 18.256 90.3575 18.144C90.6455 18.032 90.9015 17.856 91.1255 17.616L91.9295 18.54C91.6415 18.876 91.2775 19.136 90.8375 19.32C90.4055 19.496 89.9095 19.584 89.3495 19.584ZM89.3855 12.336L88.8935 11.784C89.1255 11.672 89.2895 11.556 89.3855 11.436C89.4895 11.308 89.5415 11.168 89.5415 11.016C89.5415 10.856 89.4855 10.728 89.3735 10.632C89.2615 10.536 89.1175 10.488 88.9415 10.488C88.6935 10.488 88.4535 10.564 88.2215 10.716L87.8975 10.056C88.0655 9.936 88.2535 9.844 88.4615 9.78C88.6695 9.716 88.8815 9.684 89.0975 9.684C89.4895 9.684 89.8055 9.796 90.0455 10.02C90.2935 10.236 90.4175 10.524 90.4175 10.884C90.4175 11.212 90.3335 11.496 90.1655 11.736C89.9975 11.976 89.7375 12.176 89.3855 12.336Z" fill="white"/>
</g>
<defs>
<filter id="filter0_b_4614_39657" x="-60" y="-60" width="222" height="150" filterUnits="userSpaceOnUse" color-interpolation-filters="sRGB">
<feFlood flood-opacity="0" result="BackgroundImageFix"/>
<feGaussianBlur in="BackgroundImageFix" stdDeviation="30"/>
<feComposite in2="SourceAlpha" operator="in" result="effect1_backgroundBlur_4614_39657"/>
<feBlend mode="normal" in="SourceGraphic" in2="effect1_backgroundBlur_4614_39657" result="shape"/>
</filter>
<linearGradient id="paint0_linear_4614_39657" x1="51" y1="0" x2="51" y2="30" gradientUnits="userSpaceOnUse">
<stop stop-color="white" stop-opacity="0.8"/>
<stop offset="1" stop-color="white" stop-opacity="0.2"/>
</linearGradient>
</defs>
</svg>
