<svg width="24" height="24" viewBox="0 0 24 24" fill="white" xmlns="http://www.w3.org/2000/svg">
<path d="M19.2875 20.25C17.3778 20.25 15.491 19.8335 13.6271 19.0006C11.7632 18.1676 10.0674 16.9876 8.53958 15.4604C7.01181 13.9326 5.83175 12.2368 4.99942 10.3729C4.16708 8.50903 3.75061 6.62222 3.75 4.7125C3.75 4.4375 3.84167 4.20833 4.025 4.025C4.20833 3.84167 4.4375 3.75 4.7125 3.75H8.425C8.63889 3.75 8.82986 3.82272 8.99792 3.96817C9.16597 4.11361 9.26528 4.28533 9.29583 4.48333L9.89167 7.69167C9.92222 7.93611 9.91458 8.14236 9.86875 8.31042C9.82292 8.47847 9.73889 8.62361 9.61667 8.74583L7.39375 10.9917C7.69931 11.5569 8.062 12.103 8.48183 12.6298C8.90167 13.1565 9.36397 13.6647 9.86875 14.1542C10.3424 14.6278 10.8389 15.0672 11.3583 15.4723C11.8778 15.8775 12.4278 16.2478 13.0083 16.5833L15.1625 14.4292C15.3 14.2917 15.4797 14.1884 15.7015 14.1193C15.9233 14.0503 16.1409 14.0313 16.3542 14.0625L19.5167 14.7042C19.7306 14.7653 19.9062 14.8762 20.0438 15.0369C20.1812 15.1976 20.25 15.377 20.25 15.575V19.2875C20.25 19.5625 20.1583 19.7917 19.975 19.975C19.7917 20.1583 19.5625 20.25 19.2875 20.25ZM6.52292 9.25L8.03542 7.7375L7.64583 5.58333H5.60625C5.68264 6.20972 5.78958 6.82847 5.92708 7.43958C6.06458 8.05069 6.26319 8.65417 6.52292 9.25ZM14.7271 17.4542C15.3229 17.7139 15.9304 17.9201 16.5494 18.0729C17.1685 18.2257 17.7909 18.325 18.4167 18.3708V16.3542L16.2625 15.9187L14.7271 17.4542Z" />
</svg>
