<svg width="24" height="24" viewBox="0 0 24 24" fill="none" xmlns="http://www.w3.org/2000/svg">
<path fill-rule="evenodd" clip-rule="evenodd" d="M12 19C15.866 19 19 15.866 19 12C19 8.13401 15.866 5 12 5C8.13401 5 5 8.13401 5 12C5 15.866 8.13401 19 12 19ZM12 20C16.4183 20 20 16.4183 20 12C20 7.58172 16.4183 4 12 4C7.58172 4 4 7.58172 4 12C4 16.4183 7.58172 20 12 20Z" fill="#F2994A"/>
<path d="M10.6985 8.02972C10.5813 8.20514 10.5188 8.41136 10.5188 8.62233C10.5188 8.90523 10.6312 9.17654 10.8312 9.37658C11.0312 9.57662 11.3025 9.689 11.5854 9.689C11.7964 9.689 12.0026 9.62644 12.178 9.50923C12.3535 9.39202 12.4902 9.22543 12.5709 9.03053C12.6516 8.83562 12.6728 8.62115 12.6316 8.41424C12.5905 8.20732 12.4889 8.01726 12.3397 7.86808C12.1905 7.71891 12.0004 7.61732 11.7935 7.57616C11.5866 7.535 11.3722 7.55613 11.1772 7.63686C10.9823 7.71759 10.8157 7.85431 10.6985 8.02972Z" fill="#F2994A"/>
<path d="M12.6521 11.8223V14.001C12.8303 14.0637 12.9806 14.1874 13.0763 14.3503C13.1721 14.5132 13.2071 14.7047 13.1751 14.8909C13.1432 15.0771 13.0464 15.246 12.9018 15.3677C12.7573 15.4894 12.5744 15.5559 12.3854 15.5557C12.0318 15.5557 11.6927 15.4152 11.4426 15.1651C11.1926 14.9151 11.0521 14.576 11.0521 14.2223V12.0437C10.8739 11.981 10.7236 11.8572 10.6279 11.6943C10.5321 11.5315 10.4972 11.34 10.5291 11.1538C10.561 10.9675 10.6578 10.7986 10.8024 10.677C10.9469 10.5553 11.1298 10.4887 11.3188 10.489C11.6724 10.489 12.0115 10.6295 12.2616 10.8795C12.5116 11.1296 12.6521 11.4687 12.6521 11.8223Z" fill="#F2994A"/>
</svg>
