<svg width="18" height="18" viewBox="0 0 18 18" fill="none" xmlns="http://www.w3.org/2000/svg">
<path fill-rule="evenodd" clip-rule="evenodd" d="M9 15.75C12.7279 15.75 15.75 12.7279 15.75 9C15.75 5.27208 12.7279 2.25 9 2.25C5.27208 2.25 2.25 5.27208 2.25 9C2.25 12.7279 5.27208 15.75 9 15.75ZM12.9692 6.09799C13.1733 6.30206 13.2091 6.59653 13.0498 6.75576L8.04201 11.7636C8.01425 11.8123 7.97882 11.8591 7.93596 11.902C7.88813 11.9498 7.83532 11.9884 7.78044 12.0174C7.72644 12.0544 7.66091 12.0753 7.5894 12.0785C7.47851 12.0918 7.37251 12.0657 7.29417 11.9975C7.24926 11.9705 7.20675 11.9374 7.16831 11.8989C7.13067 11.8613 7.09811 11.8197 7.07143 11.7758L4.95089 9.65528C4.87423 9.57863 4.83961 9.46621 4.85464 9.34277C4.86966 9.21933 4.93311 9.09497 5.03103 8.99706C5.12894 8.89915 5.25329 8.8357 5.37673 8.82067C5.50017 8.80564 5.61259 8.84027 5.68925 8.91692L7.5506 10.7783L12.3115 6.0174C12.471 5.85788 12.7655 5.89429 12.9692 6.09799Z" fill="#27AE60"/>
</svg>
