<svg width="18" height="18" viewBox="0 0 18 18" fill="none" xmlns="http://www.w3.org/2000/svg">
<path fill-rule="evenodd" clip-rule="evenodd" d="M8.5679 3.92444C8.80654 3.69185 9.19346 3.69185 9.4321 3.92444L13.321 7.71474C13.5597 7.94734 13.5597 8.32444 13.321 8.55703C13.0824 8.78963 12.6955 8.78963 12.4568 8.55703L9.61108 5.78347L9.61108 10.2C9.61108 10.3657 9.47677 10.5 9.31108 10.5L8.68892 10.5C8.52323 10.5 8.38892 10.3657 8.38892 10.2L8.38892 5.78347L5.54319 8.55703C5.30454 8.78963 4.91763 8.78963 4.67898 8.55703C4.44034 8.32444 4.44034 7.94734 4.67898 7.71474L8.5679 3.92444Z" fill="white"/>
<rect x="8.38867" y="11.2214" width="1.22217" height="1.61547" rx="0.3" fill="white"/>
<rect x="8.38867" y="13.4429" width="1.22217" height="0.807736" rx="0.3" fill="white"/>
<path fill-rule="evenodd" clip-rule="evenodd" d="M9 15.6964C12.6983 15.6964 15.6964 12.6983 15.6964 9C15.6964 5.30166 12.6983 2.30357 9 2.30357C5.30166 2.30357 2.30357 5.30166 2.30357 9C2.30357 12.6983 5.30166 15.6964 9 15.6964ZM9 16.5C13.1421 16.5 16.5 13.1421 16.5 9C16.5 4.85786 13.1421 1.5 9 1.5C4.85786 1.5 1.5 4.85786 1.5 9C1.5 13.1421 4.85786 16.5 9 16.5Z" fill="white"/>
</svg>
