<svg width="36" height="30" viewBox="0 0 36 30" fill="none" xmlns="http://www.w3.org/2000/svg">
<g filter="url(#filter0_b_4561_16268)">
<rect width="36" height="30" rx="8" fill="url(#paint0_linear_4561_16268)" fill-opacity="0.8"/>
<rect x="0.25" y="0.25" width="35.5" height="29.5" rx="7.75" stroke="white" stroke-width="0.5"/>
<path d="M19.4245 8.75391C19.6867 8.75397 19.9422 8.83653 20.1549 8.98989C20.3675 9.14324 20.5265 9.35962 20.6094 9.60837L20.9485 10.6277H22.9973C23.1629 10.6277 23.3218 10.6935 23.4389 10.8107C23.5561 10.9278 23.6219 11.0867 23.6219 11.2523C23.6219 11.418 23.5561 11.5769 23.4389 11.694C23.3218 11.8111 23.1629 11.877 22.9973 11.877L22.9954 11.9213L22.4539 19.5059C22.4201 19.9785 22.2085 20.4208 21.8617 20.7436C21.515 21.0665 21.0588 21.246 20.585 21.2461H15.4158C14.942 21.246 14.4858 21.0665 14.139 20.7436C13.7923 20.4208 13.5807 19.9785 13.5469 19.5059L13.0054 11.9207C13.0043 11.9061 13.0036 11.8915 13.0035 11.877C12.8379 11.877 12.679 11.8111 12.5619 11.694C12.4447 11.5769 12.3789 11.418 12.3789 11.2523C12.3789 11.0867 12.4447 10.9278 12.5619 10.8107C12.679 10.6935 12.8379 10.6277 13.0035 10.6277H15.0522L15.3914 9.60837C15.4743 9.35952 15.6334 9.14307 15.8462 8.98971C16.059 8.83634 16.3146 8.75384 16.5769 8.75391H19.4245ZM21.7462 11.877H14.2546L14.793 19.4166C14.8042 19.5741 14.8747 19.7216 14.9902 19.8292C15.1058 19.9369 15.2578 19.9968 15.4158 19.9969H20.585C20.743 19.9968 20.895 19.9369 21.0105 19.8292C21.1261 19.7216 21.1965 19.5741 21.2078 19.4166L21.7462 11.877ZM16.7512 13.7508C16.9042 13.7508 17.0518 13.807 17.1661 13.9086C17.2805 14.0103 17.3535 14.1504 17.3714 14.3023L17.3758 14.3754V17.4984C17.3756 17.6576 17.3146 17.8108 17.2054 17.9265C17.0961 18.0423 16.9467 18.1119 16.7878 18.1213C16.6289 18.1306 16.4724 18.0789 16.3503 17.9767C16.2282 17.8745 16.1497 17.7296 16.1309 17.5715L16.1266 17.4984V14.3754C16.1266 14.2097 16.1924 14.0509 16.3095 13.9337C16.4266 13.8166 16.5855 13.7508 16.7512 13.7508ZM19.2496 13.7508C19.4153 13.7508 19.5741 13.8166 19.6913 13.9337C19.8084 14.0509 19.8742 14.2097 19.8742 14.3754V17.4984C19.8742 17.6641 19.8084 17.823 19.6913 17.9401C19.5741 18.0572 19.4153 18.123 19.2496 18.123C19.084 18.123 18.9251 18.0572 18.8079 17.9401C18.6908 17.823 18.625 17.6641 18.625 17.4984V14.3754C18.625 14.2097 18.6908 14.0509 18.8079 13.9337C18.9251 13.8166 19.084 13.7508 19.2496 13.7508ZM19.4245 10.0031H16.5763L16.3683 10.6277H19.6325L19.4245 10.0031Z" fill="#EB5757"/>
</g>
<defs>
<filter id="filter0_b_4561_16268" x="-60" y="-60" width="156" height="150" filterUnits="userSpaceOnUse" color-interpolation-filters="sRGB">
<feFlood flood-opacity="0" result="BackgroundImageFix"/>
<feGaussianBlur in="BackgroundImageFix" stdDeviation="30"/>
<feComposite in2="SourceAlpha" operator="in" result="effect1_backgroundBlur_4561_16268"/>
<feBlend mode="normal" in="SourceGraphic" in2="effect1_backgroundBlur_4561_16268" result="shape"/>
</filter>
<linearGradient id="paint0_linear_4561_16268" x1="18" y1="0" x2="18" y2="30" gradientUnits="userSpaceOnUse">
<stop stop-color="#111111" stop-opacity="0.8"/>
<stop offset="1" stop-color="#111111" stop-opacity="0.6"/>
</linearGradient>
</defs>
</svg>
