<svg width="16" height="16" viewBox="0 0 16 16" fill="none" xmlns="http://www.w3.org/2000/svg">
<path fill-rule="evenodd" clip-rule="evenodd" d="M6.93255 9.59963C5.45979 9.59963 4.26589 10.7935 4.26589 12.2663V12.7996C4.26589 13.0942 4.0271 13.333 3.73255 13.333C3.438 13.333 3.19922 13.0942 3.19922 12.7996V12.2663C3.19922 10.2044 4.87069 8.53296 6.93255 8.53296H9.06589C11.1277 8.53296 12.7992 10.2044 12.7992 12.2663V12.7996C12.7992 13.0942 12.5604 13.333 12.2659 13.333C11.9713 13.333 11.7326 13.0942 11.7326 12.7996V12.2663C11.7326 10.7935 10.5386 9.59963 9.06589 9.59963H6.93255Z" fill="white"/>
<path fill-rule="evenodd" clip-rule="evenodd" d="M7.9987 3.73317C7.11504 3.73317 6.3987 4.44951 6.3987 5.33317C6.3987 6.21683 7.11504 6.93317 7.9987 6.93317C8.88234 6.93317 9.5987 6.21682 9.5987 5.33317C9.5987 4.44952 8.88234 3.73317 7.9987 3.73317ZM5.33203 5.33317C5.33203 3.86041 6.52594 2.6665 7.9987 2.6665C9.47143 2.6665 10.6654 3.86041 10.6654 5.33317C10.6654 6.80593 9.47143 7.99984 7.9987 7.99984C6.52594 7.99984 5.33203 6.80593 5.33203 5.33317Z" fill="white"/>
</svg>
