<svg width="21" height="21" viewBox="0 0 21 21" fill="none" xmlns="http://www.w3.org/2000/svg">
<path fill-rule="evenodd" clip-rule="evenodd" d="M9.06573 4.45239H11.9345C13.2168 4.45239 14.2326 4.45239 15.0273 4.55439C15.8449 4.65973 16.507 4.88106 17.0295 5.37973C17.5514 5.87906 17.783 6.51173 17.8933 7.29306C17.956 7.74173 17.9819 8.26373 17.9923 8.86839C18.0014 8.91907 18.0024 8.97078 17.9951 9.02173C18 9.39906 18 9.80706 18 10.2484V10.3231C18 11.5484 18 12.5191 17.8933 13.2784C17.783 14.0597 17.5514 14.6924 17.0295 15.1917C16.507 15.6904 15.8449 15.9117 15.0273 16.0171C14.2319 16.1191 13.2168 16.1191 11.9345 16.1191H9.06573C7.78342 16.1191 6.76763 16.1191 5.97299 16.0171C5.15533 15.9117 4.49324 15.6904 3.97069 15.1917C3.44884 14.6924 3.21722 14.0597 3.10699 13.2784C3.00025 12.5184 3.00025 11.5484 3.00025 10.3231V10.2484C3.00025 9.80706 3.00025 9.39906 3.00513 9.02173C2.99765 8.97081 2.99835 8.9191 3.00722 8.86839C3.01838 8.26373 3.0442 7.74173 3.10699 7.29306C3.21722 6.51173 3.44884 5.87906 3.97069 5.37973C4.49324 4.88106 5.15533 4.65973 5.97299 4.55439C6.76832 4.45239 7.78342 4.45239 9.06573 4.45239ZM4.04814 9.45239C4.04674 9.71106 4.04674 9.98839 4.04674 10.2857C4.04674 11.5571 4.04814 12.4597 4.14441 13.1457C4.2386 13.8157 4.4158 14.2024 4.71091 14.4844C5.00603 14.7664 5.41067 14.9357 6.11252 15.0257C6.82972 15.1177 7.77435 15.1191 9.1048 15.1191H11.8954C13.2259 15.1191 14.1712 15.1177 14.8884 15.0257C15.5896 14.9357 15.9942 14.7664 16.2893 14.4844C16.5844 14.2024 16.7616 13.8157 16.8558 13.1451C16.9521 12.4597 16.9535 11.5571 16.9535 10.2857C16.9535 9.98839 16.9535 9.71106 16.9521 9.45239H4.04814ZM16.9354 8.45239H4.06488C4.07883 8.06106 4.10255 7.72306 4.14441 7.42573C4.2386 6.75573 4.4158 6.36906 4.71091 6.08706C5.00603 5.80506 5.41067 5.63573 6.11252 5.54573C6.82972 5.45373 7.77435 5.45239 9.1048 5.45239H11.8954C13.2259 5.45239 14.1712 5.45373 14.8884 5.54573C15.5896 5.63573 15.9942 5.80506 16.2893 6.08706C16.5844 6.36906 16.7616 6.75573 16.8558 7.42639C16.8977 7.72306 16.9214 8.06106 16.9354 8.45239ZM5.7909 12.9524C5.7909 12.8198 5.84602 12.6926 5.94415 12.5988C6.04228 12.5051 6.17537 12.4524 6.31414 12.4524H9.1048C9.24357 12.4524 9.37666 12.5051 9.47479 12.5988C9.57292 12.6926 9.62804 12.8198 9.62804 12.9524C9.62804 13.085 9.57292 13.2122 9.47479 13.3059C9.37666 13.3997 9.24357 13.4524 9.1048 13.4524H6.31414C6.17537 13.4524 6.04228 13.3997 5.94415 13.3059C5.84602 13.2122 5.7909 13.085 5.7909 12.9524ZM10.3257 12.9524C10.3257 12.8198 10.3808 12.6926 10.479 12.5988C10.5771 12.5051 10.7102 12.4524 10.849 12.4524H11.8954C12.0342 12.4524 12.1673 12.5051 12.2654 12.5988C12.3636 12.6926 12.4187 12.8198 12.4187 12.9524C12.4187 13.085 12.3636 13.2122 12.2654 13.3059C12.1673 13.3997 12.0342 13.4524 11.8954 13.4524H10.849C10.7102 13.4524 10.5771 13.3997 10.479 13.3059C10.3808 13.2122 10.3257 13.085 10.3257 12.9524Z" fill="white"/>
</svg>
