<svg width="24" height="24" viewBox="0 0 18 18" fill="none" xmlns="http://www.w3.org/2000/svg">
<path d="M3.9375 8.4375H15.1875C15.3367 8.4375 15.4798 8.49676 15.5852 8.60225C15.6907 8.70774 15.75 8.85082 15.75 9C15.75 9.14918 15.6907 9.29226 15.5852 9.39775C15.4798 9.50324 15.3367 9.5625 15.1875 9.5625H3.9375C3.78832 9.5625 3.64524 9.50324 3.53975 9.39775C3.43426 9.29226 3.375 9.14918 3.375 9C3.375 8.85082 3.43426 8.70774 3.53975 8.60225C3.64524 8.49676 3.78832 8.4375 3.9375 8.4375Z" fill="white"/>
<path d="M4.16943 8.99998L8.8348 13.6642C8.94042 13.7698 8.99976 13.9131 8.99976 14.0625C8.99976 14.2119 8.94042 14.3551 8.8348 14.4607C8.72918 14.5663 8.58592 14.6257 8.43655 14.6257C8.28718 14.6257 8.14392 14.5663 8.0383 14.4607L2.9758 9.39823C2.92342 9.34598 2.88186 9.2839 2.8535 9.21557C2.82514 9.14723 2.81055 9.07397 2.81055 8.99998C2.81055 8.92599 2.82514 8.85273 2.8535 8.78439C2.88186 8.71605 2.92342 8.65398 2.9758 8.60173L8.0383 3.53923C8.14392 3.43361 8.28718 3.37427 8.43655 3.37427C8.58592 3.37427 8.72918 3.43361 8.8348 3.53923C8.94042 3.64485 8.99976 3.78811 8.99976 3.93748C8.99976 4.08685 8.94042 4.23011 8.8348 4.33573L4.16943 8.99998Z" fill="white"/>
</svg>
