<svg width="69" height="68" viewBox="0 0 69 68" fill="none" xmlns="http://www.w3.org/2000/svg">
<g opacity="0.5">
<path d="M57.6795 14.1335H11.3242V26.6808H13.642V49.6842C13.642 50.7934 14.1304 51.8573 14.9997 52.6416C15.869 53.426 17.0481 53.8666 18.2775 53.8666H50.7262C51.9556 53.8666 53.1347 53.426 54.004 52.6416C54.8733 51.8573 55.3617 50.7934 55.3617 49.6842V26.6808H57.6795V14.1335ZM15.9597 18.316H53.0439V22.4984H15.9597V18.316ZM50.7262 49.6842H18.2775V26.6808H50.7262V49.6842ZM27.5486 30.8633H41.4551C41.4551 31.9725 40.9668 33.0363 40.0974 33.8207C39.2281 34.605 38.049 35.0457 36.8196 35.0457H32.1841C30.9547 35.0457 29.7756 34.605 28.9063 33.8207C28.0369 33.0363 27.5486 31.9725 27.5486 30.8633Z" fill="white"/>
</g>
</svg>
