<svg width="16" height="20" viewBox="0 0 16 20" fill="none" xmlns="http://www.w3.org/2000/svg">
<path d="M11.5132 0.160841L10.8632 0.834976C10.6632 1.0424 10.6532 1.38465 10.8432 1.61282C15.0435 6.3525 15.0435 13.6435 10.8432 18.3832C10.6432 18.601 10.6532 18.9432 10.8632 19.161L11.5132 19.8352C11.7333 20.0633 12.0833 20.053 12.2933 19.8144C17.2337 14.2762 17.2337 5.71985 12.2933 0.181588C12.0833 -0.0569513 11.7333 -0.0569557 11.5132 0.160841Z" fill="#6D6E71"/>
<path d="M8.69326 3.09599L8.04319 3.77013C7.84318 3.97755 7.83319 4.3198 8.0232 4.5376C10.6734 7.65935 10.6734 12.3472 8.0232 15.4689C7.83319 15.6867 7.84318 16.029 8.04319 16.2364L8.69326 16.9105C8.91328 17.1387 9.2733 17.1283 9.47332 16.8898C12.8536 12.9695 12.8536 7.03708 9.47332 3.11673C9.2633 2.87819 8.91328 2.86782 8.69326 3.09599Z" fill="#6D6E71"/>
<path d="M5.8646 6.02048L5.21455 6.69462C5.02453 6.89167 5.00452 7.21318 5.17454 7.43098C6.31463 8.92444 6.31463 11.0402 5.17454 12.544C5.00452 12.7618 5.02453 13.0833 5.21455 13.2804L5.8646 13.9545C6.08462 14.1827 6.45464 14.1723 6.65466 13.913C8.46481 11.6313 8.46481 8.32291 6.65466 6.04122C6.45464 5.79231 6.08462 5.77158 5.8646 5.99975V6.02048Z" fill="#6D6E71"/>
<path d="M11.5132 0.160841L10.8632 0.834976C10.6632 1.0424 10.6532 1.38465 10.8432 1.61282C15.0435 6.3525 15.0435 13.6435 10.8432 18.3832C10.6432 18.601 10.6532 18.9432 10.8632 19.161L11.5132 19.8352C11.7333 20.0633 12.0833 20.053 12.2933 19.8144C17.2337 14.2762 17.2337 5.71985 12.2933 0.181588C12.0833 -0.0569513 11.7333 -0.0569557 11.5132 0.160841Z" fill="url(#paint0_linear_4561_16389)"/>
<path d="M8.69326 3.09599L8.04319 3.77013C7.84318 3.97755 7.83319 4.3198 8.0232 4.5376C10.6734 7.65935 10.6734 12.3472 8.0232 15.4689C7.83319 15.6867 7.84318 16.029 8.04319 16.2364L8.69326 16.9105C8.91328 17.1387 9.2733 17.1283 9.47332 16.8898C12.8536 12.9695 12.8536 7.03708 9.47332 3.11673C9.2633 2.87819 8.91328 2.86782 8.69326 3.09599Z" fill="url(#paint1_linear_4561_16389)"/>
<path d="M5.8646 6.02048L5.21455 6.69462C5.02453 6.89167 5.00452 7.21318 5.17454 7.43098C6.31463 8.92444 6.31463 11.0402 5.17454 12.544C5.00452 12.7618 5.02453 13.0833 5.21455 13.2804L5.8646 13.9545C6.08462 14.1827 6.45464 14.1723 6.65466 13.913C8.46481 11.6313 8.46481 8.32291 6.65466 6.04122C6.45464 5.79231 6.08462 5.77158 5.8646 5.99975V6.02048Z" fill="url(#paint2_linear_4561_16389)"/>
<path d="M2.08622 9.50645C2.08622 9.46529 2.05287 9.43236 2.01316 9.43442C1.85395 9.44306 1.6999 9.47969 1.55379 9.54349C1.50139 9.56654 1.45096 9.59247 1.40213 9.6217C1.38069 9.63446 1.36719 9.65833 1.36719 9.68426V10.5268C1.36719 10.5528 1.38069 10.5766 1.40213 10.5894C1.45096 10.6186 1.50139 10.645 1.55379 10.6676C1.6999 10.7318 1.85395 10.7684 2.01316 10.7767C2.05287 10.7787 2.08622 10.7458 2.08622 10.7046V9.50562V9.50645Z" fill="url(#paint3_linear_4561_16389)"/>
<path d="M2.08429 9.50645C2.08429 9.46529 2.05094 9.43236 2.01124 9.43442C1.85203 9.44306 1.81709 9.47969 1.67098 9.54349C1.61857 9.56654 1.56815 9.59247 1.51931 9.6217C1.49787 9.63446 1.48438 9.65833 1.48438 9.68426V10.5268C1.48438 10.5528 1.49787 10.5766 1.51931 10.5894C1.56815 10.6186 1.61857 10.645 1.67098 10.6676C1.81709 10.7318 1.85203 10.7684 2.01124 10.7767C2.05094 10.7787 2.08429 10.7458 2.08429 10.7046V9.50562V9.50645Z" fill="url(#paint4_linear_4561_16389)"/>
<mask id="mask0_4561_16389" style="mask-type:luminance" maskUnits="userSpaceOnUse" x="2" y="7" width="3" height="6">
<path d="M4.17275 10.1058C4.17275 11.2765 3.27664 12.2306 2.1574 12.2697C2.1181 12.2709 2.08594 12.2384 2.08594 12.1976V11.5959C2.08594 11.5576 2.11492 11.5255 2.15224 11.5238C2.31383 11.516 2.47027 11.4794 2.61836 11.4143C2.78114 11.3427 2.92765 11.2406 3.05351 11.1098C3.17937 10.9793 3.27823 10.8274 3.34692 10.6582C3.41799 10.4837 3.45412 10.2981 3.45412 10.1058C3.45412 9.91362 3.41799 9.72799 3.34692 9.55347C3.27823 9.38471 3.17937 9.23283 3.05351 9.10235C2.92765 8.97187 2.78114 8.86938 2.61836 8.79776C2.47027 8.73273 2.31383 8.69609 2.15224 8.68827C2.11532 8.68663 2.08594 8.65452 2.08594 8.61624V8.01447C2.08594 7.97372 2.11849 7.9408 2.1574 7.94244C3.27704 7.98154 4.17275 8.93523 4.17275 10.1063V10.1058Z" fill="white"/>
</mask>
<g mask="url(#mask0_4561_16389)">
<path d="M3.45724 10.0655C3.45724 10.0597 3.45724 10.0535 3.45685 10.0478C3.45685 10.0478 3.45685 10.0469 3.45685 10.0465C3.45685 10.0408 3.45645 10.035 3.45605 10.0292C3.45605 10.0292 3.45605 10.0292 3.45605 10.0288C3.45605 10.0231 3.45526 10.0177 3.45526 10.012C3.45526 10.012 3.45526 10.0115 3.45526 10.0111C3.45526 10.0054 3.45446 9.99961 3.45407 9.99426C3.45407 9.99426 3.45407 9.99384 3.45407 9.99343C3.45407 9.98932 3.45327 9.98479 3.45288 9.98067C3.45288 9.97944 3.45288 9.97779 3.45288 9.97656C3.45288 9.97656 3.45288 9.97573 3.45288 9.97532C3.45208 9.96709 3.45129 9.95886 3.45049 9.95062C3.45049 9.94733 3.4497 9.94445 3.4493 9.94116C3.4493 9.9391 3.44891 9.93704 3.44851 9.9354C3.44811 9.93169 3.44771 9.92758 3.44732 9.92387C3.44732 9.92222 3.44732 9.92099 3.44692 9.91934C3.44652 9.91523 3.44573 9.9107 3.44533 9.90658C3.44494 9.90288 3.44414 9.89917 3.44374 9.89547C3.44295 9.89012 3.44216 9.88477 3.44136 9.87942C3.44136 9.87901 3.44136 9.87859 3.44136 9.87818C3.44097 9.87489 3.44057 9.87201 3.43977 9.86872C3.43977 9.86789 3.43977 9.86707 3.43977 9.86625C3.43977 9.86501 3.43977 9.86419 3.43938 9.86295C3.43938 9.86172 3.43898 9.86048 3.43898 9.85925C3.43898 9.85925 3.43898 9.85884 3.43898 9.85843C3.43898 9.8576 3.43898 9.85637 3.43858 9.85554C3.43858 9.85513 3.43858 9.85472 3.43858 9.85431C3.43858 9.85349 3.43858 9.85266 3.43858 9.85225C3.43779 9.84814 3.437 9.84443 3.4366 9.84031C3.4358 9.83661 3.43501 9.83249 3.43461 9.82879C3.43422 9.82591 3.43342 9.82303 3.43302 9.82015C3.43302 9.81932 3.43302 9.8185 3.43263 9.81768C3.43263 9.81685 3.43263 9.81644 3.43223 9.81562C3.43223 9.81438 3.43183 9.81356 3.43144 9.81233C3.43064 9.80903 3.43025 9.80574 3.42945 9.80245V9.80121C3.42945 9.80121 3.42905 9.80039 3.42905 9.79998V9.79792C3.42905 9.79792 3.42826 9.79669 3.42826 9.79586C3.42786 9.7938 3.42747 9.79133 3.42667 9.78928C3.42667 9.78804 3.42628 9.78681 3.42588 9.78557C3.42469 9.77981 3.4235 9.77446 3.42191 9.7687C3.42151 9.76664 3.42111 9.76499 3.42072 9.76293L3.41794 9.75182C3.41794 9.75182 3.41794 9.75017 3.41714 9.74935V9.74894C3.41714 9.7477 3.41675 9.74688 3.41635 9.74565C3.41556 9.74194 3.41476 9.73865 3.41357 9.73494C3.41357 9.73494 3.41357 9.73371 3.41317 9.73289C3.41317 9.73289 3.41317 9.73206 3.41317 9.73165C3.41198 9.72712 3.41079 9.7226 3.4096 9.71848C3.40801 9.71313 3.40642 9.70737 3.40484 9.70202C3.40484 9.7016 3.40484 9.70078 3.40444 9.70037C3.40444 9.69996 3.40444 9.69913 3.40404 9.69872C3.40285 9.69378 3.40126 9.68926 3.40007 9.68473C3.39848 9.67979 3.39689 9.67485 3.39531 9.6695C3.39451 9.66744 3.39412 9.66538 3.39332 9.66291C3.39253 9.66044 3.39213 9.6588 3.39134 9.65633C3.39134 9.65509 3.39054 9.65427 3.39015 9.65303C3.38975 9.6518 3.38935 9.65056 3.38895 9.64933C3.38776 9.64521 3.38617 9.6411 3.38498 9.63698C3.3834 9.63287 3.3822 9.62834 3.38062 9.62422C3.38022 9.62258 3.37943 9.62093 3.37903 9.61928C3.37823 9.6164 3.37704 9.61352 3.37585 9.61105C3.37585 9.61023 3.37506 9.60899 3.37466 9.60817C3.37426 9.60652 3.37347 9.60488 3.37307 9.60323C3.37307 9.60241 3.37268 9.60158 3.37228 9.60076C3.37188 9.59911 3.37109 9.59747 3.37029 9.59582C3.3695 9.59376 3.36871 9.59129 3.36791 9.58923C3.36593 9.58388 3.36394 9.57853 3.36196 9.57359C3.36196 9.57318 3.36196 9.57277 3.36156 9.57236C3.35997 9.56824 3.35838 9.56372 3.3564 9.5596C3.3564 9.55878 3.356 9.55836 3.3556 9.55754C3.35401 9.55343 3.35203 9.54931 3.35044 9.54478C3.35044 9.54396 3.34965 9.54314 3.34965 9.54231C3.34965 9.54231 3.34965 9.54149 3.34925 9.54149C3.34727 9.53696 3.34568 9.53243 3.34369 9.52791C3.34369 9.52749 3.3433 9.52708 3.3429 9.52626C3.34091 9.52132 3.33853 9.51638 3.33615 9.51103C3.33496 9.50856 3.33377 9.50609 3.33258 9.50321C3.33138 9.50074 3.33019 9.49827 3.329 9.49539C3.32662 9.49045 3.32424 9.48551 3.32225 9.48057C3.32225 9.48057 3.32225 9.48016 3.32225 9.47975C3.31987 9.47522 3.31788 9.47069 3.3155 9.46575C3.3155 9.46575 3.3155 9.46493 3.31511 9.46452C3.31511 9.46452 3.31511 9.46452 3.31511 9.46411C3.31352 9.4604 3.31153 9.45711 3.30994 9.45341C3.30994 9.45258 3.30955 9.45217 3.30915 9.45176C3.30915 9.45094 3.30836 9.45052 3.30836 9.4497C3.30677 9.44641 3.30518 9.44353 3.30359 9.44023C3.3028 9.43859 3.30161 9.43653 3.30081 9.43447C3.30081 9.43406 3.30042 9.43324 3.30002 9.43283C3.29883 9.43077 3.29764 9.4283 3.29645 9.42624C3.29525 9.42418 3.29406 9.42171 3.29287 9.41965C3.29208 9.41801 3.29089 9.41595 3.29009 9.4143C3.29009 9.4143 3.29009 9.4143 3.29009 9.41389C3.2893 9.41225 3.28811 9.41019 3.28731 9.40854C3.28692 9.40731 3.28612 9.40607 3.28533 9.40484C3.28414 9.40278 3.28334 9.40113 3.28215 9.39907C3.28096 9.3966 3.27937 9.39413 3.27818 9.39166C3.27818 9.39166 3.27739 9.39002 3.27699 9.38919C3.27659 9.38837 3.2762 9.38755 3.2758 9.38673C3.2754 9.3859 3.27501 9.38508 3.27461 9.38426C3.27302 9.38137 3.27143 9.37849 3.26984 9.37561C3.26984 9.3752 3.26945 9.37479 3.26905 9.37438C3.26905 9.37396 3.26826 9.37314 3.26826 9.37273C3.26786 9.37191 3.26706 9.37067 3.26667 9.36985C3.26548 9.36779 3.26389 9.36532 3.2627 9.36326C3.2627 9.36285 3.2619 9.36203 3.2619 9.36162C3.2619 9.36121 3.26151 9.36079 3.26111 9.36038C3.25873 9.35627 3.25634 9.35215 3.25357 9.34803C3.25198 9.34556 3.25079 9.34309 3.2492 9.34104C3.2484 9.3398 3.24761 9.33815 3.24682 9.33692C3.24602 9.33569 3.24523 9.33445 3.24443 9.33322C3.24364 9.33157 3.24245 9.32992 3.24165 9.32869C3.24126 9.32787 3.24086 9.32704 3.24007 9.32622C3.23848 9.32375 3.23729 9.32169 3.2357 9.31922C3.23332 9.31552 3.23093 9.31181 3.22855 9.30811C3.22816 9.30729 3.22736 9.30605 3.22696 9.30523C3.22657 9.3044 3.22617 9.30399 3.22577 9.30317C3.22299 9.29946 3.22061 9.29535 3.21783 9.29164C3.21505 9.28794 3.21267 9.28382 3.20989 9.28012C3.20949 9.2793 3.2091 9.27888 3.2083 9.27806C3.20751 9.27724 3.20711 9.27641 3.20672 9.27559C3.20394 9.27189 3.20155 9.26818 3.19877 9.26448C3.19758 9.26242 3.196 9.26036 3.19441 9.2583C3.19282 9.25583 3.19123 9.25378 3.18964 9.25131C3.18925 9.2509 3.18885 9.25007 3.18845 9.24966C3.18686 9.24719 3.18488 9.24472 3.18329 9.24266C3.1821 9.24102 3.18091 9.23937 3.17972 9.23772C3.17694 9.23361 3.17376 9.2299 3.17098 9.2262C3.17019 9.22537 3.16979 9.22455 3.169 9.22332C3.16582 9.2192 3.16304 9.2155 3.15987 9.21138C3.15828 9.20891 3.15629 9.20685 3.15431 9.20438C3.15351 9.20315 3.15232 9.20191 3.15113 9.20068C3.14994 9.19903 3.14835 9.19739 3.14716 9.19574C3.14597 9.19409 3.14478 9.19286 3.14359 9.19162C3.1424 9.18998 3.1412 9.18874 3.14001 9.1871C3.13922 9.18586 3.13843 9.18504 3.13763 9.18421C3.13604 9.18257 3.13485 9.18051 3.13326 9.17886C3.13207 9.17763 3.13128 9.17639 3.13009 9.17516C3.12969 9.17434 3.1289 9.17392 3.1285 9.1731C3.1281 9.17269 3.12771 9.17187 3.12691 9.17104C3.12374 9.16734 3.12096 9.16405 3.11778 9.16034C3.11421 9.15623 3.11063 9.15211 3.10706 9.14799C3.10349 9.14388 3.09991 9.13976 3.09594 9.13565C3.09237 9.13153 3.0884 9.12741 3.08483 9.12371C3.07728 9.11548 3.07014 9.10766 3.0622 9.09984C3.06021 9.09778 3.05862 9.09572 3.05664 9.09407C3.05465 9.09201 3.05267 9.09037 3.05068 9.08831C3.04671 9.08461 3.04314 9.08049 3.03917 9.07679C3.0352 9.07308 3.03123 9.06897 3.02726 9.06526C3.02329 9.06156 3.01932 9.05785 3.01534 9.05374C3.01137 9.05003 3.0074 9.04633 3.00343 9.04262C3.00026 9.03974 2.99668 9.03645 2.99351 9.03357C2.99271 9.03274 2.99192 9.03233 2.99152 9.03151C2.98755 9.0278 2.98358 9.0241 2.97921 9.02081C2.97524 9.01751 2.97167 9.01422 2.9677 9.01093C2.96691 9.01011 2.96572 9.00928 2.96492 9.00846C2.96254 9.0064 2.96055 9.00475 2.95817 9.0027C2.95777 9.00228 2.95698 9.00187 2.95658 9.00146C2.95579 9.00105 2.95539 9.00064 2.955 8.99981C2.95222 8.99734 2.94944 8.99529 2.94666 8.99282C2.94547 8.99199 2.94428 8.99076 2.94348 8.98994C2.94348 8.98994 2.94308 8.98953 2.94269 8.98911C2.94031 8.98747 2.93832 8.98541 2.93594 8.98376C2.93435 8.98253 2.93276 8.98088 2.93078 8.97965C2.93078 8.97965 2.92998 8.97882 2.92959 8.97882C2.92522 8.97553 2.92125 8.97183 2.91688 8.96853C2.91251 8.96524 2.90854 8.96195 2.90418 8.95865C2.90378 8.95865 2.90338 8.95783 2.90298 8.95783C2.89941 8.95495 2.89584 8.95248 2.89226 8.95001C2.89226 8.95001 2.89147 8.94919 2.89107 8.94919C2.88988 8.94836 2.88909 8.94754 2.8879 8.94672C2.88671 8.9459 2.88591 8.94507 2.88472 8.94425C2.88353 8.94343 2.88194 8.94219 2.88075 8.94137C2.87996 8.94096 2.87956 8.94054 2.87877 8.93972C2.87877 8.93972 2.87797 8.93931 2.87757 8.9389C2.87321 8.9356 2.86884 8.93272 2.86408 8.92943C2.86169 8.92778 2.85971 8.92614 2.85733 8.9249C2.85494 8.92326 2.85296 8.92202 2.85058 8.92037C2.84938 8.91955 2.84819 8.91873 2.8474 8.91791C2.84661 8.91749 2.84621 8.91708 2.84541 8.91667C2.84502 8.91667 2.84462 8.91626 2.84422 8.91585C2.84264 8.91461 2.84065 8.91338 2.83906 8.91214C2.83866 8.91214 2.83827 8.91173 2.83747 8.91132C2.83708 8.91132 2.83628 8.9105 2.83589 8.9105C2.83192 8.90762 2.82755 8.90515 2.82358 8.90226C2.8212 8.90062 2.81921 8.89938 2.81683 8.89774C2.81445 8.89609 2.81246 8.89486 2.81008 8.89321C2.81008 8.89321 2.80968 8.89321 2.80928 8.8928C2.80571 8.89074 2.80214 8.88827 2.79856 8.88621C2.79777 8.8858 2.79698 8.88498 2.79618 8.88457C2.79221 8.8821 2.78864 8.87963 2.78467 8.87757C2.78348 8.87674 2.78229 8.87592 2.78109 8.87551C2.77832 8.87386 2.77593 8.87222 2.77315 8.87098C2.77236 8.87057 2.77157 8.87016 2.77077 8.86975C2.76918 8.86893 2.7676 8.8681 2.7664 8.86728C2.76243 8.86481 2.75807 8.86234 2.7541 8.85987C2.75013 8.85781 2.74655 8.85534 2.74258 8.85328C2.74179 8.85287 2.7406 8.85246 2.7398 8.85164C2.73504 8.84917 2.73067 8.8467 2.7263 8.84423C2.7263 8.84423 2.7263 8.84423 2.72591 8.84423C2.72114 8.84176 2.71638 8.83888 2.71161 8.83641C2.70804 8.83435 2.70407 8.8327 2.7005 8.83065C2.69931 8.82982 2.69811 8.82941 2.69692 8.829C2.69335 8.82735 2.69017 8.82571 2.6866 8.82365C2.68422 8.82241 2.68184 8.82118 2.67945 8.81994C2.67628 8.81871 2.6735 8.81706 2.67072 8.81583C2.66953 8.81542 2.66873 8.815 2.66754 8.81418C2.66596 8.81336 2.66397 8.81253 2.66238 8.81171C2.66238 8.81171 2.65921 8.81006 2.65801 8.80965C2.65643 8.80883 2.65484 8.80842 2.65325 8.8076C2.65325 8.8076 2.65325 8.8076 2.65285 8.8076C2.65166 8.80718 2.65047 8.80636 2.64928 8.80595C2.64531 8.8043 2.64174 8.80224 2.63777 8.8006C2.63697 8.8006 2.63657 8.80019 2.63578 8.79977C2.63221 8.79813 2.62824 8.79648 2.62466 8.79484C2.62387 8.79484 2.62308 8.79401 2.62268 8.79401C2.62149 8.7936 2.6203 8.79278 2.61871 8.79237C2.61752 8.79195 2.61633 8.79113 2.61513 8.79072C2.61275 8.78948 2.60997 8.78866 2.60759 8.78743C2.60283 8.78537 2.59846 8.78372 2.59369 8.78166C2.59092 8.78043 2.58853 8.77961 2.58575 8.77837C2.58417 8.77755 2.58297 8.77714 2.58139 8.77672C2.58059 8.77672 2.5798 8.7759 2.57861 8.77549C2.57781 8.77549 2.57742 8.77508 2.57662 8.77467C2.57503 8.77384 2.57305 8.77343 2.57146 8.77261C2.56828 8.77137 2.56511 8.77014 2.56154 8.7689C2.56074 8.7689 2.56034 8.76849 2.55955 8.76808C2.55518 8.76644 2.55042 8.76479 2.54565 8.76314C2.54565 8.76314 2.54486 8.76314 2.54446 8.76314C2.5397 8.76149 2.53454 8.75944 2.52977 8.75779C2.52938 8.75779 2.52898 8.75779 2.52858 8.75738C2.52461 8.75614 2.52024 8.7545 2.51627 8.75326C2.51588 8.75326 2.51508 8.75285 2.51469 8.75285C2.51469 8.75285 2.51468 8.75285 2.51429 8.75285C2.50952 8.7512 2.50436 8.74956 2.4996 8.74791C2.4996 8.74791 2.4988 8.74791 2.49841 8.74791C2.49722 8.74791 2.49602 8.74709 2.49483 8.74668C2.49364 8.74627 2.49205 8.74585 2.49086 8.74544C2.48848 8.74462 2.4857 8.7438 2.48332 8.74297H2.48253C2.48133 8.74297 2.48054 8.74215 2.47935 8.74215C2.47538 8.74092 2.47141 8.73968 2.46744 8.73845C2.46506 8.73762 2.46267 8.73721 2.46029 8.73639C2.45751 8.73556 2.45473 8.73474 2.45195 8.73392C2.44798 8.73268 2.44441 8.73186 2.44044 8.73063C2.43885 8.73063 2.43726 8.7298 2.43607 8.72939C2.43568 8.72939 2.43488 8.72939 2.43448 8.72898C2.4329 8.72857 2.43091 8.72816 2.42932 8.72774C2.42575 8.72692 2.42218 8.72569 2.41821 8.72486C2.41225 8.72322 2.40669 8.72198 2.40074 8.72075C2.39557 8.71951 2.39041 8.71828 2.38525 8.71704C2.38366 8.71704 2.38247 8.71622 2.38088 8.71622C2.38009 8.71622 2.37969 8.71622 2.3793 8.71622C2.3789 8.71622 2.37811 8.71622 2.37771 8.71622C2.37493 8.7154 2.37255 8.71498 2.36977 8.71457C2.36937 8.71457 2.36897 8.71457 2.36818 8.71457C2.36262 8.71334 2.35706 8.71251 2.3515 8.71128C2.34634 8.71046 2.34158 8.70922 2.33642 8.7084C2.33245 8.70757 2.32848 8.70675 2.32411 8.70634C2.32252 8.70634 2.32133 8.70593 2.31974 8.70552C2.31815 8.70552 2.31657 8.70511 2.31498 8.70469C2.31101 8.70387 2.30664 8.70346 2.30267 8.70263C2.29949 8.70222 2.29592 8.7014 2.29274 8.70099C2.28996 8.70058 2.28679 8.70017 2.28401 8.69975C2.27885 8.69893 2.27369 8.69852 2.26852 8.6977C2.26495 8.69728 2.26138 8.69687 2.25741 8.69646C2.25582 8.69646 2.25383 8.69605 2.25225 8.69564C2.25225 8.69564 2.25225 8.69564 2.25185 8.69564C2.25026 8.69564 2.24907 8.69564 2.24748 8.69523C2.24748 8.69523 2.24669 8.69523 2.24629 8.69523C2.24272 8.69481 2.23914 8.6944 2.23557 8.69399C2.2312 8.69358 2.22684 8.69317 2.22247 8.69276C2.22128 8.69276 2.22009 8.69276 2.21889 8.69276C2.2181 8.69276 2.21691 8.69276 2.21612 8.69276C2.21135 8.69235 2.20659 8.69193 2.20222 8.69152C2.19666 8.69111 2.19071 8.6907 2.18515 8.69029C2.178 8.68988 2.17085 8.68946 2.16371 8.68905C2.15934 8.68905 2.15537 8.68864 2.151 8.68823H2.15021C2.14703 8.68823 2.14386 8.68823 2.14068 8.68823C2.1383 8.68823 2.13591 8.68823 2.13353 8.68823H2.13314C2.13075 8.68823 2.12837 8.68823 2.12599 8.68823C2.12281 8.68823 2.11964 8.68823 2.11646 8.68823C2.11567 8.68823 2.11487 8.68823 2.11408 8.68823C2.1113 8.68823 2.10852 8.68823 2.10574 8.68823C2.10217 8.68823 2.09859 8.68823 2.09502 8.68823C2.09145 8.68823 2.08748 8.68823 2.08351 8.68823C2.02038 8.68823 1.95804 8.69193 1.8965 8.69811C1.88181 8.69975 1.86752 8.70099 1.85283 8.70305C1.84568 8.70387 1.83854 8.70469 1.83139 8.70593C1.82424 8.70675 1.8171 8.70799 1.80995 8.70881C1.8032 8.70963 1.79685 8.71046 1.7901 8.71169C1.7893 8.71169 1.78891 8.71169 1.78811 8.71169C1.77382 8.71375 1.75953 8.71622 1.74523 8.71869C1.73809 8.71992 1.73094 8.72116 1.72379 8.72239C1.72022 8.72322 1.71625 8.72363 1.71268 8.72445C1.7091 8.72527 1.70513 8.7261 1.70156 8.72651C1.69243 8.72816 1.6833 8.73021 1.67416 8.73227C1.66464 8.73433 1.65511 8.73639 1.64558 8.73845C1.64518 8.73845 1.64478 8.73845 1.64439 8.73845C1.63486 8.7405 1.62493 8.74297 1.6154 8.74544C1.60548 8.74791 1.59555 8.75038 1.58523 8.75285C1.57967 8.75409 1.57411 8.75573 1.56855 8.75738C1.55744 8.76026 1.54632 8.76355 1.5352 8.76643C1.52964 8.76808 1.52409 8.76973 1.51853 8.77137C1.51297 8.77302 1.50741 8.77467 1.50185 8.77631C1.49629 8.77796 1.49073 8.77961 1.48557 8.78125C1.48041 8.7829 1.47485 8.78454 1.46969 8.7866C1.46969 8.7866 1.46929 8.7866 1.4689 8.7866C1.46374 8.78825 1.45818 8.7899 1.45302 8.79195C1.44746 8.7936 1.4423 8.79566 1.43674 8.79772C1.43158 8.79936 1.42641 8.80142 1.42125 8.80307C1.41728 8.80471 1.41292 8.80595 1.40895 8.8076C1.40577 8.80883 1.4022 8.81006 1.39902 8.8113C1.38631 8.81624 1.37321 8.82077 1.36051 8.82571C1.35733 8.82694 1.35455 8.82818 1.35138 8.82941C1.3478 8.83065 1.34423 8.83229 1.34066 8.83353C1.3343 8.836 1.32795 8.83888 1.3216 8.84135C1.31802 8.84258 1.31445 8.84423 1.31088 8.84587C1.30135 8.84999 1.29182 8.85411 1.28229 8.85822C1.27713 8.86069 1.27157 8.86316 1.26641 8.86522C1.26204 8.86728 1.25768 8.86934 1.25291 8.87139C1.23624 8.87921 1.21956 8.88704 1.20328 8.89486C1.19852 8.89691 1.19415 8.89938 1.18939 8.90185C1.13182 8.93067 1.07583 8.96195 1.02144 8.99611C0.615274 9.24925 0.299235 9.64151 0.134069 10.1095C0.0919837 10.2289 0.059824 10.3532 0.0383841 10.4812C0.0181354 10.3606 0.0078125 10.2363 0.0078125 10.1095C0.0078125 9.98273 0.0181354 9.85843 0.0383841 9.73783C0.188066 8.84011 0.870964 8.13215 1.7361 7.97656C1.85958 7.99879 1.97948 8.03213 2.09462 8.07576C2.54565 8.24699 2.92403 8.57504 3.16781 8.99611C3.35282 9.31552 3.46042 9.68843 3.46439 10.0869C3.46439 10.0807 3.46439 10.0749 3.46399 10.0692L3.45724 10.0655Z" fill="url(#paint5_linear_4561_16389)"/>
<path d="M2.44601 12.2391C2.32968 12.2601 2.20978 12.2708 2.08749 12.2708C1.9652 12.2708 1.8453 12.2601 1.72897 12.2391C0.863433 12.0839 0.180932 11.3756 0.03125 10.4778C0.0526898 10.3498 0.0848496 10.2255 0.126935 10.1062C0.292101 9.63817 0.60814 9.24591 1.01431 8.99277C1.0687 8.95902 1.12468 8.92733 1.18225 8.89851C1.18702 8.89604 1.19138 8.89399 1.19615 8.89152C1.21243 8.88329 1.2291 8.87546 1.24578 8.86806C1.25014 8.866 1.25451 8.86394 1.25928 8.86188C1.26444 8.85941 1.27 8.85694 1.27516 8.85488C1.28469 8.85077 1.29421 8.84665 1.30374 8.84254C1.30732 8.84089 1.31089 8.83965 1.31446 8.83801C1.32082 8.83554 1.32717 8.83266 1.33352 8.83019C1.33709 8.82854 1.34067 8.82731 1.34424 8.82607C1.34742 8.82484 1.3502 8.8236 1.35337 8.82237C1.36608 8.81743 1.37878 8.81249 1.39189 8.80796C1.39506 8.80673 1.39863 8.80549 1.40181 8.80426C1.40578 8.80261 1.40975 8.80138 1.41412 8.79973C1.41928 8.79808 1.42444 8.79602 1.4296 8.79438C1.43516 8.79232 1.44032 8.79067 1.44588 8.78862C1.45144 8.78697 1.4566 8.78491 1.46176 8.78327C1.46176 8.78327 1.46216 8.78327 1.46256 8.78327L1.47844 8.77791C1.484 8.77627 1.48956 8.77462 1.49472 8.77298C1.50028 8.77133 1.50583 8.76968 1.51139 8.76804C1.51695 8.76639 1.52251 8.76474 1.52807 8.7631C1.53918 8.7598 1.5503 8.75692 1.56142 8.75404C1.56698 8.75239 1.57254 8.75116 1.57809 8.74951C1.58802 8.74704 1.59795 8.74457 1.60827 8.7421C1.6178 8.73963 1.62772 8.73758 1.63725 8.73511C1.63765 8.73511 1.63805 8.73511 1.63844 8.73511C1.64797 8.73305 1.6575 8.73099 1.66703 8.72893C1.67616 8.72687 1.68529 8.72523 1.69443 8.72317C1.698 8.72235 1.70197 8.72152 1.70554 8.72111C1.70912 8.72029 1.71309 8.71988 1.71666 8.71905C1.72381 8.71782 1.73095 8.71659 1.7381 8.71535C1.75239 8.71288 1.76669 8.71041 1.78098 8.70835C1.78177 8.70835 1.78217 8.70835 1.78296 8.70835C1.78932 8.70753 1.79607 8.70629 1.80282 8.70547C1.80996 8.70465 1.81711 8.70341 1.82426 8.70259C1.8314 8.70177 1.83855 8.70094 1.8457 8.69971C1.85999 8.69806 1.87468 8.69642 1.88937 8.69477C1.94773 8.68901 2.00649 8.68571 2.06605 8.6853C1.32677 8.69724 0.729236 9.31671 0.717722 10.0839C0.717722 10.0864 0.717722 10.0885 0.717722 10.0909C0.717722 10.0963 0.717722 10.1012 0.717722 10.1066C0.717722 10.1119 0.717722 10.1169 0.717722 10.1222C0.717722 10.1247 0.717722 10.1267 0.717722 10.1292C0.721692 10.5281 0.829288 10.901 1.01431 11.22C1.25808 11.641 1.63646 11.9691 2.08749 12.1403C2.20263 12.184 2.32253 12.2173 2.44601 12.2395V12.2391Z" fill="url(#paint6_linear_4561_16389)"/>
<path d="M4.17572 10.1058C4.17572 10.2326 4.1654 10.3569 4.14515 10.4775C3.99547 11.3752 3.31257 12.0832 2.44704 12.2388C2.32356 12.2165 2.20366 12.1832 2.08852 12.1396C1.63749 11.9683 1.25911 11.6403 1.01533 11.2192C0.830316 10.8998 0.72272 10.5269 0.71875 10.1284C0.730264 10.8957 1.3274 11.5152 2.06708 11.5271C2.06946 11.5271 2.07144 11.5271 2.07383 11.5271C2.07899 11.5271 2.08375 11.5271 2.08891 11.5271C2.09408 11.5271 2.09884 11.5271 2.104 11.5271C2.10638 11.5271 2.10837 11.5271 2.11075 11.5271C2.49508 11.523 2.8544 11.4114 3.16249 11.2192C3.56866 10.9661 3.8847 10.5738 4.04987 10.1058C4.09195 9.98645 4.12411 9.86214 4.14555 9.73413C4.1658 9.85514 4.17612 9.97904 4.17612 10.1058H4.17572Z" fill="url(#paint7_linear_4561_16389)"/>
<path d="M4.14523 9.73412C4.12379 9.86213 4.09163 9.98643 4.04954 10.1058C3.88477 10.5738 3.56834 10.9661 3.16217 11.2192C2.85447 11.411 2.49476 11.523 2.11043 11.5271C2.84971 11.5151 3.44724 10.8957 3.45876 10.1284C3.45876 10.126 3.45876 10.1239 3.45876 10.1214C3.45876 10.1161 3.45876 10.1112 3.45876 10.1058C3.45876 10.1004 3.45876 10.0955 3.45876 10.0902C3.45876 10.0877 3.45876 10.0856 3.45876 10.0832C3.45479 9.68431 3.34719 9.3114 3.16217 8.9924C2.91839 8.57133 2.54002 8.24328 2.08899 8.07205C1.97385 8.02842 1.85395 7.99508 1.73047 7.97286C1.8468 7.95186 1.9667 7.94116 2.08899 7.94116C2.21128 7.94116 2.33118 7.95186 2.44751 7.97286C3.31305 8.12844 3.99555 8.83641 4.14563 9.73412H4.14523Z" fill="url(#paint8_linear_4561_16389)"/>
</g>
<mask id="mask1_4561_16389" style="mask-type:luminance" maskUnits="userSpaceOnUse" x="0" y="8" width="2" height="5">
<path d="M1.33642 11.2928C1.2586 11.2397 1.18634 11.1784 1.11964 11.1093C0.993776 10.9788 0.894915 10.8269 0.826228 10.6577C0.755159 10.4832 0.719029 10.2976 0.719029 10.1054C0.719029 9.91313 0.755159 9.7275 0.826228 9.55298C0.894915 9.38422 0.993776 9.23234 1.11964 9.10145C1.18634 9.0323 1.25899 8.97097 1.33642 8.91787C1.35627 8.90429 1.36818 8.88165 1.36818 8.85736V8.17821C1.36818 8.12635 1.31736 8.09137 1.2713 8.11195C0.524085 8.44123 0 9.2097 0 10.1054C0 11.001 0.524085 11.7691 1.2713 12.0988C1.31736 12.1189 1.36818 12.0839 1.36818 12.0325V11.3533C1.36818 11.3291 1.35627 11.3064 1.33642 11.2928Z" fill="white"/>
</mask>
<g mask="url(#mask1_4561_16389)">
<path d="M3.45724 10.0655C3.45724 10.0597 3.45724 10.0535 3.45685 10.0478C3.45685 10.0478 3.45685 10.0469 3.45685 10.0465C3.45685 10.0408 3.45645 10.035 3.45605 10.0292C3.45605 10.0292 3.45605 10.0292 3.45605 10.0288C3.45605 10.0231 3.45526 10.0177 3.45526 10.012C3.45526 10.012 3.45526 10.0115 3.45526 10.0111C3.45526 10.0054 3.45446 9.99961 3.45407 9.99426C3.45407 9.99426 3.45407 9.99384 3.45407 9.99343C3.45407 9.98932 3.45327 9.98479 3.45288 9.98067C3.45288 9.97944 3.45288 9.97779 3.45288 9.97656C3.45288 9.97656 3.45288 9.97573 3.45288 9.97532C3.45208 9.96709 3.45129 9.95886 3.45049 9.95062C3.45049 9.94733 3.4497 9.94445 3.4493 9.94116C3.4493 9.9391 3.44891 9.93704 3.44851 9.9354C3.44811 9.93169 3.44771 9.92758 3.44732 9.92387C3.44732 9.92222 3.44732 9.92099 3.44692 9.91934C3.44652 9.91523 3.44573 9.9107 3.44533 9.90658C3.44494 9.90288 3.44414 9.89917 3.44374 9.89547C3.44295 9.89012 3.44216 9.88477 3.44136 9.87942C3.44136 9.87901 3.44136 9.87859 3.44136 9.87818C3.44097 9.87489 3.44057 9.87201 3.43977 9.86872C3.43977 9.86789 3.43977 9.86707 3.43977 9.86625C3.43977 9.86501 3.43977 9.86419 3.43938 9.86295C3.43938 9.86172 3.43898 9.86048 3.43898 9.85925C3.43898 9.85925 3.43898 9.85884 3.43898 9.85843C3.43898 9.8576 3.43898 9.85637 3.43858 9.85554C3.43858 9.85513 3.43858 9.85472 3.43858 9.85431C3.43858 9.85349 3.43858 9.85266 3.43858 9.85225C3.43779 9.84814 3.437 9.84443 3.4366 9.84031C3.4358 9.83661 3.43501 9.83249 3.43461 9.82879C3.43422 9.82591 3.43342 9.82303 3.43302 9.82015C3.43302 9.81932 3.43302 9.8185 3.43263 9.81768C3.43263 9.81685 3.43263 9.81644 3.43223 9.81562C3.43223 9.81438 3.43183 9.81356 3.43144 9.81233C3.43064 9.80903 3.43025 9.80574 3.42945 9.80245V9.80121C3.42945 9.80121 3.42905 9.80039 3.42905 9.79998V9.79792C3.42905 9.79792 3.42826 9.79669 3.42826 9.79586C3.42786 9.7938 3.42747 9.79133 3.42667 9.78928C3.42667 9.78804 3.42628 9.78681 3.42588 9.78557C3.42469 9.77981 3.4235 9.77446 3.42191 9.7687C3.42151 9.76664 3.42111 9.76499 3.42072 9.76293L3.41794 9.75182C3.41794 9.75182 3.41794 9.75017 3.41714 9.74935V9.74894C3.41714 9.7477 3.41675 9.74688 3.41635 9.74565C3.41556 9.74194 3.41476 9.73865 3.41357 9.73494C3.41357 9.73494 3.41357 9.73371 3.41317 9.73289C3.41317 9.73289 3.41317 9.73206 3.41317 9.73165C3.41198 9.72712 3.41079 9.7226 3.4096 9.71848C3.40801 9.71313 3.40642 9.70737 3.40484 9.70202C3.40484 9.7016 3.40484 9.70078 3.40444 9.70037C3.40444 9.69996 3.40444 9.69913 3.40404 9.69872C3.40285 9.69378 3.40126 9.68926 3.40007 9.68473C3.39848 9.67979 3.39689 9.67485 3.39531 9.6695C3.39451 9.66744 3.39412 9.66538 3.39332 9.66291C3.39253 9.66044 3.39213 9.6588 3.39134 9.65633C3.39134 9.65509 3.39054 9.65427 3.39015 9.65303C3.38975 9.6518 3.38935 9.65056 3.38895 9.64933C3.38776 9.64521 3.38617 9.6411 3.38498 9.63698C3.3834 9.63287 3.3822 9.62834 3.38062 9.62422C3.38022 9.62258 3.37943 9.62093 3.37903 9.61928C3.37823 9.6164 3.37704 9.61352 3.37585 9.61105C3.37585 9.61023 3.37506 9.60899 3.37466 9.60817C3.37426 9.60652 3.37347 9.60488 3.37307 9.60323C3.37307 9.60241 3.37268 9.60158 3.37228 9.60076C3.37188 9.59911 3.37109 9.59747 3.37029 9.59582C3.3695 9.59376 3.36871 9.59129 3.36791 9.58923C3.36593 9.58388 3.36394 9.57853 3.36196 9.57359C3.36196 9.57318 3.36196 9.57277 3.36156 9.57236C3.35997 9.56824 3.35838 9.56372 3.3564 9.5596C3.3564 9.55878 3.356 9.55836 3.3556 9.55754C3.35401 9.55343 3.35203 9.54931 3.35044 9.54478C3.35044 9.54396 3.34965 9.54314 3.34965 9.54231C3.34965 9.54231 3.34965 9.54149 3.34925 9.54149C3.34727 9.53696 3.34568 9.53243 3.34369 9.52791C3.34369 9.52749 3.3433 9.52708 3.3429 9.52626C3.34091 9.52132 3.33853 9.51638 3.33615 9.51103C3.33496 9.50856 3.33377 9.50609 3.33258 9.50321C3.33138 9.50074 3.33019 9.49827 3.329 9.49539C3.32662 9.49045 3.32424 9.48551 3.32225 9.48057C3.32225 9.48057 3.32225 9.48016 3.32225 9.47975C3.31987 9.47522 3.31788 9.47069 3.3155 9.46575C3.3155 9.46575 3.3155 9.46493 3.31511 9.46452C3.31511 9.46452 3.31511 9.46452 3.31511 9.46411C3.31352 9.4604 3.31153 9.45711 3.30994 9.45341C3.30994 9.45258 3.30955 9.45217 3.30915 9.45176C3.30915 9.45094 3.30836 9.45052 3.30836 9.4497C3.30677 9.44641 3.30518 9.44353 3.30359 9.44023C3.3028 9.43859 3.30161 9.43653 3.30081 9.43447C3.30081 9.43406 3.30042 9.43324 3.30002 9.43283C3.29883 9.43077 3.29764 9.4283 3.29645 9.42624C3.29525 9.42418 3.29406 9.42171 3.29287 9.41965C3.29208 9.41801 3.29089 9.41595 3.29009 9.4143C3.29009 9.4143 3.29009 9.4143 3.29009 9.41389C3.2893 9.41225 3.28811 9.41019 3.28731 9.40854C3.28692 9.40731 3.28612 9.40607 3.28533 9.40484C3.28414 9.40278 3.28334 9.40113 3.28215 9.39907C3.28096 9.3966 3.27937 9.39413 3.27818 9.39166C3.27818 9.39166 3.27739 9.39002 3.27699 9.38919C3.27659 9.38837 3.2762 9.38755 3.2758 9.38673C3.2754 9.3859 3.27501 9.38508 3.27461 9.38426C3.27302 9.38137 3.27143 9.37849 3.26984 9.37561C3.26984 9.3752 3.26945 9.37479 3.26905 9.37438C3.26905 9.37396 3.26826 9.37314 3.26826 9.37273C3.26786 9.37191 3.26706 9.37067 3.26667 9.36985C3.26548 9.36779 3.26389 9.36532 3.2627 9.36326C3.2627 9.36285 3.2619 9.36203 3.2619 9.36162C3.2619 9.36121 3.26151 9.36079 3.26111 9.36038C3.25873 9.35627 3.25634 9.35215 3.25357 9.34803C3.25198 9.34556 3.25079 9.34309 3.2492 9.34104C3.2484 9.3398 3.24761 9.33815 3.24682 9.33692C3.24602 9.33569 3.24523 9.33445 3.24443 9.33322C3.24364 9.33157 3.24245 9.32992 3.24165 9.32869C3.24126 9.32787 3.24086 9.32704 3.24007 9.32622C3.23848 9.32375 3.23729 9.32169 3.2357 9.31922C3.23332 9.31552 3.23093 9.31181 3.22855 9.30811C3.22816 9.30729 3.22736 9.30605 3.22696 9.30523C3.22657 9.3044 3.22617 9.30399 3.22577 9.30317C3.22299 9.29946 3.22061 9.29535 3.21783 9.29164C3.21505 9.28794 3.21267 9.28382 3.20989 9.28012C3.20949 9.2793 3.2091 9.27888 3.2083 9.27806C3.20751 9.27724 3.20711 9.27641 3.20672 9.27559C3.20394 9.27189 3.20155 9.26818 3.19877 9.26448C3.19758 9.26242 3.196 9.26036 3.19441 9.2583C3.19282 9.25583 3.19123 9.25378 3.18964 9.25131C3.18925 9.2509 3.18885 9.25007 3.18845 9.24966C3.18686 9.24719 3.18488 9.24472 3.18329 9.24266C3.1821 9.24102 3.18091 9.23937 3.17972 9.23772C3.17694 9.23361 3.17376 9.2299 3.17098 9.2262C3.17019 9.22537 3.16979 9.22455 3.169 9.22332C3.16582 9.2192 3.16304 9.2155 3.15987 9.21138C3.15828 9.20891 3.15629 9.20685 3.15431 9.20438C3.15351 9.20315 3.15232 9.20191 3.15113 9.20068C3.14994 9.19903 3.14835 9.19739 3.14716 9.19574C3.14597 9.19409 3.14478 9.19286 3.14359 9.19162C3.1424 9.18998 3.1412 9.18874 3.14001 9.1871C3.13922 9.18586 3.13843 9.18504 3.13763 9.18421C3.13604 9.18257 3.13485 9.18051 3.13326 9.17886C3.13207 9.17763 3.13128 9.17639 3.13009 9.17516C3.12969 9.17434 3.1289 9.17392 3.1285 9.1731C3.1281 9.17269 3.12771 9.17187 3.12691 9.17104C3.12374 9.16734 3.12096 9.16405 3.11778 9.16034C3.11421 9.15623 3.11063 9.15211 3.10706 9.14799C3.10349 9.14388 3.09991 9.13976 3.09594 9.13565C3.09237 9.13153 3.0884 9.12741 3.08483 9.12371C3.07728 9.11548 3.07014 9.10766 3.0622 9.09984C3.06021 9.09778 3.05862 9.09572 3.05664 9.09407C3.05465 9.09201 3.05267 9.09037 3.05068 9.08831C3.04671 9.08461 3.04314 9.08049 3.03917 9.07679C3.0352 9.07308 3.03123 9.06897 3.02726 9.06526C3.02329 9.06156 3.01932 9.05785 3.01534 9.05374C3.01137 9.05003 3.0074 9.04633 3.00343 9.04262C3.00026 9.03974 2.99668 9.03645 2.99351 9.03357C2.99271 9.03274 2.99192 9.03233 2.99152 9.03151C2.98755 9.0278 2.98358 9.0241 2.97921 9.02081C2.97524 9.01751 2.97167 9.01422 2.9677 9.01093C2.96691 9.01011 2.96572 9.00928 2.96492 9.00846C2.96254 9.0064 2.96055 9.00475 2.95817 9.0027C2.95777 9.00228 2.95698 9.00187 2.95658 9.00146C2.95579 9.00105 2.95539 9.00064 2.955 8.99981C2.95222 8.99734 2.94944 8.99529 2.94666 8.99282C2.94547 8.99199 2.94428 8.99076 2.94348 8.98994C2.94348 8.98994 2.94308 8.98953 2.94269 8.98911C2.94031 8.98747 2.93832 8.98541 2.93594 8.98376C2.93435 8.98253 2.93276 8.98088 2.93078 8.97965C2.93078 8.97965 2.92998 8.97882 2.92959 8.97882C2.92522 8.97553 2.92125 8.97183 2.91688 8.96853C2.91251 8.96524 2.90854 8.96195 2.90418 8.95865C2.90378 8.95865 2.90338 8.95783 2.90298 8.95783C2.89941 8.95495 2.89584 8.95248 2.89226 8.95001C2.89226 8.95001 2.89147 8.94919 2.89107 8.94919C2.88988 8.94836 2.88909 8.94754 2.8879 8.94672C2.88671 8.9459 2.88591 8.94507 2.88472 8.94425C2.88353 8.94343 2.88194 8.94219 2.88075 8.94137C2.87996 8.94096 2.87956 8.94054 2.87877 8.93972C2.87877 8.93972 2.87797 8.93931 2.87757 8.9389C2.87321 8.9356 2.86884 8.93272 2.86408 8.92943C2.86169 8.92778 2.85971 8.92614 2.85733 8.9249C2.85494 8.92326 2.85296 8.92202 2.85058 8.92037C2.84938 8.91955 2.84819 8.91873 2.8474 8.91791C2.84661 8.91749 2.84621 8.91708 2.84541 8.91667C2.84502 8.91667 2.84462 8.91626 2.84422 8.91585C2.84264 8.91461 2.84065 8.91338 2.83906 8.91214C2.83866 8.91214 2.83827 8.91173 2.83747 8.91132C2.83708 8.91132 2.83628 8.9105 2.83589 8.9105C2.83192 8.90762 2.82755 8.90515 2.82358 8.90226C2.8212 8.90062 2.81921 8.89938 2.81683 8.89774C2.81445 8.89609 2.81246 8.89486 2.81008 8.89321C2.81008 8.89321 2.80968 8.89321 2.80928 8.8928C2.80571 8.89074 2.80214 8.88827 2.79856 8.88621C2.79777 8.8858 2.79698 8.88498 2.79618 8.88457C2.79221 8.8821 2.78864 8.87963 2.78467 8.87757C2.78348 8.87674 2.78229 8.87592 2.78109 8.87551C2.77832 8.87386 2.77593 8.87222 2.77315 8.87098C2.77236 8.87057 2.77157 8.87016 2.77077 8.86975C2.76918 8.86893 2.7676 8.8681 2.7664 8.86728C2.76243 8.86481 2.75807 8.86234 2.7541 8.85987C2.75013 8.85781 2.74655 8.85534 2.74258 8.85328C2.74179 8.85287 2.7406 8.85246 2.7398 8.85164C2.73504 8.84917 2.73067 8.8467 2.7263 8.84423C2.7263 8.84423 2.7263 8.84423 2.72591 8.84423C2.72114 8.84176 2.71638 8.83888 2.71161 8.83641C2.70804 8.83435 2.70407 8.8327 2.7005 8.83065C2.69931 8.82982 2.69811 8.82941 2.69692 8.829C2.69335 8.82735 2.69017 8.82571 2.6866 8.82365C2.68422 8.82241 2.68184 8.82118 2.67945 8.81994C2.67628 8.81871 2.6735 8.81706 2.67072 8.81583C2.66953 8.81542 2.66873 8.815 2.66754 8.81418C2.66596 8.81336 2.66397 8.81253 2.66238 8.81171C2.66238 8.81171 2.65921 8.81006 2.65801 8.80965C2.65643 8.80883 2.65484 8.80842 2.65325 8.8076C2.65325 8.8076 2.65325 8.8076 2.65285 8.8076C2.65166 8.80718 2.65047 8.80636 2.64928 8.80595C2.64531 8.8043 2.64174 8.80224 2.63777 8.8006C2.63697 8.8006 2.63657 8.80019 2.63578 8.79977C2.63221 8.79813 2.62824 8.79648 2.62466 8.79484C2.62387 8.79484 2.62308 8.79401 2.62268 8.79401C2.62149 8.7936 2.6203 8.79278 2.61871 8.79237C2.61752 8.79195 2.61633 8.79113 2.61513 8.79072C2.61275 8.78948 2.60997 8.78866 2.60759 8.78743C2.60283 8.78537 2.59846 8.78372 2.59369 8.78166C2.59092 8.78043 2.58853 8.77961 2.58575 8.77837C2.58417 8.77755 2.58297 8.77714 2.58139 8.77672C2.58059 8.77672 2.5798 8.7759 2.57861 8.77549C2.57781 8.77549 2.57742 8.77508 2.57662 8.77467C2.57503 8.77384 2.57305 8.77343 2.57146 8.77261C2.56828 8.77137 2.56511 8.77014 2.56154 8.7689C2.56074 8.7689 2.56034 8.76849 2.55955 8.76808C2.55518 8.76644 2.55042 8.76479 2.54565 8.76314C2.54565 8.76314 2.54486 8.76314 2.54446 8.76314C2.5397 8.76149 2.53454 8.75944 2.52977 8.75779C2.52938 8.75779 2.52898 8.75779 2.52858 8.75738C2.52461 8.75614 2.52024 8.7545 2.51627 8.75326C2.51588 8.75326 2.51508 8.75285 2.51469 8.75285C2.51469 8.75285 2.51468 8.75285 2.51429 8.75285C2.50952 8.7512 2.50436 8.74956 2.4996 8.74791C2.4996 8.74791 2.4988 8.74791 2.49841 8.74791C2.49722 8.74791 2.49602 8.74709 2.49483 8.74668C2.49364 8.74627 2.49205 8.74585 2.49086 8.74544C2.48848 8.74462 2.4857 8.7438 2.48332 8.74297H2.48253C2.48133 8.74297 2.48054 8.74215 2.47935 8.74215C2.47538 8.74092 2.47141 8.73968 2.46744 8.73845C2.46506 8.73762 2.46267 8.73721 2.46029 8.73639C2.45751 8.73556 2.45473 8.73474 2.45195 8.73392C2.44798 8.73268 2.44441 8.73186 2.44044 8.73063C2.43885 8.73063 2.43726 8.7298 2.43607 8.72939C2.43568 8.72939 2.43488 8.72939 2.43448 8.72898C2.4329 8.72857 2.43091 8.72816 2.42932 8.72774C2.42575 8.72692 2.42218 8.72569 2.41821 8.72486C2.41225 8.72322 2.40669 8.72198 2.40074 8.72075C2.39557 8.71951 2.39041 8.71828 2.38525 8.71704C2.38366 8.71704 2.38247 8.71622 2.38088 8.71622C2.38009 8.71622 2.37969 8.71622 2.3793 8.71622C2.3789 8.71622 2.37811 8.71622 2.37771 8.71622C2.37493 8.7154 2.37255 8.71498 2.36977 8.71457C2.36937 8.71457 2.36897 8.71457 2.36818 8.71457C2.36262 8.71334 2.35706 8.71251 2.3515 8.71128C2.34634 8.71046 2.34158 8.70922 2.33642 8.7084C2.33245 8.70757 2.32848 8.70675 2.32411 8.70634C2.32252 8.70634 2.32133 8.70593 2.31974 8.70552C2.31815 8.70552 2.31657 8.70511 2.31498 8.70469C2.31101 8.70387 2.30664 8.70346 2.30267 8.70263C2.29949 8.70222 2.29592 8.7014 2.29274 8.70099C2.28996 8.70058 2.28679 8.70017 2.28401 8.69975C2.27885 8.69893 2.27369 8.69852 2.26852 8.6977C2.26495 8.69728 2.26138 8.69687 2.25741 8.69646C2.25582 8.69646 2.25383 8.69605 2.25225 8.69564C2.25225 8.69564 2.25225 8.69564 2.25185 8.69564C2.25026 8.69564 2.24907 8.69564 2.24748 8.69523C2.24748 8.69523 2.24669 8.69523 2.24629 8.69523C2.24272 8.69481 2.23914 8.6944 2.23557 8.69399C2.2312 8.69358 2.22684 8.69317 2.22247 8.69276C2.22128 8.69276 2.22009 8.69276 2.21889 8.69276C2.2181 8.69276 2.21691 8.69276 2.21612 8.69276C2.21135 8.69235 2.20659 8.69193 2.20222 8.69152C2.19666 8.69111 2.19071 8.6907 2.18515 8.69029C2.178 8.68988 2.17085 8.68946 2.16371 8.68905C2.15934 8.68905 2.15537 8.68864 2.151 8.68823H2.15021C2.14703 8.68823 2.14386 8.68823 2.14068 8.68823C2.1383 8.68823 2.13591 8.68823 2.13353 8.68823H2.13314C2.13075 8.68823 2.12837 8.68823 2.12599 8.68823C2.12281 8.68823 2.11964 8.68823 2.11646 8.68823C2.11567 8.68823 2.11487 8.68823 2.11408 8.68823C2.1113 8.68823 2.10852 8.68823 2.10574 8.68823C2.10217 8.68823 2.09859 8.68823 2.09502 8.68823C2.09145 8.68823 2.08748 8.68823 2.08351 8.68823C2.02038 8.68823 1.95804 8.69193 1.8965 8.69811C1.88181 8.69975 1.86752 8.70099 1.85283 8.70305C1.84568 8.70387 1.83854 8.70469 1.83139 8.70593C1.82424 8.70675 1.8171 8.70799 1.80995 8.70881C1.8032 8.70963 1.79685 8.71046 1.7901 8.71169C1.7893 8.71169 1.78891 8.71169 1.78811 8.71169C1.77382 8.71375 1.75953 8.71622 1.74523 8.71869C1.73809 8.71992 1.73094 8.72116 1.72379 8.72239C1.72022 8.72322 1.71625 8.72363 1.71268 8.72445C1.7091 8.72527 1.70513 8.7261 1.70156 8.72651C1.69243 8.72816 1.6833 8.73021 1.67416 8.73227C1.66464 8.73433 1.65511 8.73639 1.64558 8.73845C1.64518 8.73845 1.64478 8.73845 1.64439 8.73845C1.63486 8.7405 1.62493 8.74297 1.6154 8.74544C1.60548 8.74791 1.59555 8.75038 1.58523 8.75285C1.57967 8.75409 1.57411 8.75573 1.56855 8.75738C1.55744 8.76026 1.54632 8.76355 1.5352 8.76643C1.52964 8.76808 1.52409 8.76973 1.51853 8.77137C1.51297 8.77302 1.50741 8.77467 1.50185 8.77631C1.49629 8.77796 1.49073 8.77961 1.48557 8.78125C1.48041 8.7829 1.47485 8.78454 1.46969 8.7866C1.46969 8.7866 1.46929 8.7866 1.4689 8.7866C1.46374 8.78825 1.45818 8.7899 1.45302 8.79195C1.44746 8.7936 1.4423 8.79566 1.43674 8.79772C1.43158 8.79936 1.42641 8.80142 1.42125 8.80307C1.41728 8.80471 1.41292 8.80595 1.40895 8.8076C1.40577 8.80883 1.4022 8.81006 1.39902 8.8113C1.38631 8.81624 1.37321 8.82077 1.36051 8.82571C1.35733 8.82694 1.35455 8.82818 1.35138 8.82941C1.3478 8.83065 1.34423 8.83229 1.34066 8.83353C1.3343 8.836 1.32795 8.83888 1.3216 8.84135C1.31802 8.84258 1.31445 8.84423 1.31088 8.84587C1.30135 8.84999 1.29182 8.85411 1.28229 8.85822C1.27713 8.86069 1.27157 8.86316 1.26641 8.86522C1.26204 8.86728 1.25768 8.86934 1.25291 8.87139C1.23624 8.87921 1.21956 8.88704 1.20328 8.89486C1.19852 8.89691 1.19415 8.89938 1.18939 8.90185C1.13182 8.93067 1.07583 8.96195 1.02144 8.99611C0.615274 9.24925 0.299235 9.64151 0.134069 10.1095C0.0919837 10.2289 0.059824 10.3532 0.0383841 10.4812C0.0181354 10.3606 0.0078125 10.2363 0.0078125 10.1095C0.0078125 9.98273 0.0181354 9.85843 0.0383841 9.73783C0.188066 8.84011 0.870964 8.13215 1.7361 7.97656C1.85958 7.99879 1.97948 8.03213 2.09462 8.07576C2.54565 8.24699 2.92403 8.57504 3.16781 8.99611C3.35282 9.31552 3.46042 9.68843 3.46439 10.0869C3.46439 10.0807 3.46439 10.0749 3.46399 10.0692L3.45724 10.0655Z" fill="url(#paint9_linear_4561_16389)"/>
<path d="M2.44601 12.2391C2.32968 12.2601 2.20978 12.2708 2.08749 12.2708C1.9652 12.2708 1.8453 12.2601 1.72897 12.2391C0.863433 12.0839 0.180932 11.3756 0.03125 10.4778C0.0526898 10.3498 0.0848496 10.2255 0.126935 10.1062C0.292101 9.63817 0.60814 9.24591 1.01431 8.99277C1.0687 8.95902 1.12468 8.92733 1.18225 8.89851C1.18702 8.89604 1.19138 8.89399 1.19615 8.89152C1.21243 8.88329 1.2291 8.87546 1.24578 8.86806C1.25014 8.866 1.25451 8.86394 1.25928 8.86188C1.26444 8.85941 1.27 8.85694 1.27516 8.85488C1.28469 8.85077 1.29421 8.84665 1.30374 8.84254C1.30732 8.84089 1.31089 8.83965 1.31446 8.83801C1.32082 8.83554 1.32717 8.83266 1.33352 8.83019C1.33709 8.82854 1.34067 8.82731 1.34424 8.82607C1.34742 8.82484 1.3502 8.8236 1.35337 8.82237C1.36608 8.81743 1.37878 8.81249 1.39189 8.80796C1.39506 8.80673 1.39863 8.80549 1.40181 8.80426C1.40578 8.80261 1.40975 8.80138 1.41412 8.79973C1.41928 8.79808 1.42444 8.79602 1.4296 8.79438C1.43516 8.79232 1.44032 8.79067 1.44588 8.78862C1.45144 8.78697 1.4566 8.78491 1.46176 8.78327C1.46176 8.78327 1.46216 8.78327 1.46256 8.78327L1.47844 8.77791C1.484 8.77627 1.48956 8.77462 1.49472 8.77298C1.50028 8.77133 1.50583 8.76968 1.51139 8.76804C1.51695 8.76639 1.52251 8.76474 1.52807 8.7631C1.53918 8.7598 1.5503 8.75692 1.56142 8.75404C1.56698 8.75239 1.57254 8.75116 1.57809 8.74951C1.58802 8.74704 1.59795 8.74457 1.60827 8.7421C1.6178 8.73963 1.62772 8.73758 1.63725 8.73511C1.63765 8.73511 1.63805 8.73511 1.63844 8.73511C1.64797 8.73305 1.6575 8.73099 1.66703 8.72893C1.67616 8.72687 1.68529 8.72523 1.69443 8.72317C1.698 8.72235 1.70197 8.72152 1.70554 8.72111C1.70912 8.72029 1.71309 8.71988 1.71666 8.71905C1.72381 8.71782 1.73095 8.71659 1.7381 8.71535C1.75239 8.71288 1.76669 8.71041 1.78098 8.70835C1.78177 8.70835 1.78217 8.70835 1.78296 8.70835C1.78932 8.70753 1.79607 8.70629 1.80282 8.70547C1.80996 8.70465 1.81711 8.70341 1.82426 8.70259C1.8314 8.70177 1.83855 8.70094 1.8457 8.69971C1.85999 8.69806 1.87468 8.69642 1.88937 8.69477C1.94773 8.68901 2.00649 8.68571 2.06605 8.6853C1.32677 8.69724 0.729236 9.31671 0.717722 10.0839C0.717722 10.0864 0.717722 10.0885 0.717722 10.0909C0.717722 10.0963 0.717722 10.1012 0.717722 10.1066C0.717722 10.1119 0.717722 10.1169 0.717722 10.1222C0.717722 10.1247 0.717722 10.1267 0.717722 10.1292C0.721692 10.5281 0.829288 10.901 1.01431 11.22C1.25808 11.641 1.63646 11.9691 2.08749 12.1403C2.20263 12.184 2.32253 12.2173 2.44601 12.2395V12.2391Z" fill="url(#paint10_linear_4561_16389)"/>
<path d="M4.17573 10.1058C4.17573 10.2326 4.1654 10.3569 4.14515 10.4775C3.99547 11.3752 3.31257 12.0832 2.44704 12.2388C2.32356 12.2165 2.20366 12.1832 2.08852 12.1396C1.63749 11.9683 1.25911 11.6403 1.01533 11.2192C0.830316 10.8998 0.72272 10.5269 0.71875 10.1284C0.730264 10.8957 1.3274 11.5152 2.06708 11.5271C2.06946 11.5271 2.07144 11.5271 2.07383 11.5271C2.07899 11.5271 2.08375 11.5271 2.08891 11.5271C2.09408 11.5271 2.09884 11.5271 2.104 11.5271C2.10638 11.5271 2.10837 11.5271 2.11075 11.5271C2.49508 11.523 2.8544 11.4114 3.16249 11.2192C3.56866 10.9661 3.8847 10.5738 4.04987 10.1058C4.09195 9.98645 4.12411 9.86214 4.14555 9.73413C4.1658 9.85514 4.17612 9.97904 4.17612 10.1058H4.17573Z" fill="url(#paint11_linear_4561_16389)"/>
</g>
<defs>
<linearGradient id="paint0_linear_4561_16389" x1="15.9936" y1="9.99282" x2="5.0527" y2="9.99282" gradientUnits="userSpaceOnUse">
<stop stop-color="#00C2F3"/>
<stop offset="0.13" stop-color="#00BDEF"/>
<stop offset="0.28" stop-color="#00AFE6"/>
<stop offset="0.39" stop-color="#00A1DD"/>
<stop offset="0.51" stop-color="#009CD8"/>
<stop offset="0.65" stop-color="#0091CA"/>
<stop offset="0.8" stop-color="#007DB3"/>
<stop offset="0.95" stop-color="#006293"/>
<stop offset="1" stop-color="#005989"/>
</linearGradient>
<linearGradient id="paint1_linear_4561_16389" x1="15.9939" y1="9.99289" x2="5.05294" y2="9.99289" gradientUnits="userSpaceOnUse">
<stop stop-color="#00C2F3"/>
<stop offset="0.13" stop-color="#00BDEF"/>
<stop offset="0.28" stop-color="#00AFE6"/>
<stop offset="0.39" stop-color="#00A1DD"/>
<stop offset="0.51" stop-color="#009CD8"/>
<stop offset="0.65" stop-color="#0091CA"/>
<stop offset="0.8" stop-color="#007DB3"/>
<stop offset="0.95" stop-color="#006293"/>
<stop offset="1" stop-color="#005989"/>
</linearGradient>
<linearGradient id="paint2_linear_4561_16389" x1="15.9954" y1="9.99269" x2="5.05453" y2="9.99269" gradientUnits="userSpaceOnUse">
<stop stop-color="#00C2F3"/>
<stop offset="0.13" stop-color="#00BDEF"/>
<stop offset="0.28" stop-color="#00AFE6"/>
<stop offset="0.39" stop-color="#00A1DD"/>
<stop offset="0.51" stop-color="#009CD8"/>
<stop offset="0.65" stop-color="#0091CA"/>
<stop offset="0.8" stop-color="#007DB3"/>
<stop offset="0.95" stop-color="#006293"/>
<stop offset="1" stop-color="#005989"/>
</linearGradient>
<linearGradient id="paint3_linear_4561_16389" x1="1.36639" y1="10.1057" x2="1.93653" y2="10.1057" gradientUnits="userSpaceOnUse">
<stop stop-color="#005989"/>
<stop offset="0.1" stop-color="#006799"/>
<stop offset="0.35" stop-color="#0086BD"/>
<stop offset="0.55" stop-color="#0099D3"/>
<stop offset="0.68" stop-color="#00A0DC"/>
<stop offset="0.69" stop-color="#00A1DD"/>
<stop offset="0.88" stop-color="#00B7EC"/>
<stop offset="1" stop-color="#00C0F2"/>
</linearGradient>
<linearGradient id="paint4_linear_4561_16389" x1="2.59091" y1="10.1057" x2="1.51812" y2="10.1057" gradientUnits="userSpaceOnUse">
<stop stop-color="#005989"/>
<stop offset="0.28" stop-color="#007FAF"/>
<stop offset="0.59" stop-color="#00A2D3"/>
<stop offset="0.84" stop-color="#00B8E9"/>
<stop offset="1" stop-color="#00C0F2"/>
</linearGradient>
<linearGradient id="paint5_linear_4561_16389" x1="0.0884104" y1="9.86048" x2="2.97495" y2="8.95601" gradientUnits="userSpaceOnUse">
<stop stop-color="#005989"/>
<stop offset="0.07" stop-color="#006799"/>
<stop offset="0.26" stop-color="#0086BD"/>
<stop offset="0.4" stop-color="#0099D3"/>
<stop offset="0.5" stop-color="#00A0DC"/>
<stop offset="0.67" stop-color="#00A4DF"/>
<stop offset="0.87" stop-color="#00B2E8"/>
<stop offset="1" stop-color="#00C0F2"/>
</linearGradient>
<linearGradient id="paint6_linear_4561_16389" x1="0.874947" y1="9.20022" x2="2.40403" y2="12.8507" gradientUnits="userSpaceOnUse">
<stop stop-color="#00C0F2"/>
<stop offset="0.02" stop-color="#00BEF0"/>
<stop offset="0.24" stop-color="#00A8E1"/>
<stop offset="0.39" stop-color="#00A0DC"/>
<stop offset="0.48" stop-color="#0091CB"/>
<stop offset="0.7" stop-color="#0072A7"/>
<stop offset="0.88" stop-color="#005F91"/>
<stop offset="1" stop-color="#005989"/>
</linearGradient>
<linearGradient id="paint7_linear_4561_16389" x1="1.20472" y1="11.239" x2="4.34075" y2="10.8137" gradientUnits="userSpaceOnUse">
<stop stop-color="#00C0F2"/>
<stop offset="0.02" stop-color="#00BEF0"/>
<stop offset="0.24" stop-color="#00A8E1"/>
<stop offset="0.39" stop-color="#00A0DC"/>
<stop offset="0.48" stop-color="#0091CB"/>
<stop offset="0.7" stop-color="#0072A7"/>
<stop offset="0.88" stop-color="#005F91"/>
<stop offset="1" stop-color="#005989"/>
</linearGradient>
<linearGradient id="paint8_linear_4561_16389" x1="3.28764" y1="11.1044" x2="2.1441" y2="7.70979" gradientUnits="userSpaceOnUse">
<stop stop-color="#00C0F2"/>
<stop offset="0.02" stop-color="#00BEF0"/>
<stop offset="0.24" stop-color="#00A8E1"/>
<stop offset="0.39" stop-color="#00A0DC"/>
<stop offset="0.48" stop-color="#0091CB"/>
<stop offset="0.7" stop-color="#0072A7"/>
<stop offset="0.88" stop-color="#005F91"/>
<stop offset="1" stop-color="#005989"/>
</linearGradient>
<linearGradient id="paint9_linear_4561_16389" x1="0.0884104" y1="9.86048" x2="2.97495" y2="8.95601" gradientUnits="userSpaceOnUse">
<stop stop-color="#005989"/>
<stop offset="0.07" stop-color="#006799"/>
<stop offset="0.26" stop-color="#0086BD"/>
<stop offset="0.4" stop-color="#0099D3"/>
<stop offset="0.5" stop-color="#00A0DC"/>
<stop offset="0.67" stop-color="#00A4DF"/>
<stop offset="0.87" stop-color="#00B2E8"/>
<stop offset="1" stop-color="#00C0F2"/>
</linearGradient>
<linearGradient id="paint10_linear_4561_16389" x1="0.874947" y1="9.20022" x2="2.40403" y2="12.8507" gradientUnits="userSpaceOnUse">
<stop stop-color="#00C0F2"/>
<stop offset="0.02" stop-color="#00BEF0"/>
<stop offset="0.24" stop-color="#00A8E1"/>
<stop offset="0.39" stop-color="#00A0DC"/>
<stop offset="0.48" stop-color="#0091CB"/>
<stop offset="0.7" stop-color="#0072A7"/>
<stop offset="0.88" stop-color="#005F91"/>
<stop offset="1" stop-color="#005989"/>
</linearGradient>
<linearGradient id="paint11_linear_4561_16389" x1="1.20472" y1="11.239" x2="4.34075" y2="10.8137" gradientUnits="userSpaceOnUse">
<stop stop-color="#00C0F2"/>
<stop offset="0.02" stop-color="#00BEF0"/>
<stop offset="0.24" stop-color="#00A8E1"/>
<stop offset="0.39" stop-color="#00A0DC"/>
<stop offset="0.48" stop-color="#0091CB"/>
<stop offset="0.7" stop-color="#0072A7"/>
<stop offset="0.88" stop-color="#005F91"/>
<stop offset="1" stop-color="#005989"/>
</linearGradient>
</defs>
</svg>
