<svg width="24" height="25" viewBox="0 0 24 25" fill="none" xmlns="http://www.w3.org/2000/svg">
<path fill-rule="evenodd" clip-rule="evenodd" d="M12 21.5C16.9706 21.5 21 17.4706 21 12.5C21 7.52944 16.9706 3.5 12 3.5C7.02944 3.5 3 7.52944 3 12.5C3 17.4706 7.02944 21.5 12 21.5ZM17.2923 8.63065C17.5644 8.90274 17.6121 9.29537 17.3998 9.50769L10.7227 16.1848C10.6857 16.2497 10.6384 16.3122 10.5813 16.3693C10.5175 16.4331 10.4471 16.4845 10.3739 16.5232C10.3019 16.5725 10.2146 16.6004 10.1192 16.6047C9.97135 16.6224 9.83001 16.5876 9.72557 16.4966C9.66567 16.4607 9.609 16.4165 9.55775 16.3652C9.50755 16.315 9.46414 16.2596 9.42857 16.2011L6.60118 13.3737C6.49897 13.2715 6.45281 13.1216 6.47285 12.957C6.49289 12.7924 6.57749 12.6266 6.70804 12.4961C6.83859 12.3655 7.00439 12.2809 7.16898 12.2609C7.33357 12.2409 7.48345 12.287 7.58566 12.3892L10.0675 14.871L16.4153 8.52321C16.628 8.3105 17.0207 8.35905 17.2923 8.63065Z" fill="#27AE60"/>
</svg>
