<svg width="16" height="16" viewBox="0 0 16 16" fill="none" xmlns="http://www.w3.org/2000/svg">
<path fill-rule="evenodd" clip-rule="evenodd" d="M5.2093 2C5.44049 2 5.62791 2.19188 5.62791 2.42857V2.86441C5.99742 2.85714 6.40451 2.85714 6.85222 2.85714H9.14778C9.59549 2.85714 10.0026 2.85714 10.3721 2.86441V2.42857C10.3721 2.19188 10.5595 2 10.7907 2C11.0219 2 11.2093 2.19188 11.2093 2.42857V2.90121C11.3544 2.91254 11.4918 2.92678 11.6218 2.94468C12.276 3.03477 12.8056 3.22457 13.2231 3.65225C13.641 4.07975 13.8265 4.62206 13.9145 5.29202C14 5.943 14 6.77482 14 7.82488V9.03226C14 10.0823 14 10.9141 13.9145 11.5651C13.8265 12.235 13.6411 12.7772 13.2234 13.2046C12.7574 13.6824 12.1519 13.8634 11.3895 13.9397C11.1594 13.9627 10.9547 13.7904 10.9322 13.5548C10.9097 13.3192 11.078 13.1096 11.3081 13.0866C11.9968 13.0177 12.3681 12.8685 12.631 12.5989C12.8673 12.3573 13.0092 12.0258 13.0848 11.4509C13.1619 10.8637 13.1628 10.0895 13.1628 9V7.85714C13.1628 7.36914 13.1626 6.94442 13.1555 6.57143H13.3023C13.5335 6.57143 13.7209 6.37955 13.7209 6.14286C13.7209 5.90616 13.5335 5.71429 13.3023 5.71429H13.1172C13.1082 5.60609 13.0975 5.50361 13.0848 5.40627C13.0092 4.83137 12.8676 4.50025 12.6314 4.2586C12.3954 4.01675 12.0717 3.8715 11.5102 3.79418C10.9366 3.7152 10.1805 3.71429 9.11628 3.71429H6.88372C5.81951 3.71429 5.06341 3.7152 4.48985 3.79418C3.92832 3.8715 3.60489 4.01649 3.36887 4.25835C3.13264 4.49999 2.99077 4.83137 2.91524 5.40627C2.90245 5.50361 2.89176 5.60609 2.88282 5.71429H2.4186C2.23843 5.71429 2.08485 5.83082 2.02584 5.99428C2.0385 5.73975 2.05738 5.5061 2.0855 5.29202C2.17351 4.62211 2.35893 4.07984 2.77677 3.65236C2.77672 3.65241 2.77682 3.65231 2.77677 3.65236C3.19429 3.22468 3.724 3.03477 4.37825 2.94468C4.50824 2.92678 4.64562 2.91254 4.7907 2.90121V2.42857C4.7907 2.19188 4.97811 2 5.2093 2ZM2.01508 6.25726C2.00525 6.22084 2 6.18248 2 6.14286C2 6.09062 2.00913 6.04057 2.02584 5.99428C2.02159 6.07958 2.01805 6.16722 2.01508 6.25726ZM2.77662 13.2046C3.19418 13.6325 3.72387 13.8224 4.37825 13.9125C5.01409 14 5.82656 14 6.85221 14H9.11628C9.34747 14 9.53488 13.8081 9.53488 13.5714C9.53488 13.3347 9.34747 13.1429 9.11628 13.1429H6.88372C5.81951 13.1429 5.06341 13.1419 4.48985 13.063C3.92832 12.9856 3.60489 12.8406 3.36887 12.5988C3.13264 12.3572 2.99077 12.0258 2.91524 11.4509C2.8381 10.8637 2.83721 10.0895 2.83721 9V7.85714C2.83721 7.36914 2.83739 6.94442 2.84452 6.57143H4.5814C4.81258 6.57143 5 6.37955 5 6.14286C5 5.90616 4.81258 5.71429 4.5814 5.71429H2.88282C2.86199 5.96645 2.85067 6.2497 2.84452 6.57143H2.4186C2.22612 6.57143 2.06397 6.43841 2.01508 6.25726C1.99999 6.71554 2 7.23588 2 7.8249V9.03225C1.99999 10.0823 1.99998 10.9141 2.0855 11.5651C2.1735 12.235 2.35888 12.7772 2.77662 13.2046ZM2.77662 13.2046C2.77654 13.2045 2.7767 13.2047 2.77662 13.2046V13.2046ZM13.1172 5.71429H7.30233C7.07114 5.71429 6.88372 5.90616 6.88372 6.14286C6.88372 6.37955 7.07114 6.57143 7.30233 6.57143H13.1555C13.1493 6.2497 13.138 5.96645 13.1172 5.71429Z" fill="white"/>
<path d="M11.3327 10.7778C11.3327 10.9251 11.2742 11.0664 11.17 11.1706C11.0658 11.2748 10.9245 11.3333 10.7771 11.3333C10.6298 11.3333 10.4885 11.2748 10.3843 11.1706C10.2801 11.0664 10.2216 10.9251 10.2216 10.7778C10.2216 10.6304 10.2801 10.4891 10.3843 10.3849C10.4885 10.2808 10.6298 10.2222 10.7771 10.2222C10.9245 10.2222 11.0658 10.2808 11.17 10.3849C11.2742 10.4891 11.3327 10.6304 11.3327 10.7778ZM11.3327 8.55556C11.3327 8.7029 11.2742 8.84421 11.17 8.94839C11.0658 9.05258 10.9245 9.11111 10.7771 9.11111C10.6298 9.11111 10.4885 9.05258 10.3843 8.94839C10.2801 8.84421 10.2216 8.7029 10.2216 8.55556C10.2216 8.40821 10.2801 8.26691 10.3843 8.16272C10.4885 8.05853 10.6298 8 10.7771 8C10.9245 8 11.0658 8.05853 11.17 8.16272C11.2742 8.26691 11.3327 8.40821 11.3327 8.55556ZM8.5549 10.7778C8.5549 10.9251 8.49637 11.0664 8.39219 11.1706C8.288 11.2748 8.14669 11.3333 7.99935 11.3333C7.85201 11.3333 7.7107 11.2748 7.60651 11.1706C7.50233 11.0664 7.44379 10.9251 7.44379 10.7778C7.44379 10.6304 7.50233 10.4891 7.60651 10.3849C7.7107 10.2808 7.85201 10.2222 7.99935 10.2222C8.14669 10.2222 8.288 10.2808 8.39219 10.3849C8.49637 10.4891 8.5549 10.6304 8.5549 10.7778ZM8.5549 8.55556C8.5549 8.7029 8.49637 8.84421 8.39219 8.94839C8.288 9.05258 8.14669 9.11111 7.99935 9.11111C7.85201 9.11111 7.7107 9.05258 7.60651 8.94839C7.50233 8.84421 7.44379 8.7029 7.44379 8.55556C7.44379 8.40821 7.50233 8.26691 7.60651 8.16272C7.7107 8.05853 7.85201 8 7.99935 8C8.14669 8 8.288 8.05853 8.39219 8.16272C8.49637 8.26691 8.5549 8.40821 8.5549 8.55556ZM5.77713 10.7778C5.77713 10.9251 5.7186 11.0664 5.61441 11.1706C5.51022 11.2748 5.36891 11.3333 5.22157 11.3333C5.07423 11.3333 4.93292 11.2748 4.82873 11.1706C4.72455 11.0664 4.66602 10.9251 4.66602 10.7778C4.66602 10.6304 4.72455 10.4891 4.82873 10.3849C4.93292 10.2808 5.07423 10.2222 5.22157 10.2222C5.36891 10.2222 5.51022 10.2808 5.61441 10.3849C5.7186 10.4891 5.77713 10.6304 5.77713 10.7778ZM5.77713 8.55556C5.77713 8.7029 5.7186 8.84421 5.61441 8.94839C5.51022 9.05258 5.36891 9.11111 5.22157 9.11111C5.07423 9.11111 4.93292 9.05258 4.82873 8.94839C4.72455 8.84421 4.66602 8.7029 4.66602 8.55556C4.66602 8.40821 4.72455 8.26691 4.82873 8.16272C4.93292 8.05853 5.07423 8 5.22157 8C5.36891 8 5.51022 8.05853 5.61441 8.16272C5.7186 8.26691 5.77713 8.40821 5.77713 8.55556Z" fill="white"/>
</svg>
