<svg width="23" height="22" viewBox="0 0 23 22" fill="none" xmlns="http://www.w3.org/2000/svg">
    <g id="icon">
    <path id="Vector" d="M5.37488 13.2919L4.60772 16.1521L1.80789 16.2125C0.97126 14.6601 0.49707 12.8841 0.49707 10.9995C0.49707 9.11478 0.941057 7.45361 1.72634 5.94043L4.2181 6.3965L5.30844 8.87316C5.07889 9.54065 4.95506 10.2534 4.95506 10.9995C4.95506 11.8059 5.10003 12.5821 5.36884 13.2949L5.37488 13.2919Z" fill="#FBBB00"/>
    <path id="Vector_2" d="M22.3098 8.94336C22.4366 9.60783 22.5031 10.2965 22.5031 10.9972C22.5031 11.7855 22.4215 12.5526 22.2615 13.2956C21.7269 15.8176 20.3254 18.0194 18.3864 19.5779L15.2483 19.4178L14.8043 16.6452C16.091 15.8901 17.0967 14.7092 17.6253 13.2956H11.7417V8.94336H22.3098Z" fill="#518EF8"/>
    <path id="Vector_3" d="M18.3866 19.5782C16.5019 21.0944 14.1068 22.0005 11.5003 22.0005C7.31112 22.0005 3.66862 19.6597 1.80811 16.2135L5.37208 13.2959C6.30234 15.7756 8.69443 17.5394 11.4973 17.5394C12.7024 17.5394 13.832 17.2132 14.8015 16.6454L18.3836 19.5782H18.3866Z" fill="#28B446"/>
    <path id="Vector_4" d="M18.5225 2.53103L14.9585 5.44865C13.9557 4.82042 12.7688 4.46101 11.5002 4.46101C8.63394 4.46101 6.19654 6.30643 5.31461 8.87672L1.72949 5.94096C3.5598 2.41021 7.25063 0 11.5002 0C14.1702 0 16.6166 0.951405 18.5225 2.53405V2.53103Z" fill="#F14336"/>
    </g>
    </svg>
    