<svg width="280" height="300" viewBox="0 0 280 300" fill="none" xmlns="http://www.w3.org/2000/svg">
<rect width="280" height="300" rx="18" fill="#1E2530"/>
<g clip-path="url(#clip0_4822_57879)">
<rect width="36" height="36" transform="translate(12 12)" fill="white"/>
<path d="M35.2194 31.7878L35.8677 27.6039H31.812V24.8889C31.812 23.7441 32.3786 22.6285 34.1952 22.6285H36.0391V19.0665C36.0391 19.0665 34.3656 18.7838 32.7656 18.7838C29.4255 18.7838 27.2423 20.7876 27.2423 24.4151V27.6039H23.5293V31.7878H27.2423V41.9021C27.9981 42.0193 28.7621 42.0781 29.5271 42.0779C30.2922 42.0782 31.0562 42.0194 31.812 41.9021V31.7878H35.2194Z" fill="#1877F2"/>
<rect width="220" height="36" transform="translate(48 12)" fill="#1877F2"/>
<path d="M56.16 30.168H60.6V30.936H56.16V30.168ZM56.256 34.5H55.368V26.1H61.128V26.868H56.256V34.5ZM66.4719 34.5V33.108L66.4359 32.88V30.552C66.4359 30.016 66.2839 29.604 65.9799 29.316C65.6839 29.028 65.2399 28.884 64.6479 28.884C64.2399 28.884 63.8519 28.952 63.4839 29.088C63.1159 29.224 62.8039 29.404 62.5479 29.628L62.1639 28.992C62.4839 28.72 62.8679 28.512 63.3159 28.368C63.7639 28.216 64.2359 28.14 64.7319 28.14C65.5479 28.14 66.1759 28.344 66.6159 28.752C67.0639 29.152 67.2879 29.764 67.2879 30.588V34.5H66.4719ZM64.2999 34.56C63.8279 34.56 63.4159 34.484 63.0639 34.332C62.7199 34.172 62.4559 33.956 62.2719 33.684C62.0879 33.404 61.9959 33.084 61.9959 32.724C61.9959 32.396 62.0719 32.1 62.2239 31.836C62.3839 31.564 62.6399 31.348 62.9919 31.188C63.3519 31.02 63.8319 30.936 64.4319 30.936H66.6039V31.572H64.4559C63.8479 31.572 63.4239 31.68 63.1839 31.896C62.9519 32.112 62.8359 32.38 62.8359 32.7C62.8359 33.06 62.9759 33.348 63.2559 33.564C63.5359 33.78 63.9279 33.888 64.4319 33.888C64.9119 33.888 65.3239 33.78 65.6679 33.564C66.0199 33.34 66.2759 33.02 66.4359 32.604L66.6279 33.192C66.4679 33.608 66.1879 33.94 65.7879 34.188C65.3959 34.436 64.8999 34.56 64.2999 34.56ZM72.2181 34.56C71.5941 34.56 71.0341 34.424 70.5381 34.152C70.0501 33.872 69.6661 33.492 69.3861 33.012C69.1061 32.524 68.9661 31.968 68.9661 31.344C68.9661 30.712 69.1061 30.156 69.3861 29.676C69.6661 29.196 70.0501 28.82 70.5381 28.548C71.0341 28.276 71.5941 28.14 72.2181 28.14C72.7541 28.14 73.2381 28.244 73.6701 28.452C74.1021 28.66 74.4421 28.972 74.6901 29.388L74.0541 29.82C73.8381 29.5 73.5701 29.264 73.2501 29.112C72.9301 28.96 72.5821 28.884 72.2061 28.884C71.7581 28.884 71.3541 28.988 70.9941 29.196C70.6341 29.396 70.3501 29.68 70.1421 30.048C69.9341 30.416 69.8301 30.848 69.8301 31.344C69.8301 31.84 69.9341 32.272 70.1421 32.64C70.3501 33.008 70.6341 33.296 70.9941 33.504C71.3541 33.704 71.7581 33.804 72.2061 33.804C72.5821 33.804 72.9301 33.728 73.2501 33.576C73.5701 33.424 73.8381 33.192 74.0541 32.88L74.6901 33.312C74.4421 33.72 74.1021 34.032 73.6701 34.248C73.2381 34.456 72.7541 34.56 72.2181 34.56ZM78.9343 34.56C78.2783 34.56 77.7023 34.424 77.2063 34.152C76.7103 33.872 76.3223 33.492 76.0423 33.012C75.7623 32.524 75.6223 31.968 75.6223 31.344C75.6223 30.72 75.7543 30.168 76.0183 29.688C76.2903 29.208 76.6583 28.832 77.1223 28.56C77.5943 28.28 78.1223 28.14 78.7063 28.14C79.2983 28.14 79.8223 28.276 80.2783 28.548C80.7423 28.812 81.1063 29.188 81.3703 29.676C81.6343 30.156 81.7663 30.712 81.7663 31.344C81.7663 31.384 81.7623 31.428 81.7543 31.476C81.7543 31.516 81.7543 31.56 81.7543 31.608H76.2703V30.972H81.2983L80.9623 31.224C80.9623 30.768 80.8623 30.364 80.6623 30.012C80.4703 29.652 80.2063 29.372 79.8703 29.172C79.5343 28.972 79.1463 28.872 78.7063 28.872C78.2743 28.872 77.8863 28.972 77.5423 29.172C77.1983 29.372 76.9303 29.652 76.7383 30.012C76.5463 30.372 76.4503 30.784 76.4503 31.248V31.38C76.4503 31.86 76.5543 32.284 76.7623 32.652C76.9783 33.012 77.2743 33.296 77.6503 33.504C78.0343 33.704 78.4703 33.804 78.9583 33.804C79.3423 33.804 79.6983 33.736 80.0263 33.6C80.3623 33.464 80.6503 33.256 80.8903 32.976L81.3703 33.528C81.0903 33.864 80.7383 34.12 80.3143 34.296C79.8983 34.472 79.4383 34.56 78.9343 34.56ZM86.7525 34.56C86.2005 34.56 85.7045 34.436 85.2645 34.188C84.8245 33.932 84.4765 33.564 84.2205 33.084C83.9645 32.604 83.8365 32.024 83.8365 31.344C83.8365 30.656 83.9645 30.076 84.2205 29.604C84.4845 29.124 84.8365 28.76 85.2765 28.512C85.7165 28.264 86.2085 28.14 86.7525 28.14C87.3525 28.14 87.8885 28.276 88.3605 28.548C88.8405 28.812 89.2165 29.184 89.4885 29.664C89.7605 30.144 89.8965 30.704 89.8965 31.344C89.8965 31.976 89.7605 32.536 89.4885 33.024C89.2165 33.504 88.8405 33.88 88.3605 34.152C87.8885 34.424 87.3525 34.56 86.7525 34.56ZM83.5005 34.5V25.596H84.3525V30.06L84.2325 31.332L84.3165 32.604V34.5H83.5005ZM86.6925 33.804C87.1405 33.804 87.5405 33.704 87.8925 33.504C88.2445 33.296 88.5245 33.008 88.7325 32.64C88.9405 32.264 89.0445 31.832 89.0445 31.344C89.0445 30.848 88.9405 30.416 88.7325 30.048C88.5245 29.68 88.2445 29.396 87.8925 29.196C87.5405 28.988 87.1405 28.884 86.6925 28.884C86.2445 28.884 85.8405 28.988 85.4805 29.196C85.1285 29.396 84.8485 29.68 84.6405 30.048C84.4405 30.416 84.3405 30.848 84.3405 31.344C84.3405 31.832 84.4405 32.264 84.6405 32.64C84.8485 33.008 85.1285 33.296 85.4805 33.504C85.8405 33.704 86.2445 33.804 86.6925 33.804ZM94.2013 34.56C93.5933 34.56 93.0453 34.424 92.5573 34.152C92.0773 33.872 91.6973 33.492 91.4173 33.012C91.1373 32.524 90.9973 31.968 90.9973 31.344C90.9973 30.712 91.1373 30.156 91.4173 29.676C91.6973 29.196 92.0773 28.82 92.5573 28.548C93.0373 28.276 93.5853 28.14 94.2013 28.14C94.8253 28.14 95.3773 28.276 95.8573 28.548C96.3453 28.82 96.7253 29.196 96.9973 29.676C97.2773 30.156 97.4173 30.712 97.4173 31.344C97.4173 31.968 97.2773 32.524 96.9973 33.012C96.7253 33.492 96.3453 33.872 95.8573 34.152C95.3693 34.424 94.8173 34.56 94.2013 34.56ZM94.2013 33.804C94.6573 33.804 95.0613 33.704 95.4133 33.504C95.7653 33.296 96.0413 33.008 96.2413 32.64C96.4493 32.264 96.5533 31.832 96.5533 31.344C96.5533 30.848 96.4493 30.416 96.2413 30.048C96.0413 29.68 95.7653 29.396 95.4133 29.196C95.0613 28.988 94.6613 28.884 94.2133 28.884C93.7653 28.884 93.3653 28.988 93.0133 29.196C92.6613 29.396 92.3813 29.68 92.1733 30.048C91.9653 30.416 91.8613 30.848 91.8613 31.344C91.8613 31.832 91.9653 32.264 92.1733 32.64C92.3813 33.008 92.6613 33.296 93.0133 33.504C93.3653 33.704 93.7613 33.804 94.2013 33.804ZM101.725 34.56C101.117 34.56 100.569 34.424 100.081 34.152C99.6008 33.872 99.2208 33.492 98.9408 33.012C98.6608 32.524 98.5208 31.968 98.5208 31.344C98.5208 30.712 98.6608 30.156 98.9408 29.676C99.2208 29.196 99.6008 28.82 100.081 28.548C100.561 28.276 101.109 28.14 101.725 28.14C102.349 28.14 102.901 28.276 103.381 28.548C103.869 28.82 104.249 29.196 104.521 29.676C104.801 30.156 104.941 30.712 104.941 31.344C104.941 31.968 104.801 32.524 104.521 33.012C104.249 33.492 103.869 33.872 103.381 34.152C102.893 34.424 102.341 34.56 101.725 34.56ZM101.725 33.804C102.181 33.804 102.585 33.704 102.937 33.504C103.289 33.296 103.565 33.008 103.765 32.64C103.973 32.264 104.077 31.832 104.077 31.344C104.077 30.848 103.973 30.416 103.765 30.048C103.565 29.68 103.289 29.396 102.937 29.196C102.585 28.988 102.185 28.884 101.737 28.884C101.289 28.884 100.889 28.988 100.537 29.196C100.185 29.396 99.9048 29.68 99.6968 30.048C99.4888 30.416 99.3848 30.848 99.3848 31.344C99.3848 31.832 99.4888 32.264 99.6968 32.64C99.9048 33.008 100.185 33.296 100.537 33.504C100.889 33.704 101.285 33.804 101.725 33.804ZM107.352 32.868L107.376 31.776L111.3 28.2H112.344L109.572 30.852L109.092 31.26L107.352 32.868ZM106.68 34.5V25.596H107.532V34.5H106.68ZM111.564 34.5L108.936 31.224L109.488 30.564L112.608 34.5H111.564Z" fill="white"/>
<path d="M251.476 34.434C251.431 34.4849 251.395 34.5448 251.371 34.6102C251.347 34.6756 251.336 34.7453 251.338 34.8153C251.34 34.8853 251.355 34.9542 251.382 35.0181C251.409 35.082 251.448 35.1396 251.497 35.1877C251.545 35.2358 251.602 35.2734 251.664 35.2984C251.727 35.3233 251.793 35.3351 251.86 35.3332C251.926 35.3312 251.992 35.3154 252.053 35.2868C252.114 35.2582 252.168 35.2173 252.214 35.1664L256.528 30.3692C256.617 30.2703 256.666 30.1392 256.666 30.003C256.666 29.8668 256.617 29.7358 256.528 29.6369L252.214 24.8391C252.169 24.7871 252.114 24.7451 252.053 24.7156C251.992 24.6861 251.926 24.6696 251.858 24.667C251.791 24.6645 251.724 24.6761 251.661 24.701C251.599 24.7259 251.541 24.7637 251.492 24.8122C251.443 24.8607 251.404 24.9189 251.377 24.9834C251.349 25.0479 251.335 25.1175 251.333 25.1881C251.332 25.2587 251.344 25.3289 251.368 25.3946C251.393 25.4604 251.43 25.5203 251.476 25.571L255.461 30.003L251.476 34.434Z" fill="white"/>
</g>
<g clip-path="url(#clip1_4822_57879)">
<rect width="220" height="36" transform="translate(48 60)" fill="#0066FF"/>
<path d="M54.54 83V82.388L60.372 75.032L60.468 75.368H54.624V74.6H61.284V75.212L55.464 82.568L55.356 82.232H61.428V83H54.54ZM66.9524 83V81.608L66.9164 81.38V79.052C66.9164 78.516 66.7644 78.104 66.4604 77.816C66.1644 77.528 65.7204 77.384 65.1284 77.384C64.7204 77.384 64.3324 77.452 63.9644 77.588C63.5964 77.724 63.2844 77.904 63.0284 78.128L62.6444 77.492C62.9644 77.22 63.3484 77.012 63.7964 76.868C64.2444 76.716 64.7164 76.64 65.2124 76.64C66.0284 76.64 66.6564 76.844 67.0964 77.252C67.5444 77.652 67.7684 78.264 67.7684 79.088V83H66.9524ZM64.7804 83.06C64.3084 83.06 63.8964 82.984 63.5444 82.832C63.2004 82.672 62.9364 82.456 62.7524 82.184C62.5684 81.904 62.4764 81.584 62.4764 81.224C62.4764 80.896 62.5524 80.6 62.7044 80.336C62.8644 80.064 63.1204 79.848 63.4724 79.688C63.8324 79.52 64.3124 79.436 64.9124 79.436H67.0844V80.072H64.9364C64.3284 80.072 63.9044 80.18 63.6644 80.396C63.4324 80.612 63.3164 80.88 63.3164 81.2C63.3164 81.56 63.4564 81.848 63.7364 82.064C64.0164 82.28 64.4084 82.388 64.9124 82.388C65.3924 82.388 65.8044 82.28 66.1484 82.064C66.5004 81.84 66.7564 81.52 66.9164 81.104L67.1084 81.692C66.9484 82.108 66.6684 82.44 66.2684 82.688C65.8764 82.936 65.3804 83.06 64.7804 83.06ZM70.0825 83V74.096H70.9345V83H70.0825ZM75.8732 83.06C75.2652 83.06 74.7172 82.924 74.2292 82.652C73.7492 82.372 73.3692 81.992 73.0892 81.512C72.8092 81.024 72.6692 80.468 72.6692 79.844C72.6692 79.212 72.8092 78.656 73.0892 78.176C73.3692 77.696 73.7492 77.32 74.2292 77.048C74.7092 76.776 75.2572 76.64 75.8732 76.64C76.4972 76.64 77.0492 76.776 77.5292 77.048C78.0172 77.32 78.3972 77.696 78.6692 78.176C78.9492 78.656 79.0892 79.212 79.0892 79.844C79.0892 80.468 78.9492 81.024 78.6692 81.512C78.3972 81.992 78.0172 82.372 77.5292 82.652C77.0412 82.924 76.4892 83.06 75.8732 83.06ZM75.8732 82.304C76.3292 82.304 76.7332 82.204 77.0852 82.004C77.4372 81.796 77.7132 81.508 77.9132 81.14C78.1212 80.764 78.2252 80.332 78.2252 79.844C78.2252 79.348 78.1212 78.916 77.9132 78.548C77.7132 78.18 77.4372 77.896 77.0852 77.696C76.7332 77.488 76.3332 77.384 75.8852 77.384C75.4372 77.384 75.0372 77.488 74.6852 77.696C74.3332 77.896 74.0532 78.18 73.8452 78.548C73.6372 78.916 73.5332 79.348 73.5332 79.844C73.5332 80.332 73.6372 80.764 73.8452 81.14C74.0532 81.508 74.3332 81.796 74.6852 82.004C75.0372 82.204 75.4332 82.304 75.8732 82.304Z" fill="white"/>
<rect width="36" height="36" transform="translate(12 60)" fill="white"/>
<path d="M24.7588 90.0276C23.1692 90.0276 21.5752 90.0799 19.9856 90.0233C18.1042 89.9492 16.667 88.3683 16.667 86.4913C16.667 80.4202 16.6801 74.3535 16.667 68.2737C16.667 66.1963 18.2915 64.7461 20.1598 64.6938C22.1153 64.6415 24.0751 64.6807 26.0392 64.6807C26.0741 64.6807 26.122 64.6633 26.1394 64.72C26.1263 64.8245 26.0218 64.8375 25.9608 64.8767C24.8067 65.5518 23.7572 66.3618 22.8687 67.3635C21.4097 69.0185 20.395 70.9129 20.0509 73.121C19.4456 77.0145 20.6607 80.3201 23.4131 83.0769C23.9009 83.5733 23.9662 83.9566 23.5742 84.6185C23.1039 85.4155 22.3853 85.9556 21.6231 86.4521C21.5404 86.5 21.462 86.5566 21.3792 86.6089C21.2573 86.7134 21.3313 86.7656 21.4359 86.8136C21.4576 86.8658 21.4881 86.9137 21.523 86.9573C22.1937 87.5495 22.8252 88.1854 23.4828 88.7908C23.792 89.0739 24.1012 89.3743 24.3974 89.6705C24.5193 89.7794 24.724 89.8142 24.7545 90.0276H24.7588Z" fill="#0066FF"/>
<path d="M24.759 90.0268C24.7286 89.8221 24.5282 89.7873 24.4019 89.6653C24.1058 89.3648 23.7966 89.073 23.4873 88.7856C22.8297 88.1802 22.1939 87.5443 21.5275 86.952C21.4927 86.9041 21.4622 86.8606 21.4404 86.8083C22.9255 87.1001 24.3714 86.8998 25.7999 86.4643C26.2833 86.3205 26.7668 86.1725 27.2545 86.0506C27.5855 85.9634 27.9339 85.9809 28.2562 86.0985C31.945 87.3658 35.5903 87.2526 39.1745 85.6804C40.6335 85.0358 41.9662 84.1256 43.0985 82.9932C43.1551 82.9366 43.1987 82.8495 43.3032 82.8408C43.3555 82.9236 43.325 83.0107 43.325 83.0978V86.5035C43.338 88.4459 41.7789 90.0311 39.8322 90.0485H39.8017C37.7069 90.0616 35.612 90.0485 33.5172 90.0485H25.1075C24.9899 90.0355 24.8766 90.0312 24.759 90.0312V90.0268Z" fill="#0066FF"/>
<path d="M25.669 77.0018C26.5488 77.0018 27.3762 76.9974 28.195 77.0018C28.6566 77.0062 28.9049 77.1978 28.9528 77.568C29.0051 78.0296 28.7394 78.3345 28.2386 78.3432C27.2978 78.3563 26.3571 78.3475 25.4164 78.3475C25.1421 78.3475 24.8764 78.3606 24.602 78.3432C24.2623 78.3258 23.9313 78.2561 23.7702 77.9077C23.609 77.5593 23.7223 77.2457 23.9444 76.9583C24.8416 75.8172 25.7431 74.6718 26.6446 73.5308C26.6968 73.4611 26.7491 73.3914 26.8014 73.3261C26.7447 73.2259 26.662 73.2738 26.5923 73.2695C25.9652 73.2651 25.3293 73.2695 24.7022 73.2651C24.5585 73.2651 24.4104 73.2477 24.271 73.2172C23.94 73.1432 23.7353 72.8078 23.8094 72.4855C23.8616 72.2634 24.0358 72.0848 24.258 72.0326C24.3973 71.9977 24.541 71.9803 24.6891 71.9803C25.7256 71.976 26.7665 71.976 27.803 71.9803C27.9903 71.976 28.1689 71.9977 28.3518 72.0457C28.7481 72.1807 28.918 72.5465 28.7612 72.9298C28.6218 73.2608 28.3997 73.5482 28.1776 73.8312C27.4154 74.8024 26.6533 75.7693 25.8911 76.7274C25.8258 76.8015 25.7692 76.8799 25.6777 77.0062L25.669 77.0018Z" fill="#0066FF"/>
<path d="M32.4192 73.9416C32.5586 73.763 32.7023 73.5932 32.9418 73.5453C33.4035 73.4539 33.8303 73.75 33.839 74.216C33.8564 75.3788 33.852 76.546 33.839 77.7088C33.839 78.0093 33.643 78.2793 33.3556 78.3664C33.0638 78.4753 32.7328 78.3882 32.5411 78.14C32.441 78.018 32.4018 77.9963 32.2624 78.1051C31.7311 78.5363 31.1344 78.6103 30.4855 78.4012C29.449 78.0615 29.0266 77.2559 28.909 76.2716C28.787 75.2046 29.1398 74.2987 30.0979 73.7413C30.8906 73.2709 31.6919 73.3101 32.4192 73.946V73.9416ZM30.3592 76.0669C30.3723 76.3239 30.4507 76.5677 30.6031 76.7724C30.9167 77.1905 31.5177 77.2777 31.9401 76.9641C32.0098 76.9118 32.0751 76.8465 32.1318 76.7724C32.4584 76.3282 32.4584 75.6009 32.1318 75.1611C31.9706 74.9346 31.7137 74.7996 31.4393 74.7952C30.7991 74.756 30.3505 75.2481 30.3549 76.0713L30.3592 76.0669ZM36.4521 76.1018C36.4042 74.608 37.3884 73.4887 38.7864 73.4495C40.2715 73.4016 41.3516 74.3989 41.3995 75.8535C41.4474 77.3255 40.5459 78.3665 39.1522 78.5058C37.6323 78.6583 36.4303 77.5564 36.4521 76.1018ZM37.911 75.9624C37.898 76.2542 37.9851 76.5373 38.1593 76.7768C38.4772 77.1949 39.0782 77.2776 39.4963 76.951C39.5616 76.9031 39.6139 76.8465 39.6661 76.7899C40.0058 76.3456 40.0058 75.6009 39.6705 75.1611C39.5094 74.9389 39.2524 74.7996 38.978 74.7952C38.3509 74.7604 37.9067 75.2394 37.9067 75.9667L37.911 75.9624ZM35.9382 74.9433C35.9382 75.8448 35.9425 76.7463 35.9382 77.6478C35.9425 78.0616 35.6202 78.4056 35.2065 78.4143C35.1368 78.4143 35.0628 78.41 34.9931 78.3926C34.7013 78.3185 34.4792 78.0093 34.4792 77.6435V73.0183C34.4792 72.7439 34.4748 72.4783 34.4792 72.2039C34.4835 71.7553 34.771 71.4635 35.2021 71.4635C35.6464 71.4592 35.9425 71.7466 35.9425 72.2126C35.9469 73.1185 35.9425 74.0331 35.9425 74.9433H35.9382Z" fill="#0066FF"/>
</g>
<g clip-path="url(#clip2_4822_57879)">
<rect width="220" height="36" transform="translate(48 108)" fill="#0D7B2C"/>
<path d="M57.684 131.072C57.06 131.072 56.46 130.972 55.884 130.772C55.316 130.564 54.876 130.3 54.564 129.98L54.912 129.296C55.208 129.584 55.604 129.828 56.1 130.028C56.604 130.22 57.132 130.316 57.684 130.316C58.212 130.316 58.64 130.252 58.968 130.124C59.304 129.988 59.548 129.808 59.7 129.584C59.86 129.36 59.94 129.112 59.94 128.84C59.94 128.512 59.844 128.248 59.652 128.048C59.468 127.848 59.224 127.692 58.92 127.58C58.616 127.46 58.28 127.356 57.912 127.268C57.544 127.18 57.176 127.088 56.808 126.992C56.44 126.888 56.1 126.752 55.788 126.584C55.484 126.416 55.236 126.196 55.044 125.924C54.86 125.644 54.768 125.28 54.768 124.832C54.768 124.416 54.876 124.036 55.092 123.692C55.316 123.34 55.656 123.06 56.112 122.852C56.568 122.636 57.152 122.528 57.864 122.528C58.336 122.528 58.804 122.596 59.268 122.732C59.732 122.86 60.132 123.04 60.468 123.272L60.168 123.98C59.808 123.74 59.424 123.564 59.016 123.452C58.616 123.34 58.228 123.284 57.852 123.284C57.348 123.284 56.932 123.352 56.604 123.488C56.276 123.624 56.032 123.808 55.872 124.04C55.72 124.264 55.644 124.52 55.644 124.808C55.644 125.136 55.736 125.4 55.92 125.6C56.112 125.8 56.36 125.956 56.664 126.068C56.976 126.18 57.316 126.28 57.684 126.368C58.052 126.456 58.416 126.552 58.776 126.656C59.144 126.76 59.48 126.896 59.784 127.064C60.096 127.224 60.344 127.44 60.528 127.712C60.72 127.984 60.816 128.34 60.816 128.78C60.816 129.188 60.704 129.568 60.48 129.92C60.256 130.264 59.912 130.544 59.448 130.76C58.992 130.968 58.404 131.072 57.684 131.072ZM65.1388 131.06C64.5308 131.06 63.9828 130.924 63.4948 130.652C63.0148 130.372 62.6348 129.992 62.3548 129.512C62.0748 129.024 61.9348 128.468 61.9348 127.844C61.9348 127.212 62.0748 126.656 62.3548 126.176C62.6348 125.696 63.0148 125.32 63.4948 125.048C63.9748 124.776 64.5228 124.64 65.1388 124.64C65.7628 124.64 66.3148 124.776 66.7948 125.048C67.2828 125.32 67.6628 125.696 67.9348 126.176C68.2148 126.656 68.3548 127.212 68.3548 127.844C68.3548 128.468 68.2148 129.024 67.9348 129.512C67.6628 129.992 67.2828 130.372 66.7948 130.652C66.3068 130.924 65.7548 131.06 65.1388 131.06ZM65.1388 130.304C65.5948 130.304 65.9988 130.204 66.3508 130.004C66.7028 129.796 66.9788 129.508 67.1788 129.14C67.3868 128.764 67.4908 128.332 67.4908 127.844C67.4908 127.348 67.3868 126.916 67.1788 126.548C66.9788 126.18 66.7028 125.896 66.3508 125.696C65.9988 125.488 65.5988 125.384 65.1508 125.384C64.7028 125.384 64.3028 125.488 63.9508 125.696C63.5988 125.896 63.3188 126.18 63.1108 126.548C62.9028 126.916 62.7988 127.348 62.7988 127.844C62.7988 128.332 62.9028 128.764 63.1108 129.14C63.3188 129.508 63.5988 129.796 63.9508 130.004C64.3028 130.204 64.6988 130.304 65.1388 130.304ZM63.1588 123.716L64.7188 122.588H65.5588L67.1188 123.716H66.3028L64.8028 122.804H65.4748L63.9748 123.716H63.1588ZM66.2308 122.72L67.6828 121.424H68.7148L66.9868 122.72H66.2308ZM75.7429 131.06C75.1429 131.06 74.6029 130.924 74.1229 130.652C73.6509 130.38 73.2789 130.004 73.0069 129.524C72.7349 129.036 72.5989 128.476 72.5989 127.844C72.5989 127.204 72.7349 126.644 73.0069 126.164C73.2789 125.684 73.6509 125.312 74.1229 125.048C74.6029 124.776 75.1429 124.64 75.7429 124.64C76.2949 124.64 76.7869 124.764 77.2189 125.012C77.6589 125.26 78.0069 125.624 78.2629 126.104C78.5269 126.576 78.6589 127.156 78.6589 127.844C78.6589 128.524 78.5309 129.104 78.2749 129.584C78.0189 130.064 77.6709 130.432 77.2309 130.688C76.7989 130.936 76.3029 131.06 75.7429 131.06ZM75.8029 130.304C76.2509 130.304 76.6509 130.204 77.0029 130.004C77.3629 129.796 77.6429 129.508 77.8429 129.14C78.0509 128.764 78.1549 128.332 78.1549 127.844C78.1549 127.348 78.0509 126.916 77.8429 126.548C77.6429 126.18 77.3629 125.896 77.0029 125.696C76.6509 125.488 76.2509 125.384 75.8029 125.384C75.3629 125.384 74.9669 125.488 74.6149 125.696C74.2629 125.896 73.9829 126.18 73.7749 126.548C73.5669 126.916 73.4629 127.348 73.4629 127.844C73.4629 128.332 73.5669 128.764 73.7749 129.14C73.9829 129.508 74.2629 129.796 74.6149 130.004C74.9669 130.204 75.3629 130.304 75.8029 130.304ZM78.1789 131V129.104L78.2629 127.832L78.1429 126.56V122.096H78.9949V131H78.1789ZM75.5029 123.716V123.092H80.1829V123.716H75.5029ZM81.3677 131V124.7H82.2197V131H81.3677ZM81.7997 123.308C81.6237 123.308 81.4757 123.248 81.3557 123.128C81.2357 123.008 81.1757 122.864 81.1757 122.696C81.1757 122.528 81.2357 122.388 81.3557 122.276C81.4757 122.156 81.6237 122.096 81.7997 122.096C81.9757 122.096 82.1237 122.152 82.2437 122.264C82.3637 122.376 82.4237 122.516 82.4237 122.684C82.4237 122.86 82.3637 123.008 82.2437 123.128C82.1317 123.248 81.9837 123.308 81.7997 123.308ZM87.2663 131.06C86.6103 131.06 86.0343 130.924 85.5383 130.652C85.0423 130.372 84.6543 129.992 84.3743 129.512C84.0943 129.024 83.9543 128.468 83.9543 127.844C83.9543 127.22 84.0863 126.668 84.3503 126.188C84.6223 125.708 84.9903 125.332 85.4543 125.06C85.9263 124.78 86.4543 124.64 87.0383 124.64C87.6303 124.64 88.1543 124.776 88.6103 125.048C89.0743 125.312 89.4383 125.688 89.7023 126.176C89.9663 126.656 90.0983 127.212 90.0983 127.844C90.0983 127.884 90.0943 127.928 90.0863 127.976C90.0863 128.016 90.0863 128.06 90.0863 128.108H84.6023V127.472H89.6303L89.2943 127.724C89.2943 127.268 89.1943 126.864 88.9943 126.512C88.8023 126.152 88.5383 125.872 88.2023 125.672C87.8663 125.472 87.4783 125.372 87.0383 125.372C86.6063 125.372 86.2183 125.472 85.8743 125.672C85.5303 125.872 85.2623 126.152 85.0703 126.512C84.8783 126.872 84.7823 127.284 84.7823 127.748V127.88C84.7823 128.36 84.8863 128.784 85.0943 129.152C85.3103 129.512 85.6063 129.796 85.9823 130.004C86.3663 130.204 86.8023 130.304 87.2903 130.304C87.6743 130.304 88.0303 130.236 88.3583 130.1C88.6943 129.964 88.9823 129.756 89.2223 129.476L89.7023 130.028C89.4223 130.364 89.0703 130.62 88.6463 130.796C88.2303 130.972 87.7703 131.06 87.2663 131.06ZM87.0263 133.28C86.8903 133.28 86.7703 133.232 86.6663 133.136C86.5623 133.04 86.5103 132.916 86.5103 132.764C86.5103 132.612 86.5623 132.488 86.6663 132.392C86.7703 132.296 86.8903 132.248 87.0263 132.248C87.1703 132.248 87.2903 132.296 87.3863 132.392C87.4903 132.488 87.5423 132.612 87.5423 132.764C87.5423 132.916 87.4903 133.04 87.3863 133.136C87.2903 133.232 87.1703 133.28 87.0263 133.28ZM85.0463 123.716L86.5943 122.228H87.4583L89.0063 123.716H88.2143L86.6903 122.444H87.3623L85.8383 123.716H85.0463ZM95.0485 124.64C95.5605 124.64 96.0085 124.74 96.3925 124.94C96.7845 125.132 97.0885 125.428 97.3045 125.828C97.5285 126.228 97.6405 126.732 97.6405 127.34V131H96.7885V127.424C96.7885 126.76 96.6205 126.26 96.2845 125.924C95.9565 125.58 95.4925 125.408 94.8925 125.408C94.4445 125.408 94.0525 125.5 93.7165 125.684C93.3885 125.86 93.1325 126.12 92.9485 126.464C92.7725 126.8 92.6845 127.208 92.6845 127.688V131H91.8325V124.7H92.6485V126.428L92.5165 126.104C92.7165 125.648 93.0365 125.292 93.4765 125.036C93.9165 124.772 94.4405 124.64 95.0485 124.64ZM105.075 131.06C104.483 131.06 104.027 130.9 103.707 130.58C103.387 130.26 103.227 129.808 103.227 129.224V123.308H104.079V129.176C104.079 129.544 104.171 129.828 104.355 130.028C104.547 130.228 104.819 130.328 105.171 130.328C105.547 130.328 105.859 130.22 106.107 130.004L106.407 130.616C106.239 130.768 106.035 130.88 105.795 130.952C105.563 131.024 105.323 131.06 105.075 131.06ZM102.099 125.408V124.7H105.999V125.408H102.099ZM111.174 124.64C111.686 124.64 112.134 124.74 112.518 124.94C112.91 125.132 113.214 125.428 113.43 125.828C113.654 126.228 113.766 126.732 113.766 127.34V131H112.914V127.424C112.914 126.76 112.746 126.26 112.41 125.924C112.082 125.58 111.618 125.408 111.018 125.408C110.57 125.408 110.178 125.5 109.842 125.684C109.514 125.86 109.258 126.12 109.074 126.464C108.898 126.8 108.81 127.208 108.81 127.688V131H107.958V122.096H108.81V126.428L108.642 126.104C108.842 125.648 109.162 125.292 109.602 125.036C110.042 124.772 110.566 124.64 111.174 124.64ZM118.635 131.06C118.027 131.06 117.479 130.924 116.991 130.652C116.511 130.372 116.131 129.992 115.851 129.512C115.571 129.024 115.431 128.468 115.431 127.844C115.431 127.212 115.571 126.656 115.851 126.176C116.131 125.696 116.511 125.32 116.991 125.048C117.471 124.776 118.019 124.64 118.635 124.64C119.259 124.64 119.811 124.776 120.291 125.048C120.779 125.32 121.159 125.696 121.431 126.176C121.711 126.656 121.851 127.212 121.851 127.844C121.851 128.468 121.711 129.024 121.431 129.512C121.159 129.992 120.779 130.372 120.291 130.652C119.803 130.924 119.251 131.06 118.635 131.06ZM118.635 130.304C119.091 130.304 119.495 130.204 119.847 130.004C120.199 129.796 120.475 129.508 120.675 129.14C120.883 128.764 120.987 128.332 120.987 127.844C120.987 127.348 120.883 126.916 120.675 126.548C120.475 126.18 120.199 125.896 119.847 125.696C119.495 125.488 119.095 125.384 118.647 125.384C118.199 125.384 117.799 125.488 117.447 125.696C117.095 125.896 116.815 126.18 116.607 126.548C116.399 126.916 116.295 127.348 116.295 127.844C116.295 128.332 116.399 128.764 116.607 129.14C116.815 129.508 117.095 129.796 117.447 130.004C117.799 130.204 118.195 130.304 118.635 130.304ZM127.503 131V129.608L127.467 129.38V127.052C127.467 126.516 127.315 126.104 127.011 125.816C126.715 125.528 126.271 125.384 125.679 125.384C125.271 125.384 124.883 125.452 124.515 125.588C124.147 125.724 123.835 125.904 123.579 126.128L123.195 125.492C123.515 125.22 123.899 125.012 124.347 124.868C124.795 124.716 125.267 124.64 125.763 124.64C126.579 124.64 127.207 124.844 127.647 125.252C128.095 125.652 128.319 126.264 128.319 127.088V131H127.503ZM125.331 131.06C124.859 131.06 124.447 130.984 124.095 130.832C123.751 130.672 123.487 130.456 123.303 130.184C123.119 129.904 123.027 129.584 123.027 129.224C123.027 128.896 123.103 128.6 123.255 128.336C123.415 128.064 123.671 127.848 124.023 127.688C124.383 127.52 124.863 127.436 125.463 127.436H127.635V128.072H125.487C124.879 128.072 124.455 128.18 124.215 128.396C123.983 128.612 123.867 128.88 123.867 129.2C123.867 129.56 124.007 129.848 124.287 130.064C124.567 130.28 124.959 130.388 125.463 130.388C125.943 130.388 126.355 130.28 126.699 130.064C127.051 129.84 127.307 129.52 127.467 129.104L127.659 129.692C127.499 130.108 127.219 130.44 126.819 130.688C126.427 130.936 125.931 131.06 125.331 131.06ZM125.811 133.28C125.675 133.28 125.555 133.232 125.451 133.136C125.347 133.04 125.295 132.916 125.295 132.764C125.295 132.612 125.347 132.488 125.451 132.392C125.555 132.296 125.675 132.248 125.811 132.248C125.955 132.248 126.075 132.296 126.171 132.392C126.275 132.488 126.327 132.612 126.327 132.764C126.327 132.916 126.275 133.04 126.171 133.136C126.075 133.232 125.955 133.28 125.811 133.28ZM130.633 131V124.7H131.485V131H130.633ZM131.065 123.308C130.889 123.308 130.741 123.248 130.621 123.128C130.501 123.008 130.441 122.864 130.441 122.696C130.441 122.528 130.501 122.388 130.621 122.276C130.741 122.156 130.889 122.096 131.065 122.096C131.241 122.096 131.389 122.152 131.509 122.264C131.629 122.376 131.689 122.516 131.689 122.684C131.689 122.86 131.629 123.008 131.509 123.128C131.397 123.248 131.249 123.308 131.065 123.308Z" fill="white"/>
<rect width="36" height="36" transform="translate(12 108)" fill="#01B634"/>
<path d="M39.7167 137C37.1704 137 34.6546 136.445 32.1694 135.334C29.6843 134.224 27.4231 132.65 25.3861 130.614C23.3491 128.577 21.7757 126.316 20.6659 123.831C19.5561 121.345 19.0008 118.83 19 116.283C19 115.917 19.1222 115.611 19.3667 115.367C19.6111 115.122 19.9167 115 20.2833 115H25.2333C25.5185 115 25.7731 115.097 25.9972 115.291C26.2213 115.485 26.3537 115.714 26.3944 115.978L27.1889 120.256C27.2296 120.581 27.2194 120.856 27.1583 121.081C27.0972 121.305 26.9852 121.498 26.8222 121.661L23.8583 124.656C24.2657 125.409 24.7493 126.137 25.3091 126.84C25.8689 127.542 26.4853 128.22 27.1583 128.872C27.7898 129.504 28.4519 130.09 29.1444 130.63C29.837 131.17 30.5704 131.664 31.3444 132.111L34.2167 129.239C34.4 129.056 34.6396 128.918 34.9353 128.826C35.2311 128.734 35.5212 128.708 35.8056 128.75L40.0222 129.606C40.3074 129.687 40.5417 129.835 40.725 130.049C40.9083 130.264 41 130.503 41 130.767V135.717C41 136.083 40.8778 136.389 40.6333 136.633C40.3889 136.878 40.0833 137 39.7167 137ZM22.6972 122.333L24.7139 120.317L24.1944 117.444H21.475C21.5769 118.28 21.7194 119.105 21.9028 119.919C22.0861 120.734 22.3509 121.539 22.6972 122.333ZM33.6361 133.272C34.4306 133.619 35.2405 133.894 36.0659 134.097C36.8913 134.301 37.7212 134.433 38.5556 134.494V131.806L35.6833 131.225L33.6361 133.272Z" fill="white"/>
</g>
<g clip-path="url(#clip3_4822_57879)">
<rect width="220" height="36" transform="translate(48 156)" fill="#28B446"/>
<path d="M59.052 179.072C58.412 179.072 57.82 178.968 57.276 178.76C56.74 178.544 56.272 178.244 55.872 177.86C55.48 177.476 55.172 177.024 54.948 176.504C54.732 175.984 54.624 175.416 54.624 174.8C54.624 174.184 54.732 173.616 54.948 173.096C55.172 172.576 55.484 172.124 55.884 171.74C56.284 171.356 56.752 171.06 57.288 170.852C57.832 170.636 58.424 170.528 59.064 170.528C59.704 170.528 60.288 170.628 60.816 170.828C61.352 171.028 61.808 171.332 62.184 171.74L61.632 172.304C61.28 171.952 60.892 171.7 60.468 171.548C60.044 171.396 59.588 171.32 59.1 171.32C58.58 171.32 58.1 171.408 57.66 171.584C57.228 171.752 56.848 171.996 56.52 172.316C56.2 172.628 55.948 172.996 55.764 173.42C55.588 173.836 55.5 174.296 55.5 174.8C55.5 175.296 55.588 175.756 55.764 176.18C55.948 176.604 56.2 176.976 56.52 177.296C56.848 177.608 57.228 177.852 57.66 178.028C58.1 178.196 58.576 178.28 59.088 178.28C59.568 178.28 60.02 178.208 60.444 178.064C60.876 177.92 61.272 177.676 61.632 177.332L62.136 178.004C61.736 178.356 61.268 178.624 60.732 178.808C60.196 178.984 59.636 179.072 59.052 179.072ZM61.284 177.896V174.8H62.136V178.004L61.284 177.896ZM67.0373 179.06C66.4293 179.06 65.8813 178.924 65.3933 178.652C64.9133 178.372 64.5333 177.992 64.2533 177.512C63.9733 177.024 63.8333 176.468 63.8333 175.844C63.8333 175.212 63.9733 174.656 64.2533 174.176C64.5333 173.696 64.9133 173.32 65.3933 173.048C65.8733 172.776 66.4213 172.64 67.0373 172.64C67.6613 172.64 68.2133 172.776 68.6933 173.048C69.1813 173.32 69.5613 173.696 69.8333 174.176C70.1133 174.656 70.2533 175.212 70.2533 175.844C70.2533 176.468 70.1133 177.024 69.8333 177.512C69.5613 177.992 69.1813 178.372 68.6933 178.652C68.2053 178.924 67.6533 179.06 67.0373 179.06ZM67.0373 178.304C67.4933 178.304 67.8973 178.204 68.2493 178.004C68.6013 177.796 68.8773 177.508 69.0773 177.14C69.2853 176.764 69.3893 176.332 69.3893 175.844C69.3893 175.348 69.2853 174.916 69.0773 174.548C68.8773 174.18 68.6013 173.896 68.2493 173.696C67.8973 173.488 67.4973 173.384 67.0493 173.384C66.6013 173.384 66.2013 173.488 65.8493 173.696C65.4973 173.896 65.2173 174.18 65.0093 174.548C64.8013 174.916 64.6973 175.348 64.6973 175.844C64.6973 176.332 64.8013 176.764 65.0093 177.14C65.2173 177.508 65.4973 177.796 65.8493 178.004C66.2013 178.204 66.5973 178.304 67.0373 178.304ZM74.5607 179.06C73.9527 179.06 73.4047 178.924 72.9167 178.652C72.4367 178.372 72.0567 177.992 71.7767 177.512C71.4967 177.024 71.3567 176.468 71.3567 175.844C71.3567 175.212 71.4967 174.656 71.7767 174.176C72.0567 173.696 72.4367 173.32 72.9167 173.048C73.3967 172.776 73.9447 172.64 74.5607 172.64C75.1847 172.64 75.7367 172.776 76.2167 173.048C76.7047 173.32 77.0847 173.696 77.3567 174.176C77.6367 174.656 77.7767 175.212 77.7767 175.844C77.7767 176.468 77.6367 177.024 77.3567 177.512C77.0847 177.992 76.7047 178.372 76.2167 178.652C75.7287 178.924 75.1767 179.06 74.5607 179.06ZM74.5607 178.304C75.0167 178.304 75.4207 178.204 75.7727 178.004C76.1247 177.796 76.4007 177.508 76.6007 177.14C76.8087 176.764 76.9127 176.332 76.9127 175.844C76.9127 175.348 76.8087 174.916 76.6007 174.548C76.4007 174.18 76.1247 173.896 75.7727 173.696C75.4207 173.488 75.0207 173.384 74.5727 173.384C74.1247 173.384 73.7247 173.488 73.3727 173.696C73.0207 173.896 72.7407 174.18 72.5327 174.548C72.3247 174.916 72.2207 175.348 72.2207 175.844C72.2207 176.332 72.3247 176.764 72.5327 177.14C72.7407 177.508 73.0207 177.796 73.3727 178.004C73.7247 178.204 74.1207 178.304 74.5607 178.304ZM82.2041 181.388C81.6281 181.388 81.0761 181.304 80.5481 181.136C80.0201 180.968 79.5921 180.728 79.2641 180.416L79.6961 179.768C79.9921 180.032 80.3561 180.24 80.7881 180.392C81.2281 180.552 81.6921 180.632 82.1801 180.632C82.9801 180.632 83.5681 180.444 83.9441 180.068C84.3201 179.7 84.5081 179.124 84.5081 178.34V176.768L84.6281 175.688L84.5441 174.608V172.7H85.3601V178.232C85.3601 179.32 85.0921 180.116 84.5561 180.62C84.0281 181.132 83.2441 181.388 82.2041 181.388ZM82.0481 178.76C81.4481 178.76 80.9081 178.632 80.4281 178.376C79.9481 178.112 79.5681 177.748 79.2881 177.284C79.0161 176.82 78.8801 176.288 78.8801 175.688C78.8801 175.088 79.0161 174.56 79.2881 174.104C79.5681 173.64 79.9481 173.28 80.4281 173.024C80.9081 172.768 81.4481 172.64 82.0481 172.64C82.6081 172.64 83.1121 172.756 83.5601 172.988C84.0081 173.22 84.3641 173.564 84.6281 174.02C84.8921 174.476 85.0241 175.032 85.0241 175.688C85.0241 176.344 84.8921 176.9 84.6281 177.356C84.3641 177.812 84.0081 178.16 83.5601 178.4C83.1121 178.64 82.6081 178.76 82.0481 178.76ZM82.1321 178.004C82.5961 178.004 83.0081 177.908 83.3681 177.716C83.7281 177.516 84.0121 177.244 84.2201 176.9C84.4281 176.548 84.5321 176.144 84.5321 175.688C84.5321 175.232 84.4281 174.832 84.2201 174.488C84.0121 174.144 83.7281 173.876 83.3681 173.684C83.0081 173.484 82.5961 173.384 82.1321 173.384C81.6761 173.384 81.2641 173.484 80.8961 173.684C80.5361 173.876 80.2521 174.144 80.0441 174.488C79.8441 174.832 79.7441 175.232 79.7441 175.688C79.7441 176.144 79.8441 176.548 80.0441 176.9C80.2521 177.244 80.5361 177.516 80.8961 177.716C81.2641 177.908 81.6761 178.004 82.1321 178.004ZM87.731 179V170.096H88.583V179H87.731ZM93.6296 179.06C92.9736 179.06 92.3976 178.924 91.9016 178.652C91.4056 178.372 91.0176 177.992 90.7376 177.512C90.4576 177.024 90.3176 176.468 90.3176 175.844C90.3176 175.22 90.4496 174.668 90.7136 174.188C90.9856 173.708 91.3536 173.332 91.8176 173.06C92.2896 172.78 92.8176 172.64 93.4016 172.64C93.9936 172.64 94.5176 172.776 94.9736 173.048C95.4376 173.312 95.8016 173.688 96.0656 174.176C96.3296 174.656 96.4616 175.212 96.4616 175.844C96.4616 175.884 96.4576 175.928 96.4496 175.976C96.4496 176.016 96.4496 176.06 96.4496 176.108H90.9656V175.472H95.9936L95.6576 175.724C95.6576 175.268 95.5576 174.864 95.3576 174.512C95.1656 174.152 94.9016 173.872 94.5656 173.672C94.2296 173.472 93.8416 173.372 93.4016 173.372C92.9696 173.372 92.5816 173.472 92.2376 173.672C91.8936 173.872 91.6256 174.152 91.4336 174.512C91.2416 174.872 91.1456 175.284 91.1456 175.748V175.88C91.1456 176.36 91.2496 176.784 91.4576 177.152C91.6736 177.512 91.9696 177.796 92.3456 178.004C92.7296 178.204 93.1656 178.304 93.6536 178.304C94.0376 178.304 94.3936 178.236 94.7216 178.1C95.0576 177.964 95.3456 177.756 95.5856 177.476L96.0656 178.028C95.7856 178.364 95.4336 178.62 95.0096 178.796C94.5936 178.972 94.1336 179.06 93.6296 179.06ZM101.516 179V170.6H104.936C105.832 170.6 106.616 170.78 107.288 171.14C107.968 171.492 108.496 171.984 108.872 172.616C109.248 173.248 109.436 173.976 109.436 174.8C109.436 175.624 109.248 176.352 108.872 176.984C108.496 177.616 107.968 178.112 107.288 178.472C106.616 178.824 105.832 179 104.936 179H101.516ZM102.404 178.232H104.888C105.632 178.232 106.276 178.088 106.82 177.8C107.372 177.504 107.8 177.1 108.104 176.588C108.408 176.068 108.56 175.472 108.56 174.8C108.56 174.12 108.408 173.524 108.104 173.012C107.8 172.5 107.372 172.1 106.82 171.812C106.276 171.516 105.632 171.368 104.888 171.368H102.404V178.232ZM111.251 179V172.7H112.067V174.416L111.983 174.116C112.159 173.636 112.455 173.272 112.871 173.024C113.287 172.768 113.803 172.64 114.419 172.64V173.468C114.387 173.468 114.355 173.468 114.323 173.468C114.291 173.46 114.259 173.456 114.227 173.456C113.562 173.456 113.043 173.66 112.667 174.068C112.291 174.468 112.103 175.04 112.103 175.784V179H111.251ZM115.973 179V172.7H116.825V179H115.973ZM116.405 171.308C116.229 171.308 116.081 171.248 115.961 171.128C115.841 171.008 115.781 170.864 115.781 170.696C115.781 170.528 115.841 170.388 115.961 170.276C116.081 170.156 116.229 170.096 116.405 170.096C116.581 170.096 116.729 170.152 116.849 170.264C116.969 170.376 117.029 170.516 117.029 170.684C117.029 170.86 116.969 171.008 116.849 171.128C116.737 171.248 116.589 171.308 116.405 171.308ZM120.816 179L118.02 172.7H118.908L121.476 178.544H121.056L123.66 172.7H124.5L121.692 179H120.816ZM128.2 179.06C127.544 179.06 126.968 178.924 126.472 178.652C125.976 178.372 125.588 177.992 125.308 177.512C125.028 177.024 124.888 176.468 124.888 175.844C124.888 175.22 125.02 174.668 125.284 174.188C125.556 173.708 125.924 173.332 126.388 173.06C126.86 172.78 127.388 172.64 127.972 172.64C128.564 172.64 129.088 172.776 129.544 173.048C130.008 173.312 130.372 173.688 130.636 174.176C130.9 174.656 131.032 175.212 131.032 175.844C131.032 175.884 131.028 175.928 131.02 175.976C131.02 176.016 131.02 176.06 131.02 176.108H125.536V175.472H130.564L130.228 175.724C130.228 175.268 130.128 174.864 129.928 174.512C129.736 174.152 129.472 173.872 129.136 173.672C128.8 173.472 128.412 173.372 127.972 173.372C127.54 173.372 127.152 173.472 126.808 173.672C126.464 173.872 126.196 174.152 126.004 174.512C125.812 174.872 125.716 175.284 125.716 175.748V175.88C125.716 176.36 125.82 176.784 126.028 177.152C126.244 177.512 126.54 177.796 126.916 178.004C127.3 178.204 127.736 178.304 128.224 178.304C128.608 178.304 128.964 178.236 129.292 178.1C129.628 177.964 129.916 177.756 130.156 177.476L130.636 178.028C130.356 178.364 130.004 178.62 129.58 178.796C129.164 178.972 128.704 179.06 128.2 179.06Z" fill="white"/>
<rect width="36" height="36" transform="translate(12 156)" fill="white"/>
<path d="M25.453 177.954L25.2391 182.24L21.2572 185.264L17.0801 177.905L25.7908 162.735L29.8703 165.535L30.0054 170.072L29.9679 170.095L25.453 177.954Z" fill="#28B446"/>
<path d="M25.79 162.735L28.2708 173.045L30.0046 170.072L29.8695 164.098L25.79 162.735Z" fill="#219B38"/>
<path d="M34.208 162.735L42.9187 177.905L38.2237 180.28L34.5007 177.927V177.905L30.0046 170.072L25.79 162.735H34.208Z" fill="#FFD837"/>
<path d="M42.9201 177.906L38.7505 185.216L21.2578 185.265L25.4537 177.954L34.5021 177.928L42.9201 177.906Z" fill="#518EF8"/>
<path d="M21.2578 185.265L28.5761 177.943L25.4537 177.954L21.2578 185.265Z" fill="#3A5BBC"/>
<path d="M42.9197 177.905L33.3721 175.931L34.5017 177.927L42.9197 177.905Z" fill="#FBBB00"/>
</g>
<g clip-path="url(#clip4_4822_57879)">
<rect width="220" height="36" transform="translate(48 204)" fill="#EA501F"/>
<path d="M57.684 227.072C57.06 227.072 56.46 226.972 55.884 226.772C55.316 226.564 54.876 226.3 54.564 225.98L54.912 225.296C55.208 225.584 55.604 225.828 56.1 226.028C56.604 226.22 57.132 226.316 57.684 226.316C58.212 226.316 58.64 226.252 58.968 226.124C59.304 225.988 59.548 225.808 59.7 225.584C59.86 225.36 59.94 225.112 59.94 224.84C59.94 224.512 59.844 224.248 59.652 224.048C59.468 223.848 59.224 223.692 58.92 223.58C58.616 223.46 58.28 223.356 57.912 223.268C57.544 223.18 57.176 223.088 56.808 222.992C56.44 222.888 56.1 222.752 55.788 222.584C55.484 222.416 55.236 222.196 55.044 221.924C54.86 221.644 54.768 221.28 54.768 220.832C54.768 220.416 54.876 220.036 55.092 219.692C55.316 219.34 55.656 219.06 56.112 218.852C56.568 218.636 57.152 218.528 57.864 218.528C58.336 218.528 58.804 218.596 59.268 218.732C59.732 218.86 60.132 219.04 60.468 219.272L60.168 219.98C59.808 219.74 59.424 219.564 59.016 219.452C58.616 219.34 58.228 219.284 57.852 219.284C57.348 219.284 56.932 219.352 56.604 219.488C56.276 219.624 56.032 219.808 55.872 220.04C55.72 220.264 55.644 220.52 55.644 220.808C55.644 221.136 55.736 221.4 55.92 221.6C56.112 221.8 56.36 221.956 56.664 222.068C56.976 222.18 57.316 222.28 57.684 222.368C58.052 222.456 58.416 222.552 58.776 222.656C59.144 222.76 59.48 222.896 59.784 223.064C60.096 223.224 60.344 223.44 60.528 223.712C60.72 223.984 60.816 224.34 60.816 224.78C60.816 225.188 60.704 225.568 60.48 225.92C60.256 226.264 59.912 226.544 59.448 226.76C58.992 226.968 58.404 227.072 57.684 227.072ZM65.7868 220.64C66.2988 220.64 66.7468 220.74 67.1308 220.94C67.5228 221.132 67.8268 221.428 68.0428 221.828C68.2668 222.228 68.3788 222.732 68.3788 223.34V227H67.5268V223.424C67.5268 222.76 67.3588 222.26 67.0228 221.924C66.6948 221.58 66.2308 221.408 65.6308 221.408C65.1828 221.408 64.7908 221.5 64.4548 221.684C64.1268 221.86 63.8708 222.12 63.6868 222.464C63.5108 222.8 63.4228 223.208 63.4228 223.688V227H62.5708V218.096H63.4228V222.428L63.2548 222.104C63.4548 221.648 63.7748 221.292 64.2148 221.036C64.6548 220.772 65.1788 220.64 65.7868 220.64ZM73.2482 227.06C72.6402 227.06 72.0922 226.924 71.6042 226.652C71.1242 226.372 70.7442 225.992 70.4642 225.512C70.1842 225.024 70.0442 224.468 70.0442 223.844C70.0442 223.212 70.1842 222.656 70.4642 222.176C70.7442 221.696 71.1242 221.32 71.6042 221.048C72.0842 220.776 72.6322 220.64 73.2482 220.64C73.8722 220.64 74.4242 220.776 74.9042 221.048C75.3922 221.32 75.7722 221.696 76.0442 222.176C76.3242 222.656 76.4642 223.212 76.4642 223.844C76.4642 224.468 76.3242 225.024 76.0442 225.512C75.7722 225.992 75.3922 226.372 74.9042 226.652C74.4162 226.924 73.8642 227.06 73.2482 227.06ZM73.2482 226.304C73.7042 226.304 74.1082 226.204 74.4602 226.004C74.8122 225.796 75.0882 225.508 75.2882 225.14C75.4962 224.764 75.6002 224.332 75.6002 223.844C75.6002 223.348 75.4962 222.916 75.2882 222.548C75.0882 222.18 74.8122 221.896 74.4602 221.696C74.1082 221.488 73.7082 221.384 73.2602 221.384C72.8122 221.384 72.4122 221.488 72.0602 221.696C71.7082 221.896 71.4282 222.18 71.2202 222.548C71.0122 222.916 70.9082 223.348 70.9082 223.844C70.9082 224.332 71.0122 224.764 71.2202 225.14C71.4282 225.508 71.7082 225.796 72.0602 226.004C72.4122 226.204 72.8082 226.304 73.2482 226.304ZM81.4556 227.06C80.9116 227.06 80.4196 226.936 79.9796 226.688C79.5396 226.432 79.1876 226.068 78.9236 225.596C78.6676 225.116 78.5396 224.532 78.5396 223.844C78.5396 223.156 78.6676 222.576 78.9236 222.104C79.1796 221.624 79.5276 221.26 79.9676 221.012C80.4076 220.764 80.9036 220.64 81.4556 220.64C82.0556 220.64 82.5916 220.776 83.0636 221.048C83.5436 221.312 83.9196 221.688 84.1916 222.176C84.4636 222.656 84.5996 223.212 84.5996 223.844C84.5996 224.484 84.4636 225.044 84.1916 225.524C83.9196 226.004 83.5436 226.38 83.0636 226.652C82.5916 226.924 82.0556 227.06 81.4556 227.06ZM78.2036 229.328V220.7H79.0196V222.596L78.9356 223.856L79.0556 225.128V229.328H78.2036ZM81.3956 226.304C81.8436 226.304 82.2436 226.204 82.5956 226.004C82.9476 225.796 83.2276 225.508 83.4356 225.14C83.6436 224.764 83.7476 224.332 83.7476 223.844C83.7476 223.356 83.6436 222.928 83.4356 222.56C83.2276 222.192 82.9476 221.904 82.5956 221.696C82.2436 221.488 81.8436 221.384 81.3956 221.384C80.9476 221.384 80.5436 221.488 80.1836 221.696C79.8316 221.904 79.5516 222.192 79.3436 222.56C79.1436 222.928 79.0436 223.356 79.0436 223.844C79.0436 224.332 79.1436 224.764 79.3436 225.14C79.5516 225.508 79.8316 225.796 80.1836 226.004C80.5436 226.204 80.9476 226.304 81.3956 226.304ZM89.0124 227.06C88.3564 227.06 87.7804 226.924 87.2844 226.652C86.7884 226.372 86.4004 225.992 86.1204 225.512C85.8404 225.024 85.7004 224.468 85.7004 223.844C85.7004 223.22 85.8324 222.668 86.0964 222.188C86.3684 221.708 86.7364 221.332 87.2004 221.06C87.6724 220.78 88.2004 220.64 88.7844 220.64C89.3764 220.64 89.9004 220.776 90.3564 221.048C90.8204 221.312 91.1844 221.688 91.4484 222.176C91.7124 222.656 91.8444 223.212 91.8444 223.844C91.8444 223.884 91.8404 223.928 91.8324 223.976C91.8324 224.016 91.8324 224.06 91.8324 224.108H86.3484V223.472H91.3764L91.0404 223.724C91.0404 223.268 90.9404 222.864 90.7404 222.512C90.5484 222.152 90.2844 221.872 89.9484 221.672C89.6124 221.472 89.2244 221.372 88.7844 221.372C88.3524 221.372 87.9644 221.472 87.6204 221.672C87.2764 221.872 87.0084 222.152 86.8164 222.512C86.6244 222.872 86.5284 223.284 86.5284 223.748V223.88C86.5284 224.36 86.6324 224.784 86.8404 225.152C87.0564 225.512 87.3524 225.796 87.7284 226.004C88.1124 226.204 88.5484 226.304 89.0364 226.304C89.4204 226.304 89.7764 226.236 90.1044 226.1C90.4404 225.964 90.7284 225.756 90.9684 225.476L91.4484 226.028C91.1684 226.364 90.8164 226.62 90.3924 226.796C89.9764 226.972 89.5164 227.06 89.0124 227.06ZM96.2546 227.06C95.5986 227.06 95.0226 226.924 94.5266 226.652C94.0306 226.372 93.6426 225.992 93.3626 225.512C93.0826 225.024 92.9426 224.468 92.9426 223.844C92.9426 223.22 93.0746 222.668 93.3386 222.188C93.6106 221.708 93.9786 221.332 94.4426 221.06C94.9146 220.78 95.4426 220.64 96.0266 220.64C96.6186 220.64 97.1426 220.776 97.5986 221.048C98.0626 221.312 98.4266 221.688 98.6906 222.176C98.9546 222.656 99.0866 223.212 99.0866 223.844C99.0866 223.884 99.0826 223.928 99.0746 223.976C99.0746 224.016 99.0746 224.06 99.0746 224.108H93.5906V223.472H98.6186L98.2826 223.724C98.2826 223.268 98.1826 222.864 97.9826 222.512C97.7906 222.152 97.5266 221.872 97.1906 221.672C96.8546 221.472 96.4666 221.372 96.0266 221.372C95.5946 221.372 95.2066 221.472 94.8626 221.672C94.5186 221.872 94.2506 222.152 94.0586 222.512C93.8666 222.872 93.7706 223.284 93.7706 223.748V223.88C93.7706 224.36 93.8746 224.784 94.0826 225.152C94.2986 225.512 94.5946 225.796 94.9706 226.004C95.3546 226.204 95.7906 226.304 96.2786 226.304C96.6626 226.304 97.0186 226.236 97.3466 226.1C97.6826 225.964 97.9706 225.756 98.2106 225.476L98.6906 226.028C98.4106 226.364 98.0586 226.62 97.6346 226.796C97.2186 226.972 96.7586 227.06 96.2546 227.06Z" fill="white"/>
<rect width="36" height="36" transform="translate(12 204)" fill="white"/>
<path d="M20.3794 216.697H25.2315C25.3795 215.052 25.8359 213.575 26.4938 212.435C27.3656 210.926 28.5991 210 30.0013 210C31.4035 210 32.6288 210.934 33.5088 212.435C34.1667 213.571 34.6231 215.052 34.7712 216.697H39.6192C40.1907 216.697 40.7088 217.166 40.6636 217.742L39.6891 231.326C39.5657 233.029 38.4966 234 36.9423 234H23.0603C21.3333 234 20.4164 232.795 20.3136 231.326L19.3349 217.746C19.2979 217.174 19.8037 216.697 20.3794 216.697ZM26.4445 216.697H33.5458C33.406 215.274 33.0113 214.007 32.452 213.04C31.8065 211.913 30.9306 211.209 30.0013 211.209C29.072 211.209 28.1962 211.913 27.5383 213.048C26.979 214.011 26.5925 215.278 26.4445 216.697Z" fill="#EA501F"/>
<path d="M26.4733 229.242C26.2471 229.086 26.1895 228.785 26.3458 228.559C26.5021 228.333 26.8022 228.275 27.0284 228.432C27.1682 228.53 27.3203 228.625 27.4807 228.724C28.6156 229.415 29.66 229.756 30.5276 229.756C31.313 229.756 31.9504 229.46 32.3575 228.859C32.3821 228.814 32.4109 228.789 32.415 228.769C32.5302 228.584 32.6165 228.382 32.6741 228.189C32.7892 227.79 32.7728 227.378 32.6083 227.004C32.4356 226.609 32.0984 226.231 31.5762 225.914C31.2267 225.7 30.7949 225.515 30.2727 225.371C28.9445 224.997 27.9659 224.47 27.4355 223.758C26.8557 222.977 26.8104 222.039 27.4272 220.895C27.8384 220.142 28.6855 219.669 29.7546 219.587C30.6757 219.517 31.7859 219.735 32.9126 220.311C33.1593 220.434 33.2539 220.73 33.1264 220.973C32.9989 221.216 32.707 221.315 32.4644 221.187C31.5022 220.698 30.5893 220.508 29.8286 220.57C29.1008 220.628 28.5457 220.912 28.3031 221.364C27.8919 222.117 27.896 222.713 28.2332 223.162C28.6197 223.684 29.4256 224.091 30.5482 224.404C31.1527 224.577 31.6708 224.799 32.0943 225.054C32.7974 225.478 33.2662 226.017 33.517 226.597C33.7761 227.197 33.809 227.827 33.6322 228.448C33.554 228.724 33.4307 229.003 33.2662 229.275C33.2292 229.333 33.2004 229.378 33.184 229.411C32.5836 230.295 31.6625 230.731 30.54 230.739C29.4914 230.739 28.2661 230.353 26.9749 229.567C26.8146 229.476 26.646 229.374 26.4733 229.25V229.242Z" fill="white"/>
</g>
<g clip-path="url(#clip5_4822_57879)">
<rect width="220" height="36" transform="translate(48 252)" fill="#908D84"/>
<path d="M55.368 275V266.6H56.256V274.232H60.96V275H55.368ZM64.7647 275.06C64.2287 275.06 63.7607 274.96 63.3607 274.76C62.9607 274.56 62.6487 274.26 62.4247 273.86C62.2087 273.46 62.1007 272.96 62.1007 272.36V268.7H62.9527V272.264C62.9527 272.936 63.1167 273.444 63.4447 273.788C63.7807 274.124 64.2487 274.292 64.8487 274.292C65.2887 274.292 65.6687 274.204 65.9887 274.028C66.3167 273.844 66.5647 273.58 66.7327 273.236C66.9087 272.892 66.9967 272.48 66.9967 272V268.7H67.8487V275H67.0327V273.272L67.1647 273.584C66.9647 274.048 66.6527 274.412 66.2287 274.676C65.8127 274.932 65.3247 275.06 64.7647 275.06ZM67.2607 269.348V268.7H67.4407C67.7207 268.7 67.9207 268.62 68.0407 268.46C68.1687 268.3 68.2327 268.108 68.2327 267.884C68.2327 267.732 68.2087 267.592 68.1607 267.464C68.1207 267.336 68.0647 267.22 67.9927 267.116L68.5567 266.9C68.6527 267.036 68.7287 267.192 68.7847 267.368C68.8407 267.536 68.8687 267.716 68.8687 267.908C68.8687 268.332 68.7487 268.68 68.5087 268.952C68.2687 269.216 67.9127 269.348 67.4407 269.348H67.2607ZM72.7217 275.06C72.1857 275.06 71.7177 274.96 71.3177 274.76C70.9177 274.56 70.6057 274.26 70.3817 273.86C70.1657 273.46 70.0577 272.96 70.0577 272.36V268.7H70.9097V272.264C70.9097 272.936 71.0737 273.444 71.4017 273.788C71.7377 274.124 72.2057 274.292 72.8057 274.292C73.2457 274.292 73.6257 274.204 73.9457 274.028C74.2737 273.844 74.5217 273.58 74.6897 273.236C74.8657 272.892 74.9537 272.48 74.9537 272V268.7H75.8057V275H74.9897V273.272L75.1217 273.584C74.9217 274.048 74.6097 274.412 74.1857 274.676C73.7697 274.932 73.2817 275.06 72.7217 275.06ZM83.8288 275.06C83.2288 275.06 82.6888 274.924 82.2088 274.652C81.7368 274.38 81.3648 274.004 81.0928 273.524C80.8208 273.036 80.6848 272.476 80.6848 271.844C80.6848 271.204 80.8208 270.644 81.0928 270.164C81.3648 269.684 81.7368 269.312 82.2088 269.048C82.6888 268.776 83.2288 268.64 83.8288 268.64C84.3808 268.64 84.8728 268.764 85.3048 269.012C85.7448 269.26 86.0928 269.624 86.3488 270.104C86.6128 270.576 86.7448 271.156 86.7448 271.844C86.7448 272.524 86.6168 273.104 86.3608 273.584C86.1048 274.064 85.7568 274.432 85.3168 274.688C84.8848 274.936 84.3888 275.06 83.8288 275.06ZM83.8888 274.304C84.3368 274.304 84.7368 274.204 85.0888 274.004C85.4488 273.796 85.7288 273.508 85.9288 273.14C86.1368 272.764 86.2408 272.332 86.2408 271.844C86.2408 271.348 86.1368 270.916 85.9288 270.548C85.7288 270.18 85.4488 269.896 85.0888 269.696C84.7368 269.488 84.3368 269.384 83.8888 269.384C83.4488 269.384 83.0528 269.488 82.7008 269.696C82.3488 269.896 82.0688 270.18 81.8608 270.548C81.6528 270.916 81.5488 271.348 81.5488 271.844C81.5488 272.332 81.6528 272.764 81.8608 273.14C82.0688 273.508 82.3488 273.796 82.7008 274.004C83.0528 274.204 83.4488 274.304 83.8888 274.304ZM86.2648 275V273.104L86.3488 271.832L86.2288 270.56V266.096H87.0808V275H86.2648ZM93.4016 275V273.608L93.3656 273.38V271.052C93.3656 270.516 93.2136 270.104 92.9096 269.816C92.6136 269.528 92.1696 269.384 91.5776 269.384C91.1696 269.384 90.7816 269.452 90.4136 269.588C90.0456 269.724 89.7336 269.904 89.4776 270.128L89.0936 269.492C89.4136 269.22 89.7976 269.012 90.2456 268.868C90.6936 268.716 91.1656 268.64 91.6616 268.64C92.4776 268.64 93.1056 268.844 93.5456 269.252C93.9936 269.652 94.2176 270.264 94.2176 271.088V275H93.4016ZM91.2296 275.06C90.7576 275.06 90.3456 274.984 89.9936 274.832C89.6496 274.672 89.3856 274.456 89.2016 274.184C89.0176 273.904 88.9256 273.584 88.9256 273.224C88.9256 272.896 89.0016 272.6 89.1536 272.336C89.3136 272.064 89.5696 271.848 89.9216 271.688C90.2816 271.52 90.7616 271.436 91.3616 271.436H93.5336V272.072H91.3856C90.7776 272.072 90.3536 272.18 90.1136 272.396C89.8816 272.612 89.7656 272.88 89.7656 273.2C89.7656 273.56 89.9056 273.848 90.1856 274.064C90.4656 274.28 90.8576 274.388 91.3616 274.388C91.8416 274.388 92.2536 274.28 92.5976 274.064C92.9496 273.84 93.2056 273.52 93.3656 273.104L93.5576 273.692C93.3976 274.108 93.1176 274.44 92.7176 274.688C92.3256 274.936 91.8296 275.06 91.2296 275.06ZM99.7478 268.64C100.26 268.64 100.708 268.74 101.092 268.94C101.484 269.132 101.788 269.428 102.004 269.828C102.228 270.228 102.34 270.732 102.34 271.34V275H101.488V271.424C101.488 270.76 101.32 270.26 100.984 269.924C100.656 269.58 100.192 269.408 99.5918 269.408C99.1438 269.408 98.7518 269.5 98.4158 269.684C98.0878 269.86 97.8318 270.12 97.6478 270.464C97.4718 270.8 97.3838 271.208 97.3838 271.688V275H96.5318V268.7H97.3478V270.428L97.2158 270.104C97.4158 269.648 97.7358 269.292 98.1758 269.036C98.6158 268.772 99.1398 268.64 99.7478 268.64ZM107.857 268.64C108.369 268.64 108.817 268.74 109.201 268.94C109.593 269.132 109.897 269.428 110.113 269.828C110.337 270.228 110.449 270.732 110.449 271.34V275H109.597V271.424C109.597 270.76 109.429 270.26 109.093 269.924C108.765 269.58 108.301 269.408 107.701 269.408C107.253 269.408 106.861 269.5 106.525 269.684C106.197 269.86 105.941 270.12 105.757 270.464C105.581 270.8 105.493 271.208 105.493 271.688V275H104.641V266.096H105.493V270.428L105.325 270.104C105.525 269.648 105.845 269.292 106.285 269.036C106.725 268.772 107.249 268.64 107.857 268.64ZM119.143 275.06C118.591 275.06 118.095 274.936 117.655 274.688C117.215 274.432 116.867 274.064 116.611 273.584C116.355 273.104 116.227 272.524 116.227 271.844C116.227 271.156 116.355 270.576 116.611 270.104C116.875 269.624 117.227 269.26 117.667 269.012C118.107 268.764 118.599 268.64 119.143 268.64C119.743 268.64 120.279 268.776 120.751 269.048C121.231 269.312 121.607 269.684 121.879 270.164C122.151 270.644 122.287 271.204 122.287 271.844C122.287 272.476 122.151 273.036 121.879 273.524C121.607 274.004 121.231 274.38 120.751 274.652C120.279 274.924 119.743 275.06 119.143 275.06ZM115.891 275V266.096H116.743V270.56L116.623 271.832L116.707 273.104V275H115.891ZM119.083 274.304C119.531 274.304 119.931 274.204 120.283 274.004C120.635 273.796 120.915 273.508 121.123 273.14C121.331 272.764 121.435 272.332 121.435 271.844C121.435 271.348 121.331 270.916 121.123 270.548C120.915 270.18 120.635 269.896 120.283 269.696C119.931 269.488 119.531 269.384 119.083 269.384C118.635 269.384 118.231 269.488 117.871 269.696C117.519 269.896 117.239 270.18 117.031 270.548C116.831 270.916 116.731 271.348 116.731 271.844C116.731 272.332 116.831 272.764 117.031 273.14C117.239 273.508 117.519 273.796 117.871 274.004C118.231 274.204 118.635 274.304 119.083 274.304ZM127.937 275V273.608L127.901 273.38V271.052C127.901 270.516 127.749 270.104 127.445 269.816C127.149 269.528 126.705 269.384 126.113 269.384C125.705 269.384 125.317 269.452 124.949 269.588C124.581 269.724 124.269 269.904 124.013 270.128L123.629 269.492C123.949 269.22 124.333 269.012 124.781 268.868C125.229 268.716 125.701 268.64 126.197 268.64C127.013 268.64 127.641 268.844 128.081 269.252C128.529 269.652 128.753 270.264 128.753 271.088V275H127.937ZM125.765 275.06C125.293 275.06 124.881 274.984 124.529 274.832C124.185 274.672 123.921 274.456 123.737 274.184C123.553 273.904 123.461 273.584 123.461 273.224C123.461 272.896 123.537 272.6 123.689 272.336C123.849 272.064 124.105 271.848 124.457 271.688C124.817 271.52 125.297 271.436 125.897 271.436H128.069V272.072H125.921C125.313 272.072 124.889 272.18 124.649 272.396C124.417 272.612 124.301 272.88 124.301 273.2C124.301 273.56 124.441 273.848 124.721 274.064C125.001 274.28 125.393 274.388 125.897 274.388C126.377 274.388 126.789 274.28 127.133 274.064C127.485 273.84 127.741 273.52 127.901 273.104L128.093 273.692C127.933 274.108 127.653 274.44 127.253 274.688C126.861 274.936 126.365 275.06 125.765 275.06ZM126.245 277.28C126.109 277.28 125.989 277.232 125.885 277.136C125.781 277.04 125.729 276.916 125.729 276.764C125.729 276.612 125.781 276.488 125.885 276.392C125.989 276.296 126.109 276.248 126.245 276.248C126.389 276.248 126.509 276.296 126.605 276.392C126.709 276.488 126.761 276.612 126.761 276.764C126.761 276.916 126.709 277.04 126.605 277.136C126.509 277.232 126.389 277.28 126.245 277.28Z" fill="white"/>
<g clip-path="url(#clip6_4822_57879)">
<path d="M44 288C46.508 288 44.992 288 48 288V279H44V288Z" fill="#49D461"/>
<g filter="url(#filter0_d_4822_57879)">
<path d="M48 269.999H44V278.999H48V269.999Z" fill="#FF9500"/>
</g>
<g filter="url(#filter1_d_4822_57879)">
<path d="M48 261H44V270H48V261Z" fill="#5BC7FC"/>
</g>
<g filter="url(#filter2_d_4822_57879)">
<path d="M48 252C44 252 46.493 252 44 252V261H48L48 252Z" fill="#C5C2BD"/>
</g>
<g filter="url(#filter3_d_4822_57879)">
<rect width="32" height="36" transform="translate(12 252)" fill="#D6D6CC"/>
</g>
<path fill-rule="evenodd" clip-rule="evenodd" d="M23.9814 267.461C23.9814 269.793 25.7846 271.691 28.0007 271.691C30.2168 271.691 32.0199 269.793 32.0199 267.461C32.0199 265.128 30.2168 263.23 28.0007 263.23C25.7846 263.23 23.9814 265.128 23.9814 267.461Z" fill="#A5A198"/>
<path fill-rule="evenodd" clip-rule="evenodd" d="M28 281C21.9348 281 17 276.065 17 270C17 263.935 21.9348 259 28 259C34.0652 259 39 263.935 39 270C39 276.065 34.0652 281 28 281ZM28 259.846C22.401 259.846 17.8462 264.401 17.8462 270C17.8462 272.499 18.7537 274.79 20.2565 276.561C21.0022 275.587 23.2175 273.384 27.9994 273.384C32.7776 273.384 34.9963 275.589 35.7427 276.562C37.246 274.791 38.1538 272.5 38.1538 270C38.1538 264.401 33.599 259.846 28 259.846Z" fill="#A5A198"/>
</g>
</g>
<defs>
<filter id="filter0_d_4822_57879" x="40" y="267.999" width="12" height="17" filterUnits="userSpaceOnUse" color-interpolation-filters="sRGB">
<feFlood flood-opacity="0" result="BackgroundImageFix"/>
<feColorMatrix in="SourceAlpha" type="matrix" values="0 0 0 0 0 0 0 0 0 0 0 0 0 0 0 0 0 0 127 0" result="hardAlpha"/>
<feOffset dy="2"/>
<feGaussianBlur stdDeviation="2"/>
<feComposite in2="hardAlpha" operator="out"/>
<feColorMatrix type="matrix" values="0 0 0 0 0 0 0 0 0 0 0 0 0 0 0 0 0 0 0.39 0"/>
<feBlend mode="normal" in2="BackgroundImageFix" result="effect1_dropShadow_4822_57879"/>
<feBlend mode="normal" in="SourceGraphic" in2="effect1_dropShadow_4822_57879" result="shape"/>
</filter>
<filter id="filter1_d_4822_57879" x="40" y="259" width="12" height="17" filterUnits="userSpaceOnUse" color-interpolation-filters="sRGB">
<feFlood flood-opacity="0" result="BackgroundImageFix"/>
<feColorMatrix in="SourceAlpha" type="matrix" values="0 0 0 0 0 0 0 0 0 0 0 0 0 0 0 0 0 0 127 0" result="hardAlpha"/>
<feOffset dy="2"/>
<feGaussianBlur stdDeviation="2"/>
<feComposite in2="hardAlpha" operator="out"/>
<feColorMatrix type="matrix" values="0 0 0 0 0 0 0 0 0 0 0 0 0 0 0 0 0 0 0.39 0"/>
<feBlend mode="normal" in2="BackgroundImageFix" result="effect1_dropShadow_4822_57879"/>
<feBlend mode="normal" in="SourceGraphic" in2="effect1_dropShadow_4822_57879" result="shape"/>
</filter>
<filter id="filter2_d_4822_57879" x="40" y="250" width="12" height="17" filterUnits="userSpaceOnUse" color-interpolation-filters="sRGB">
<feFlood flood-opacity="0" result="BackgroundImageFix"/>
<feColorMatrix in="SourceAlpha" type="matrix" values="0 0 0 0 0 0 0 0 0 0 0 0 0 0 0 0 0 0 127 0" result="hardAlpha"/>
<feOffset dy="2"/>
<feGaussianBlur stdDeviation="2"/>
<feComposite in2="hardAlpha" operator="out"/>
<feColorMatrix type="matrix" values="0 0 0 0 0 0 0 0 0 0 0 0 0 0 0 0 0 0 0.39 0"/>
<feBlend mode="normal" in2="BackgroundImageFix" result="effect1_dropShadow_4822_57879"/>
<feBlend mode="normal" in="SourceGraphic" in2="effect1_dropShadow_4822_57879" result="shape"/>
</filter>
<filter id="filter3_d_4822_57879" x="11" y="250" width="36" height="40" filterUnits="userSpaceOnUse" color-interpolation-filters="sRGB">
<feFlood flood-opacity="0" result="BackgroundImageFix"/>
<feColorMatrix in="SourceAlpha" type="matrix" values="0 0 0 0 0 0 0 0 0 0 0 0 0 0 0 0 0 0 127 0" result="hardAlpha"/>
<feOffset dx="1"/>
<feGaussianBlur stdDeviation="1"/>
<feComposite in2="hardAlpha" operator="out"/>
<feColorMatrix type="matrix" values="0 0 0 0 0 0 0 0 0 0 0 0 0 0 0 0 0 0 0.39 0"/>
<feBlend mode="normal" in2="BackgroundImageFix" result="effect1_dropShadow_4822_57879"/>
<feBlend mode="normal" in="SourceGraphic" in2="effect1_dropShadow_4822_57879" result="shape"/>
</filter>
<clipPath id="clip0_4822_57879">
<rect x="12" y="12" width="256" height="36" rx="8" fill="white"/>
</clipPath>
<clipPath id="clip1_4822_57879">
<rect x="12" y="60" width="256" height="36" rx="8" fill="white"/>
</clipPath>
<clipPath id="clip2_4822_57879">
<rect x="12" y="108" width="256" height="36" rx="8" fill="white"/>
</clipPath>
<clipPath id="clip3_4822_57879">
<rect x="12" y="156" width="256" height="36" rx="8" fill="white"/>
</clipPath>
<clipPath id="clip4_4822_57879">
<rect x="12" y="204" width="256" height="36" rx="8" fill="white"/>
</clipPath>
<clipPath id="clip5_4822_57879">
<rect x="12" y="252" width="256" height="36" rx="8" fill="white"/>
</clipPath>
<clipPath id="clip6_4822_57879">
<rect width="36" height="36" fill="white" transform="translate(12 252)"/>
</clipPath>
</defs>
</svg>
