<svg width="18" height="18" viewBox="0 0 18 18" fill="none" xmlns="http://www.w3.org/2000/svg">
<path fill-rule="evenodd" clip-rule="evenodd" d="M9 14.25C11.8995 14.25 14.25 11.8995 14.25 9C14.25 6.10051 11.8995 3.75 9 3.75C6.10051 3.75 3.75 6.10051 3.75 9C3.75 11.8995 6.10051 14.25 9 14.25ZM9 15C12.3137 15 15 12.3137 15 9C15 5.68629 12.3137 3 9 3C5.68629 3 3 5.68629 3 9C3 12.3137 5.68629 15 9 15Z" fill="#F2994A"/>
<path d="M8.02439 6.02229C7.93649 6.15385 7.88957 6.30852 7.88957 6.46675C7.88957 6.67892 7.97385 6.8824 8.12388 7.03243C8.27391 7.18246 8.47739 7.26675 8.68957 7.26675C8.84779 7.26675 9.00246 7.21983 9.13402 7.13192C9.26558 7.04402 9.36812 6.91908 9.42867 6.77289C9.48922 6.62671 9.50506 6.46586 9.4742 6.31068C9.44333 6.15549 9.36713 6.01295 9.25525 5.90106C9.14337 5.78918 9.00082 5.71299 8.84564 5.68212C8.69045 5.65125 8.5296 5.66709 8.38342 5.72764C8.23724 5.78819 8.1123 5.89073 8.02439 6.02229Z" fill="#F2994A"/>
<path d="M9.48957 8.86675V10.5007C9.62323 10.5478 9.73595 10.6406 9.80774 10.7627C9.87953 10.8849 9.90578 11.0285 9.88182 11.1682C9.85787 11.3078 9.78526 11.4345 9.67686 11.5258C9.56846 11.617 9.43126 11.667 9.28957 11.6667C9.02435 11.6667 8.77 11.5614 8.58246 11.3739C8.39492 11.1863 8.28957 10.932 8.28957 10.6667V9.03275C8.1559 8.98573 8.04319 8.89292 7.97139 8.77076C7.8996 8.6486 7.87335 8.50497 7.89731 8.36531C7.92126 8.22566 7.99387 8.09898 8.10227 8.00773C8.21067 7.91648 8.34787 7.86654 8.48957 7.86675C8.75478 7.86675 9.00914 7.97211 9.19667 8.15964C9.38421 8.34718 9.48957 8.60153 9.48957 8.86675Z" fill="#F2994A"/>
</svg>
