<svg width="82" height="82" viewBox="0 0 82 82" fill="none" xmlns="http://www.w3.org/2000/svg">
<path d="M40.9655 29.6916C40.9655 28.9114 40.3181 28.2951 39.5381 28.3342C36.426 28.498 33.4074 29.1845 30.5527 30.3937C29.5231 30.8305 28.5325 31.322 27.5731 31.8837C27.1597 32.1255 26.9102 32.578 26.9102 33.0539V48.9293C26.9102 49.4129 27.1597 49.8654 27.5731 50.0994C28.5325 50.6533 29.5309 51.1526 30.5527 51.5817C33.4074 52.7909 36.426 53.4852 39.5381 53.6412C40.3103 53.6802 40.9655 53.0561 40.9655 52.2838V29.6837V29.6916Z" fill="url(#paint0_linear_6363_9622)"/>
<path d="M40.9654 29.6991C40.9654 28.919 40.318 28.3027 39.538 28.3417C36.4259 28.5055 35.7473 29.1921 32.8925 30.4012C31.8629 30.8381 30.8724 31.3296 29.913 31.8835C29.4996 32.1253 29.25 32.5778 29.25 33.0536V48.9212C29.25 49.4049 29.4996 49.8574 29.913 50.0914C30.8724 50.6453 31.8629 51.1446 32.8925 51.5736C35.7473 52.7828 36.4259 53.4693 39.538 53.6332C40.3102 53.6722 40.9654 53.0559 40.9654 52.2758V29.6991Z" fill="url(#paint1_linear_6363_9622)"/>
<mask id="mask0_6363_9622" style="mask-type:luminance" maskUnits="userSpaceOnUse" x="40" y="0" width="42" height="82">
<path d="M81.9999 40.9885C81.9999 63.1829 64.38 81.2582 42.3688 81.9994C41.5966 82.0228 40.9648 81.4065 40.9648 80.6341V69.2288C40.9648 68.4955 41.542 67.8948 42.2674 67.8636C45.4419 67.7154 48.5229 67.0211 51.4322 65.7885C54.6301 64.4311 57.5162 62.4886 59.9887 60.0156C62.4613 57.5426 64.4035 54.664 65.7607 51.4655C67.1646 48.1578 67.8666 44.6395 67.8666 40.9963C67.8666 37.3532 67.1568 33.8426 65.7607 30.5349C64.4035 27.3365 62.4613 24.4578 59.9887 21.9849C57.5162 19.5119 54.6301 17.5694 51.4322 16.212C48.5229 14.9794 45.4419 14.2851 42.2674 14.1369C41.542 14.1057 40.9648 13.505 40.9648 12.7717V1.36633C40.9648 0.594011 41.6044 -0.0300833 42.3688 0.0011214C64.38 0.742234 81.9999 18.8176 81.9999 41.012V40.9885Z" fill="white"/>
</mask>
<g mask="url(#mask0_6363_9622)">
<path d="M67.8276 40.2259C67.8276 40.1167 67.8276 39.9997 67.8198 39.8905C67.8198 39.8827 67.8198 39.8749 67.8198 39.8671C67.8198 39.7578 67.8121 39.6486 67.8043 39.5394C67.8043 39.5394 67.8043 39.5394 67.8043 39.5316C67.8043 39.4224 67.7965 39.321 67.7887 39.2118C67.7887 39.2118 67.7887 39.2039 67.7887 39.1961C67.7887 39.0869 67.773 38.9777 67.7652 38.8763C67.7652 38.8763 67.7652 38.8685 67.7652 38.8607C67.7652 38.7827 67.7496 38.6969 67.7418 38.6189C67.7418 38.5955 67.7418 38.572 67.7418 38.5408V38.5252C67.7262 38.3692 67.7107 38.2132 67.6951 38.0572C67.6951 37.9948 67.6795 37.9323 67.6795 37.8777C67.6795 37.8387 67.6716 37.7997 67.6638 37.7685C67.656 37.6983 67.6482 37.6203 67.6404 37.5501C67.6404 37.5267 67.6326 37.4955 67.6248 37.4643C67.617 37.3863 67.6015 37.3005 67.5937 37.2224C67.5859 37.1522 67.5702 37.082 67.5624 37.0118C67.5468 36.9104 67.5313 36.809 67.5157 36.7076V36.6842C67.5001 36.6217 67.4923 36.5672 67.4845 36.5047C67.4845 36.4891 67.4845 36.4735 67.4845 36.4579C67.4845 36.4345 67.4844 36.4189 67.4766 36.4033C67.4766 36.3799 67.4688 36.3565 67.4688 36.3331C67.4688 36.3331 67.4688 36.3253 67.4688 36.3175C67.4688 36.3019 67.4688 36.2785 67.461 36.2629C67.461 36.2551 67.461 36.2473 67.461 36.2395C67.461 36.2239 67.461 36.2161 67.461 36.2005C67.4454 36.1225 67.4298 36.0445 67.422 35.9742C67.4064 35.904 67.3909 35.826 67.383 35.7558C67.3753 35.7012 67.3596 35.6466 67.3518 35.592C67.3518 35.5764 67.3518 35.5608 67.3518 35.5452C67.3518 35.5296 67.3518 35.5218 67.344 35.5062C67.344 35.4828 67.3362 35.4672 67.3284 35.4438C67.3128 35.3814 67.3051 35.319 67.2895 35.2565C67.2895 35.2487 67.2895 35.2409 67.2895 35.2331C67.2895 35.2331 67.2895 35.2175 67.2895 35.2097C67.2895 35.1941 67.2895 35.1863 67.2816 35.1707C67.2816 35.1551 67.2816 35.1473 67.2738 35.1317C67.266 35.0927 67.2582 35.0459 67.2426 35.0069C67.2426 34.9835 67.2348 34.9601 67.227 34.9367C67.2036 34.8275 67.1802 34.7261 67.149 34.6168C67.1412 34.5856 67.1335 34.5466 67.1257 34.5076C67.1101 34.4374 67.0944 34.3672 67.071 34.297C67.071 34.2814 67.0632 34.2658 67.0554 34.2502C67.0554 34.2502 67.0554 34.2424 67.0554 34.2346C67.0554 34.219 67.0476 34.1956 67.0398 34.18C67.0242 34.1176 66.7981 33.9771 66.7981 33.9771C66.7981 33.9771 66.9774 33.9538 66.9774 33.9381C66.9774 33.9381 66.9774 33.9225 66.9774 33.9147C66.954 33.8289 66.9307 33.7431 66.9073 33.6651C66.8761 33.5637 66.8449 33.4545 66.8215 33.3531C66.8215 33.3453 66.8137 33.3297 66.8137 33.3218C66.8137 33.314 66.8137 33.2984 66.8059 33.2906C66.7825 33.2048 66.7513 33.1112 66.7279 33.0176C66.6967 32.924 66.6655 32.8304 66.6343 32.7368C66.6187 32.6978 66.6109 32.6587 66.5953 32.6119C66.5797 32.5651 66.5718 32.5339 66.5562 32.4871C66.5562 32.4637 66.5407 32.4481 66.5329 32.4247C66.5251 32.4013 66.5173 32.3779 66.5095 32.3545C66.4861 32.2765 66.4549 32.1985 66.4315 32.1205C66.4003 32.0424 66.3769 31.9566 66.3457 31.8786C66.3379 31.8474 66.3223 31.8162 66.3145 31.785C66.2911 31.7304 66.2754 31.6758 66.252 31.6212C66.252 31.6056 66.2365 31.5822 66.2287 31.5666C66.2209 31.5354 66.2053 31.5042 66.1975 31.473C66.1975 31.4574 66.1818 31.4418 66.1818 31.4262C66.174 31.395 66.1585 31.3638 66.1429 31.3326C66.1273 31.2935 66.1117 31.2467 66.0961 31.2077C66.0571 31.1063 66.018 31.0049 65.979 30.9113C65.979 30.9035 65.979 30.8957 65.9712 30.8879C65.94 30.8099 65.9088 30.7241 65.8698 30.646C65.8698 30.6304 65.8621 30.6149 65.8543 30.6071C65.8231 30.529 65.7919 30.451 65.7529 30.373C65.7529 30.3574 65.7373 30.3418 65.7295 30.3262V30.3106C65.6905 30.2248 65.6515 30.139 65.6125 30.0532C65.6125 30.0453 65.6124 30.0376 65.5968 30.022C65.5579 29.9283 65.511 29.8347 65.472 29.7411C65.4486 29.6943 65.4253 29.6475 65.4019 29.5929C65.3785 29.5461 65.3551 29.4993 65.3317 29.4447C65.2849 29.351 65.2458 29.2574 65.1991 29.1638C65.1991 29.1638 65.1991 29.156 65.1991 29.1482C65.1523 29.0624 65.1133 28.9766 65.0665 28.8908C65.0665 28.883 65.0665 28.8752 65.0587 28.8674V28.8596C65.0275 28.7894 64.9885 28.727 64.9573 28.6568C64.9573 28.6412 64.9495 28.6333 64.9417 28.6255C64.9417 28.6099 64.9261 28.6021 64.9261 28.5865C64.8949 28.5241 64.8637 28.4695 64.8325 28.4071C64.8169 28.3759 64.7935 28.3369 64.7779 28.2979C64.7779 28.2901 64.7701 28.2823 64.7623 28.2667C64.7389 28.2277 64.7154 28.1809 64.692 28.1419C64.6686 28.1029 64.6453 28.0561 64.6219 28.0171C64.6063 27.9858 64.5829 27.9546 64.5673 27.9156C64.5673 27.9156 64.5673 27.9156 64.5673 27.9078C64.5517 27.8766 64.5283 27.8376 64.5127 27.8064C64.5049 27.783 64.4893 27.7596 64.4737 27.7362C64.4503 27.6972 64.4347 27.666 64.4113 27.627C64.3879 27.5802 64.3567 27.5334 64.3333 27.4866C64.3255 27.471 64.3176 27.4554 64.3099 27.4397C64.3021 27.4241 64.2943 27.4085 64.2865 27.3929C64.2787 27.3773 64.2709 27.3617 64.2631 27.3461C64.2319 27.2915 64.2007 27.2369 64.1695 27.1823C64.1695 27.1745 64.1617 27.1667 64.1539 27.1589C64.1539 27.1511 64.1383 27.1355 64.1383 27.1277C64.1305 27.1121 64.1149 27.0887 64.107 27.0731C64.0836 27.0341 64.0603 26.9873 64.0291 26.9483L64.0135 26.9171C64.0135 26.9171 64.0057 26.9015 63.9979 26.8937C63.9511 26.8157 63.9043 26.7376 63.8497 26.6596C63.8185 26.6128 63.7951 26.5738 63.7639 26.527C63.7483 26.5036 63.7327 26.4724 63.7171 26.449C63.7015 26.4256 63.6859 26.4022 63.6703 26.3788C63.6547 26.3476 63.6313 26.3164 63.6157 26.293C63.6079 26.2774 63.6001 26.2618 63.5845 26.2462C63.5533 26.1994 63.5299 26.1604 63.4987 26.1136C63.4519 26.0434 63.4051 25.9731 63.3583 25.9029C63.3505 25.8873 63.3349 25.8639 63.3194 25.8483C63.3116 25.8327 63.3037 25.8249 63.2959 25.8093C63.2413 25.7391 63.1945 25.6611 63.1399 25.5909C63.0931 25.5207 63.0385 25.4426 62.9839 25.3724C62.9761 25.3568 62.9683 25.349 62.9527 25.3334C62.9371 25.3178 62.9293 25.3022 62.9216 25.2866C62.867 25.2164 62.8201 25.1462 62.7655 25.076C62.7421 25.037 62.7109 24.998 62.6797 24.959L62.5783 24.8264C62.5783 24.8264 62.5627 24.803 62.5549 24.7952L62.4535 24.6547C62.4535 24.6547 62.4067 24.5923 62.3833 24.5611C62.3287 24.4831 62.2663 24.4129 62.2117 24.3349C62.1961 24.3193 62.1805 24.3037 62.1727 24.2803C62.1103 24.2101 62.0557 24.132 61.9933 24.054C61.9543 24.0072 61.9231 23.9682 61.8841 23.9214C61.8607 23.898 61.8451 23.8746 61.8217 23.8512C61.7983 23.82 61.7672 23.7888 61.7438 23.7576C61.7204 23.7264 61.6969 23.703 61.6735 23.6796C61.6501 23.6484 61.6267 23.625 61.6033 23.5938C61.5877 23.5782 61.5722 23.5548 61.5566 23.5392L61.4708 23.4378C61.4708 23.4378 61.4317 23.3909 61.4083 23.3675L61.3771 23.3285C61.3771 23.3285 61.3616 23.3051 61.346 23.2973C61.2836 23.2271 61.229 23.1569 61.1666 23.0945C61.0964 23.0165 61.0262 22.9385 60.956 22.8605C60.8858 22.7824 60.8155 22.7044 60.7375 22.6264C60.6674 22.5484 60.5971 22.4704 60.5191 22.4002C60.3709 22.2442 60.2228 22.096 60.0746 21.9477C60.0356 21.9087 60.0044 21.8697 59.9654 21.8385C59.9264 21.7995 59.8874 21.7683 59.8562 21.7293C59.7782 21.6591 59.7001 21.5811 59.6299 21.5109C59.5519 21.4407 59.4818 21.3626 59.4038 21.2924C59.3258 21.2222 59.2478 21.152 59.1698 21.074C59.0918 21.0038 59.0138 20.9336 58.9358 20.8634C58.8734 20.8087 58.8032 20.7463 58.7408 20.6917C58.7252 20.6761 58.7096 20.6683 58.7018 20.6527C58.6238 20.5825 58.5458 20.5123 58.46 20.4499C58.382 20.3875 58.3118 20.3251 58.2338 20.2627C58.2182 20.2471 58.1948 20.2315 58.1792 20.2159C58.1324 20.1769 58.0934 20.1456 58.0466 20.1066C58.031 20.0988 58.0232 20.091 58.0154 20.0832C57.9998 20.0754 57.992 20.0676 57.9842 20.052C57.9296 20.0052 57.875 19.9662 57.8204 19.9194C57.797 19.9038 57.7736 19.8804 57.758 19.8648C57.758 19.8648 57.7502 19.857 57.7424 19.8492C57.7034 19.818 57.6566 19.779 57.6098 19.7478C57.5786 19.7244 57.5474 19.701 57.5084 19.6698C57.5006 19.6698 57.4928 19.662 57.485 19.6542C57.3992 19.5918 57.3212 19.5216 57.2354 19.4592C57.1496 19.3967 57.0717 19.3343 56.9859 19.2719C56.9781 19.2719 56.9702 19.2563 56.9624 19.2563C56.8922 19.2017 56.822 19.1549 56.7518 19.1003C56.744 19.1003 56.7362 19.0925 56.7284 19.0847C56.705 19.0691 56.6894 19.0535 56.666 19.0379C56.6426 19.0223 56.627 19.0067 56.6036 18.9911C56.5802 18.9755 56.549 18.9599 56.5256 18.9365C56.51 18.9287 56.5023 18.9209 56.4867 18.9131C56.4789 18.9131 56.471 18.9053 56.4632 18.8975C56.3774 18.8351 56.2917 18.7726 56.1981 18.718C56.1513 18.6868 56.1122 18.6556 56.0654 18.6322C56.0186 18.6088 55.9796 18.5776 55.9328 18.5464C55.9094 18.5308 55.886 18.5152 55.8704 18.4996C55.8548 18.4918 55.847 18.484 55.8314 18.4762C55.8314 18.4762 55.8159 18.4684 55.8081 18.4606C55.7769 18.4372 55.7379 18.4138 55.7067 18.3982C55.6989 18.3982 55.691 18.3904 55.6754 18.3826C55.6676 18.3826 55.652 18.367 55.6442 18.367C55.5662 18.3124 55.4805 18.2656 55.4025 18.211C55.3557 18.1876 55.3166 18.1563 55.2698 18.1329C55.223 18.1017 55.184 18.0783 55.1372 18.0471H55.1217C55.0515 17.9925 54.9813 17.9535 54.9111 17.9145C54.8955 17.9067 54.8798 17.8989 54.8642 17.8833C54.7862 17.8365 54.7161 17.7975 54.6381 17.7507C54.6147 17.7351 54.5912 17.7195 54.5678 17.7117C54.5132 17.6805 54.4665 17.6493 54.4119 17.6259C54.3963 17.6181 54.3806 17.6103 54.365 17.6025C54.3338 17.5869 54.3104 17.5713 54.2792 17.5557C54.2012 17.5089 54.1155 17.4621 54.0297 17.4152C53.9517 17.3762 53.8815 17.3294 53.8035 17.2904C53.7879 17.2826 53.7723 17.2748 53.7489 17.2592C53.6631 17.2124 53.5695 17.1656 53.4759 17.1188C53.4759 17.1188 53.4759 17.1188 53.4681 17.1188C53.3745 17.072 53.2808 17.0252 53.1872 16.9706L52.9689 16.8613C52.9689 16.8613 52.922 16.838 52.8986 16.8302C52.8284 16.799 52.7661 16.7677 52.6959 16.7287C52.6491 16.7053 52.6023 16.6819 52.5555 16.6585C52.5009 16.6351 52.4385 16.6039 52.3839 16.5805C52.3605 16.5727 52.3449 16.5649 52.3215 16.5493C52.2903 16.5337 52.2513 16.5181 52.2201 16.5025C52.2201 16.5025 52.1577 16.4791 52.1343 16.4635C52.1031 16.4479 52.0719 16.4401 52.0407 16.4245C52.0407 16.4245 52.0407 16.4245 52.0329 16.4245C52.0095 16.4167 51.9861 16.4011 51.9627 16.3933C51.8847 16.3621 51.8067 16.3309 51.7365 16.2919C51.7209 16.2919 51.7131 16.2841 51.6975 16.2763C51.6273 16.2451 51.5493 16.2139 51.4791 16.1826C51.4635 16.1826 51.4479 16.1671 51.4401 16.1671C51.4167 16.1593 51.3933 16.1436 51.3621 16.1358C51.3387 16.128 51.3153 16.1124 51.2919 16.1046C51.2451 16.0812 51.1905 16.0656 51.1437 16.0422C51.0501 16.0032 50.9643 15.972 50.8707 15.933C50.8239 15.9096 50.7693 15.894 50.7147 15.8706C50.6835 15.855 50.6602 15.8472 50.629 15.8394C50.6134 15.8394 50.5977 15.8238 50.5743 15.8238C50.5587 15.8238 50.551 15.816 50.5354 15.8082C50.5042 15.7926 50.4652 15.7848 50.434 15.7692C50.3716 15.7458 50.3092 15.7224 50.239 15.699C50.2312 15.699 50.2155 15.6912 50.1999 15.6834C50.1141 15.6522 50.0205 15.621 49.9269 15.5898C49.9269 15.5898 49.9113 15.5898 49.9035 15.5898C49.8099 15.5586 49.7085 15.5196 49.6071 15.4884C49.6071 15.4884 49.5915 15.4883 49.5837 15.4805C49.5057 15.4493 49.42 15.4259 49.342 15.4025C49.3342 15.4025 49.3263 15.3947 49.3107 15.3947H49.3029C49.2093 15.3635 49.1079 15.3323 49.0143 15.3011C49.0143 15.3011 48.9988 15.3011 48.991 15.3011C48.9676 15.2933 48.9441 15.2855 48.9207 15.2777L48.8428 15.2543C48.796 15.2387 48.7414 15.2231 48.6946 15.2075H48.679C48.6556 15.2075 48.6399 15.1919 48.6165 15.1919C48.5385 15.1685 48.4606 15.1451 48.3826 15.1217C48.3358 15.1061 48.2889 15.0983 48.2421 15.0827C48.1875 15.0671 48.133 15.0515 48.0784 15.0359C48.0082 15.0125 47.9302 14.9969 47.8522 14.9735C47.821 14.9735 47.7898 14.9579 47.7664 14.9501C47.7586 14.9501 47.7507 14.9501 47.7351 14.9423C47.7039 14.9345 47.6649 14.9267 47.6337 14.9189C47.5635 14.9033 47.4934 14.8798 47.4154 14.8642C47.3062 14.833 47.1892 14.8096 47.0722 14.7862C46.9708 14.7628 46.8694 14.7394 46.7602 14.716C46.729 14.716 46.7056 14.7004 46.6744 14.7004C46.6588 14.7004 46.651 14.7004 46.6432 14.7004C46.6354 14.7004 46.6198 14.7004 46.612 14.6926C46.5574 14.6848 46.5106 14.6692 46.456 14.6614C46.4482 14.6614 46.4404 14.6614 46.4248 14.6536C46.3156 14.6302 46.2064 14.6146 46.0972 14.5912C46.0036 14.5756 45.9022 14.5522 45.8008 14.5366C45.7228 14.521 45.6448 14.5054 45.559 14.4976C45.5278 14.4976 45.4967 14.4898 45.4733 14.482C45.4421 14.482 45.4109 14.4742 45.3797 14.4664C45.3017 14.4508 45.2158 14.443 45.1378 14.4274C45.0754 14.4196 45.0052 14.4118 44.9428 14.3962C44.8882 14.3884 44.8336 14.3806 44.7712 14.3728C44.6698 14.3572 44.5684 14.3494 44.467 14.3338C44.3968 14.326 44.3266 14.3182 44.2486 14.3104C44.2174 14.3104 44.1862 14.3026 44.1472 14.3026C44.1472 14.3026 44.1472 14.3026 44.1394 14.3026C44.1082 14.3026 44.0848 14.3026 44.0536 14.2948C44.0536 14.2948 44.038 14.2948 44.0302 14.2948C43.96 14.287 43.8899 14.2792 43.8197 14.2714C43.7339 14.2636 43.648 14.2558 43.5544 14.248C43.531 14.248 43.5076 14.248 43.4842 14.248C43.4687 14.248 43.4453 14.248 43.4297 14.248C43.3361 14.2402 43.2502 14.2324 43.1566 14.2246C43.0474 14.2168 42.9305 14.2089 42.8213 14.2011C42.6809 14.1933 42.5405 14.1855 42.4001 14.1777C42.3143 14.1777 42.2363 14.1699 42.1505 13.9359H42.1349C42.0725 14.1621 42.0101 14.1543 41.9477 14.1543C41.9009 14.1543 41.8073 14.326 41.8073 14.326H41.7995C41.7995 14.326 41.7059 14.1465 41.6591 14.1465C41.5967 14.1465 41.4719 13.9359 41.4719 13.9359H41.4251C41.4251 13.9359 41.3159 14.1387 41.2613 14.1387C41.1911 14.1387 41.1209 14.1387 41.0507 14.326H40.8245C39.5843 14.1465 38.3597 14.2089 37.1508 14.326C36.8622 14.3572 36.5814 14.3806 36.2928 14.4118C36.1524 14.4274 36.0042 14.443 35.8638 14.4664C35.7234 14.482 35.583 14.5054 35.4426 14.521C35.31 14.5366 35.1852 14.5522 35.0526 14.5756C35.037 14.5756 35.0292 14.5756 35.0136 14.5756C34.7328 14.6146 34.452 14.6614 34.1712 14.7082C34.0308 14.7316 33.8904 14.755 33.75 14.7784C33.6798 14.794 33.6018 14.8018 33.5316 14.8174C33.4614 14.833 33.3834 14.8409 33.3132 14.8565C33.1338 14.8877 32.9466 14.9267 32.7672 14.9657C32.58 15.0047 32.3928 15.0437 32.2056 15.0827C32.1978 15.0827 32.1901 15.0827 32.1823 15.0827C31.9951 15.1217 31.8001 15.1685 31.6129 15.2153C31.4179 15.2621 31.2229 15.3089 31.0201 15.3557C30.9109 15.3791 30.8016 15.4103 30.6924 15.4415C30.4741 15.4962 30.2557 15.5585 30.0373 15.621C29.9281 15.6522 29.8189 15.6834 29.7097 15.7146C29.6005 15.7458 29.4913 15.777 29.3821 15.8082C29.2729 15.8394 29.1637 15.8706 29.0545 15.9018C28.9531 15.933 28.8439 15.9642 28.7425 15.9954H28.7269C28.6255 16.0344 28.5163 16.0656 28.4071 16.1046C28.3057 16.1358 28.1965 16.1749 28.0873 16.2139C27.9859 16.2451 27.8845 16.2841 27.7831 16.3153C27.7051 16.3387 27.6193 16.3699 27.5413 16.3933C27.4789 16.4167 27.4165 16.4401 27.3463 16.4635C27.0889 16.5493 26.8394 16.6429 26.5898 16.7365C26.5274 16.7599 26.4727 16.7834 26.4103 16.8068C26.3401 16.838 26.27 16.8613 26.1998 16.8847C26.075 16.9316 25.9501 16.9862 25.8253 17.033C25.7551 17.0564 25.685 17.0876 25.6148 17.1188C25.4276 17.1968 25.2404 17.2748 25.0532 17.3528C24.9518 17.3996 24.8425 17.4386 24.7411 17.4855C24.6553 17.5245 24.5696 17.5635 24.476 17.6025C24.1484 17.7507 23.8208 17.8989 23.501 18.0471C23.4074 18.0861 23.3216 18.1329 23.228 18.1797C22.097 18.7258 20.9894 19.3187 19.9208 19.9662C11.9338 24.764 5.71728 32.1985 2.47254 41.0684C1.64575 43.3308 1.01399 45.6867 0.592792 48.1129C0.194999 45.8271 -0.0078125 43.4712 -0.0078125 41.0684C-0.0078125 38.6657 0.194999 36.3097 0.592792 34.0239C3.54114 17.0096 16.9647 3.59155 33.9762 0.6427C36.402 1.06396 38.7653 1.69586 41.0273 2.52279C49.8957 5.76808 57.3368 11.9856 62.1338 19.9662C65.7763 26.0199 67.89 33.0878 67.968 40.6394C67.968 40.5223 67.968 40.4131 67.9602 40.3039L67.8276 40.2259Z" fill="url(#paint2_linear_6363_9622)"/>
<path d="M48.0091 81.4238C45.7237 81.8216 43.3681 82.0245 40.958 82.0245C38.5478 82.0245 36.2 81.8138 33.9069 81.4238C16.8875 78.4827 3.46399 65.0569 0.523438 48.0425C0.94463 45.6163 1.57645 43.2604 2.40323 40.998C5.64798 32.1281 11.8645 24.6936 19.8515 19.8958C20.9201 19.2562 22.0277 18.6555 23.1587 18.1094C23.2445 18.0626 23.338 18.0236 23.4316 17.9768C23.7592 17.8207 24.079 17.6725 24.4066 17.5321C24.4924 17.4931 24.5782 17.4541 24.6718 17.4151C24.7732 17.3683 24.8825 17.3293 24.9839 17.2824C25.1711 17.2044 25.3582 17.1264 25.5454 17.0484C25.6156 17.0172 25.6858 16.9938 25.756 16.9626C25.8808 16.9158 26.0056 16.8612 26.1304 16.8144C26.2006 16.791 26.2708 16.7598 26.341 16.7364C26.4034 16.713 26.458 16.6896 26.5204 16.6661C26.77 16.5725 27.0196 16.4789 27.277 16.3931C27.3394 16.3697 27.4018 16.3463 27.472 16.3229C27.55 16.2917 27.6358 16.2683 27.7138 16.2449C27.8152 16.2059 27.9166 16.1747 28.018 16.1435C28.1272 16.1045 28.2286 16.0733 28.3378 16.0343C28.447 16.003 28.5484 15.964 28.6576 15.9328H28.6732C28.7746 15.8938 28.8837 15.8626 28.9851 15.8314C29.0943 15.8002 29.2036 15.769 29.3128 15.7378C29.422 15.7066 29.5312 15.6754 29.6404 15.6442C29.7495 15.613 29.8587 15.5818 29.9679 15.5506C30.1863 15.4882 30.4047 15.4336 30.6231 15.3711C30.7323 15.3477 30.8415 15.3166 30.9507 15.2853C31.1457 15.2385 31.3407 15.1917 31.5435 15.1449C31.7307 15.0981 31.9257 15.0591 32.1129 15.0123C32.1207 15.0123 32.1285 15.0123 32.1363 15.0123C32.3235 14.9733 32.5107 14.9343 32.6979 14.8953C32.8773 14.8563 33.0567 14.8251 33.2439 14.7861C33.3141 14.7705 33.3921 14.7627 33.4623 14.7471C33.5325 14.7315 33.6105 14.7237 33.6807 14.7081C33.8211 14.6847 33.9615 14.6613 34.1019 14.6379C34.3826 14.5911 34.6635 14.5442 34.9443 14.5052C34.9599 14.5052 34.9676 14.5052 34.9832 14.5052C35.108 14.4896 35.2406 14.4662 35.3732 14.4506C35.5136 14.435 35.6541 14.4116 35.7945 14.396C35.9349 14.3804 36.0752 14.3648 36.2234 14.3414C36.5042 14.3102 36.7928 14.279 37.0814 14.2556C38.228 14.1464 39.3824 14.084 40.5602 14.0762C26.0212 14.3024 14.2746 26.0432 14.0484 40.5846C14.0484 40.6314 14.0484 40.6704 14.0484 40.7172C14.0484 40.8186 14.0484 40.9122 14.0484 41.0137C14.0484 41.1151 14.0484 41.2087 14.0484 41.3101C14.0484 41.3569 14.0484 41.3959 14.0484 41.4427C14.1264 49.0021 16.248 56.0621 19.8827 62.1158C24.6796 70.0965 32.1207 76.314 40.9891 79.5593C43.2511 80.3862 45.6067 81.0181 48.0402 81.4394L48.0091 81.4238Z" fill="url(#paint3_linear_6363_9622)"/>
<path d="M81.9368 41.1543C81.9368 43.5571 81.7262 45.9131 81.3362 48.1988C78.3878 65.2132 64.9642 78.639 47.9449 81.5801C45.5192 81.1588 43.1558 80.5269 40.8938 79.7C32.0254 76.4547 24.5843 70.2371 19.7874 62.2565C16.1527 56.2028 14.0311 49.1349 13.9531 41.5834C14.1793 56.1248 25.9259 67.8656 40.4649 68.0918C40.5117 68.0918 40.5506 68.0918 40.5974 68.0918C40.6988 68.0918 40.7924 68.0918 40.8938 68.0918C40.9952 68.0918 41.0888 68.0918 41.1902 68.0918C41.237 68.0918 41.276 68.0918 41.3228 68.0918C48.8809 68.0138 55.9476 65.8997 62.0003 62.2643C69.9874 57.4666 76.2038 50.0321 79.4486 41.1621C80.2754 38.8998 80.915 36.5438 81.3284 34.1177C81.7262 36.4112 81.929 38.7594 81.929 41.1621L81.9368 41.1543Z" fill="url(#paint4_linear_6363_9622)"/>
<path d="M81.3372 33.9461C80.916 36.38 80.2841 38.7282 79.4574 40.9905C76.2126 49.8605 69.9961 57.295 62.0091 62.0927C55.9564 65.7281 48.8897 67.85 41.3316 67.9202C55.8706 67.694 67.6171 55.9532 67.8433 41.4118C67.8433 41.365 67.8433 41.326 67.8433 41.2792C67.8433 41.1856 67.8433 41.0841 67.8433 40.9827C67.8433 40.8813 67.8433 40.7877 67.8433 40.6863C67.8433 40.6473 67.8433 40.6005 67.8433 40.5537C67.7653 33.0021 65.6516 25.9342 62.0091 19.8805C57.2121 11.8999 49.7789 5.68236 40.9026 2.43707C38.6407 1.61014 36.2851 0.978245 33.8516 0.556981C36.1447 0.159121 38.4925 -0.0437012 40.9026 -0.0437012C43.3128 -0.0437012 45.6605 0.166922 47.9537 0.556981C64.973 3.49803 78.3966 16.9239 81.345 33.9383L81.3372 33.9461Z" fill="url(#paint5_linear_6363_9622)"/>
</g>
<mask id="mask1_6363_9622" style="mask-type:luminance" maskUnits="userSpaceOnUse" x="0" y="3" width="27" height="76">
<path d="M26.9017 64.6305C26.9017 64.1624 26.6599 63.7334 26.2699 63.4759C24.749 62.4774 23.3216 61.315 22.0112 60.0044C19.5386 57.5314 17.5965 54.6528 16.2393 51.4543C14.8432 48.1466 14.1334 44.6283 14.1334 40.9851C14.1334 37.342 14.8432 33.8314 16.2393 30.5237C17.5965 27.3253 19.5386 24.4466 22.0112 21.9658C23.3216 20.6552 24.7412 19.5007 26.2699 18.4943C26.6599 18.2369 26.9017 17.8078 26.9017 17.3397V4.46779C26.9017 3.48484 25.9033 2.82173 24.9986 3.21179C10.3036 9.45274 0 24.0175 0 40.9929C0 57.9683 10.3036 72.5253 24.9986 78.7741C25.9033 79.1563 26.9017 78.4932 26.9017 77.5181V64.6461V64.6305Z" fill="white"/>
</mask>
<g mask="url(#mask1_6363_9622)">
<path d="M67.8276 40.2243C67.8276 40.1151 67.8276 39.9981 67.8198 39.8889C67.8198 39.8811 67.8198 39.8733 67.8198 39.8655C67.8198 39.7563 67.8121 39.647 67.8043 39.5378C67.8043 39.5378 67.8043 39.5378 67.8043 39.53C67.8043 39.4208 67.7965 39.3194 67.7887 39.2102C67.7887 39.2102 67.7887 39.2024 67.7887 39.1946C67.7887 39.0853 67.773 38.9761 67.7652 38.8747C67.7652 38.8747 67.7652 38.8669 67.7652 38.8591C67.7652 38.7811 67.7496 38.6953 67.7418 38.6173C67.7418 38.5939 67.7418 38.5705 67.7418 38.5393V38.5237C67.7262 38.3676 67.7107 38.2116 67.6951 38.0556C67.6951 37.9932 67.6795 37.9308 67.6795 37.8762C67.6795 37.8371 67.6716 37.7982 67.6638 37.7669C67.656 37.6967 67.6482 37.6187 67.6404 37.5485C67.6404 37.5251 67.6326 37.4939 67.6248 37.4627C67.617 37.3847 67.6015 37.2989 67.5937 37.2209C67.5859 37.1506 67.5702 37.0804 67.5624 37.0102C67.5468 36.9088 67.5313 36.8074 67.5157 36.706V36.6826C67.5001 36.6202 67.4923 36.5656 67.4845 36.5032C67.4845 36.4876 67.4845 36.472 67.4845 36.4564C67.4845 36.433 67.4844 36.4173 67.4766 36.4017C67.4766 36.3783 67.4688 36.3549 67.4688 36.3315C67.4688 36.3315 67.4688 36.3237 67.4688 36.3159C67.4688 36.3003 67.4688 36.2769 67.461 36.2613C67.461 36.2535 67.461 36.2457 67.461 36.2379C67.461 36.2223 67.461 36.2145 67.461 36.1989C67.4454 36.1209 67.4298 36.0429 67.422 35.9727C67.4064 35.9025 67.3909 35.8244 67.383 35.7542C67.3753 35.6996 67.3596 35.645 67.3518 35.5904C67.3518 35.5748 67.3518 35.5592 67.3518 35.5436C67.3518 35.528 67.3518 35.5202 67.344 35.5046C67.344 35.4812 67.3362 35.4656 67.3284 35.4422C67.3128 35.3798 67.3051 35.3174 67.2895 35.255C67.2895 35.2472 67.2895 35.2394 67.2895 35.2316C67.2895 35.2316 67.2895 35.216 67.2895 35.2082C67.2895 35.1926 67.2895 35.1847 67.2816 35.1691C67.2816 35.1535 67.2816 35.1457 67.2738 35.1301C67.266 35.0911 67.2582 35.0443 67.2426 35.0053C67.2426 34.9819 67.2348 34.9585 67.227 34.9351C67.2036 34.8259 67.1802 34.7245 67.149 34.6153C67.1412 34.5841 67.1335 34.5451 67.1257 34.5061C67.1101 34.4358 67.0944 34.3656 67.071 34.2954C67.071 34.2798 67.0632 34.2642 67.0554 34.2486C67.0554 34.2486 67.0554 34.2408 67.0554 34.233C67.0554 34.2174 67.0476 34.194 67.0398 34.1784C67.0242 34.116 66.7981 33.9756 66.7981 33.9756C66.7981 33.9756 66.9774 33.9522 66.9774 33.9366C66.9774 33.9366 66.9774 33.921 66.9774 33.9132C66.954 33.8273 66.9307 33.7415 66.9073 33.6635C66.8761 33.5621 66.8449 33.4529 66.8215 33.3515C66.8215 33.3437 66.8137 33.3281 66.8137 33.3203C66.8137 33.3125 66.8137 33.2969 66.8059 33.2891C66.7825 33.2032 66.7513 33.1096 66.7279 33.016C66.6967 32.9224 66.6655 32.8288 66.6343 32.7352C66.6187 32.6962 66.6109 32.6572 66.5953 32.6104C66.5797 32.5635 66.5718 32.5323 66.5562 32.4855C66.5562 32.4621 66.5407 32.4465 66.5329 32.4231C66.5251 32.3997 66.5173 32.3763 66.5095 32.3529C66.4861 32.2749 66.4549 32.1969 66.4315 32.1189C66.4003 32.0409 66.3769 31.9551 66.3457 31.877C66.3379 31.8458 66.3223 31.8146 66.3145 31.7834C66.2911 31.7288 66.2754 31.6742 66.252 31.6196C66.252 31.604 66.2365 31.5806 66.2287 31.565C66.2209 31.5338 66.2053 31.5026 66.1975 31.4714C66.1975 31.4558 66.1818 31.4402 66.1818 31.4246C66.174 31.3934 66.1585 31.3622 66.1429 31.331C66.1273 31.292 66.1117 31.2452 66.0961 31.2061C66.0571 31.1047 66.018 31.0033 65.979 30.9097C65.979 30.9019 65.979 30.8941 65.9712 30.8863C65.94 30.8083 65.9088 30.7225 65.8698 30.6445C65.8698 30.6289 65.8621 30.6133 65.8543 30.6055C65.8231 30.5275 65.7919 30.4494 65.7529 30.3714C65.7529 30.3558 65.7373 30.3402 65.7295 30.3246V30.309C65.6905 30.2232 65.6515 30.1374 65.6125 30.0516C65.6125 30.0438 65.6124 30.036 65.5968 30.0204C65.5579 29.9268 65.511 29.8331 65.472 29.7395C65.4486 29.6927 65.4253 29.6459 65.4019 29.5913C65.3785 29.5445 65.3551 29.4977 65.3317 29.4431C65.2849 29.3495 65.2458 29.2559 65.1991 29.1622C65.1991 29.1622 65.1991 29.1544 65.1991 29.1466C65.1523 29.0608 65.1133 28.975 65.0665 28.8892C65.0665 28.8814 65.0665 28.8736 65.0587 28.8658V28.858C65.0275 28.7878 64.9885 28.7254 64.9573 28.6552C64.9573 28.6396 64.9495 28.6318 64.9417 28.624C64.9417 28.6084 64.9261 28.6005 64.9261 28.5849C64.8949 28.5225 64.8637 28.4679 64.8325 28.4055C64.8169 28.3743 64.7935 28.3353 64.7779 28.2963C64.7779 28.2885 64.7701 28.2807 64.7623 28.2651C64.7389 28.2261 64.7154 28.1793 64.692 28.1403C64.6686 28.1013 64.6453 28.0545 64.6219 28.0155C64.6063 27.9843 64.5829 27.9531 64.5673 27.914C64.5673 27.914 64.5673 27.914 64.5673 27.9062C64.5517 27.875 64.5283 27.836 64.5127 27.8048C64.5049 27.7814 64.4893 27.758 64.4737 27.7346C64.4503 27.6956 64.4347 27.6644 64.4113 27.6254C64.3879 27.5786 64.3567 27.5318 64.3333 27.485C64.3255 27.4694 64.3176 27.4538 64.3099 27.4382C64.3021 27.4226 64.2943 27.407 64.2865 27.3914C64.2787 27.3758 64.2709 27.3602 64.2631 27.3446C64.2319 27.2899 64.2007 27.2353 64.1695 27.1807C64.1695 27.1729 64.1617 27.1651 64.1539 27.1573C64.1539 27.1495 64.1383 27.1339 64.1383 27.1261C64.1305 27.1105 64.1149 27.0871 64.107 27.0715C64.0836 27.0325 64.0603 26.9857 64.0291 26.9467L64.0135 26.9155C64.0135 26.9155 64.0057 26.8999 63.9979 26.8921C63.9511 26.8141 63.9043 26.7361 63.8497 26.658C63.8185 26.6112 63.7951 26.5722 63.7639 26.5254C63.7483 26.502 63.7327 26.4708 63.7171 26.4474C63.7015 26.424 63.6859 26.4006 63.6703 26.3772C63.6547 26.346 63.6313 26.3148 63.6157 26.2914C63.6079 26.2758 63.6001 26.2602 63.5845 26.2446C63.5533 26.1978 63.5299 26.1588 63.4987 26.112C63.4519 26.0418 63.4051 25.9715 63.3583 25.9013C63.3505 25.8857 63.3349 25.8623 63.3194 25.8467C63.3116 25.8311 63.3037 25.8233 63.2959 25.8077C63.2413 25.7375 63.1945 25.6595 63.1399 25.5893C63.0931 25.5191 63.0385 25.4411 62.9839 25.3709C62.9761 25.3553 62.9683 25.3475 62.9527 25.3319C62.9371 25.3163 62.9293 25.3007 62.9216 25.2851C62.867 25.2148 62.8201 25.1446 62.7655 25.0744C62.7421 25.0354 62.7109 24.9964 62.6797 24.9574L62.5783 24.8248C62.5783 24.8248 62.5627 24.8014 62.5549 24.7936L62.4535 24.6532C62.4535 24.6532 62.4067 24.5908 62.3833 24.5595C62.3287 24.4815 62.2663 24.4113 62.2117 24.3333C62.1961 24.3177 62.1805 24.3021 62.1727 24.2787C62.1103 24.2085 62.0557 24.1305 61.9933 24.0525C61.9543 24.0056 61.9231 23.9667 61.8841 23.9198C61.8607 23.8964 61.8451 23.873 61.8217 23.8496C61.7983 23.8184 61.7672 23.7872 61.7438 23.756C61.7204 23.7248 61.6969 23.7014 61.6735 23.678C61.6501 23.6468 61.6267 23.6234 61.6033 23.5922C61.5877 23.5766 61.5722 23.5532 61.5566 23.5376L61.4708 23.4362C61.4708 23.4362 61.4317 23.3893 61.4083 23.3659L61.3771 23.3269C61.3771 23.3269 61.3616 23.3035 61.346 23.2957C61.2836 23.2255 61.229 23.1553 61.1666 23.0929C61.0964 23.0149 61.0262 22.9369 60.956 22.8589C60.8858 22.7809 60.8155 22.7029 60.7375 22.6248C60.6674 22.5468 60.5971 22.4688 60.5191 22.3986C60.3709 22.2426 60.2228 22.0944 60.0746 21.9461C60.0356 21.9071 60.0044 21.8681 59.9654 21.8369C59.9264 21.7979 59.8874 21.7667 59.8562 21.7277C59.7782 21.6575 59.7001 21.5795 59.6299 21.5093C59.5519 21.4391 59.4818 21.3611 59.4038 21.2908C59.3258 21.2206 59.2478 21.1504 59.1698 21.0724C59.0918 21.0022 59.0138 20.932 58.9358 20.8618C58.8734 20.8072 58.8032 20.7448 58.7408 20.6901C58.7252 20.6745 58.7096 20.6667 58.7018 20.6511C58.6238 20.5809 58.5458 20.5107 58.46 20.4483C58.382 20.3859 58.3118 20.3235 58.2338 20.2611C58.2182 20.2455 58.1948 20.2299 58.1792 20.2143C58.1324 20.1753 58.0934 20.1441 58.0466 20.1051C58.031 20.0973 58.0232 20.0895 58.0154 20.0817C57.9998 20.0739 57.992 20.066 57.9842 20.0504C57.9296 20.0036 57.875 19.9646 57.8204 19.9178C57.797 19.9022 57.7736 19.8788 57.758 19.8632C57.758 19.8632 57.7502 19.8554 57.7424 19.8476C57.7034 19.8164 57.6566 19.7774 57.6098 19.7462C57.5786 19.7228 57.5474 19.6994 57.5084 19.6682C57.5006 19.6682 57.4928 19.6604 57.485 19.6526C57.3992 19.5902 57.3212 19.52 57.2354 19.4576C57.1496 19.3952 57.0717 19.3327 56.9859 19.2703C56.9781 19.2703 56.9702 19.2547 56.9624 19.2547C56.8922 19.2001 56.822 19.1533 56.7518 19.0987C56.744 19.0987 56.7362 19.0909 56.7284 19.0831C56.705 19.0675 56.6894 19.0519 56.666 19.0363C56.6426 19.0207 56.627 19.0051 56.6036 18.9895C56.5802 18.9739 56.549 18.9583 56.5256 18.9349C56.51 18.9271 56.5023 18.9193 56.4867 18.9115C56.4789 18.9115 56.471 18.9037 56.4632 18.8959C56.3774 18.8335 56.2917 18.7711 56.1981 18.7164C56.1513 18.6852 56.1122 18.654 56.0654 18.6306C56.0186 18.6072 55.9796 18.576 55.9328 18.5448C55.9094 18.5292 55.886 18.5136 55.8704 18.498C55.8548 18.4902 55.847 18.4824 55.8314 18.4746C55.8314 18.4746 55.8159 18.4668 55.8081 18.459C55.7769 18.4356 55.7379 18.4122 55.7067 18.3966C55.6989 18.3966 55.691 18.3888 55.6754 18.381C55.6676 18.381 55.652 18.3654 55.6442 18.3654C55.5662 18.3108 55.4805 18.264 55.4025 18.2094C55.3557 18.186 55.3166 18.1548 55.2698 18.1314C55.223 18.1002 55.184 18.0768 55.1372 18.0456H55.1217C55.0515 17.9909 54.9813 17.9519 54.9111 17.9129C54.8955 17.9051 54.8798 17.8973 54.8642 17.8817C54.7862 17.8349 54.7161 17.7959 54.6381 17.7491C54.6147 17.7335 54.5912 17.7179 54.5678 17.7101C54.5132 17.6789 54.4665 17.6477 54.4119 17.6243C54.3963 17.6165 54.3806 17.6087 54.365 17.6009C54.3338 17.5853 54.3104 17.5697 54.2792 17.5541C54.2012 17.5073 54.1155 17.4605 54.0297 17.4137C53.9517 17.3747 53.8815 17.3278 53.8035 17.2888C53.7879 17.281 53.7723 17.2732 53.7489 17.2576C53.6631 17.2108 53.5695 17.164 53.4759 17.1172C53.4759 17.1172 53.4759 17.1172 53.4681 17.1172C53.3745 17.0704 53.2808 17.0236 53.1872 16.969L52.9689 16.8598C52.9689 16.8598 52.922 16.8364 52.8986 16.8286C52.8284 16.7974 52.7661 16.7662 52.6959 16.7272C52.6491 16.7037 52.6023 16.6803 52.5555 16.6569C52.5009 16.6335 52.4385 16.6023 52.3839 16.5789C52.3605 16.5711 52.3449 16.5633 52.3215 16.5477C52.2903 16.5321 52.2513 16.5165 52.2201 16.5009C52.2201 16.5009 52.1577 16.4775 52.1343 16.4619C52.1031 16.4463 52.0719 16.4385 52.0407 16.4229C52.0407 16.4229 52.0407 16.4229 52.0329 16.4229C52.0095 16.4151 51.9861 16.3995 51.9627 16.3917C51.8847 16.3605 51.8067 16.3293 51.7365 16.2903C51.7209 16.2903 51.7131 16.2825 51.6975 16.2747C51.6273 16.2435 51.5493 16.2123 51.4791 16.1811C51.4635 16.1811 51.4479 16.1655 51.4401 16.1655C51.4167 16.1577 51.3933 16.1421 51.3621 16.1343C51.3387 16.1265 51.3153 16.1108 51.2919 16.103C51.2451 16.0796 51.1905 16.064 51.1437 16.0406C51.0501 16.0016 50.9643 15.9704 50.8707 15.9314C50.8239 15.908 50.7693 15.8924 50.7147 15.869C50.6835 15.8534 50.6602 15.8456 50.629 15.8378C50.6134 15.8378 50.5977 15.8222 50.5743 15.8222C50.5587 15.8222 50.551 15.8144 50.5354 15.8066C50.5042 15.791 50.4652 15.7832 50.434 15.7676C50.3716 15.7442 50.3092 15.7208 50.239 15.6974C50.2312 15.6974 50.2155 15.6896 50.1999 15.6818C50.1141 15.6506 50.0205 15.6194 49.9269 15.5882C49.9269 15.5882 49.9113 15.5882 49.9035 15.5882C49.8099 15.557 49.7085 15.518 49.6071 15.4868C49.6071 15.4868 49.5915 15.4868 49.5837 15.479C49.5057 15.4478 49.42 15.4243 49.342 15.4009C49.3342 15.4009 49.3263 15.3932 49.3107 15.3932H49.3029C49.2093 15.362 49.1079 15.3307 49.0143 15.2995C49.0143 15.2995 48.9988 15.2995 48.991 15.2995C48.9676 15.2917 48.9441 15.2839 48.9207 15.2761L48.8428 15.2527C48.796 15.2371 48.7414 15.2215 48.6946 15.2059H48.679C48.6556 15.2059 48.6399 15.1903 48.6165 15.1903C48.5385 15.1669 48.4606 15.1435 48.3826 15.1201C48.3358 15.1045 48.2889 15.0967 48.2421 15.0811C48.1875 15.0655 48.133 15.0499 48.0784 15.0343C48.0082 15.0109 47.9302 14.9953 47.8522 14.9719C47.821 14.9719 47.7898 14.9563 47.7664 14.9485C47.7586 14.9485 47.7507 14.9485 47.7351 14.9407C47.7039 14.9329 47.6649 14.9251 47.6337 14.9173C47.5635 14.9017 47.4934 14.8783 47.4154 14.8627C47.3062 14.8315 47.1892 14.808 47.0722 14.7846C46.9708 14.7612 46.8694 14.7378 46.7602 14.7144C46.729 14.7144 46.7056 14.6988 46.6744 14.6988C46.6588 14.6988 46.651 14.6988 46.6432 14.6988C46.6354 14.6988 46.6198 14.6988 46.612 14.691C46.5574 14.6832 46.5106 14.6676 46.456 14.6598C46.4482 14.6598 46.4404 14.6598 46.4248 14.652C46.3156 14.6286 46.2064 14.613 46.0972 14.5896C46.0036 14.574 45.9022 14.5506 45.8008 14.535C45.7228 14.5194 45.6448 14.5038 45.559 14.496C45.5278 14.496 45.4967 14.4882 45.4733 14.4804C45.4421 14.4804 45.4109 14.4726 45.3797 14.4648C45.3017 14.4492 45.2158 14.4414 45.1378 14.4258C45.0754 14.418 45.0052 14.4102 44.9428 14.3946C44.8882 14.3868 44.8336 14.379 44.7712 14.3712C44.6698 14.3556 44.5684 14.3478 44.467 14.3322C44.3968 14.3244 44.3266 14.3166 44.2486 14.3088C44.2174 14.3088 44.1862 14.301 44.1472 14.301C44.1472 14.301 44.1472 14.301 44.1394 14.301C44.1082 14.301 44.0848 14.301 44.0536 14.2932C44.0536 14.2932 44.038 14.2932 44.0302 14.2932C43.96 14.2854 43.8899 14.2776 43.8197 14.2698C43.7339 14.262 43.648 14.2542 43.5544 14.2464C43.531 14.2464 43.5076 14.2464 43.4842 14.2464C43.4687 14.2464 43.4453 14.2464 43.4297 14.2464C43.3361 14.2386 43.2502 14.2308 43.1566 14.223C43.0474 14.2152 42.9305 14.2074 42.8213 14.1996C42.6809 14.1918 42.5405 14.184 42.4001 14.1761C42.3143 14.1761 42.2363 14.1684 42.1505 13.9343H42.1349C42.0725 14.1605 42.0101 14.1527 41.9477 14.1527C41.9009 14.1527 41.8073 14.3244 41.8073 14.3244H41.7995C41.7995 14.3244 41.7059 14.145 41.6591 14.145C41.5967 14.145 41.4719 13.9343 41.4719 13.9343H41.4251C41.4251 13.9343 41.3159 14.1372 41.2613 14.1372C41.1911 14.1372 41.1209 14.1371 41.0507 14.3244H40.8245C39.5843 14.1449 38.3597 14.2074 37.1508 14.3244C36.8622 14.3556 36.5814 14.379 36.2928 14.4102C36.1524 14.4258 36.0042 14.4414 35.8638 14.4648C35.7234 14.4804 35.583 14.5038 35.4426 14.5194C35.31 14.535 35.1852 14.5506 35.0526 14.574C35.037 14.574 35.0292 14.574 35.0136 14.574C34.7328 14.613 34.452 14.6598 34.1712 14.7066C34.0308 14.7301 33.8904 14.7535 33.75 14.7769C33.6798 14.7925 33.6018 14.8003 33.5316 14.8159C33.4614 14.8315 33.3834 14.8393 33.3132 14.8549C33.1338 14.8861 32.9466 14.9251 32.7672 14.9641C32.58 15.0031 32.3928 15.0421 32.2056 15.0811C32.1978 15.0811 32.1901 15.0811 32.1823 15.0811C31.9951 15.1201 31.8001 15.1669 31.6129 15.2137C31.4179 15.2605 31.2229 15.3073 31.0201 15.3541C30.9109 15.3775 30.8016 15.4088 30.6924 15.44C30.4741 15.4946 30.2557 15.557 30.0373 15.6194C29.9281 15.6506 29.8189 15.6818 29.7097 15.713C29.6005 15.7442 29.4913 15.7754 29.3821 15.8066C29.2729 15.8378 29.1637 15.869 29.0545 15.9002C28.9531 15.9314 28.8439 15.9626 28.7425 15.9938H28.7269C28.6255 16.0328 28.5163 16.064 28.4071 16.103C28.3057 16.1342 28.1965 16.1733 28.0873 16.2123C27.9859 16.2435 27.8845 16.2825 27.7831 16.3137C27.7051 16.3371 27.6193 16.3683 27.5413 16.3917C27.4789 16.4151 27.4165 16.4385 27.3463 16.4619C27.0889 16.5477 26.8394 16.6413 26.5898 16.7349C26.5274 16.7583 26.4727 16.7818 26.4103 16.8052C26.3401 16.8364 26.27 16.8598 26.1998 16.8832C26.075 16.93 25.9501 16.9846 25.8253 17.0314C25.7551 17.0548 25.685 17.086 25.6148 17.1172C25.4276 17.1952 25.2404 17.2732 25.0532 17.3512C24.9518 17.398 24.8425 17.4371 24.7411 17.4839C24.6553 17.5229 24.5696 17.5619 24.476 17.6009C24.1484 17.7491 23.8208 17.8973 23.501 18.0456C23.4074 18.0846 23.3216 18.1314 23.228 18.1782C22.097 18.7242 20.9894 19.3171 19.9208 19.9646C11.9338 24.7624 5.71728 32.1969 2.47254 41.0668C1.64575 43.3292 1.01399 45.6851 0.592792 48.1113C0.194999 45.8256 -0.0078125 43.4696 -0.0078125 41.0668C-0.0078125 38.6641 0.194999 36.3081 0.592792 34.0224C3.54114 17.008 16.9647 3.58996 33.9762 0.641113C36.402 1.06238 38.7653 1.69428 41.0273 2.5212C49.8957 5.76649 57.3368 11.984 62.1338 19.9646C65.7763 26.0184 67.89 33.0862 67.968 40.6378C67.968 40.5208 67.968 40.4115 67.9602 40.3023L67.8276 40.2243Z" fill="url(#paint6_linear_6363_9622)"/>
<path d="M48.0091 81.4222C45.7237 81.8201 43.3681 82.0229 40.958 82.0229C38.5478 82.0229 36.2 81.8122 33.9069 81.4222C16.8876 78.4811 3.46399 65.0553 0.523438 48.0409C0.94463 45.6148 1.57645 43.2588 2.40323 40.9965C5.64798 32.1265 11.8645 24.692 19.8515 19.8943C20.9201 19.2546 22.0277 18.6539 23.1587 18.1078C23.2445 18.061 23.338 18.022 23.4316 17.9752C23.7592 17.8192 24.079 17.6709 24.4066 17.5305C24.4924 17.4915 24.5782 17.4525 24.6718 17.4135C24.7732 17.3667 24.8825 17.3277 24.9839 17.2809C25.1711 17.2028 25.3582 17.1248 25.5454 17.0468C25.6156 17.0156 25.6858 16.9922 25.756 16.961C25.8808 16.9142 26.0056 16.8596 26.1304 16.8128C26.2006 16.7894 26.2708 16.7582 26.341 16.7348C26.4034 16.7114 26.458 16.688 26.5204 16.6646C26.77 16.5709 27.0196 16.4774 27.277 16.3915C27.3394 16.3681 27.4018 16.3447 27.472 16.3213C27.55 16.2901 27.6358 16.2667 27.7138 16.2433C27.8152 16.2043 27.9166 16.1731 28.018 16.1419C28.1272 16.1029 28.2286 16.0717 28.3378 16.0327C28.447 16.0015 28.5484 15.9625 28.6576 15.9312H28.6732C28.7746 15.8922 28.8837 15.8611 28.9851 15.8299C29.0943 15.7986 29.2036 15.7674 29.3128 15.7362C29.422 15.705 29.5312 15.6738 29.6404 15.6426C29.7496 15.6114 29.8587 15.5802 29.9679 15.549C30.1863 15.4866 30.4048 15.432 30.6231 15.3696C30.7323 15.3462 30.8415 15.315 30.9507 15.2838C31.1457 15.237 31.3407 15.1902 31.5435 15.1433C31.7307 15.0965 31.9257 15.0575 32.1129 15.0107C32.1207 15.0107 32.1285 15.0107 32.1363 15.0107C32.3235 14.9717 32.5107 14.9327 32.6979 14.8937C32.8773 14.8547 33.0567 14.8235 33.2439 14.7845C33.3141 14.7689 33.3921 14.7611 33.4623 14.7455C33.5325 14.7299 33.6105 14.7221 33.6807 14.7065C33.8211 14.6831 33.9615 14.6597 34.1019 14.6363C34.3827 14.5895 34.6635 14.5426 34.9443 14.5036C34.9599 14.5036 34.9676 14.5036 34.9832 14.5036C35.108 14.488 35.2406 14.4646 35.3732 14.449C35.5136 14.4334 35.6541 14.41 35.7945 14.3944C35.9349 14.3788 36.0752 14.3632 36.2234 14.3398C36.5042 14.3086 36.7928 14.2774 37.0814 14.254C38.228 14.1448 39.3824 14.0824 40.5602 14.0746C26.0212 14.3008 14.2746 26.0416 14.0484 40.583C14.0484 40.6298 14.0484 40.6688 14.0484 40.7156C14.0484 40.817 14.0484 40.9107 14.0484 41.0121C14.0484 41.1135 14.0484 41.2071 14.0484 41.3085C14.0484 41.3553 14.0484 41.3943 14.0484 41.4411C14.1264 49.0005 16.248 56.0605 19.8827 62.1143C24.6796 70.0949 32.1207 76.3124 40.9892 79.5577C43.2511 80.3846 45.6067 81.0165 48.0402 81.4378L48.0091 81.4222Z" fill="url(#paint7_linear_6363_9622)"/>
<path d="M81.9368 41.1527C81.9368 43.5555 81.7262 45.9115 81.3362 48.1972C78.3878 65.2116 64.9642 78.6374 47.9449 81.5785C45.5192 81.1572 43.1558 80.5253 40.8938 79.6984C32.0254 76.4531 24.5843 70.2355 19.7874 62.2549C16.1527 56.2012 14.0311 49.1333 13.9531 41.5818C14.1793 56.1232 25.9259 67.864 40.4649 68.0902C40.5117 68.0902 40.5506 68.0902 40.5974 68.0902C40.6988 68.0902 40.7924 68.0902 40.8938 68.0902C40.9952 68.0902 41.0888 68.0902 41.1902 68.0902C41.237 68.0902 41.276 68.0902 41.3228 68.0902C48.8809 68.0122 55.9476 65.8981 62.0003 62.2627C69.9874 57.465 76.2038 50.0305 79.4486 41.1606C80.2754 38.8982 80.915 36.5423 81.3284 34.1161C81.7262 36.4096 81.929 38.7578 81.929 41.1606L81.9368 41.1527Z" fill="url(#paint8_linear_6363_9622)"/>
</g>
<defs>
<linearGradient id="paint0_linear_6363_9622" x1="24.266" y1="40.9877" x2="38.2902" y2="40.9877" gradientUnits="userSpaceOnUse">
<stop stop-color="#231F20"/>
<stop offset="0.04" stop-color="#2D292A"/>
<stop offset="0.31" stop-color="#777475"/>
<stop offset="0.55" stop-color="#B1B0B0"/>
<stop offset="0.75" stop-color="#DBDADB"/>
<stop offset="0.91" stop-color="#F5F5F5"/>
<stop offset="1" stop-color="white"/>
</linearGradient>
<linearGradient id="paint1_linear_6363_9622" x1="54.935" y1="40.9874" x2="27.3546" y2="40.9874" gradientUnits="userSpaceOnUse">
<stop stop-color="#231F20"/>
<stop offset="0.09" stop-color="#2A2728"/>
<stop offset="0.24" stop-color="#403D3E"/>
<stop offset="0.42" stop-color="#646162"/>
<stop offset="0.63" stop-color="#959494"/>
<stop offset="0.86" stop-color="#D4D3D3"/>
<stop offset="1" stop-color="white"/>
</linearGradient>
<linearGradient id="paint2_linear_6363_9622" x1="1.58336" y1="36.3565" x2="57.9704" y2="18.0371" gradientUnits="userSpaceOnUse">
<stop stop-color="white"/>
<stop offset="0.5" stop-color="white"/>
<stop offset="0.57" stop-color="#FAFAFA"/>
<stop offset="0.65" stop-color="#ECECEC"/>
<stop offset="0.73" stop-color="#D5D5D6"/>
<stop offset="0.82" stop-color="#B5B6B6"/>
<stop offset="0.91" stop-color="#8C8D8E"/>
<stop offset="1" stop-color="#58595B"/>
</linearGradient>
<linearGradient id="paint3_linear_6363_9622" x1="17.1137" y1="23.8276" x2="45.3653" y2="93.7463" gradientUnits="userSpaceOnUse">
<stop stop-color="#58595B"/>
<stop offset="0.09" stop-color="#8A8B8C"/>
<stop offset="0.19" stop-color="#BCBCBD"/>
<stop offset="0.27" stop-color="#E0E0E1"/>
<stop offset="0.34" stop-color="#F6F6F7"/>
<stop offset="0.39" stop-color="white"/>
<stop offset="1" stop-color="white"/>
</linearGradient>
<linearGradient id="paint4_linear_6363_9622" x1="23.508" y1="62.6232" x2="85.0883" y2="53.9745" gradientUnits="userSpaceOnUse">
<stop stop-color="#58595B"/>
<stop offset="0.09" stop-color="#8A8B8C"/>
<stop offset="0.19" stop-color="#BCBCBD"/>
<stop offset="0.27" stop-color="#E0E0E1"/>
<stop offset="0.34" stop-color="#F6F6F7"/>
<stop offset="0.39" stop-color="white"/>
<stop offset="1" stop-color="white"/>
</linearGradient>
<linearGradient id="paint5_linear_6363_9622" x1="64.466" y1="59.9084" x2="43.4078" y2="-4.88615" gradientUnits="userSpaceOnUse">
<stop stop-color="#58595B"/>
<stop offset="0.09" stop-color="#8A8B8C"/>
<stop offset="0.19" stop-color="#BCBCBD"/>
<stop offset="0.27" stop-color="#E0E0E1"/>
<stop offset="0.34" stop-color="#F6F6F7"/>
<stop offset="0.39" stop-color="white"/>
<stop offset="1" stop-color="white"/>
</linearGradient>
<linearGradient id="paint6_linear_6363_9622" x1="1.58336" y1="36.3549" x2="57.9704" y2="18.0355" gradientUnits="userSpaceOnUse">
<stop stop-color="white"/>
<stop offset="0.5" stop-color="white"/>
<stop offset="0.57" stop-color="#FAFAFA"/>
<stop offset="0.65" stop-color="#ECECEC"/>
<stop offset="0.73" stop-color="#D5D5D6"/>
<stop offset="0.82" stop-color="#B5B6B6"/>
<stop offset="0.91" stop-color="#8C8D8E"/>
<stop offset="1" stop-color="#58595B"/>
</linearGradient>
<linearGradient id="paint7_linear_6363_9622" x1="17.1137" y1="23.8261" x2="45.3653" y2="93.7447" gradientUnits="userSpaceOnUse">
<stop stop-color="#58595B"/>
<stop offset="0.09" stop-color="#8A8B8C"/>
<stop offset="0.19" stop-color="#BCBCBD"/>
<stop offset="0.27" stop-color="#E0E0E1"/>
<stop offset="0.34" stop-color="#F6F6F7"/>
<stop offset="0.39" stop-color="white"/>
<stop offset="1" stop-color="white"/>
</linearGradient>
<linearGradient id="paint8_linear_6363_9622" x1="23.508" y1="62.6216" x2="85.0883" y2="53.973" gradientUnits="userSpaceOnUse">
<stop stop-color="#58595B"/>
<stop offset="0.09" stop-color="#8A8B8C"/>
<stop offset="0.19" stop-color="#BCBCBD"/>
<stop offset="0.27" stop-color="#E0E0E1"/>
<stop offset="0.34" stop-color="#F6F6F7"/>
<stop offset="0.39" stop-color="white"/>
<stop offset="1" stop-color="white"/>
</linearGradient>
</defs>
</svg>
