<svg width="20" height="20" viewBox="0 0 20 20" fill="none" xmlns="http://www.w3.org/2000/svg">
<path d="M16.249 10.625L3.74902 10.625C3.58326 10.625 3.42429 10.5592 3.30708 10.4419C3.18987 10.3247 3.12402 10.1658 3.12402 10C3.12402 9.83424 3.18987 9.67527 3.30708 9.55806C3.42429 9.44085 3.58326 9.375 3.74902 9.375L16.249 9.375C16.4148 9.375 16.5738 9.44085 16.691 9.55806C16.8082 9.67527 16.874 9.83424 16.874 10C16.874 10.1658 16.8082 10.3247 16.691 10.4419C16.5738 10.5592 16.4148 10.625 16.249 10.625Z" fill="white"/>
<path d="M15.9901 10.0002L10.8064 4.81769C10.689 4.70033 10.6231 4.54116 10.6231 4.37519C10.6231 4.20922 10.689 4.05005 10.8064 3.93269C10.9237 3.81533 11.0829 3.7494 11.2489 3.7494C11.4149 3.7494 11.574 3.81533 11.6914 3.93269L17.3164 9.55769C17.3746 9.61574 17.4208 9.68471 17.4523 9.76065C17.4838 9.83658 17.5 9.91798 17.5 10.0002C17.5 10.0824 17.4838 10.1638 17.4523 10.2397C17.4208 10.3157 17.3746 10.3846 17.3164 10.4427L11.6914 16.0677C11.574 16.185 11.4149 16.251 11.2489 16.251C11.0829 16.251 10.9237 16.185 10.8064 16.0677C10.689 15.9503 10.6231 15.7912 10.6231 15.6252C10.6231 15.4592 10.689 15.3 10.8064 15.1827L15.9901 10.0002Z" fill="white"/>
</svg>
