<svg width="24" height="24" viewBox="0 0 24 24" fill="none" xmlns="http://www.w3.org/2000/svg">
<g opacity="0.6">
<path fill-rule="evenodd" clip-rule="evenodd" d="M22.1523 3.26305C22.5428 3.65357 22.5428 4.28674 22.1523 4.67726L4.67839 22.1511C4.28787 22.5417 3.6547 22.5417 3.26418 22.1511C2.87365 21.7606 2.87365 21.1274 3.26418 20.7369L20.7381 3.26305C21.1286 2.87252 21.7617 2.87252 22.1523 3.26305Z" fill="white"/>
<path fill-rule="evenodd" clip-rule="evenodd" d="M14.1151 9.88432C13.5702 9.33962 12.8203 9 12 9C11.206 9.00524 10.4459 9.32299 9.88447 9.88447C9.32299 10.4459 9.00524 11.206 9 12C9 12.8208 9.33937 13.5707 9.88395 14.1154L14.1151 9.88432Z" fill="white"/>
<path fill-rule="evenodd" clip-rule="evenodd" d="M10.7204 18.9354C11.129 18.9776 11.5551 19 11.9993 19C19.6323 19 21.9263 12.383 21.9473 12.316L22.0533 12L21.9483 11.684C21.9391 11.6561 21.5354 10.4906 20.5151 9.14063L19.1041 10.5516C19.5241 11.149 19.7856 11.6788 19.9253 12C19.4432 13.1078 17.5243 16.6717 12.6769 16.9788L10.7204 18.9354ZM7.91432 16.0846C5.51319 14.8726 4.41956 12.796 4.07331 12C4.57731 10.842 6.65131 7 11.9993 7C13.6593 7 15.0038 7.37011 16.0838 7.91515L17.5464 6.45254C16.1295 5.60574 14.3088 5 11.9993 5C4.36631 5 2.07231 11.617 2.05131 11.684L1.94531 12L2.05031 12.316C2.06566 12.3627 3.18603 15.5952 6.45175 17.5472L7.91432 16.0846Z" fill="white"/>
</g>
</svg>
