<svg width="24" height="24" viewBox="0 0 24 24" fill="none" xmlns="http://www.w3.org/2000/svg">
<path fill-rule="evenodd" clip-rule="evenodd" d="M9 2.25C9.41421 2.25 9.75 2.58579 9.75 3V4.5C9.75 4.91421 9.41421 5.25 9 5.25C8.58579 5.25 8.25 4.91421 8.25 4.5V3C8.25 2.58579 8.58579 2.25 9 2.25ZM2.25 9C2.25 8.58579 2.58579 8.25 3 8.25H4.5C4.91421 8.25 5.25 8.58579 5.25 9C5.25 9.41421 4.91421 9.75 4.5 9.75H3C2.58579 9.75 2.25 9.41421 2.25 9ZM18.75 15C18.75 14.5858 19.0858 14.25 19.5 14.25H21C21.4142 14.25 21.75 14.5858 21.75 15C21.75 15.4142 21.4142 15.75 21 15.75H19.5C19.0858 15.75 18.75 15.4142 18.75 15ZM15 18.75C15.4142 18.75 15.75 19.0858 15.75 19.5V21C15.75 21.4142 15.4142 21.75 15 21.75C14.5858 21.75 14.25 21.4142 14.25 21V19.5C14.25 19.0858 14.5858 18.75 15 18.75Z" fill="white"/>
<path fill-rule="evenodd" clip-rule="evenodd" d="M13.9425 4.27188C15.5766 2.63775 18.2129 2.55125 19.8303 4.16935C21.4488 5.78666 21.3624 8.42328 19.7281 10.0575L15.9958 13.7899C15.7156 14.07 15.2614 14.07 14.9812 13.7899C14.7011 13.5097 14.7011 13.0555 14.9812 12.7753L18.7136 9.043C19.8284 7.92823 19.8338 6.20121 18.8161 5.18426L18.8157 5.18389C17.7988 4.16621 16.0718 4.17165 14.957 5.28643L11.2247 9.01876C10.9445 9.29892 10.4903 9.29892 10.2101 9.01876C9.92996 8.73861 9.92996 8.28438 10.2101 8.00422L13.9425 4.27188Z" fill="white"/>
<path fill-rule="evenodd" clip-rule="evenodd" d="M10.0575 19.7281C8.42341 21.3623 5.78706 21.4487 4.16972 19.8306C2.55124 18.2133 2.63762 15.5767 4.27188 13.9425L8.00422 10.2101C8.28438 9.92996 8.73861 9.92996 9.01876 10.2101C9.29892 10.4903 9.29892 10.9445 9.01876 11.2247L5.28643 14.957C4.17165 16.0718 4.16621 17.7988 5.18389 18.8157L5.18426 18.8161C6.20121 19.8338 7.92822 19.8284 9.043 18.7136L12.7753 14.9812C13.0555 14.7011 13.5097 14.7011 13.7899 14.9812C14.07 15.2614 14.07 15.7156 13.7899 15.9958L10.0575 19.7281Z" fill="white"/>
</svg>
