<svg width="24" height="24" viewBox="0 0 24 24" fill="none" xmlns="http://www.w3.org/2000/svg">
<path fill-rule="evenodd" clip-rule="evenodd" d="M11.9979 4.17875C13.3381 4.17875 14.4246 5.1023 14.4246 6.24155V6.53696H10.2092V8.53696H14.4246V8.89374C14.4246 9.21924 14.735 9.48311 15.1179 9.48311C15.5008 9.48311 15.8112 9.21924 15.8112 8.89374V6.24155C15.8112 4.45129 14.104 3 11.9979 3C9.8919 3 8.18462 4.45129 8.18462 6.24155V6.53696H7.75673C6.20167 6.53696 4.90439 7.72523 4.76825 9.27433L4.02444 17.738C3.87032 19.4918 5.25241 21.0006 7.01292 21.0006H16.9868C18.7474 21.0006 20.1295 19.4918 19.9753 17.738L19.2315 9.27433C19.1014 7.7942 17.9113 6.64348 16.4491 6.54396V8.55827C16.8719 8.64699 17.2 9.00332 17.2392 9.44942L17.983 17.9131C18.0344 18.4977 17.5737 19.0006 16.9868 19.0006H7.01292C6.42609 19.0006 5.96539 18.4977 6.01676 17.9131L6.76057 9.44942C6.80595 8.93305 7.23838 8.53696 7.75673 8.53696H8.18462V8.89374C8.18462 9.21924 8.49503 9.48311 8.87795 9.48311C9.26086 9.48311 9.57128 9.21924 9.57128 8.89374V6.24155C9.57128 5.1023 10.6577 4.17875 11.9979 4.17875Z" fill="white"/>
</svg>
