<svg width="18" height="18" viewBox="0 0 18 18" fill="none" xmlns="http://www.w3.org/2000/svg">
<path fill-rule="evenodd" clip-rule="evenodd" d="M2.90901 5.15901C3.33097 4.73705 3.90326 4.5 4.5 4.5H5.25C5.66421 4.5 6 4.83579 6 5.25C6 5.66421 5.66421 6 5.25 6H4.5C4.30109 6 4.11032 6.07902 3.96967 6.21967C3.82902 6.36032 3.75 6.55109 3.75 6.75V13.5C3.75 13.6989 3.82902 13.8897 3.96967 14.0303C4.11032 14.171 4.30109 14.25 4.5 14.25H11.25C11.4489 14.25 11.6397 14.171 11.7803 14.0303C11.921 13.8897 12 13.6989 12 13.5V12.75C12 12.3358 12.3358 12 12.75 12C13.1642 12 13.5 12.3358 13.5 12.75V13.5C13.5 14.0967 13.2629 14.669 12.841 15.091C12.419 15.5129 11.8467 15.75 11.25 15.75H4.5C3.90326 15.75 3.33097 15.5129 2.90901 15.091C2.48705 14.669 2.25 14.0967 2.25 13.5V6.75C2.25 6.15326 2.48705 5.58097 2.90901 5.15901Z" fill="white"/>
<path fill-rule="evenodd" clip-rule="evenodd" d="M12.5315 2.1803C12.9675 1.74462 13.5586 1.49988 14.175 1.49988C14.7916 1.49988 15.383 1.74484 15.8191 2.18088C16.2551 2.61692 16.5001 3.20831 16.5001 3.82496C16.5001 4.44132 16.2553 5.03245 15.8197 5.46843C15.8195 5.46863 15.8193 5.46884 15.8191 5.46904L14.8715 6.42001C14.8452 6.45889 14.8148 6.49585 14.7803 6.53029C14.7465 6.56407 14.7103 6.59396 14.6723 6.61995L9.53128 11.7793C9.39055 11.9206 9.19938 12 9 12H6.75C6.33579 12 6 11.6642 6 11.25V8.99996C6 8.80058 6.07939 8.60941 6.22062 8.46868L11.38 3.32769C11.406 3.28962 11.4359 3.25341 11.4697 3.21963C11.5041 3.18519 11.5411 3.15479 11.58 3.12845L12.5309 2.18088C12.5311 2.18068 12.5313 2.18049 12.5315 2.1803ZM12.0084 4.81905L7.5 9.3114V10.5H8.68856L13.1809 5.99153L12.0084 4.81905ZM14.2397 4.92898L13.071 3.76028L13.5916 3.24154C13.7463 3.08681 13.9562 2.99988 14.175 2.99988C14.3938 2.99988 14.6037 3.08681 14.7584 3.24154C14.9132 3.39627 15.0001 3.60613 15.0001 3.82496C15.0001 4.04378 14.9132 4.25365 14.7584 4.40838L14.2397 4.92898Z" fill="white"/>
</svg>
