<svg width="24" height="24" viewBox="0 0 24 24" fill="none" xmlns="http://www.w3.org/2000/svg">
<g filter="url(#filter0_b_5649_38925)">
<rect x="0.5" y="0.5" width="23" height="23" rx="5.5" stroke="white" stroke-dasharray="4 4"/>
<path fill-rule="evenodd" clip-rule="evenodd" d="M12.7539 13.8795L12.7539 17.4543C12.7539 17.7911 12.4185 18.0637 12.0039 18.0637C11.5893 18.0637 11.2539 17.7905 11.2539 17.4543V12.5479C11.2539 12.5435 11.254 12.5391 11.2541 12.5347L11.2541 6.66071C11.2541 6.58231 11.2735 6.50468 11.3112 6.43225C11.3489 6.35982 11.4041 6.29401 11.4738 6.23857C11.5434 6.18314 11.6261 6.13916 11.7171 6.10916C11.8081 6.07916 11.9056 6.06372 12.0041 6.06372C12.1026 6.06372 12.2001 6.07916 12.2911 6.10916C12.3821 6.13916 12.4648 6.18314 12.5344 6.23857C12.6041 6.29401 12.6593 6.35982 12.697 6.43225C12.7347 6.50468 12.7541 6.58231 12.7541 6.66071L12.7541 13.8665C12.7541 13.8709 12.754 13.8752 12.7539 13.8795Z" fill="white"/>
<path fill-rule="evenodd" clip-rule="evenodd" d="M10.1881 12.8137L6.61337 12.8137C6.27648 12.8137 6.00391 12.4783 6.00391 12.0637C6.00391 11.6491 6.27709 11.3137 6.61337 11.3137L11.5197 11.3137C11.5241 11.3137 11.5285 11.3138 11.5329 11.3139L17.4069 11.3139C17.4853 11.3139 17.5629 11.3333 17.6354 11.371C17.7078 11.4087 17.7736 11.4639 17.8291 11.5336C17.8845 11.6032 17.9285 11.6859 17.9585 11.7769C17.9885 11.8679 18.0039 11.9654 18.0039 12.0639C18.0039 12.1624 17.9885 12.2599 17.9585 12.3509C17.9285 12.4419 17.8845 12.5246 17.8291 12.5942C17.7736 12.6639 17.7078 12.7191 17.6354 12.7568C17.5629 12.7945 17.4853 12.8139 17.4069 12.8139L10.2011 12.8139C10.1968 12.8139 10.1925 12.8138 10.1881 12.8137Z" fill="white"/>
</g>
<defs>
<filter id="filter0_b_5649_38925" x="-4" y="-4" width="32" height="32" filterUnits="userSpaceOnUse" color-interpolation-filters="sRGB">
<feFlood flood-opacity="0" result="BackgroundImageFix"/>
<feGaussianBlur in="BackgroundImageFix" stdDeviation="2"/>
<feComposite in2="SourceAlpha" operator="in" result="effect1_backgroundBlur_5649_38925"/>
<feBlend mode="normal" in="SourceGraphic" in2="effect1_backgroundBlur_5649_38925" result="shape"/>
</filter>
</defs>
</svg>
