<svg width="32" height="32" viewBox="0 0 32 32" fill="none" xmlns="http://www.w3.org/2000/svg">
<path d="M29.3327 16C29.3327 16.7333 28.738 17.3267 28.006 17.3267H3.99268C3.64083 17.3267 3.30339 17.1869 3.05459 16.9381C2.80579 16.6893 2.66602 16.3519 2.66602 16C2.66602 15.6482 2.80579 15.3107 3.05459 15.0619C3.30339 14.8131 3.64083 14.6733 3.99268 14.6733H28.006C28.7393 14.6733 29.3327 15.268 29.3327 16Z" fill="white"/>
<path d="M20.9441 8.93139C20.6953 9.18019 20.3579 9.31996 20.006 9.31996H3.99268C3.81846 9.31996 3.64595 9.28564 3.48499 9.21897C3.32403 9.1523 3.17778 9.05458 3.05459 8.93139C2.93139 8.8082 2.83367 8.66194 2.767 8.50099C2.70033 8.34003 2.66602 8.16751 2.66602 7.99329C2.66602 7.81907 2.70033 7.64656 2.767 7.4856C2.83367 7.32464 2.93139 7.17839 3.05459 7.0552C3.17778 6.93201 3.32403 6.83428 3.48499 6.76761C3.64595 6.70094 3.81846 6.66663 3.99268 6.66663H20.006C20.3579 6.66663 20.6953 6.8064 20.9441 7.0552C21.1929 7.304 21.3327 7.64144 21.3327 7.99329C21.3327 8.34515 21.1929 8.68259 20.9441 8.93139Z" fill="white"/>
<path d="M11.0707 25.3334C11.5831 25.3334 11.9993 24.7401 11.9993 24.0067C11.9993 23.2734 11.584 22.6801 11.0707 22.6801H3.59468C3.34838 22.6801 3.11217 22.8198 2.93802 23.0686C2.76386 23.3174 2.66602 23.6549 2.66602 24.0067C2.66602 24.3586 2.76386 24.696 2.93802 24.9448C3.11217 25.1936 3.34838 25.3334 3.59468 25.3334H11.0707Z" fill="white"/>
</svg>
