<svg width="18" height="18" viewBox="0 0 18 18" fill="none" xmlns="http://www.w3.org/2000/svg">
<path fill-rule="evenodd" clip-rule="evenodd" d="M4.33119 4.99777C4.15428 4.99777 3.98462 5.06805 3.85953 5.19314C3.73443 5.31824 3.66415 5.4879 3.66415 5.66481V12.3352C3.66415 12.5121 3.73443 12.6818 3.85953 12.8069C3.98462 12.932 4.15428 13.0022 4.33119 13.0022H13.6697C13.8466 13.0022 14.0163 12.932 14.1414 12.8069C14.2665 12.6818 14.3368 12.5121 14.3368 12.3352V5.66481C14.3368 5.4879 14.2665 5.31824 14.1414 5.19314C14.0163 5.06805 13.8466 4.99777 13.6697 4.99777H4.33119ZM2.91619 4.24981C3.29147 3.87453 3.80046 3.6637 4.33119 3.6637H13.6697C14.2005 3.6637 14.7094 3.87453 15.0847 4.24981C15.46 4.62509 15.6708 5.13408 15.6708 5.66481V12.3352C15.6708 12.8659 15.46 13.3749 15.0847 13.7502C14.7094 14.1255 14.2005 14.3363 13.6697 14.3363H4.33119C3.80046 14.3363 3.29147 14.1255 2.91619 13.7502C2.54091 13.3749 2.33008 12.8659 2.33008 12.3352V5.66481C2.33008 5.13408 2.54091 4.62509 2.91619 4.24981Z" fill="#1B94D2"/>
<path fill-rule="evenodd" clip-rule="evenodd" d="M2.44218 5.29497C2.64653 4.98844 3.06067 4.90561 3.36719 5.10996L9.00053 8.86552L14.6339 5.10996C14.9404 4.90561 15.3545 4.98844 15.5589 5.29497C15.7632 5.60149 15.6804 6.01563 15.3739 6.21998L9.37054 10.2222C9.14648 10.3716 8.85458 10.3716 8.63052 10.2222L2.62718 6.21998C2.32066 6.01563 2.23783 5.60149 2.44218 5.29497Z" fill="#1B94D2"/>
</svg>
