<svg width="24" height="25" viewBox="0 0 24 25" fill="none" xmlns="http://www.w3.org/2000/svg">
<path d="M17.4 17.9C17.8774 17.9 18.3352 18.0896 18.6728 18.4272C19.0104 18.7648 19.2 19.2226 19.2 19.7C19.2 20.1774 19.0104 20.6352 18.6728 20.9728C18.3352 21.3104 17.8774 21.5 17.4 21.5C16.9226 21.5 16.4648 21.3104 16.1272 20.9728C15.7896 20.6352 15.6 20.1774 15.6 19.7C15.6 18.701 16.401 17.9 17.4 17.9ZM3 4.4C3 3.90294 3.40294 3.5 3.9 3.5H5.943L6.789 5.3H20.1C20.3387 5.3 20.5676 5.39482 20.7364 5.5636C20.9052 5.73239 21 5.9613 21 6.2C21 6.353 20.955 6.506 20.892 6.65L17.67 12.473C17.364 13.022 16.77 13.4 16.095 13.4H9.39L8.58 14.867L8.553 14.975C8.553 15.0347 8.5767 15.0919 8.6189 15.1341C8.6611 15.1763 8.71833 15.2 8.778 15.2H18.3C18.7971 15.2 19.2 15.6029 19.2 16.1C19.2 16.5971 18.7971 17 18.3 17H8.4C7.92261 17 7.46477 16.8104 7.12721 16.4728C6.78964 16.1352 6.6 15.6774 6.6 15.2C6.6 14.885 6.681 14.588 6.816 14.336L8.04 12.131L4.8 5.3H3.9C3.40294 5.3 3 4.89706 3 4.4ZM8.4 17.9C8.87739 17.9 9.33523 18.0896 9.67279 18.4272C10.0104 18.7648 10.2 19.2226 10.2 19.7C10.2 20.1774 10.0104 20.6352 9.67279 20.9728C9.33523 21.3104 8.87739 21.5 8.4 21.5C7.92261 21.5 7.46477 21.3104 7.12721 20.9728C6.78964 20.6352 6.6 20.1774 6.6 19.7C6.6 18.701 7.401 17.9 8.4 17.9ZM16.5 11.6L19.002 7.1H7.626L9.75 11.6H16.5Z" fill="white"/>
</svg>
