<svg width="36" height="30" viewBox="0 0 36 30" fill="none" xmlns="http://www.w3.org/2000/svg">
<g filter="url(#filter0_b_5120_22033)">
<rect width="36" height="30" rx="8" fill="url(#paint0_linear_5120_22033)" fill-opacity="0.8"/>
<rect x="0.25" y="0.25" width="35.5" height="29.5" rx="7.75" stroke="white" stroke-width="0.5"/>
<path fill-rule="evenodd" clip-rule="evenodd" d="M13.8275 13.3143C14.6614 11.2212 16.9229 10.0903 19.1186 10.6533C19.9081 10.8564 20.6274 11.2706 21.1994 11.8514C21.7714 12.4323 22.1746 13.1579 22.3656 13.9505C22.5566 14.743 22.5282 15.5726 22.2835 16.3503C22.0389 17.128 21.5871 17.8244 20.9767 18.3649C20.3664 18.9053 19.6204 19.2694 18.8188 19.4181C18.0172 19.5668 17.1903 19.4945 16.4267 19.209C15.6631 18.9234 14.9916 18.4354 14.4842 17.7972C13.9769 17.1591 13.6529 16.3948 13.5469 15.5865C13.4927 15.1732 13.1137 14.8821 12.7004 14.9363C12.2871 14.9905 11.996 15.3695 12.0502 15.7828C12.1918 16.8628 12.6248 17.8839 13.3027 18.7366C13.9805 19.5892 14.8777 20.2413 15.898 20.6228C16.9183 21.0044 18.0231 21.101 19.0941 20.9023C20.1652 20.7036 21.1619 20.2171 21.9774 19.495C22.7929 18.7729 23.3965 17.8424 23.7234 16.8033C24.0503 15.7642 24.0882 14.6558 23.833 13.5968C23.5778 12.5379 23.0392 11.5683 22.2749 10.7922C21.5105 10.0161 20.5494 9.46272 19.4944 9.19137C16.577 8.44312 13.5453 9.94413 12.4253 12.7556C12.271 13.1428 12.4598 13.5818 12.8471 13.7361C13.2343 13.8903 13.6733 13.7015 13.8275 13.3143Z" fill="white"/>
<path fill-rule="evenodd" clip-rule="evenodd" d="M12.7558 9.0022C12.339 9.0022 12.0011 9.3401 12.0011 9.75693V13.0354C12.0011 13.4523 12.339 13.7902 12.7558 13.7902L16.0343 13.7902C16.4512 13.7902 16.7891 13.4523 16.7891 13.0354C16.7891 12.6186 16.4512 12.2807 16.0343 12.2807H13.5105V9.75693C13.5105 9.3401 13.1726 9.0022 12.7558 9.0022Z" fill="white"/>
</g>
<defs>
<filter id="filter0_b_5120_22033" x="-60" y="-60" width="156" height="150" filterUnits="userSpaceOnUse" color-interpolation-filters="sRGB">
<feFlood flood-opacity="0" result="BackgroundImageFix"/>
<feGaussianBlur in="BackgroundImageFix" stdDeviation="30"/>
<feComposite in2="SourceAlpha" operator="in" result="effect1_backgroundBlur_5120_22033"/>
<feBlend mode="normal" in="SourceGraphic" in2="effect1_backgroundBlur_5120_22033" result="shape"/>
</filter>
<linearGradient id="paint0_linear_5120_22033" x1="18" y1="0" x2="18" y2="30" gradientUnits="userSpaceOnUse">
<stop stop-color="#111111" stop-opacity="0.8"/>
<stop offset="1" stop-color="#111111" stop-opacity="0.6"/>
</linearGradient>
</defs>
</svg>
