<svg width="14" height="12" viewBox="0 0 14 12" fill="none" xmlns="http://www.w3.org/2000/svg">
<path fill-rule="evenodd" clip-rule="evenodd" d="M8.06428 0.400436C8.20852 0.344436 8.37235 0.382779 8.47676 0.496976L13.2768 5.74698C13.4077 5.89024 13.4077 6.10979 13.2768 6.25305L8.47676 11.5031C8.37235 11.6173 8.20852 11.6556 8.06428 11.5996C7.92004 11.5436 7.825 11.4047 7.825 11.25V9.00258C5.19796 9.0389 3.57193 9.45649 2.6094 9.94386C1.59064 10.4597 1.375 11.0141 1.375 11.25C1.375 11.4571 1.20711 11.625 1 11.625C0.792893 11.625 0.625 11.4571 0.625 11.25C0.625 7.99135 1.87289 5.91155 3.46799 4.6554C4.89717 3.52992 6.57904 3.08537 7.825 3.01141V0.750015C7.825 0.595282 7.92004 0.456437 8.06428 0.400436ZM1.47251 9.78475C1.69244 9.6053 1.95756 9.43324 2.2706 9.27474C3.42307 8.6912 5.28857 8.25002 8.2 8.25002C8.40711 8.25002 8.575 8.41791 8.575 8.62502V10.2841L12.4919 6.00002L8.575 1.71592V3.37502C8.575 3.58212 8.40711 3.75002 8.2 3.75002C7.06723 3.75002 5.35371 4.12504 3.93201 5.24463C2.76854 6.16086 1.77844 7.59239 1.47251 9.78475Z" fill="white"/>
</svg>
