<svg width="36" height="36" viewBox="0 0 36 36" fill="none" xmlns="http://www.w3.org/2000/svg">
    <rect width="36" height="36" fill="white"/>
    <path d="M12.7588 30.0276C11.1692 30.0276 9.57523 30.0799 7.9856 30.0233C6.10419 29.9492 4.66699 28.3683 4.66699 26.4913C4.66699 20.4202 4.68006 14.3535 4.66699 8.27371C4.66699 6.19632 6.29146 4.74607 8.15981 4.69381C10.1153 4.64154 12.0751 4.68073 14.0392 4.68073C14.0741 4.68073 14.122 4.66335 14.1394 4.71996C14.1263 4.82449 14.0218 4.83755 13.9608 4.87674C12.8067 5.55179 11.7572 6.36183 10.8687 7.36351C9.40973 9.01846 8.39499 10.9129 8.05093 13.121C7.44557 17.0145 8.66065 20.3201 11.4131 23.0769C11.9009 23.5733 11.9662 23.9566 11.5742 24.6185C11.1039 25.4155 10.3853 25.9556 9.62314 26.4521C9.54039 26.5 9.46199 26.5566 9.37925 26.6089C9.2573 26.7134 9.33134 26.7656 9.43586 26.8136C9.45764 26.8658 9.48813 26.9137 9.52297 26.9573C10.1937 27.5495 10.8252 28.1854 11.4828 28.7908C11.792 29.0739 12.1012 29.3743 12.3974 29.6705C12.5193 29.7794 12.724 29.8142 12.7545 30.0276H12.7588Z" fill="#0066FF"/>
    <path d="M12.759 30.0268C12.7286 29.8221 12.5282 29.7873 12.4019 29.6653C12.1058 29.3648 11.7966 29.073 11.4873 28.7856C10.8297 28.1802 10.1939 27.5443 9.52753 26.952C9.49269 26.9041 9.46221 26.8606 9.44043 26.8083C10.9255 27.1001 12.3714 26.8998 13.7999 26.4643C14.2833 26.3205 14.7668 26.1725 15.2545 26.0506C15.5855 25.9634 15.9339 25.9809 16.2562 26.0985C19.945 27.3658 23.5903 27.2526 27.1745 25.6804C28.6335 25.0358 29.9662 24.1256 31.0985 22.9932C31.1551 22.9366 31.1987 22.8495 31.3032 22.8408C31.3555 22.9236 31.325 23.0107 31.325 23.0978V26.5035C31.338 28.4459 29.7789 30.0311 27.8322 30.0485H27.8017C25.7069 30.0616 23.612 30.0485 21.5172 30.0485H13.1075C12.9899 30.0355 12.8766 30.0312 12.759 30.0312V30.0268Z" fill="#0066FF"/>
    <path d="M13.669 17.0018C14.5488 17.0018 15.3762 16.9974 16.195 17.0018C16.6566 17.0062 16.9049 17.1978 16.9528 17.568C17.0051 18.0296 16.7394 18.3345 16.2386 18.3432C15.2978 18.3563 14.3571 18.3475 13.4164 18.3475C13.1421 18.3475 12.8764 18.3606 12.602 18.3432C12.2623 18.3258 11.9313 18.2561 11.7702 17.9077C11.609 17.5593 11.7223 17.2457 11.9444 16.9583C12.8416 15.8172 13.7431 14.6718 14.6446 13.5308C14.6968 13.4611 14.7491 13.3914 14.8014 13.3261C14.7447 13.2259 14.662 13.2738 14.5923 13.2695C13.9652 13.2651 13.3293 13.2695 12.7022 13.2651C12.5585 13.2651 12.4104 13.2477 12.271 13.2172C11.94 13.1432 11.7353 12.8078 11.8094 12.4855C11.8616 12.2634 12.0358 12.0848 12.258 12.0326C12.3973 11.9977 12.541 11.9803 12.6891 11.9803C13.7256 11.976 14.7665 11.976 15.803 11.9803C15.9903 11.976 16.1689 11.9977 16.3518 12.0457C16.7481 12.1807 16.918 12.5465 16.7612 12.9298C16.6218 13.2608 16.3997 13.5482 16.1776 13.8312C15.4154 14.8024 14.6533 15.7693 13.8911 16.7274C13.8258 16.8015 13.7692 16.8799 13.6777 17.0062L13.669 17.0018Z" fill="#0066FF"/>
    <path d="M20.4192 13.9416C20.5586 13.763 20.7023 13.5932 20.9418 13.5453C21.4035 13.4539 21.8303 13.75 21.839 14.216C21.8564 15.3788 21.852 16.546 21.839 17.7088C21.839 18.0093 21.643 18.2793 21.3556 18.3664C21.0638 18.4753 20.7328 18.3882 20.5411 18.14C20.441 18.018 20.4018 17.9963 20.2624 18.1051C19.7311 18.5363 19.1344 18.6103 18.4855 18.4012C17.449 18.0615 17.0266 17.2559 16.909 16.2716C16.787 15.2046 17.1398 14.2987 18.0979 13.7413C18.8906 13.2709 19.6919 13.3101 20.4192 13.946V13.9416ZM18.3592 16.0669C18.3723 16.3239 18.4507 16.5677 18.6031 16.7724C18.9167 17.1905 19.5177 17.2777 19.9401 16.9641C20.0098 16.9118 20.0751 16.8465 20.1318 16.7724C20.4584 16.3282 20.4584 15.6009 20.1318 15.1611C19.9706 14.9346 19.7137 14.7996 19.4393 14.7952C18.7991 14.756 18.3505 15.2481 18.3549 16.0713L18.3592 16.0669ZM24.4521 16.1018C24.4042 14.608 25.3884 13.4887 26.7864 13.4495C28.2715 13.4016 29.3516 14.3989 29.3995 15.8535C29.4474 17.3255 28.5459 18.3665 27.1522 18.5058C25.6323 18.6583 24.4303 17.5564 24.4521 16.1018ZM25.911 15.9624C25.898 16.2542 25.9851 16.5373 26.1593 16.7768C26.4772 17.1949 27.0782 17.2776 27.4963 16.951C27.5616 16.9031 27.6139 16.8465 27.6661 16.7899C28.0058 16.3456 28.0058 15.6009 27.6705 15.1611C27.5094 14.9389 27.2524 14.7996 26.978 14.7952C26.3509 14.7604 25.9067 15.2394 25.9067 15.9667L25.911 15.9624ZM23.9382 14.9433C23.9382 15.8448 23.9425 16.7463 23.9382 17.6478C23.9425 18.0616 23.6202 18.4056 23.2065 18.4143C23.1368 18.4143 23.0628 18.41 22.9931 18.3926C22.7013 18.3185 22.4792 18.0093 22.4792 17.6435V13.0183C22.4792 12.7439 22.4748 12.4783 22.4792 12.2039C22.4835 11.7553 22.771 11.4635 23.2021 11.4635C23.6464 11.4592 23.9425 11.7466 23.9425 12.2126C23.9469 13.1185 23.9425 14.0331 23.9425 14.9433H23.9382Z" fill="#0066FF"/>
    </svg>
    