<svg width="24" height="24" viewBox="0 0 24 24" fill="none" xmlns="http://www.w3.org/2000/svg">
<path d="M15.1218 5.20549C16.3223 3.99993 18.0787 3.97481 19.0507 4.95098C20.0252 5.92883 19.9993 7.69698 18.797 8.90254L16.7685 10.9394C16.6543 11.058 16.5912 11.2167 16.5929 11.3814C16.5945 11.546 16.6608 11.7034 16.7774 11.8196C16.894 11.9359 17.0516 12.0017 17.2162 12.0029C17.3808 12.0041 17.5394 11.9406 17.6576 11.826L19.687 9.78913C21.2869 8.18255 21.4878 5.61823 19.9407 4.06439C18.3918 2.50972 15.8325 2.71232 14.231 4.3189L10.1739 8.39353C8.57407 10.0001 8.37314 12.5644 9.92027 14.1174C9.97806 14.1775 10.0472 14.2255 10.1238 14.2586C10.2003 14.2916 10.2826 14.3092 10.366 14.3101C10.4493 14.311 10.5321 14.2953 10.6093 14.2639C10.6865 14.2325 10.7567 14.1861 10.8158 14.1272C10.8749 14.0684 10.9217 13.9984 10.9534 13.9214C10.9852 13.8443 11.0013 13.7616 11.0008 13.6783C11.0002 13.5949 10.9831 13.5125 10.9504 13.4358C10.9177 13.3591 10.87 13.2897 10.8102 13.2317C9.83572 12.2538 9.86251 10.4857 11.0639 9.28011L15.1218 5.20549Z" fill="white"/>
<path d="M14.0807 9.88195C13.963 9.76393 13.8032 9.6975 13.6366 9.69727C13.4699 9.69703 13.31 9.76301 13.192 9.88069C13.074 9.99837 13.0075 10.1581 13.0073 10.3248C13.0071 10.4914 13.073 10.6514 13.1907 10.7694C14.1652 11.7472 14.1393 13.5145 12.937 14.7209L8.87916 18.7947C7.67779 20.0003 5.92136 20.0254 4.94937 19.0492C3.97488 18.0714 4.00167 16.3032 5.20304 15.0977L7.2324 13.0608C7.29062 13.0023 7.33675 12.933 7.36817 12.8567C7.39959 12.7805 7.41569 12.6988 7.41553 12.6163C7.41537 12.5338 7.39897 12.4522 7.36727 12.376C7.33556 12.2999 7.28916 12.2307 7.23073 12.1725C7.17229 12.1143 7.10297 12.0682 7.0267 12.0367C6.95044 12.0053 6.86873 11.9892 6.78625 11.9894C6.70377 11.9895 6.62212 12.0059 6.54598 12.0376C6.46983 12.0694 6.40068 12.1158 6.34246 12.1742L4.31311 14.2111C2.71323 15.8185 2.5123 18.382 4.05944 19.9358C5.60824 21.4913 8.16755 21.2879 9.7691 19.6813L13.827 15.6067C15.4269 14.0009 15.6278 11.4349 14.0807 9.88195Z" fill="white"/>
</svg>
