<svg width="20" height="20" viewBox="0 0 20 20" fill="none" xmlns="http://www.w3.org/2000/svg">
<path d="M14.4104 6.77563C14.6371 7.00238 14.6768 7.32957 14.4999 7.5065L8.69575 13.3107C8.61071 13.3957 8.48593 13.434 8.34886 13.4172C8.2118 13.4005 8.07368 13.3299 7.96489 13.2211C7.8561 13.1123 7.78554 12.9742 7.76875 12.8371C7.75196 12.7001 7.79031 12.5753 7.87535 12.4903L13.6795 6.6861C13.8568 6.50885 14.184 6.5493 14.4104 6.77563Z" fill="#27AE60"/>
<path d="M8.08615 13.3135C8.26335 13.4907 8.59076 13.4512 8.81751 13.2245C9.04425 12.9977 9.08407 12.6706 8.90655 12.4931L6.32116 9.9077C6.23598 9.82253 6.11108 9.78406 5.97392 9.80076C5.83676 9.81746 5.69859 9.88796 5.5898 9.99675C5.48101 10.1055 5.41051 10.2437 5.39381 10.3809C5.37711 10.518 5.41558 10.6429 5.50076 10.7281L8.08615 13.3135Z" fill="#27AE60"/>
<path fill-rule="evenodd" clip-rule="evenodd" d="M10 16.4942C13.5866 16.4942 16.4942 13.5866 16.4942 10C16.4942 6.41338 13.5866 3.50584 10 3.50584C6.41338 3.50584 3.50584 6.41338 3.50584 10C3.50584 13.5866 6.41338 16.4942 10 16.4942ZM10 17.5C14.1421 17.5 17.5 14.1421 17.5 10C17.5 5.85786 14.1421 2.5 10 2.5C5.85786 2.5 2.5 5.85786 2.5 10C2.5 14.1421 5.85786 17.5 10 17.5Z" fill="#27AE60"/>
</svg>
