<svg width="32" height="32" viewBox="0 0 32 32" fill="none" xmlns="http://www.w3.org/2000/svg">
<path d="M10.0627 18.222L9.31898 20.9948L6.60473 21.0534C5.79368 19.5484 5.33398 17.8267 5.33398 15.9997C5.33398 14.1726 5.7644 12.5622 6.52568 11.0953L8.94127 11.5374L9.99827 13.9384C9.77575 14.5854 9.6557 15.2764 9.6557 15.9997C9.6557 16.7814 9.79624 17.5339 10.0568 18.2249L10.0627 18.222Z" fill="#FBBB00"/>
<path d="M26.4794 14.0057C26.6024 14.6498 26.6668 15.3174 26.6668 15.9967C26.6668 16.7609 26.5877 17.5046 26.4326 18.2249C25.9143 20.6698 24.5557 22.8043 22.676 24.3151L19.6338 24.1599L19.2034 21.4721C20.4507 20.7401 21.4257 19.5952 21.9381 18.2249H16.2344V14.0057H26.4794Z" fill="#518EF8"/>
<path d="M22.6772 24.3152C20.8501 25.785 18.5282 26.6634 16.0014 26.6634C11.9403 26.6634 8.40911 24.3942 6.60547 21.0534L10.0605 18.225C10.9623 20.6289 13.2813 22.3388 15.9985 22.3388C17.1667 22.3388 18.2618 22.0226 19.2017 21.4721L22.6743 24.3152H22.6772Z" fill="#28B446"/>
<path d="M22.8089 7.78959L19.3539 10.618C18.3818 10.009 17.2311 9.66058 16.0013 9.66058C13.2227 9.66058 10.8598 11.4496 10.0048 13.9413L6.5293 11.0953C8.30366 7.67247 11.8817 5.33594 16.0013 5.33594C18.5897 5.33594 20.9614 6.25826 22.8089 7.79253V7.78959Z" fill="#F14336"/>
</svg>
