<svg width="24" height="24" viewBox="0 0 24 24" fill="none" xmlns="http://www.w3.org/2000/svg">
<path fill-rule="evenodd" clip-rule="evenodd" d="M13.0039 14.506L13.0039 19.2723C13.0039 19.7215 12.5567 20.085 12.0039 20.085C11.4511 20.085 11.0039 19.7207 11.0039 19.2723V12.7306C11.0039 12.7247 11.004 12.7188 11.0041 12.7129L11.0041 4.88094C11.0041 4.77641 11.03 4.67291 11.0803 4.57633C11.1305 4.47976 11.2042 4.39201 11.297 4.3181C11.3899 4.24418 11.5001 4.18555 11.6215 4.14555C11.7428 4.10555 11.8728 4.08496 12.0041 4.08496C12.1355 4.08496 12.2655 4.10555 12.3868 4.14555C12.5082 4.18555 12.6184 4.24418 12.7112 4.3181C12.8041 4.39201 12.8778 4.47976 12.928 4.57633C12.9783 4.67291 13.0041 4.77641 13.0041 4.88094L13.0041 14.4887C13.0041 14.4945 13.0041 14.5002 13.0039 14.506Z" fill="white"/>
<path fill-rule="evenodd" clip-rule="evenodd" d="M9.58286 13.085L4.81652 13.085C4.36734 13.085 4.00391 12.6377 4.00391 12.085C4.00391 11.5322 4.36816 11.085 4.81652 11.085L11.3583 11.085C11.3642 11.085 11.3701 11.085 11.3759 11.0852L19.2079 11.0852C19.3125 11.0852 19.416 11.1111 19.5125 11.1613C19.6091 11.2116 19.6969 11.2852 19.7708 11.3781C19.8447 11.4709 19.9033 11.5812 19.9433 11.7025C19.9833 11.8238 20.0039 11.9539 20.0039 12.0852C20.0039 12.2165 19.9833 12.3466 19.9433 12.4679C19.9033 12.5892 19.8447 12.6994 19.7708 12.7923C19.6969 12.8852 19.6091 12.9588 19.5125 13.0091C19.416 13.0593 19.3125 13.0852 19.2079 13.0852L9.60015 13.0852C9.59438 13.0852 9.58862 13.0851 9.58286 13.085Z" fill="white"/>
</svg>
