<svg width="18" height="17" viewBox="0 0 18 17" fill="none" xmlns="http://www.w3.org/2000/svg">
<path fill-rule="evenodd" clip-rule="evenodd" d="M6.88434 3.14067C6.06896 4.17633 5.18005 5.7488 3.94777 7.93379L3.64304 8.47377C3.64301 8.47382 3.64307 8.47371 3.64304 8.47377C2.61655 10.2939 1.8869 11.5916 1.51568 12.5972C1.14922 13.5899 1.19999 14.1162 1.48304 14.5222C1.78491 14.9551 2.35158 15.2519 3.55543 15.4103C4.75434 15.5681 6.40695 15.5695 8.69526 15.5695H9.30474C11.5931 15.5695 13.2457 15.5681 14.4446 15.4103C15.6484 15.2519 16.2151 14.9551 16.517 14.5222C16.8 14.1162 16.8508 13.5899 16.4843 12.5972C16.1131 11.5916 15.3835 10.2941 14.3571 8.47393C14.357 8.47388 14.3571 8.47398 14.3571 8.47393L14.0523 7.93394C12.8201 5.749 11.9308 4.17636 11.1154 3.1407C10.3074 2.11461 9.67997 1.75579 9 1.75579C8.31957 1.75579 7.69212 2.11466 6.88434 3.14067ZM5.89765 2.36385C6.79502 1.22404 7.74567 0.5 9 0.5C10.2539 0.5 11.2046 1.22409 12.102 2.36382C12.9854 3.48571 13.9216 5.14572 15.1195 7.26987L15.146 7.31675L15.4828 7.91364C16.4713 9.66642 17.2521 11.0509 17.6624 12.1623C18.0818 13.2986 18.1816 14.3303 17.5471 15.2404C16.9314 16.1235 15.904 16.4848 14.6085 16.6554C13.3178 16.8253 11.5823 16.8253 9.35591 16.8252H8.64408C6.41774 16.8253 4.68219 16.8253 3.39154 16.6554C2.09595 16.4848 1.06861 16.1235 0.45291 15.2404C-0.181598 14.3303 -0.0818483 13.2986 0.337601 12.1623C0.747863 11.0509 1.52869 9.66642 2.51719 7.91366L2.8834 7.26467C4.07992 5.14305 5.01511 3.48481 5.89765 2.36385Z" fill="#F2994A"/>
<path fill-rule="evenodd" clip-rule="evenodd" d="M8.99899 4.68591C9.34576 4.68591 9.62688 4.96703 9.62688 5.31381V9.49977C9.62688 9.84654 9.34576 10.1277 8.99899 10.1277C8.65221 10.1277 8.37109 9.84654 8.37109 9.49977V5.31381C8.37109 4.96703 8.65221 4.68591 8.99899 4.68591Z" fill="#F2994A"/>
<path d="M9.00125 12.8486C9.46362 12.8486 9.83845 12.4738 9.83845 12.0114C9.83845 11.549 9.46362 11.1742 9.00125 11.1742C8.53889 11.1742 8.16406 11.549 8.16406 12.0114C8.16406 12.4738 8.53889 12.8486 9.00125 12.8486Z" fill="#F2994A"/>
</svg>
