<svg width="124" height="19" viewBox="0 0 124 19" fill="none" xmlns="http://www.w3.org/2000/svg">
<path d="M-0.0079999 18V1.2H8.2C10.312 1.2 11.896 1.6 12.952 2.4C14.024 3.2 14.56 4.256 14.56 5.568C14.56 6.448 14.344 7.216 13.912 7.872C13.48 8.512 12.888 9.008 12.136 9.36C11.384 9.712 10.52 9.888 9.544 9.888L10 8.904C11.056 8.904 11.992 9.08 12.808 9.432C13.624 9.768 14.256 10.272 14.704 10.944C15.168 11.616 15.4 12.44 15.4 13.416C15.4 14.856 14.832 15.984 13.696 16.8C12.56 17.6 10.888 18 8.68 18H-0.0079999ZM3.856 15.072H8.392C9.4 15.072 10.16 14.912 10.672 14.592C11.2 14.256 11.464 13.728 11.464 13.008C11.464 12.304 11.2 11.784 10.672 11.448C10.16 11.096 9.4 10.92 8.392 10.92H3.568V8.088H7.72C8.664 8.088 9.384 7.928 9.88 7.608C10.392 7.272 10.648 6.768 10.648 6.096C10.648 5.44 10.392 4.952 9.88 4.632C9.384 4.296 8.664 4.128 7.72 4.128H3.856V15.072ZM25.8076 18.288C23.4236 18.288 21.5596 17.624 20.2156 16.296C18.8716 14.968 18.1996 13.072 18.1996 10.608V1.2H22.0876V10.464C22.0876 12.064 22.4156 13.216 23.0716 13.92C23.7276 14.624 24.6476 14.976 25.8316 14.976C27.0156 14.976 27.9356 14.624 28.5916 13.92C29.2476 13.216 29.5756 12.064 29.5756 10.464V1.2H33.4156V10.608C33.4156 13.072 32.7436 14.968 31.3996 16.296C30.0556 17.624 28.1916 18.288 25.8076 18.288ZM42.7776 18.288C41.4336 18.288 40.1456 18.112 38.9136 17.76C37.6816 17.392 36.6896 16.92 35.9376 16.344L37.2576 13.416C37.9776 13.928 38.8256 14.352 39.8016 14.688C40.7936 15.008 41.7936 15.168 42.8016 15.168C43.5696 15.168 44.1856 15.096 44.6496 14.952C45.1296 14.792 45.4816 14.576 45.7056 14.304C45.9296 14.032 46.0416 13.72 46.0416 13.368C46.0416 12.92 45.8656 12.568 45.5136 12.312C45.1616 12.04 44.6976 11.824 44.1216 11.664C43.5456 11.488 42.9056 11.328 42.2016 11.184C41.5136 11.024 40.8176 10.832 40.1136 10.608C39.4256 10.384 38.7936 10.096 38.2176 9.744C37.6416 9.392 37.1696 8.928 36.8016 8.352C36.4496 7.776 36.2736 7.04 36.2736 6.144C36.2736 5.184 36.5296 4.312 37.0416 3.528C37.5696 2.728 38.3536 2.096 39.3936 1.632C40.4496 1.152 41.7696 0.912 43.3536 0.912C44.4096 0.912 45.4496 1.04 46.4736 1.296C47.4976 1.536 48.4016 1.904 49.1856 2.4L47.9856 5.352C47.2016 4.904 46.4176 4.576 45.6336 4.368C44.8496 4.144 44.0816 4.032 43.3296 4.032C42.5776 4.032 41.9616 4.12 41.4816 4.296C41.0016 4.472 40.6576 4.704 40.4496 4.992C40.2416 5.264 40.1376 5.584 40.1376 5.952C40.1376 6.384 40.3136 6.736 40.6656 7.008C41.0176 7.264 41.4816 7.472 42.0576 7.632C42.6336 7.792 43.2656 7.952 43.9536 8.112C44.6576 8.272 45.3536 8.456 46.0416 8.664C46.7456 8.872 47.3856 9.152 47.9616 9.504C48.5376 9.856 49.0016 10.32 49.3536 10.896C49.7216 11.472 49.9056 12.2 49.9056 13.08C49.9056 14.024 49.6416 14.888 49.1136 15.672C48.5856 16.456 47.7936 17.088 46.7376 17.568C45.6976 18.048 44.3776 18.288 42.7776 18.288ZM52.5623 18V1.2H56.4503V18H52.5623ZM60.4373 18V1.2H63.6533L73.5653 13.296H72.0053V1.2H75.8453V18H72.6533L62.7173 5.904H64.2773V18H60.4373ZM83.3961 7.968H91.4841V10.992H83.3961V7.968ZM83.6841 14.88H92.8281V18H79.8201V1.2H92.5161V4.32H83.6841V14.88ZM101.442 18.288C100.098 18.288 98.8097 18.112 97.5777 17.76C96.3457 17.392 95.3537 16.92 94.6017 16.344L95.9217 13.416C96.6417 13.928 97.4897 14.352 98.4657 14.688C99.4577 15.008 100.458 15.168 101.466 15.168C102.234 15.168 102.85 15.096 103.314 14.952C103.794 14.792 104.146 14.576 104.37 14.304C104.594 14.032 104.706 13.72 104.706 13.368C104.706 12.92 104.53 12.568 104.178 12.312C103.826 12.04 103.362 11.824 102.786 11.664C102.21 11.488 101.57 11.328 100.866 11.184C100.178 11.024 99.4817 10.832 98.7777 10.608C98.0897 10.384 97.4577 10.096 96.8817 9.744C96.3057 9.392 95.8337 8.928 95.4657 8.352C95.1137 7.776 94.9377 7.04 94.9377 6.144C94.9377 5.184 95.1937 4.312 95.7057 3.528C96.2337 2.728 97.0177 2.096 98.0577 1.632C99.1137 1.152 100.434 0.912 102.018 0.912C103.074 0.912 104.114 1.04 105.138 1.296C106.162 1.536 107.066 1.904 107.85 2.4L106.65 5.352C105.866 4.904 105.082 4.576 104.298 4.368C103.514 4.144 102.746 4.032 101.994 4.032C101.242 4.032 100.626 4.12 100.146 4.296C99.6657 4.472 99.3217 4.704 99.1137 4.992C98.9057 5.264 98.8017 5.584 98.8017 5.952C98.8017 6.384 98.9777 6.736 99.3297 7.008C99.6817 7.264 100.146 7.472 100.722 7.632C101.298 7.792 101.93 7.952 102.618 8.112C103.322 8.272 104.018 8.456 104.706 8.664C105.41 8.872 106.05 9.152 106.626 9.504C107.202 9.856 107.666 10.32 108.018 10.896C108.386 11.472 108.57 12.2 108.57 13.08C108.57 14.024 108.306 14.888 107.778 15.672C107.25 16.456 106.458 17.088 105.402 17.568C104.362 18.048 103.042 18.288 101.442 18.288ZM116.746 18.288C115.402 18.288 114.114 18.112 112.882 17.76C111.65 17.392 110.658 16.92 109.906 16.344L111.226 13.416C111.946 13.928 112.794 14.352 113.77 14.688C114.762 15.008 115.762 15.168 116.77 15.168C117.538 15.168 118.154 15.096 118.618 14.952C119.098 14.792 119.45 14.576 119.674 14.304C119.898 14.032 120.01 13.72 120.01 13.368C120.01 12.92 119.834 12.568 119.482 12.312C119.13 12.04 118.666 11.824 118.09 11.664C117.514 11.488 116.874 11.328 116.17 11.184C115.482 11.024 114.786 10.832 114.082 10.608C113.394 10.384 112.762 10.096 112.186 9.744C111.61 9.392 111.138 8.928 110.77 8.352C110.418 7.776 110.242 7.04 110.242 6.144C110.242 5.184 110.498 4.312 111.01 3.528C111.538 2.728 112.322 2.096 113.362 1.632C114.418 1.152 115.738 0.912 117.322 0.912C118.378 0.912 119.418 1.04 120.442 1.296C121.466 1.536 122.37 1.904 123.154 2.4L121.954 5.352C121.17 4.904 120.386 4.576 119.602 4.368C118.818 4.144 118.05 4.032 117.298 4.032C116.546 4.032 115.93 4.12 115.45 4.296C114.97 4.472 114.626 4.704 114.418 4.992C114.21 5.264 114.106 5.584 114.106 5.952C114.106 6.384 114.282 6.736 114.634 7.008C114.986 7.264 115.45 7.472 116.026 7.632C116.602 7.792 117.234 7.952 117.922 8.112C118.626 8.272 119.322 8.456 120.01 8.664C120.714 8.872 121.354 9.152 121.93 9.504C122.506 9.856 122.97 10.32 123.322 10.896C123.69 11.472 123.874 12.2 123.874 13.08C123.874 14.024 123.61 14.888 123.082 15.672C122.554 16.456 121.762 17.088 120.706 17.568C119.666 18.048 118.346 18.288 116.746 18.288Z" fill="url(#paint0_linear_8640_35194)"/>
<defs>
<linearGradient id="paint0_linear_8640_35194" x1="6.00278" y1="-12.7535" x2="20.507" y2="66.8014" gradientUnits="userSpaceOnUse">
<stop stop-color="#0062FF"/>
<stop offset="0.19" stop-color="#1D8AFF"/>
<stop offset="0.46" stop-color="#41BCFF"/>
<stop offset="0.69" stop-color="#5CE0FF"/>
<stop offset="0.88" stop-color="#6CF6FF"/>
<stop offset="1" stop-color="#72FFFF"/>
</linearGradient>
</defs>
</svg>
