<svg width="24" height="24" viewBox="0 0 24 24" fill="none" xmlns="http://www.w3.org/2000/svg">
<path d="M12.1066 18.8023H11.875C9.68235 18.8023 7.82169 18.0355 6.29301 16.5017C4.76434 14.968 4 13.1011 4 10.9012C4 8.70124 4.76434 6.83439 6.29301 5.30064C7.82169 3.76688 9.68235 3 11.875 3C12.9713 3 13.9945 3.20512 14.9444 3.61536C15.8943 4.0256 16.7282 4.59108 17.4459 5.31179C18.1636 6.0325 18.7269 6.8691 19.1357 7.82157C19.5446 8.77405 19.7494 9.80059 19.75 10.9012C19.75 12.9772 19.1669 14.906 18.0008 16.6876C16.8347 18.4693 15.3641 19.8636 13.589 20.8706C13.4346 20.9481 13.2801 20.9908 13.1257 20.9989C12.9713 21.0069 12.8324 20.9719 12.7088 20.8938C12.5853 20.8164 12.4772 20.7157 12.3846 20.5917C12.2919 20.4678 12.2379 20.3206 12.2224 20.1502L12.1066 18.8023ZM14.1912 18.1981C15.2875 17.2686 16.1794 16.1801 16.8668 14.9326C17.5543 13.6852 17.8977 12.3414 17.8971 10.9012C17.8971 9.21249 17.314 7.78346 16.1479 6.61409C14.9818 5.44472 13.5575 4.85972 11.875 4.8591C10.1919 4.8591 8.76762 5.4441 7.60212 6.61409C6.43662 7.78408 5.85356 9.21311 5.85294 10.9012C5.85294 12.5899 6.436 14.0189 7.60212 15.1883C8.76824 16.3576 10.1925 16.9426 11.875 16.9432H14.1912V18.1981ZM11.8518 15.9905C12.1143 15.9905 12.3382 15.8975 12.5235 15.7116C12.7088 15.5257 12.8015 15.301 12.8015 15.0377C12.8015 14.7743 12.7088 14.5497 12.5235 14.3637C12.3382 14.1778 12.1143 14.0849 11.8518 14.0849C11.5893 14.0849 11.3654 14.1778 11.1801 14.3637C10.9949 14.5497 10.9022 14.7743 10.9022 15.0377C10.9022 15.301 10.9949 15.5257 11.1801 15.7116C11.3654 15.8975 11.5893 15.9905 11.8518 15.9905ZM9.83676 8.92588C10.0066 9.00334 10.1765 9.00737 10.3463 8.93796C10.5162 8.86856 10.6551 8.75608 10.7632 8.60054C10.9022 8.41463 11.0643 8.27117 11.2496 8.17016C11.4349 8.06914 11.6434 8.01895 11.875 8.01957C12.2456 8.01957 12.5467 8.12399 12.7783 8.33283C13.0099 8.54167 13.1257 8.80907 13.1257 9.13503C13.1257 9.33643 13.0677 9.53783 12.9516 9.73923C12.8354 9.94064 12.631 10.1885 12.3382 10.4829C11.9522 10.8237 11.6665 11.1453 11.4812 11.4477C11.296 11.7502 11.2033 12.056 11.2033 12.3652C11.2033 12.5511 11.2691 12.7101 11.4006 12.8421C11.5322 12.9741 11.6903 13.0398 11.875 13.0391C12.0603 13.0391 12.2147 12.9694 12.3382 12.83C12.4618 12.6906 12.5544 12.5279 12.6162 12.342C12.6934 12.0786 12.8324 11.8385 13.0331 11.6216C13.2338 11.4047 13.4191 11.211 13.589 11.0406C13.9132 10.7153 14.1566 10.3899 14.319 10.0646C14.4815 9.73924 14.5624 9.41389 14.5618 9.08855C14.5618 8.3759 14.3184 7.80267 13.8317 7.36888C13.345 6.93509 12.6928 6.7182 11.875 6.7182C11.3809 6.7182 10.9254 6.83842 10.5085 7.07886C10.0915 7.31931 9.75184 7.64837 9.48934 8.06605C9.39669 8.23646 9.38496 8.40285 9.45413 8.56521C9.52331 8.72757 9.65085 8.8478 9.83676 8.92588Z" fill="white"/>
</svg>
