<svg width="24" height="24" viewBox="0 0 24 24" fill="none" xmlns="http://www.w3.org/2000/svg">
<path d="M17.2913 8.13071C17.5634 8.40281 17.611 8.79543 17.3987 9.00775L10.4337 15.9727C10.3317 16.0748 10.1819 16.1208 10.0175 16.1006C9.85299 16.0805 9.68724 15.9958 9.55669 15.8653C9.42614 15.7347 9.34148 15.569 9.32133 15.4045C9.30118 15.24 9.34719 15.0903 9.44925 14.9883L16.4142 8.02327C16.6269 7.81057 17.0197 7.85911 17.2913 8.13071Z" fill="#27AE60"/>
<path d="M9.7026 15.9762C9.91524 16.1889 10.3081 16.1415 10.5802 15.8694C10.8523 15.5973 10.9001 15.2048 10.6871 14.9918L7.58461 11.8893C7.4824 11.7871 7.33251 11.7409 7.16792 11.761C7.00334 11.781 6.83753 11.8656 6.70698 11.9961C6.57643 12.1267 6.49183 12.2925 6.47179 12.4571C6.45175 12.6217 6.49792 12.7716 6.60013 12.8738L9.7026 15.9762Z" fill="#27AE60"/>
<path fill-rule="evenodd" clip-rule="evenodd" d="M12 19.793C16.3039 19.793 19.793 16.3039 19.793 12C19.793 7.69605 16.3039 4.20701 12 4.20701C7.69605 4.20701 4.20701 7.69605 4.20701 12C4.20701 16.3039 7.69605 19.793 12 19.793ZM12 21C16.9706 21 21 16.9706 21 12C21 7.02944 16.9706 3 12 3C7.02944 3 3 7.02944 3 12C3 16.9706 7.02944 21 12 21Z" fill="#27AE60"/>
</svg>
