<svg width="24" height="25" viewBox="0 0 24 25" fill="none" xmlns="http://www.w3.org/2000/svg">
<path d="M19.0703 5.42899C19.4592 5.8179 19.4585 6.44793 19.0703 6.83613L6.33532 19.5711C6.14872 19.7577 5.89564 19.8626 5.63175 19.8626C5.36786 19.8626 5.11478 19.7577 4.92818 19.5711C4.74158 19.3845 4.63675 19.1314 4.63675 18.8676C4.63675 18.6037 4.74158 18.3506 4.92818 18.164L17.6632 5.42899C18.0521 5.04008 18.6821 5.04079 19.0703 5.42899Z" fill="white"/>
<path d="M14.1252 15.6198C13.8613 15.6198 13.6082 15.515 13.4216 15.3284L4.92924 6.83606C4.83685 6.74366 4.76356 6.63397 4.71355 6.51325C4.66355 6.39254 4.63781 6.26315 4.63781 6.13248C4.63781 6.00182 4.66355 5.87243 4.71355 5.75171C4.76356 5.631 4.83685 5.52131 4.92924 5.42891C5.02164 5.33652 5.13132 5.26323 5.25204 5.21322C5.37276 5.16322 5.50215 5.13748 5.63281 5.13748C5.76348 5.13748 5.89286 5.16322 6.01358 5.21322C6.1343 5.26323 6.24399 5.33652 6.33638 5.42891L14.8287 13.9213C15.0153 14.1079 15.1202 14.3609 15.1202 14.6248C15.1202 14.8887 15.0153 15.1418 14.8287 15.3284C14.6421 15.515 14.3891 15.6198 14.1252 15.6198Z" fill="white"/>
<path d="M17.8743 19.7821C18.1461 20.0539 18.6815 19.96 19.0704 19.571C19.4593 19.1821 19.5537 18.6472 19.2815 18.375L15.3167 14.4102C15.1861 14.2796 14.9867 14.2285 14.7624 14.268C14.5381 14.3076 14.3072 14.4347 14.1206 14.6213C13.934 14.8079 13.807 15.0387 13.7674 15.263C13.7278 15.4874 13.779 15.6867 13.9096 15.8174L17.8743 19.7821Z" fill="white"/>
</svg>
