<svg width="24" height="24" viewBox="0 0 24 24" fill="none" xmlns="http://www.w3.org/2000/svg">
<rect width="24" height="24" rx="3" fill="url(#paint0_linear_4808_20743)" fill-opacity="0.8"/>
<path d="M8.1084 9.375H6.6C6.12261 9.375 5.66477 9.55937 5.32721 9.88756C4.98964 10.2158 4.8 10.6609 4.8 11.125V15.5C4.8 15.9641 4.98964 16.4092 5.32721 16.7374C5.66477 17.0656 6.12261 17.25 6.6 17.25H17.4C17.8774 17.25 18.3352 17.0656 18.6728 16.7374C19.0104 16.4092 19.2 15.9641 19.2 15.5V11.125C19.2 10.6609 19.0104 10.2158 18.6728 9.88756C18.3352 9.55937 17.8774 9.375 17.4 9.375H15.8916L15.5433 8.06163C15.4431 7.68621 15.2175 7.35376 14.902 7.11639C14.5865 6.87902 14.1989 6.75015 13.8 6.75H10.2C9.80099 6.74985 9.41324 6.8786 9.09768 7.11602C8.78212 7.35344 8.55665 7.68607 8.4567 8.06163L8.1084 9.375ZM6.7134 7.625C7.113 6.11563 8.5224 5 10.2 5H13.8C14.5982 5.0001 15.3737 5.25797 16.0048 5.7331C16.6359 6.20823 17.0868 6.87371 17.2866 7.625H17.4C18.3548 7.625 19.2705 7.99375 19.9456 8.65013C20.6207 9.3065 21 10.1967 21 11.125V15.5C21 16.4283 20.6207 17.3185 19.9456 17.9749C19.2705 18.6313 18.3548 19 17.4 19H6.6C5.64522 19 4.72955 18.6313 4.05442 17.9749C3.37928 17.3185 3 16.4283 3 15.5V11.125C3 10.1967 3.37928 9.3065 4.05442 8.65013C4.72955 7.99375 5.64522 7.625 6.6 7.625H6.7134ZM12 16.375C11.0452 16.375 10.1295 16.0063 9.45442 15.3499C8.77928 14.6935 8.4 13.8033 8.4 12.875C8.4 11.9467 8.77928 11.0565 9.45442 10.4001C10.1295 9.74375 11.0452 9.375 12 9.375C12.9548 9.375 13.8705 9.74375 14.5456 10.4001C15.2207 11.0565 15.6 11.9467 15.6 12.875C15.6 13.8033 15.2207 14.6935 14.5456 15.3499C13.8705 16.0063 12.9548 16.375 12 16.375ZM12 14.625C12.4774 14.625 12.9352 14.4406 13.2728 14.1124C13.6104 13.7842 13.8 13.3391 13.8 12.875C13.8 12.4109 13.6104 11.9658 13.2728 11.6376C12.9352 11.3094 12.4774 11.125 12 11.125C11.5226 11.125 11.0648 11.3094 10.7272 11.6376C10.3896 11.9658 10.2 12.4109 10.2 12.875C10.2 13.3391 10.3896 13.7842 10.7272 14.1124C11.0648 14.4406 11.5226 14.625 12 14.625ZM17.4 12C17.6387 12 17.8676 11.9078 18.0364 11.7437C18.2052 11.5796 18.3 11.3571 18.3 11.125C18.3 10.8929 18.2052 10.6704 18.0364 10.5063C17.8676 10.3422 17.6387 10.25 17.4 10.25C17.1613 10.25 16.9324 10.3422 16.7636 10.5063C16.5948 10.6704 16.5 10.8929 16.5 11.125C16.5 11.3571 16.5948 11.5796 16.7636 11.7437C16.9324 11.9078 17.1613 12 17.4 12Z" fill="#1B94D2"/>
<defs>
<linearGradient id="paint0_linear_4808_20743" x1="12" y1="0" x2="12" y2="24" gradientUnits="userSpaceOnUse">
<stop stop-color="#0B121C" stop-opacity="0.8"/>
<stop offset="1" stop-color="#040E1D" stop-opacity="0.6"/>
</linearGradient>
</defs>
</svg>
