<svg width="24" height="24" viewBox="0 0 24 24" fill="none" xmlns="http://www.w3.org/2000/svg">
<path d="M8.21499 5.34901C8.14631 5.27268 8.09263 5.18288 8.05699 5.08476C8.02136 4.98663 8.00447 4.8821 8.0073 4.77712C8.01012 4.67214 8.03261 4.56877 8.07347 4.47292C8.11433 4.37706 8.17276 4.2906 8.24544 4.21847C8.31811 4.14634 8.40359 4.08995 8.49702 4.05252C8.59044 4.01509 8.68996 3.99735 8.78991 4.00032C8.88985 4.00329 8.98827 4.02691 9.07952 4.06983C9.17078 4.11274 9.25309 4.17412 9.32177 4.25045L15.7919 11.4462C15.9256 11.5947 16 11.7912 16 11.9955C16 12.1998 15.9256 12.3963 15.7919 12.5448L9.32177 19.7414C9.25355 19.8194 9.17125 19.8824 9.07966 19.9267C8.98806 19.971 8.889 19.9957 8.78822 19.9995C8.68745 20.0033 8.58696 19.9859 8.4926 19.9486C8.39825 19.9112 8.3119 19.8545 8.23859 19.7818C8.16527 19.7091 8.10644 19.6218 8.06551 19.525C8.02458 19.4282 8.00238 19.3238 8.00018 19.2179C7.99798 19.112 8.01584 19.0067 8.05272 18.9081C8.08959 18.8095 8.14475 18.7196 8.21499 18.6436L14.1919 11.9955L8.21499 5.34901Z" fill="white"/>
</svg>
