<svg width="24" height="24" viewBox="0 0 24 24" fill="white" xmlns="http://www.w3.org/2000/svg">
<path fill-rule="evenodd" clip-rule="evenodd" d="M5.77411 6.66353C5.53823 6.66353 5.31201 6.75724 5.14522 6.92403C4.97843 7.09082 4.88473 7.31704 4.88473 7.55292V16.4468C4.88473 16.6826 4.97843 16.9089 5.14522 17.0757C5.31201 17.2424 5.53823 17.3361 5.77411 17.3361H18.2255C18.4614 17.3361 18.6876 17.2424 18.8544 17.0757C19.0212 16.9089 19.1149 16.6826 19.1149 16.4468V7.55292C19.1149 7.31704 19.0212 7.09082 18.8544 6.92403C18.6876 6.75724 18.4614 6.66353 18.2255 6.66353H5.77411ZM3.88744 5.66625C4.38782 5.16587 5.06647 4.88477 5.77411 4.88477H18.2255C18.9331 4.88477 19.6118 5.16587 20.1122 5.66625C20.6125 6.16662 20.8936 6.84528 20.8936 7.55292V16.4468C20.8936 17.1544 20.6125 17.8331 20.1122 18.3334C19.6118 18.8338 18.9331 19.1149 18.2255 19.1149H5.77411C5.06647 19.1149 4.38782 18.8338 3.88744 18.3334C3.38707 17.8331 3.10596 17.1544 3.10596 16.4468V7.55292C3.10596 6.84528 3.38706 6.16663 3.88744 5.66625Z" />
<path fill-rule="evenodd" clip-rule="evenodd" d="M3.25542 7.0602C3.52789 6.6515 4.08008 6.54106 4.48878 6.81353L11.9999 11.8209L19.511 6.81353C19.9197 6.54106 20.4719 6.6515 20.7444 7.0602C21.0168 7.4689 20.9064 8.02109 20.4977 8.29355L12.4932 13.6299C12.1945 13.829 11.8053 13.829 11.5066 13.6299L3.50209 8.29355C3.0934 8.02109 2.98296 7.4689 3.25542 7.0602Z" />
</svg>
