<svg width="24" height="24" viewBox="0 0 24 24" fill="white" xmlns="http://www.w3.org/2000/svg">
<path fill-rule="evenodd" clip-rule="evenodd" d="M7.81395 3C8.16074 3 8.44186 3.28782 8.44186 3.64286V4.29662C8.99613 4.2857 9.60677 4.28571 10.2783 4.28571H13.7217C14.3932 4.28571 15.0039 4.2857 15.5581 4.29662V3.64286C15.5581 3.28782 15.8393 3 16.186 3C16.5328 3 16.814 3.28782 16.814 3.64286V4.35182C17.0316 4.36881 17.2376 4.39017 17.4326 4.41702C18.414 4.55216 19.2084 4.83686 19.8347 5.47838C20.4616 6.11963 20.7397 6.93309 20.8717 7.93802C21 8.9145 21 10.1622 21 11.7373V13.5484C21 15.1235 21 16.3712 20.8717 17.3477C20.7398 18.3524 20.4617 19.1658 19.835 19.807C19.1361 20.5236 18.2279 20.7951 17.0843 20.9095C16.7392 20.944 16.432 20.6856 16.3983 20.3322C16.3646 19.9789 16.6171 19.6644 16.9622 19.6299C17.9952 19.5266 18.5521 19.3028 18.9465 18.8983C19.3009 18.5359 19.5138 18.0387 19.6271 17.1763C19.7428 16.2955 19.7442 15.1343 19.7442 13.5V11.7857C19.7442 11.0537 19.7439 10.4166 19.7332 9.85714H19.9535C20.3003 9.85714 20.5814 9.56933 20.5814 9.21429C20.5814 8.85925 20.3003 8.57143 19.9535 8.57143H19.6758C19.6624 8.40913 19.6463 8.25542 19.6271 8.10941C19.5138 7.24706 19.3014 6.75037 18.9471 6.38791C18.593 6.02513 18.1075 5.80725 17.2652 5.69126C16.4049 5.57279 15.2707 5.57143 13.6744 5.57143H10.3256C8.72927 5.57143 7.59511 5.57279 6.73477 5.69126C5.89247 5.80725 5.40734 6.02474 5.0533 6.38752C4.69896 6.74998 4.48615 7.24706 4.37286 8.1094C4.35368 8.25542 4.33764 8.40913 4.32423 8.57143H3.62791C3.35765 8.57143 3.12728 8.74623 3.03876 8.99143C3.05776 8.60962 3.08607 8.25916 3.12825 7.93802C3.26026 6.93317 3.53839 6.11976 4.16516 5.47854C4.16508 5.47861 4.16523 5.47846 4.16516 5.47854C4.79143 4.83702 5.586 4.55216 6.56737 4.41702C6.76237 4.39017 6.96844 4.36881 7.18605 4.35182V3.64286C7.18605 3.28782 7.46717 3 7.81395 3ZM3.02262 9.38589C3.00788 9.33126 3 9.27372 3 9.21429C3 9.13594 3.01369 9.06086 3.03876 8.99143C3.03239 9.11937 3.02707 9.25084 3.02262 9.38589ZM4.16493 19.8069C4.79126 20.4487 5.58581 20.7335 6.56737 20.8687C7.52114 21 8.73985 21 10.2783 21H13.6744C14.0212 21 14.3023 20.7122 14.3023 20.3571C14.3023 20.0021 14.0212 19.7143 13.6744 19.7143H10.3256C8.72927 19.7143 7.59511 19.7129 6.73477 19.5945C5.89247 19.4785 5.40734 19.261 5.0533 18.8982C4.69896 18.5357 4.48615 18.0387 4.37286 17.1763C4.25715 16.2955 4.25581 15.1343 4.25581 13.5V11.7857C4.25581 11.0537 4.25608 10.4166 4.26677 9.85714H6.87209C7.21888 9.85714 7.5 9.56933 7.5 9.21429C7.5 8.85925 7.21888 8.57143 6.87209 8.57143H4.32423C4.29298 8.94968 4.276 9.37455 4.26677 9.85714H3.62791C3.33917 9.85714 3.09596 9.65762 3.02262 9.38589C2.99999 10.0733 2.99999 10.8538 3 11.7373V13.5484C2.99999 15.1235 2.99998 16.3712 3.12825 17.3477C3.26025 18.3524 3.53833 19.1658 4.16493 19.8069ZM4.16493 19.8069C4.1648 19.8068 4.16506 19.8071 4.16493 19.8069V19.8069ZM19.6758 8.57143H10.9535C10.6067 8.57143 10.3256 8.85925 10.3256 9.21429C10.3256 9.56933 10.6067 9.85714 10.9535 9.85714H19.7332C19.724 9.37455 19.707 8.94968 19.6758 8.57143Z" />
<path d="M17 16.1667C17 16.3877 16.9122 16.5996 16.7559 16.7559C16.5996 16.9122 16.3877 17 16.1667 17C15.9457 17 15.7337 16.9122 15.5774 16.7559C15.4211 16.5996 15.3333 16.3877 15.3333 16.1667C15.3333 15.9457 15.4211 15.7337 15.5774 15.5774C15.7337 15.4211 15.9457 15.3333 16.1667 15.3333C16.3877 15.3333 16.5996 15.4211 16.7559 15.5774C16.9122 15.7337 17 15.9457 17 16.1667ZM17 12.8333C17 13.0543 16.9122 13.2663 16.7559 13.4226C16.5996 13.5789 16.3877 13.6667 16.1667 13.6667C15.9457 13.6667 15.7337 13.5789 15.5774 13.4226C15.4211 13.2663 15.3333 13.0543 15.3333 12.8333C15.3333 12.6123 15.4211 12.4004 15.5774 12.2441C15.7337 12.0878 15.9457 12 16.1667 12C16.3877 12 16.5996 12.0878 16.7559 12.2441C16.9122 12.4004 17 12.6123 17 12.8333ZM12.8333 16.1667C12.8333 16.3877 12.7455 16.5996 12.5893 16.7559C12.433 16.9122 12.221 17 12 17C11.779 17 11.567 16.9122 11.4107 16.7559C11.2545 16.5996 11.1667 16.3877 11.1667 16.1667C11.1667 15.9457 11.2545 15.7337 11.4107 15.5774C11.567 15.4211 11.779 15.3333 12 15.3333C12.221 15.3333 12.433 15.4211 12.5893 15.5774C12.7455 15.7337 12.8333 15.9457 12.8333 16.1667ZM12.8333 12.8333C12.8333 13.0543 12.7455 13.2663 12.5893 13.4226C12.433 13.5789 12.221 13.6667 12 13.6667C11.779 13.6667 11.567 13.5789 11.4107 13.4226C11.2545 13.2663 11.1667 13.0543 11.1667 12.8333C11.1667 12.6123 11.2545 12.4004 11.4107 12.2441C11.567 12.0878 11.779 12 12 12C12.221 12 12.433 12.0878 12.5893 12.2441C12.7455 12.4004 12.8333 12.6123 12.8333 12.8333ZM8.66667 16.1667C8.66667 16.3877 8.57887 16.5996 8.42259 16.7559C8.26631 16.9122 8.05435 17 7.83333 17C7.61232 17 7.40036 16.9122 7.24408 16.7559C7.0878 16.5996 7 16.3877 7 16.1667C7 15.9457 7.0878 15.7337 7.24408 15.5774C7.40036 15.4211 7.61232 15.3333 7.83333 15.3333C8.05435 15.3333 8.26631 15.4211 8.42259 15.5774C8.57887 15.7337 8.66667 15.9457 8.66667 16.1667ZM8.66667 12.8333C8.66667 13.0543 8.57887 13.2663 8.42259 13.4226C8.26631 13.5789 8.05435 13.6667 7.83333 13.6667C7.61232 13.6667 7.40036 13.5789 7.24408 13.4226C7.0878 13.2663 7 13.0543 7 12.8333C7 12.6123 7.0878 12.4004 7.24408 12.2441C7.40036 12.0878 7.61232 12 7.83333 12C8.05435 12 8.26631 12.0878 8.42259 12.2441C8.57887 12.4004 8.66667 12.6123 8.66667 12.8333Z" />
</svg>
