<svg width="32" height="32" viewBox="0 0 32 32" fill="none" xmlns="http://www.w3.org/2000/svg">
<path d="M25.429 6.57191C25.9476 7.09045 25.9466 7.93049 25.429 8.4481L8.44905 25.4281C8.20025 25.6769 7.86281 25.8167 7.51096 25.8167C7.1591 25.8167 6.82166 25.6769 6.57286 25.4281C6.32406 25.1793 6.18429 24.8418 6.18429 24.49C6.18429 24.1381 6.32406 23.8007 6.57286 23.5519L23.5529 6.57191C24.0714 6.05336 24.9114 6.0543 25.429 6.57191Z" fill="white"/>
<path d="M18.8329 20.1598C18.481 20.1598 18.1436 20.02 17.8948 19.7712L6.57167 8.4481C6.44848 8.32491 6.35076 8.17866 6.28409 8.0177C6.21741 7.85674 6.1831 7.68423 6.1831 7.51001C6.1831 7.33579 6.21741 7.16327 6.28409 7.00232C6.35076 6.84136 6.44848 6.69511 6.57167 6.57191C6.69486 6.44872 6.84111 6.351 7.00207 6.28433C7.16303 6.21766 7.33555 6.18334 7.50977 6.18334C7.68399 6.18334 7.8565 6.21766 8.01746 6.28433C8.17842 6.351 8.32467 6.44872 8.44786 6.57191L19.771 17.895C20.0198 18.1438 20.1596 18.4813 20.1596 18.8331C20.1596 19.185 20.0198 19.5224 19.771 19.7712C19.5222 20.02 19.1848 20.1598 18.8329 20.1598Z" fill="white"/>
<path d="M23.8344 25.7095C24.1967 26.0718 24.9106 25.9466 25.4291 25.428C25.9477 24.9095 26.0736 24.1963 25.7106 23.8333L20.4242 18.547C20.2501 18.3728 19.9842 18.3046 19.6852 18.3574C19.3861 18.4102 19.0783 18.5796 18.8295 18.8284C18.5807 19.0772 18.4113 19.385 18.3585 19.684C18.3057 19.9831 18.3739 20.249 18.5481 20.4231L23.8344 25.7095Z" fill="white"/>
</svg>
