<svg width="24" height="24" viewBox="0 0 24 24" fill="none" xmlns="http://www.w3.org/2000/svg">
<rect width="24" height="24" rx="8" fill="url(#paint0_linear_5552_73101)" fill-opacity="0.8"/>
<path d="M13.898 3.67188C14.2476 3.67197 14.5883 3.78204 14.8718 3.98652C15.1554 4.19099 15.3674 4.4795 15.4779 4.81116L15.9301 6.17031H18.6617C18.8826 6.17031 19.0944 6.25806 19.2506 6.41424C19.4068 6.57042 19.4945 6.78225 19.4945 7.00312C19.4945 7.224 19.4068 7.43583 19.2506 7.59201C19.0944 7.74819 18.8826 7.83594 18.6617 7.83594L18.6592 7.89507L17.9372 18.0079C17.8921 18.638 17.61 19.2277 17.1477 19.6582C16.6854 20.0887 16.0771 20.328 15.4454 20.3281H8.55304C7.92132 20.328 7.31307 20.0887 6.85074 19.6582C6.38842 19.2277 6.10633 18.638 6.06127 18.0079L5.33922 7.89423C5.33771 7.87484 5.33688 7.85539 5.33672 7.83594C5.11584 7.83594 4.90401 7.74819 4.74783 7.59201C4.59165 7.43583 4.50391 7.224 4.50391 7.00312C4.50391 6.78225 4.59165 6.57042 4.74783 6.41424C4.90401 6.25806 5.11584 6.17031 5.33672 6.17031H8.06834L8.52056 4.81116C8.63107 4.47936 8.84322 4.19076 9.12693 3.98627C9.41064 3.78179 9.75152 3.67179 10.1012 3.67188H13.898ZM16.9936 7.83594H7.00484L7.72273 17.8888C7.73768 18.0989 7.83164 18.2954 7.9857 18.439C8.13975 18.5825 8.34247 18.6624 8.55304 18.6625H15.4454C15.656 18.6624 15.8587 18.5825 16.0127 18.439C16.1668 18.2954 16.2608 18.0989 16.2757 17.8888L16.9936 7.83594ZM10.3336 10.3344C10.5376 10.3344 10.7345 10.4093 10.8869 10.5448C11.0393 10.6804 11.1367 10.8672 11.1606 11.0697L11.1664 11.1672V15.3313C11.1662 15.5435 11.0849 15.7477 10.9392 15.902C10.7935 16.0564 10.5943 16.1493 10.3824 16.1617C10.1705 16.1741 9.96184 16.1052 9.79907 15.969C9.63629 15.8327 9.53168 15.6395 9.50661 15.4287L9.50078 15.3313V11.1672C9.50078 10.9463 9.58852 10.7345 9.74471 10.5783C9.90089 10.4221 10.1127 10.3344 10.3336 10.3344ZM13.6648 10.3344C13.8857 10.3344 14.0975 10.4221 14.2537 10.5783C14.4099 10.7345 14.4977 10.9463 14.4977 11.1672V15.3313C14.4977 15.5521 14.4099 15.764 14.2537 15.9201C14.0975 16.0763 13.8857 16.1641 13.6648 16.1641C13.444 16.1641 13.2321 16.0763 13.076 15.9201C12.9198 15.764 12.832 15.5521 12.832 15.3313V11.1672C12.832 10.9463 12.9198 10.7345 13.076 10.5783C13.2321 10.4221 13.444 10.3344 13.6648 10.3344ZM13.898 5.3375H10.1004L9.82308 6.17031H14.1754L13.898 5.3375Z" fill="#EB5757"/>
<defs>
<linearGradient id="paint0_linear_5552_73101" x1="12" y1="0" x2="12" y2="24" gradientUnits="userSpaceOnUse">
<stop stop-color="#111111" stop-opacity="0.8"/>
<stop offset="1" stop-color="#111111" stop-opacity="0.6"/>
</linearGradient>
</defs>
</svg>
