<svg width="24" height="24" viewBox="0 0 24 24" fill="white" xmlns="http://www.w3.org/2000/svg">
<path fill-rule="evenodd" clip-rule="evenodd" d="M6.53554 8.87407C7.279 6.90022 9.16029 5 12 5C15.0602 5 17.6269 7.2308 18.1813 10.782C18.9774 10.9031 19.8166 11.2098 20.5095 11.7493C21.3771 12.4249 22 13.4579 22 14.8636C22 16.2428 21.4878 17.3087 20.6168 18.0147C19.7662 18.7043 18.6372 19 17.4688 19H7.3125C4.44729 19 2 16.9419 2 13.9091C2 12.3715 2.5805 11.1463 3.5124 10.2808C4.33511 9.51677 5.40532 9.05586 6.53554 8.87407ZM12 6.27273C9.63832 6.27273 8.10498 7.94491 7.59788 9.63997C7.52439 9.8856 7.31313 10.0622 7.06219 10.0878C5.99493 10.1964 5.03657 10.588 4.35478 11.2211C3.68513 11.8431 3.25 12.7258 3.25 13.9091C3.25 16.1263 5.02146 17.7273 7.3125 17.7273H17.4688C18.4487 17.7273 19.2729 17.4773 19.8383 17.019C20.3833 16.5772 20.75 15.8931 20.75 14.8636C20.75 13.8902 20.3377 13.2177 19.7502 12.7603C19.1426 12.2872 18.3337 12.0385 17.5925 11.9991C17.284 11.9828 17.0336 11.7395 17.0031 11.4265C16.6841 8.15535 14.4965 6.27273 12 6.27273Z" />
</svg>
