<svg width="24" height="24" viewBox="0 0 24 24" fill="none" xmlns="http://www.w3.org/2000/svg">
<path d="M5.34901 8.21499C5.27268 8.14631 5.18288 8.09263 5.08476 8.05699C4.98663 8.02135 4.8821 8.00447 4.77712 8.0073C4.67214 8.01012 4.56877 8.03261 4.47292 8.07347C4.37706 8.11433 4.2906 8.17276 4.21847 8.24544C4.14634 8.31811 4.08995 8.40359 4.05252 8.49701C4.01509 8.59044 3.99735 8.68996 4.00032 8.78991C4.00329 8.88985 4.02691 8.98826 4.06983 9.07952C4.11274 9.17078 4.17412 9.25309 4.25045 9.32177L11.4462 15.7919C11.5947 15.9256 11.7912 16 11.9955 16C12.1998 16 12.3963 15.9256 12.5448 15.7919L19.7414 9.32177C19.8194 9.25355 19.8824 9.17125 19.9267 9.07966C19.971 8.98806 19.9957 8.889 19.9995 8.78822C20.0033 8.68745 19.9859 8.58696 19.9486 8.4926C19.9112 8.39825 19.8545 8.3119 19.7818 8.23859C19.7091 8.16527 19.6218 8.10644 19.525 8.06551C19.4282 8.02458 19.3238 8.00238 19.2179 8.00018C19.112 7.99798 19.0067 8.01584 18.9081 8.05272C18.8095 8.08959 18.7196 8.14475 18.6436 8.21499L11.9955 14.1919L5.34901 8.21499Z" fill="white"/>
</svg>
