<svg width="24" height="25" viewBox="0 0 24 25" fill="none" xmlns="http://www.w3.org/2000/svg">
<path fill-rule="evenodd" clip-rule="evenodd" d="M12.1109 20.5001C11.1291 20.5001 10.3331 19.7042 10.3331 18.7223V13.389C10.3331 12.4071 11.1291 11.6112 12.1109 11.6112C13.0927 11.6112 13.8887 12.4071 13.8887 13.389V18.7223C13.8887 19.7042 13.0927 20.5001 12.1109 20.5001Z" fill="white"/>
<path fill-rule="evenodd" clip-rule="evenodd" d="M17.4449 20.5C16.463 20.5 15.6671 19.7041 15.6671 18.7222V6.27778C15.6671 5.29594 16.463 4.5 17.4449 4.5C18.4267 4.5 19.2227 5.29594 19.2227 6.27778V18.7222C19.2227 19.7041 18.4267 20.5 17.4449 20.5Z" fill="white"/>
<circle cx="6.77778" cy="18.7226" r="1.77778" fill="white"/>
</svg>
