<svg width="24" height="24" viewBox="0 0 24 24" fill="white" xmlns="http://www.w3.org/2000/svg">
<path fill-rule="evenodd" clip-rule="evenodd" d="M10.4008 14.3993C8.19164 14.3993 6.40078 16.1902 6.40078 18.3993V19.1993C6.40078 19.6411 6.04261 19.9993 5.60078 19.9993C5.15895 19.9993 4.80078 19.6411 4.80078 19.1993V18.3993C4.80078 15.3065 7.30798 12.7993 10.4008 12.7993H13.6008C16.6936 12.7993 19.2008 15.3065 19.2008 18.3993V19.1993C19.2008 19.6411 18.8426 19.9993 18.4008 19.9993C17.959 19.9993 17.6008 19.6411 17.6008 19.1993V18.3993C17.6008 16.1902 15.8099 14.3993 13.6008 14.3993H10.4008Z" />
<path fill-rule="evenodd" clip-rule="evenodd" d="M12 5.59976C10.6745 5.59976 9.6 6.67427 9.6 7.99976C9.6 9.32524 10.6745 10.3998 12 10.3998C13.3255 10.3998 14.4 9.32523 14.4 7.99976C14.4 6.67428 13.3255 5.59976 12 5.59976ZM8 7.99976C8 5.79062 9.79086 3.99976 12 3.99976C14.2091 3.99976 16 5.79061 16 7.99976C16 10.2089 14.2091 11.9998 12 11.9998C9.79086 11.9998 8 10.2089 8 7.99976Z" />
</svg>
