<svg width="24" height="24" viewBox="0 0 24 24" fill="none" xmlns="http://www.w3.org/2000/svg">
<path d="M11.9997 4.6206C10.4954 4.6206 9.05267 5.21819 7.98895 6.28192C6.92523 7.34564 6.32763 8.78836 6.32763 10.2927C6.32763 12.6118 7.77158 14.849 9.35653 16.5822C10.1674 17.4647 11.0516 18.2769 11.9997 19.0099C12.9478 18.2774 13.8321 17.4658 14.6429 16.5839C16.2279 14.849 17.6718 12.6126 17.6718 10.2927C17.6718 8.78836 17.0742 7.34564 16.0105 6.28192C14.9468 5.21819 13.5041 4.6206 11.9997 4.6206ZM11.9997 21L11.5403 20.684L11.5379 20.6824L11.533 20.6783L11.5168 20.667L11.456 20.624C11.1205 20.3801 10.7924 20.1261 10.4723 19.8623C9.65178 19.1883 8.87931 18.4578 8.16053 17.6761C6.50428 15.8643 4.70703 13.2398 4.70703 10.2927C4.70703 8.35855 5.47537 6.50363 6.84301 5.13598C8.21066 3.76834 10.0656 3 11.9997 3C13.9339 3 15.7888 3.76834 17.1564 5.13598C18.5241 6.50363 19.2924 8.35855 19.2924 10.2927C19.2924 13.2398 17.4952 15.8651 15.8389 17.6761C14.9005 18.6969 13.8709 19.6299 12.763 20.4636C12.6707 20.5326 12.5775 20.6004 12.4835 20.667L12.4665 20.6783L12.4616 20.6824L12.46 20.6832L11.9997 20.9992V21ZM11.9997 8.6721C11.5699 8.6721 11.1577 8.84284 10.8538 9.14676C10.5499 9.45068 10.3791 9.86289 10.3791 10.2927C10.3791 10.7225 10.5499 11.1347 10.8538 11.4386C11.1577 11.7426 11.5699 11.9133 11.9997 11.9133C12.4295 11.9133 12.8417 11.7426 13.1457 11.4386C13.4496 11.1347 13.6203 10.7225 13.6203 10.2927C13.6203 9.86289 13.4496 9.45068 13.1457 9.14676C12.8417 8.84284 12.4295 8.6721 11.9997 8.6721ZM8.75853 10.2927C8.75853 9.43308 9.10001 8.60867 9.70786 8.00082C10.3157 7.39298 11.1401 7.0515 11.9997 7.0515C12.8593 7.0515 13.6838 7.39298 14.2916 8.00082C14.8994 8.60867 15.2409 9.43308 15.2409 10.2927C15.2409 11.1523 14.8994 11.9767 14.2916 12.5846C13.6838 13.1924 12.8593 13.5339 11.9997 13.5339C11.1401 13.5339 10.3157 13.1924 9.70786 12.5846C9.10001 11.9767 8.75853 11.1523 8.75853 10.2927Z" fill="white"/>
</svg>
