<svg width="24" height="24" viewBox="0 0 24 24" fill="none" xmlns="http://www.w3.org/2000/svg">
<path d="M20.7502 19.4825L17.4126 16.17C18.7082 14.5537 19.3356 12.5021 19.1658 10.4372C18.996 8.37227 18.0421 6.45088 16.5 5.06813C14.9579 3.68538 12.945 2.94636 10.8751 3.00303C8.80515 3.05971 6.83561 3.90777 5.37142 5.37283C3.90723 6.83789 3.05967 8.8086 3.00303 10.8797C2.94639 12.9509 3.68497 14.965 5.0669 16.508C6.44883 18.051 8.36908 19.0056 10.4328 19.1754C12.4965 19.3453 14.5468 18.7175 16.1622 17.4212L19.4727 20.7337C19.5564 20.8181 19.6559 20.8851 19.7655 20.9308C19.8751 20.9765 19.9927 21 20.1115 21C20.2302 21 20.3478 20.9765 20.4574 20.9308C20.5671 20.8851 20.6666 20.8181 20.7502 20.7337C20.9123 20.5659 21.003 20.3416 21.003 20.1081C21.003 19.8747 20.9123 19.6504 20.7502 19.4825ZM11.1153 17.4212C9.86984 17.4212 8.65232 17.0516 7.61674 16.3593C6.58115 15.6669 5.77401 14.6828 5.29738 13.5315C4.82076 12.3801 4.69605 11.1132 4.93903 9.89088C5.18201 8.6686 5.78177 7.54586 6.66247 6.66464C7.54316 5.78343 8.66523 5.18331 9.88679 4.94018C11.1083 4.69706 12.3745 4.82184 13.5252 5.29875C14.6759 5.77566 15.6594 6.58328 16.3513 7.61948C17.0433 8.65568 17.4126 9.87392 17.4126 11.1202C17.4126 12.7913 16.7492 14.394 15.5682 15.5757C14.3872 16.7573 12.7855 17.4212 11.1153 17.4212Z" fill="white"/>
</svg>
